<svg width="184" height="247" xmlns="http://www.w3.org/2000/svg">
  <g fill-rule="nonzero" fill="#FFF">
    <path d="M18.158 147v26.988c0 .841-.287 1.547-.862 2.116-.603.597-1.315.896-2.137.896H3.04c-.849 0-1.561-.299-2.136-.896C.3 175.534 0 174.83 0 173.988V147h6.04v24.016h6.08V147h6.038zm11.573 24.016V147h-6.04v30H41.85v-5.984H29.73zM65.54 147H47.384v5.984h6.04V177h6.08v-24.016h6.039V147zm5.534 0h6.04v30h-6.04v-30zm41.85 2.972V177h-6.04v-24.016h-6.08V177h-6.038v-24.016h-6.08V177h-6.04v-27.028c0-.815.302-1.52.904-2.117.575-.57 1.287-.855 2.136-.855h9.08c.849 0 1.56.285 2.136.855.602.597.904 1.302.904 2.117 0-.815.287-1.52.862-2.117a3.005 3.005 0 0 1 2.137-.855h9.12c.822 0 1.534.285 2.136.855.575.597.863 1.302.863 2.117zM136.617 177h-6.04v-12.008h-6.08V177h-6.039v-27.028c0-.815.302-1.52.904-2.117.575-.57 1.287-.855 2.136-.855h12.12c.821 0 1.533.285 2.136.855.575.597.863 1.302.863 2.117V177zm-6.04-17.992v-6.024h-6.08v6.024h6.08zM160.309 147H142.15v5.984h6.04V177h6.08v-24.016h6.038V147zM184 152.984V147h-18.158v30H184v-5.984h-12.12v-6.024h9.121v-5.984h-9.12v-6.024H184zM32.44 198.349v21.614c0 1.515-.513 2.809-1.54 3.884-1.077 1.025-2.35 1.538-3.817 1.538H10.789V247H0v-54h27.083c1.467 0 2.74.513 3.816 1.539 1.028 1.074 1.541 2.344 1.541 3.81zM10.79 214.615h10.862V203.77H10.79v10.844zM43.303 193h10.789v54h-10.79v-54zm21.651 0v10.77h19.743c-3.278 5.423-9.859 16.242-19.743 32.46V247h32.44v-10.77H77.651c4.404-7.23 10.985-18.05 19.743-32.46V193h-32.44zm43.303 0v10.77H128c-3.278 5.423-9.86 16.242-19.743 32.46V247h32.44v-10.77h-19.743c4.404-7.23 10.985-18.05 19.743-32.46V193h-32.44zM184 247h-10.789v-21.615h-10.862V247h-10.79v-48.651c0-1.466.539-2.736 1.615-3.81 1.028-1.026 2.3-1.539 3.817-1.539h21.651c1.468 0 2.74.513 3.817 1.539 1.027 1.074 1.541 2.344 1.541 3.81V247zm-10.789-32.385V203.77h-10.862v10.844h10.862zM91.574 9.39c13.752 0 27.2 3.42 39.18 9.93l-3.304 5.32c-.154-.066-.31-.126-.463-.19-.317-.133-.634-.263-.95-.394a88.12 88.12 0 0 0-3.646-1.396c-.318-.114-.636-.229-.956-.34-.464-.16-.93-.314-1.397-.468-.308-.1-.614-.203-.922-.3a80.497 80.497 0 0 0-1.518-.462c-.27-.08-.54-.164-.81-.241-.663-.191-1.327-.37-1.992-.546-.118-.03-.235-.064-.354-.094a89.664 89.664 0 0 0-2.366-.576c-.229-.052-.458-.097-.688-.148a87.58 87.58 0 0 0-1.69-.36c-.3-.06-.602-.116-.903-.173a82.011 82.011 0 0 0-1.494-.274c-.326-.056-.652-.108-.978-.161a87.353 87.353 0 0 0-6.338-.797c-.336-.03-.672-.062-1.01-.087-.497-.04-.998-.073-1.499-.105-.32-.02-.639-.042-.959-.058-.55-.03-1.102-.05-1.654-.068-.271-.011-.542-.024-.812-.031a92.98 92.98 0 0 0-5.033.002c-.277.007-.554.022-.832.032-.57.02-1.142.042-1.711.072-.33.017-.657.041-.986.062a98.76 98.76 0 0 0-1.546.111c-.347.028-.692.061-1.039.093-.497.047-.993.095-1.488.149a89.21 89.21 0 0 0-3.56.461c-.492.073-.982.152-1.471.234-.34.056-.678.112-1.016.172-.506.09-1.01.187-1.516.287-.318.062-.635.121-.95.187-.553.114-1.102.237-1.651.361-.265.06-.532.116-.797.18-.792.186-1.581.384-2.368.591l-.059.015c-.809.215-1.615.443-2.418.681-.248.073-.494.153-.741.229-.552.169-1.104.338-1.653.518-.302.1-.602.204-.903.305a88.9 88.9 0 0 0-1.477.51c-.32.115-.639.234-.959.352a85.774 85.774 0 0 0-3.755 1.485c-.324.138-.648.275-.971.416-.184.08-.37.155-.553.237l-3.328-5.175C63.53 13.023 77.366 9.389 91.574 9.389zm-.07 73.12L59.75 33.124c.44-.187.881-.368 1.323-.547.163-.064.324-.132.486-.197a82.76 82.76 0 0 1 2.077-.786c.166-.06.334-.116.5-.175.529-.189 1.06-.372 1.592-.55.251-.084.504-.162.756-.244a73.797 73.797 0 0 1 3.506-1.04c.28-.076.56-.152.842-.226.45-.117.9-.228 1.353-.337.267-.065.534-.132.802-.194.51-.118 1.021-.228 1.533-.336.21-.042.417-.091.627-.134a79.189 79.189 0 0 1 2.172-.41c.122-.02.244-.039.365-.06a75.11 75.11 0 0 1 1.822-.288c.254-.04.51-.07.763-.104.481-.067.962-.13 1.443-.188.286-.034.573-.064.861-.096A87.523 87.523 0 0 1 84.827 27a92.19 92.19 0 0 1 1.392-.098c.285-.02.569-.038.854-.053a76.405 76.405 0 0 1 1.517-.064c.244-.009.486-.021.73-.028a83.825 83.825 0 0 1 4.44-.001c.232.006.465.017.699.025a66.163 66.163 0 0 1 2.302.11c.454.028.907.059 1.36.093l.847.07a111.698 111.698 0 0 1 2.164.22c.487.056.972.118 1.457.183.228.03.457.058.685.09.683.098 1.365.203 2.046.317l.08.012c.708.12 1.415.25 2.119.389.213.042.426.09.639.133.489.1.978.202 1.465.311.257.058.513.119.77.18.445.105.89.212 1.333.323.266.068.532.135.797.207.44.115.878.236 1.314.36.259.072.518.143.775.22a74.3 74.3 0 0 1 1.39.422c.223.07.447.135.668.207.623.202 1.244.409 1.862.625.06.02.118.038.177.06.678.238 1.352.486 2.024.741.206.08.409.162.615.243.36.14.72.283 1.078.43L91.505 82.51zm-3.888 11.332A4.701 4.701 0 0 0 91.574 96h.036a4.7 4.7 0 0 0 3.96-2.22l45.722-73.611a4.689 4.689 0 0 0-1.513-6.462C125.326 4.739 108.658 0 91.574 0 73.98 0 56.893 5.002 42.159 14.465a4.69 4.69 0 0 0-1.413 6.483l46.87 72.894z"/>
    <path d="M168.384 123.61c-.017-.1-.037-.2-.055-.3-.054-.306-.113-.614-.17-.92-.08-.43-.161-.86-.247-1.287-.065-.319-.132-.635-.199-.95a87.026 87.026 0 0 0-.806-3.451c-.079-.31-.157-.62-.24-.928a75.42 75.42 0 0 0-.353-1.282c-.082-.291-.16-.583-.246-.872-.139-.476-.285-.948-.43-1.418-.074-.24-.145-.48-.22-.717a99.681 99.681 0 0 0-.693-2.085c-.067-.19-.138-.378-.205-.566-.18-.512-.361-1.02-.551-1.528-.103-.275-.21-.548-.316-.821-.161-.42-.323-.84-.49-1.255-.12-.296-.242-.59-.364-.883a93.515 93.515 0 0 0-.493-1.173c-.13-.3-.263-.6-.395-.9a97.245 97.245 0 0 0-.931-2.035c-.18-.38-.364-.759-.55-1.138a86.542 86.542 0 0 0-.427-.866c-.198-.39-.399-.778-.601-1.167-.14-.269-.28-.54-.423-.807-.232-.438-.472-.87-.712-1.303-.12-.215-.236-.431-.356-.644a90.506 90.506 0 0 0-1.1-1.892c-.112-.188-.23-.374-.344-.561a95.157 95.157 0 0 0-.82-1.334c-.158-.25-.321-.497-.481-.745-.242-.375-.484-.75-.73-1.122-.176-.263-.356-.525-.534-.788a93.902 93.902 0 0 0-1.29-1.848 95.71 95.71 0 0 0-1.326-1.803c-.26-.345-.522-.684-.785-1.026-.193-.247-.384-.494-.58-.74-.283-.356-.57-.71-.859-1.061-.182-.225-.362-.45-.547-.671a95.27 95.27 0 0 0-1.054-1.235c-.13-.154-.261-.31-.394-.462a95.969 95.969 0 0 0-1.482-1.651c-.142-.154-.286-.304-.429-.457-.367-.394-.734-.784-1.108-1.172-.196-.204-.396-.403-.594-.606-.327-.331-.653-.663-.985-.99a66.307 66.307 0 0 0-.66-.638c-.319-.311-.641-.62-.966-.924-.228-.214-.457-.425-.687-.638-.327-.3-.656-.6-.988-.895-.231-.208-.463-.412-.697-.618a127.17 127.17 0 0 0-1.716-1.466 78.472 78.472 0 0 0-1.141-.93c-.205-.165-.407-.333-.612-.495-.052-.04-.104-.085-.155-.126l3.822-6.146c20.669 14.465 33.372 37.23 34.784 62.336h-5.069zm-68.478 0l29.94-48.147.269.22a82.625 82.625 0 0 1 2.47 2.091c.036.031.07.065.106.096a84.793 84.793 0 0 1 2.329 2.154c.121.117.245.232.366.35a80.168 80.168 0 0 1 2.619 2.665 82.023 82.023 0 0 1 2.137 2.354c.07.079.136.16.206.24a81.88 81.88 0 0 1 1.982 2.387c.077.095.155.189.23.285a80.507 80.507 0 0 1 1.919 2.523l.337.464a80.764 80.764 0 0 1 1.798 2.592l.233.356a82.17 82.17 0 0 1 1.687 2.672l.09.147c.552.92 1.083 1.853 1.6 2.794.086.159.173.314.258.473.499.922.978 1.85 1.44 2.789.075.153.147.306.221.456a82.546 82.546 0 0 1 2.604 5.976c.062.158.125.314.184.472.374.974.726 1.957 1.062 2.946l.181.543c.333 1.01.653 2.028.948 3.05.024.084.045.167.068.249.283.991.544 1.99.787 2.992l.11.439a79.24 79.24 0 0 1 .663 3.068l.058.304H99.906zm-75.714 0l.058-.304c.202-1.028.421-2.05.664-3.068.035-.146.073-.293.109-.439.244-1.002.504-2 .787-2.992.023-.082.044-.165.068-.249.295-1.022.616-2.04.949-3.05l.18-.543c.336-.99.688-1.972 1.062-2.948l.182-.468a82.253 82.253 0 0 1 2.606-5.978c.074-.15.146-.303.22-.456a84.39 84.39 0 0 1 1.441-2.789c.085-.159.172-.314.258-.473a84.633 84.633 0 0 1 1.6-2.794l.09-.147a82.173 82.173 0 0 1 1.687-2.672l.233-.356a82.415 82.415 0 0 1 1.798-2.592l.337-.464a80.507 80.507 0 0 1 1.919-2.523c.075-.096.154-.19.229-.285a83.708 83.708 0 0 1 1.985-2.388c.069-.08.135-.16.204-.239a81.885 81.885 0 0 1 2.546-2.787 80.167 80.167 0 0 1 2.21-2.232c.12-.118.245-.233.366-.35.763-.731 1.538-1.45 2.329-2.154.036-.03.07-.065.106-.096a82.626 82.626 0 0 1 2.47-2.092l.27-.22 29.94 48.148H24.191zm-5.725-14.742c-.062.177-.128.35-.19.527-.24.694-.471 1.393-.694 2.093-.074.23-.144.466-.216.698-.148.478-.296.955-.436 1.436-.083.286-.161.574-.242.86-.123.43-.243.863-.358 1.295-.081.305-.158.612-.236.919a85.494 85.494 0 0 0-1.256 5.703c-.056.301-.114.605-.168.907-.017.102-.038.203-.055.304h-5.07c1.413-25.105 14.116-47.87 34.785-62.336l3.822 6.146-.155.126c-.206.163-.408.33-.613.496-.382.307-.762.615-1.138.928-.23.19-.457.385-.684.578-.346.295-.692.59-1.034.889-.234.206-.466.41-.697.618-.332.296-.66.594-.988.895-.23.213-.459.424-.686.638-.326.304-.647.613-.967.924-.22.211-.442.424-.66.639-.332.326-.658.658-.984.99-.199.202-.399.4-.594.605-.376.389-.746.783-1.114 1.178-.14.151-.284.297-.423.45-.5.545-.995 1.096-1.483 1.652-.133.152-.262.308-.394.462-.354.41-.706.82-1.054 1.235-.185.22-.364.446-.546.669-.29.353-.578.707-.86 1.064a96.757 96.757 0 0 0-1.944 2.54c-.252.342-.5.685-.747 1.028-.188.264-.377.528-.562.794a94 94 0 0 0-.728 1.054c-.178.263-.357.525-.533.787-.247.373-.49.748-.733 1.124-.159.248-.32.495-.478.744-.279.443-.552.89-.823 1.337-.114.186-.23.371-.342.557-.373.626-.74 1.257-1.1 1.894-.12.21-.234.424-.353.637-.24.435-.481.87-.716 1.31-.143.266-.28.534-.419.802-.204.39-.406.78-.605 1.174a49.17 49.17 0 0 0-.424.862 74.995 74.995 0 0 0-.965 2.028 98.776 98.776 0 0 0-.91 2.043c-.17.392-.335.787-.498 1.182-.12.29-.242.581-.36.874-.169.42-.332.844-.495 1.266-.104.27-.21.54-.312.81-.194.519-.381 1.041-.565 1.565zm121.239-58.16a4.72 4.72 0 0 0-3.557-.585 4.71 4.71 0 0 0-2.928 2.097L91.5 119.312 49.779 52.22a4.708 4.708 0 0 0-2.927-2.097 4.724 4.724 0 0 0-3.558.584C16.184 67.51 0 96.517 0 128.305A4.703 4.703 0 0 0 4.708 133h173.584c2.6 0 4.708-2.103 4.708-4.696 0-31.786-16.185-60.794-43.294-77.597z"/>
    <path d="M98.79 57.417a4.407 4.407 0 0 1-4.285 3.474 4.396 4.396 0 0 1-4.298-5.308 4.41 4.41 0 0 1 4.286-3.474c.307 0 .618.032.923.098a4.36 4.36 0 0 1 2.766 1.906 4.36 4.36 0 0 1 .609 3.304zm-2.516-9.229A8.544 8.544 0 0 0 94.493 48c-3.979 0-7.472 2.827-8.305 6.724-.977 4.584 1.954 9.108 6.535 10.088a8.551 8.551 0 0 0 1.782.188c3.98 0 7.472-2.828 8.304-6.725a8.441 8.441 0 0 0-1.178-6.397 8.438 8.438 0 0 0-5.357-3.69zM82.44 37.1a4.499 4.499 0 1 0-1.882 8.8 4.499 4.499 0 0 0 1.882-8.8M101.857 32.144a6.557 6.557 0 0 0-1.362-.144c-3.042 0-5.712 2.164-6.351 5.143A6.508 6.508 0 0 0 100.505 45c3.043 0 5.714-2.163 6.35-5.143a6.506 6.506 0 0 0-4.998-7.713M133.638 96.965a4.397 4.397 0 0 1-4.139 2.925 4.393 4.393 0 0 1-4.138-5.854 4.399 4.399 0 0 1 4.138-2.925 4.393 4.393 0 0 1 4.139 5.855zm-1.3-9.474a8.468 8.468 0 0 0-2.839-.491 8.516 8.516 0 0 0-8.011 5.665c-1.564 4.416.757 9.281 5.174 10.846a8.515 8.515 0 0 0 2.837.489 8.516 8.516 0 0 0 8.013-5.663c1.564-4.417-.757-9.282-5.174-10.846zM142 108.259a4.5 4.5 0 1 0-3 8.484 4.5 4.5 0 0 0 3-8.484M123.67 106.374a6.478 6.478 0 0 0-2.17-.374 6.508 6.508 0 0 0-6.124 4.33 6.457 6.457 0 0 0 .26 4.968 6.454 6.454 0 0 0 3.696 3.329c.7.247 1.43.373 2.168.373a6.507 6.507 0 0 0 6.124-4.33 6.463 6.463 0 0 0-.26-4.968 6.455 6.455 0 0 0-3.694-3.328M56.843 103.83a8.444 8.444 0 0 0-4.351 4.832 8.443 8.443 0 0 0 .34 6.496A8.538 8.538 0 0 0 60.505 120c1.27 0 2.5-.278 3.652-.83a8.432 8.432 0 0 0 4.351-4.833 8.446 8.446 0 0 0-.34-6.497 8.539 8.539 0 0 0-7.672-4.84c-1.27 0-2.5.28-3.653.83M38.564 103.44a4.499 4.499 0 1 0 3.871 8.121 4.499 4.499 0 0 0-3.871-8.122M52.176 92.678a2.445 2.445 0 0 1 1.262-1.404c.336-.16.692-.24 1.059-.24.947 0 1.82.55 2.23 1.404a2.45 2.45 0 0 1 .098 1.884 2.446 2.446 0 0 1-1.263 1.404 2.423 2.423 0 0 1-1.058.242 2.479 2.479 0 0 1-2.23-1.406 2.445 2.445 0 0 1-.098-1.884zm-3.8-1.348a6.459 6.459 0 0 0 .26 4.967A6.529 6.529 0 0 0 54.505 100c.971 0 1.911-.214 2.793-.635a6.455 6.455 0 0 0 3.327-3.695c.58-1.637.486-3.4-.26-4.967A6.529 6.529 0 0 0 54.497 87c-.972 0-1.912.214-2.794.635a6.46 6.46 0 0 0-3.328 3.695z"/>
  </g>
</svg>
