<svg width="225" height="159" xmlns="http://www.w3.org/2000/svg">
  <g fill-rule="nonzero" fill="none">
    <path d="M3.121 142.561c2.026 2.997 3.395 4.884 4.105 5.66.455.5.977 1 1.568 1.5 1.237 1.037 2.764 2.069 4.583 3.096.345.2.696.391 1.05.573.582.309 1.168.6 1.759.873a37.149 37.149 0 0 0 5.278 2.019c.318.1.632.191.941.273 2.491.673 4.578.896 6.26.668 1.846-.236 4.642-1.514 8.388-3.833 2.846-1.764 6.238-4.128 10.175-7.092a274.703 274.703 0 0 0 8.934-6.997l3.792-3.164c4.383-2.01 9.447-3.01 15.194-3.001 1.137 0 2.246.041 3.328.123 2.609.2 5.046.627 7.311 1.282l.314.068c.045.018.095.036.15.055l.409.123a125.801 125.801 0 0 0 10.734 2.687c.9.182 1.81.359 2.728.532 4.646.837 9.456 1.464 14.43 1.882a177.374 177.374 0 0 0 14.212.573c6.183 0 12.157-.296 17.922-.887 2.982-.318 5.91-.709 8.784-1.173 6.865-1.128 13.421-2.714 19.667-4.76 7.229-2.382 14.035-5.378 20.418-8.988 6.192-3.501 11.384-7.242 15.576-11.225.409-.382.805-.768 1.187-1.159 3.273-3.301 5.878-6.76 7.815-10.379a36.189 36.189 0 0 0 1.814-3.928 35.206 35.206 0 0 0 1.487-4.76c.455-1.982.741-4.001.859-6.056a584.41 584.41 0 0 1 .041-1.146v-.082c.009-.5.009-.996 0-1.487l-5.224-23.323-1.35 12.561L3.121 142.561z" fill-opacity=".247" fill="#010101"/>
    <path d="M219.831 67.888a5.512 5.512 0 0 1-.014.287 36.291 36.291 0 0 1-.682 5.824 34.104 34.104 0 0 1-1.691 5.728 37.546 37.546 0 0 1-1.8 3.901c0 .009-.005.018-.014.027v12.384a36.277 36.277 0 0 0 1.814-3.928 35.206 35.206 0 0 0 1.487-4.76c.455-1.982.741-4.001.859-6.056a519.466 519.466 0 0 1 .041-1.146v-.082c.009-.5.009-.996 0-1.487V67.888zM8.876 134.569a6.778 6.778 0 0 1-.286-.164c-1.646-.946-3.037-1.891-4.174-2.837l-.122 12.302c1.237 1.037 2.764 2.069 4.583 3.096.346.2.696.391 1.05.573.582.309 1.168.6 1.759.873l-.095-12.439a40.47 40.47 0 0 1-2.715-1.404zm25.055-55.047a30.243 30.243 0 0 1-.873-3.301.453.453 0 0 1-.014-.109 33.213 33.213 0 0 1-.641-5.142l-.027 11.661c-.009.2-.014.405-.014.614v.191c.009 3.992.696 7.82 2.059 11.484a34.754 34.754 0 0 0 2.728 5.701c.336.573.696 1.146 1.077 1.719.364.546.746 1.091 1.146 1.637l-.627-14.839c-2.154-3.083-3.759-6.288-4.814-9.616z" fill="#68553A"/>
    <path d="M219.831 67.888v-.232c0-.109.005-.214.014-.314l-97.751 54.856c.718.009 1.441.014 2.169.014 6.128 0 12.061-.291 17.799-.873l75.383-42.267.314-.177a33.975 33.975 0 0 0 1.377-4.896c.382-1.9.609-3.842.682-5.824.006-.096.011-.192.013-.287zM51.662 121.052l3.792-3.164c4.383-2.009 9.447-3.01 15.194-3.001 1.118 0 2.21.041 3.273.123l131.562-76.692a69.906 69.906 0 0 0-5.183-4.105L17.537 138.21c.027 0 .055.005.082.014 2.546.718 4.683.977 6.41.777l.136-.027c3.246-.409 9.434-4.051 18.563-10.925a273.624 273.624 0 0 0 8.934-6.997zM38.8 48.861a38.858 38.858 0 0 0-2.264 3.723l63.899-36.402a.152.152 0 0 0-.068.014c-14.494 2.464-27.574 6.992-39.24 13.584C51.026 35.49 43.583 41.851 38.8 48.861zm135.163-27.932a118.892 118.892 0 0 0-11.648-3.287L38.746 89.137l.055.082a39.515 39.515 0 0 0 1.868 2.469l2.128 2.428a9.375 9.375 0 0 1 1.296 3.055l129.87-76.242zm33.852 73.105v-.245l-37.521 21.713c7.356-2.4 14.275-5.433 20.758-9.097 6.192-3.501 11.384-7.238 15.576-11.211.41-.392.805-.779 1.187-1.16z" fill="#836948"/>
    <path d="M17.537 138.21a12.55 12.55 0 0 0-.573-.177 37.568 37.568 0 0 1-5.374-2.06l.095 12.439a37.149 37.149 0 0 0 5.278 2.019c.318.1.632.191.941.273l-.367-12.494z" fill="#695233"/>
    <path d="M4.417 131.568a15.042 15.042 0 0 1-1.691-1.596c-.964-1.055-1.523-2.019-1.678-2.892a.128.128 0 0 1-.014-.055l.041 12.698c.218.8.768 1.682 1.65 2.646.455.5.977 1 1.568 1.5l.124-12.301z" fill="#5F4B2E"/>
    <path d="M142.184 133.723l-.123-12.384c-5.737.582-11.67.873-17.799.873-.727 0-1.45-.005-2.169-.014l.014 12.398a169.8 169.8 0 0 0 2.155.014c6.183 0 12.157-.296 17.922-.887z" fill="#604D31"/>
    <path d="M150.954 120.152l.014 12.398c6.865-1.127 13.421-2.714 19.667-4.76l-.341-12.289c-6.147 1.992-12.593 3.542-19.34 4.651z" fill="#625036"/>
    <path d="M150.954 120.152c-2.91.473-5.874.868-8.893 1.187l.123 12.384c2.982-.318 5.91-.709 8.783-1.173l-.013-12.398z" fill="#6F552E"/>
    <path d="M92.893 131.623l-.095-12.425a122.824 122.824 0 0 1-10.638-2.66l-.409-.123a1.94 1.94 0 0 1-.15-.055l-.314-.068c-2.273-.664-4.728-1.091-7.365-1.282l.055 12.398c2.61.2 5.046.627 7.31 1.282l.314.068c.045.018.095.036.15.054l.409.123a125.685 125.685 0 0 0 10.733 2.688z" fill="#5F4E36"/>
    <path d="M109.941 121.625l.109 12.411c3.91.318 7.929.505 12.057.559l-.014-12.398a173.445 173.445 0 0 1-12.152-.572z" fill="#6F5A3D"/>
    <path d="M110.051 134.037l-.109-12.411a146.433 146.433 0 0 1-14.335-1.882l.014 12.411c4.646.836 9.456 1.463 14.43 1.882z" fill="#5C4C33"/>
    <path d="M95.607 119.743c-.946-.173-1.882-.355-2.81-.546l.095 12.425c.9.182 1.809.359 2.728.532l-.013-12.411z" fill="#685233"/>
    <path d="M26.498 128.172a2.309 2.309 0 0 0-.068-.668 2.51 2.51 0 0 0-.259-.668c-.318-.573-.868-1.087-1.65-1.541-1.346-.791-2.982-1.187-4.91-1.187-.982 0-1.896.1-2.741.3a8.674 8.674 0 0 0-2.291.873c-.727.409-1.264.868-1.609 1.378a2.603 2.603 0 0 0-.518 1.514c-.055 1.109.591 2.064 1.937 2.864.218.127.445.246.682.355.927.427 1.982.691 3.164.791.355.027.723.041 1.105.041 1.937 0 3.601-.396 4.992-1.187 1.398-.792 2.121-1.747 2.166-2.865z" fill="#5F4A2D"/>
    <path d="M55.454 117.888l-3.792 3.164a273.624 273.624 0 0 1-8.934 6.997c-9.129 6.874-15.317 10.516-18.563 10.925l-.136.027c-1.728.2-3.864-.059-6.41-.777a.257.257 0 0 0-.082-.014l.368 12.493c2.491.673 4.578.896 6.26.668 1.846-.236 4.642-1.514 8.388-3.833 2.846-1.764 6.238-4.128 10.175-7.092a274.703 274.703 0 0 0 8.934-6.997l3.792-3.164c4.383-2.01 9.447-3.01 15.194-3.001 1.137 0 2.246.041 3.328.123l-.055-12.398a42.595 42.595 0 0 0-3.273-.123c-5.747-.008-10.812.993-15.194 3.002z" fill="#5C482D"/>
    <path d="M40.669 91.688a38.47 38.47 0 0 1-1.868-2.469l-.055-.082.627 14.839c.409.564.841 1.123 1.296 1.678.155.136.309.277.464.423 1.509-1.518 2.478-3.164 2.905-4.937a8.585 8.585 0 0 0 .245-1.814 9.394 9.394 0 0 0-.191-2.155 9.332 9.332 0 0 0-1.296-3.055l-2.127-2.428z" fill="#57462D"/>
    <path d="M110.269 14.859c-3.346.336-6.624.777-9.834 1.323L36.536 52.585a35.746 35.746 0 0 0-2.387 5.551l76.12-43.277zm52.046 2.783a136.846 136.846 0 0 0-15.235-2.591L33.931 79.522c1.055 3.328 2.66 6.533 4.815 9.616l123.569-71.496zm57.53 48.841a34.487 34.487 0 0 0-.723-6.533l-109.18 61.676c3.946.327 7.997.518 12.152.573l97.751-54.856v-.86zm-13.217-27.128a65.927 65.927 0 0 0-1.146-1.037L73.921 115.01c2.637.191 5.092.618 7.365 1.282l.314.068c.045.018.095.036.15.055l.409.123a122.824 122.824 0 0 0 10.638 2.66l122.014-69.995a40.876 40.876 0 0 0-2.237-3.314c-1.69-2.247-3.672-4.425-5.946-6.534z" fill="#A17F55"/>
    <path d="M187.316 26.466a102.833 102.833 0 0 0-9.07-3.996L44.038 101.139c-.427 1.773-1.396 3.419-2.905 4.937a.245.245 0 0 0-.068.068 18.509 18.509 0 0 1-2.851 2.25l-5.442 1.978a341.696 341.696 0 0 0-12.18 4.719c-11.939 4.874-18.399 8.37-19.381 10.488a2.47 2.47 0 0 0-.177.559v.055a2.494 2.494 0 0 0 0 .818v.014c0 .019.005.037.014.055.154.873.714 1.837 1.678 2.892a15.314 15.314 0 0 0 1.691 1.596l8.552-4.91c.346-.509.882-.968 1.609-1.378a8.674 8.674 0 0 1 2.291-.873l170.447-97.941zm30.128 53.26v-.655l-75.383 42.267c3.019-.318 5.983-.714 8.893-1.187l64.69-36.525a37.34 37.34 0 0 0 1.8-3.9zm-1.923-29.31a32.81 32.81 0 0 0-.709-1.214L92.797 119.198c.927.191 1.864.373 2.81.546l119.914-69.328z" fill="#7E5E34"/>
    <path d="M195.417 30.967a84.22 84.22 0 0 0-1.773-1.078 100.41 100.41 0 0 0-6.328-3.423L16.869 124.408c.846-.2 1.759-.3 2.741-.3 1.928 0 3.564.396 4.91 1.187.782.455 1.332.968 1.65 1.541.118.209.205.432.259.668l168.988-96.537zM127.945 14c-.864 0-1.723.004-2.578.014l-92.95 53.71-.014 3.246c.082 1.746.295 3.46.641 5.142l108.349-61.607A174.34 174.34 0 0 0 127.945 14z" fill="#987C57"/>
    <path d="M200.3 34.213a51.58 51.58 0 0 0-.873-.614 83.126 83.126 0 0 0-4.01-2.632L26.43 127.504c.055.209.077.432.068.668-.045 1.118-.768 2.073-2.169 2.864-1.391.791-3.055 1.187-4.992 1.187-.382 0-.75-.014-1.105-.041-1.182-.1-2.237-.364-3.164-.791a7.835 7.835 0 0 1-.682-.355c-1.346-.8-1.991-1.755-1.937-2.864.009-.546.182-1.05.518-1.514l-8.552 4.91c1.137.946 2.528 1.891 4.174 2.837a40.466 40.466 0 0 0 3 1.569 37.688 37.688 0 0 0 5.374 2.06c.191.055.382.114.573.177L200.3 34.213zM178.246 22.47a94.948 94.948 0 0 0-4.283-1.541L44.092 97.171c.146.7.209 1.418.191 2.155a8.65 8.65 0 0 1-.245 1.814l134.208-78.67zm-52.879-8.456c-1.164.018-2.323.046-3.478.082a163.287 163.287 0 0 0-11.62.764L34.15 58.136a34.907 34.907 0 0 0-1.732 9.261v.327l92.949-53.71zm90.263 69.64c.009-.009.014-.018.014-.027l-64.69 36.525c6.747-1.109 13.193-2.66 19.34-4.651l37.521-21.713v.245c.182-.191.368-.382.559-.573 3.01-3.127 5.428-6.396 7.256-9.806zm1.814-4.582v.655c.109-.273.214-.55.314-.832l-.314.177z" fill="#907046"/>
    <path d="M142.566 14.6a57.909 57.909 0 0 0-1.173-.096L33.045 76.112c0 .036.005.073.014.109.227 1.109.518 2.209.873 3.301L147.08 15.05a141.583 141.583 0 0 0-4.514-.45z" fill="#795A30"/>
    <path d="M219.122 59.95c-.7-3.301-1.9-6.479-3.601-9.534L95.607 119.743a146.09 146.09 0 0 0 14.335 1.882l109.18-61.675z" fill="#8C6D46"/>
    <path d="M206.628 107.577c.409-.382.805-.768 1.187-1.159V94.034c-.382.382-.777.768-1.187 1.159-4.192 3.973-9.384 7.711-15.576 11.211-6.483 3.664-13.403 6.697-20.758 9.097l.341 12.289c7.229-2.382 14.035-5.378 20.418-8.988 6.192-3.501 11.384-7.242 15.575-11.225z" fill="#604A29"/>
    <path d="M208.374 93.461c-.191.191-.377.382-.559.573v12.384c3.273-3.301 5.878-6.76 7.815-10.379V83.654c-1.828 3.41-4.246 6.679-7.256 9.807z" fill="#705631"/>
    <g>
      <path d="M213.5 59.3a34.98 34.98 0 0 0 .341-3.519c.008-.048.012-.093.014-.136v-.205l.027-1.173c-.018-13.175-8.088-24.35-24.209-33.525-16.73-9.529-37.234-14.103-61.512-13.721-24.268.373-45.2 5.587-62.794 15.644-17.604 10.057-26.714 22.013-27.333 35.871a26.505 26.505 0 0 0-.027 1.691v.586c.036 1.364.164 2.705.382 4.023 1.755 11.12 9.697 20.704 23.827 28.751 16.73 9.52 37.23 14.089 61.498 13.707 24.277-.382 45.218-5.601 62.821-15.657 16.094-9.191 25.083-19.971 26.965-32.337zm-7.706-5.455c.018.7.009 1.409-.027 2.128-.018.4-.045.8-.082 1.2-1.027 11.384-9.261 21.25-24.7 29.597-15.985 8.638-35.011 13.116-57.079 13.435-22.041.327-40.658-3.596-55.852-11.771-13.603-7.32-20.89-16.126-21.863-26.419a25.192 25.192 0 0 1-.096-3.682c.309-6.583 2.987-12.661 8.033-18.235 4.055-4.51 9.652-8.693 16.79-12.548 15.976-8.638 34.989-13.121 57.038-13.448 22.059-.318 40.685 3.61 55.879 11.784 5.41 2.91 9.82 6.056 13.23 9.438 5.592 5.536 8.501 11.71 8.729 18.521z" fill="#FFD8A1"/>
      <path d="M183.835 28.394c5.41 2.91 9.82 6.056 13.23 9.438 4.846 4.81 7.756 10.147 8.729 16.012-.227-6.81-3.137-12.984-8.729-18.522-3.41-3.382-7.82-6.529-13.23-9.438-15.194-8.174-33.82-12.102-55.879-11.784-22.05.327-41.062 4.81-57.038 13.448-7.138 3.855-12.734 8.038-16.79 12.548-5.047 5.574-7.724 11.652-8.033 18.235-.018.309-.027.618-.027.927.837-6.083 3.523-11.634 8.061-16.653 4.055-4.51 9.652-8.693 16.79-12.548 15.976-8.638 34.989-13.121 57.038-13.448 22.058-.317 40.684 3.611 55.878 11.785z" fill="#E8C08A"/>
      <path d="M205.766 55.972c.036-.718.045-1.428.027-2.128-.973-5.865-3.883-11.202-8.729-16.012-3.41-3.383-7.82-6.529-13.23-9.438-15.194-8.174-33.82-12.102-55.879-11.784-22.05.327-41.062 4.81-57.038 13.448-7.138 3.855-12.734 8.038-16.79 12.548-4.537 5.019-7.224 10.57-8.061 16.653-.009.927.032 1.846.123 2.755.973 10.293 8.261 19.099 21.863 26.419 15.194 8.174 33.811 12.098 55.852 11.771 22.068-.318 41.094-4.796 57.079-13.435 15.439-8.347 23.673-18.213 24.7-29.597.038-.399.065-.799.083-1.2z" fill="#FFDC71"/>
      <path d="M213.841 55.781a34.98 34.98 0 0 1-.341 3.519c-1.882 12.366-10.87 23.145-26.964 32.338-17.603 10.056-38.544 15.276-62.821 15.657-24.268.382-44.768-4.187-61.498-13.707-14.13-8.047-22.073-17.631-23.827-28.751a29.547 29.547 0 0 1-.382-4.023v8.497a16.4 16.4 0 0 0 0 .941c.182 13.012 8.251 24.064 24.209 33.156 16.73 9.52 37.23 14.089 61.498 13.707 24.277-.382 45.218-5.601 62.821-15.658 17.594-10.056 26.696-22.009 27.305-35.857l.027-.641c.009-.655.005-1.305-.013-1.95v-7.365c-.002.044-.006.09-.014.137z" fill="#DFBA86"/>
    </g>
  </g>
</svg>
