<svg width="225" height="159" viewBox="0 0 225 159" xmlns="http://www.w3.org/2000/svg">
  <g fill-rule="nonzero" fill="none">
    <path fill="#CAA28A" d="M133.92 28.538h-.008v.73l1.379.789v-.722z"/>
    <path d="M143.068 25.217c-.628.394-1.35 1.226-2.166 2.499-.79 1.234-1.451 2-1.986 2.3-.373.21-.957.35-1.752.423l-1.865-1.095h-.009v.714l1.874 1.07c1.049-.06 1.795-.213 2.238-.456.535-.299 1.2-1.065 1.995-2.3.81-1.273 1.533-2.106 2.165-2.499.65-.404 1.709-.639 3.18-.705.788-.027 1.337-.063 1.646-.108.075-.01.148-.022.218-.033v-.764c-.216.06-.454.108-.713.141-.303.045-.85.08-1.638.108-1.47.066-2.533.301-3.187.705z" fill="#B66F46"/>
    <path d="M140.903 27.716c.816-1.273 1.538-2.106 2.165-2.499.654-.404 1.717-.639 3.187-.705.79-.028 1.336-.064 1.638-.108a5.012 5.012 0 0 0 .747-.15l-1.85-1.104c-.237.072-.5.127-.786.166-.303.04-.85.075-1.638.108-1.47.061-2.533.293-3.187.698-.628.398-1.35 1.231-2.166 2.498-.789 1.24-1.451 2.007-1.986 2.3-.368.205-.944.346-1.728.424l1.866 1.095c.795-.072 1.378-.213 1.751-.423.535-.3 1.197-1.066 1.987-2.3z" fill="#C68660"/>
    <path d="M145.469 22.353a4.672 4.672 0 0 1-.747.149c-.302.039-.848.075-1.638.108-1.47.06-2.533.295-3.187.705-.627.393-1.349 1.223-2.165 2.49-.79 1.24-1.452 2.01-1.987 2.31-.38.21-.987.35-1.825.423l1.37.797.009.008c.783-.077 1.36-.218 1.727-.424.535-.293 1.198-1.06 1.987-2.3.816-1.267 1.538-2.1 2.165-2.498.654-.404 1.717-.637 3.187-.698.79-.033 1.336-.069 1.638-.107.287-.04.55-.095.787-.166l-1.321-.797z" fill="#F9E2D6"/>
    <path d="M144.722 22.503c.271-.034.52-.083.747-.15l-2.23-1.336a4.835 4.835 0 0 1-.828.174c-.308.039-.857.075-1.646.108-1.47.06-2.53.295-3.179.705-.632.393-1.354 1.223-2.165 2.49-.795 1.24-1.46 2.01-1.995 2.309-.368.205-.952.343-1.752.415l2.238 1.32h.008c.838-.071 1.447-.213 1.825-.423.535-.3 1.198-1.069 1.987-2.308.817-1.268 1.539-2.098 2.166-2.491.654-.41 1.717-.645 3.187-.706.788-.033 1.335-.07 1.637-.107z" fill="#BF9073"/>
    <path fill="#AF8266" d="M131.674 27.218v.764l2.238 1.287v-.73z"/>
    <path fill="#D2B6A5" d="M130.117 27.093l1.557.888v-.764l-1.557-.905z"/>
    <path fill="#B17F5F" d="M130.117 26.313h-.008l-2.514-1.348v.817l2.522 1.311z"/>
    <path d="M132.087 25.864c-.4.222-1.057.371-1.97.448l1.557.905c.8-.071 1.384-.21 1.752-.415.535-.299 1.2-1.068 1.995-2.308.81-1.267 1.533-2.097 2.165-2.49.649-.41 1.708-.645 3.179-.706.79-.034 1.338-.07 1.646-.108.303-.039.579-.097.827-.174l-1.492-.897c-.211.056-.438.1-.681.133-.303.045-.85.08-1.639.108-1.475.066-2.538.301-3.187.705-.627.394-1.349 1.226-2.165 2.5-.79 1.234-1.452 2.001-1.987 2.3z" fill="#EECCB6"/>
    <path d="M130.117 26.313c.914-.077 1.57-.227 1.97-.448.535-.299 1.198-1.065 1.987-2.3.817-1.272 1.539-2.106 2.166-2.498.649-.405 1.711-.64 3.187-.706.79-.028 1.335-.064 1.638-.108a5.81 5.81 0 0 0 .682-.132l-2.514-1.511a4.464 4.464 0 0 1-.73.149c-.303.039-.85.075-1.639.108-1.47.06-2.533.293-3.187.697-.627.399-1.349 1.232-2.165 2.499-.79 1.24-1.452 2.006-1.987 2.3-.4.227-1.017.53-1.93.602l2.514 1.349h.008v-.001z" fill="#C48863"/>
    <g>
      <path fill="#CAA28A" d="M162.92 49.538h-.008v.73l1.379.789v-.722z"/>
      <path d="M172.068 46.217c-.628.394-1.35 1.226-2.166 2.499-.79 1.234-1.451 2-1.986 2.3-.373.21-.957.35-1.752.423l-1.865-1.095h-.009v.714l1.874 1.07c1.049-.06 1.795-.213 2.238-.456.535-.299 1.2-1.065 1.995-2.3.81-1.273 1.533-2.106 2.165-2.499.65-.404 1.709-.639 3.18-.705.788-.027 1.337-.063 1.646-.108.075-.01.148-.022.218-.033v-.764c-.216.06-.454.108-.713.141-.303.045-.85.08-1.638.108-1.47.066-2.533.301-3.187.705z" fill="#B66F46"/>
      <path d="M169.903 48.716c.816-1.273 1.538-2.106 2.165-2.499.654-.404 1.717-.639 3.187-.705.79-.028 1.336-.064 1.638-.108a5.012 5.012 0 0 0 .747-.15l-1.85-1.104c-.237.072-.5.127-.786.166-.303.04-.85.075-1.638.108-1.47.061-2.533.293-3.187.698-.628.398-1.35 1.231-2.166 2.498-.789 1.24-1.451 2.007-1.986 2.3-.368.205-.944.346-1.728.424l1.866 1.095c.795-.072 1.378-.213 1.751-.423.535-.3 1.197-1.066 1.987-2.3z" fill="#C68660"/>
      <path d="M174.469 43.353a4.672 4.672 0 0 1-.747.149c-.302.039-.848.075-1.638.108-1.47.06-2.533.295-3.187.705-.627.393-1.349 1.223-2.165 2.49-.79 1.24-1.452 2.01-1.987 2.31-.38.21-.987.35-1.825.423l1.37.797.009.008c.783-.077 1.36-.218 1.727-.424.535-.293 1.198-1.06 1.987-2.3.816-1.267 1.538-2.1 2.165-2.498.654-.404 1.717-.637 3.187-.698.79-.033 1.336-.069 1.638-.107.287-.04.55-.095.787-.166l-1.321-.797z" fill="#F9E2D6"/>
      <path d="M173.722 43.503c.271-.034.52-.083.747-.15l-2.23-1.336a4.835 4.835 0 0 1-.828.174c-.308.039-.857.075-1.646.108-1.47.06-2.53.295-3.179.705-.632.393-1.354 1.223-2.165 2.49-.795 1.24-1.46 2.01-1.995 2.309-.368.205-.952.343-1.752.415l2.238 1.32h.008c.838-.071 1.447-.213 1.825-.423.535-.3 1.198-1.069 1.987-2.308.817-1.268 1.539-2.098 2.166-2.491.654-.41 1.717-.645 3.187-.706.788-.033 1.335-.07 1.637-.107z" fill="#BF9073"/>
      <path fill="#AF8266" d="M160.674 48.218v.764l2.238 1.287v-.73z"/>
      <path fill="#D2B6A5" d="M159.117 48.093l1.557.888v-.764l-1.557-.905z"/>
      <path fill="#B17F5F" d="M159.117 47.313h-.008l-2.514-1.348v.817l2.522 1.311z"/>
      <path d="M161.087 46.864c-.4.222-1.057.371-1.97.448l1.557.905c.8-.071 1.384-.21 1.752-.415.535-.299 1.2-1.068 1.995-2.308.81-1.267 1.533-2.097 2.165-2.49.649-.41 1.708-.645 3.179-.706.79-.034 1.338-.07 1.646-.108.303-.039.579-.097.827-.174l-1.492-.897c-.211.056-.438.1-.681.133-.303.045-.85.08-1.639.108-1.475.066-2.538.301-3.187.705-.627.394-1.349 1.226-2.165 2.5-.79 1.234-1.452 2.001-1.987 2.3z" fill="#EECCB6"/>
      <path d="M159.117 47.313c.914-.077 1.57-.227 1.97-.448.535-.299 1.198-1.065 1.987-2.3.817-1.272 1.539-2.106 2.166-2.498.649-.405 1.711-.64 3.187-.706.79-.028 1.335-.064 1.638-.108a5.81 5.81 0 0 0 .682-.132l-2.514-1.511a4.464 4.464 0 0 1-.73.149c-.303.039-.85.075-1.639.108-1.47.06-2.533.293-3.187.697-.627.399-1.349 1.232-2.165 2.499-.79 1.24-1.452 2.006-1.987 2.3-.4.227-1.017.53-1.93.602l2.514 1.349h.008v-.001z" fill="#C48863"/>
    </g>
    <g>
      <path fill="#CAA28A" d="M134.92 83.538h-.008v.73l1.379.789v-.722z"/>
      <path d="M144.068 80.217c-.628.394-1.35 1.226-2.166 2.499-.79 1.234-1.451 2-1.986 2.3-.373.21-.957.35-1.752.423l-1.865-1.095h-.009v.714l1.874 1.07c1.049-.06 1.795-.213 2.238-.456.535-.299 1.2-1.065 1.995-2.3.81-1.273 1.533-2.106 2.165-2.499.65-.404 1.709-.639 3.18-.705.788-.027 1.337-.063 1.646-.108.075-.01.148-.022.218-.033v-.764c-.216.06-.454.108-.713.141-.303.045-.85.08-1.638.108-1.47.066-2.533.301-3.187.705z" fill="#B66F46"/>
      <path d="M141.903 82.716c.816-1.273 1.538-2.106 2.165-2.499.654-.404 1.717-.639 3.187-.705.79-.028 1.336-.064 1.638-.108a5.012 5.012 0 0 0 .747-.15l-1.85-1.104c-.237.072-.5.127-.786.166-.303.04-.85.075-1.638.108-1.47.061-2.533.293-3.187.698-.628.398-1.35 1.231-2.166 2.498-.789 1.24-1.451 2.007-1.986 2.3-.368.205-.944.346-1.728.424l1.866 1.095c.795-.072 1.378-.213 1.751-.423.535-.3 1.197-1.066 1.987-2.3z" fill="#C68660"/>
      <path d="M146.469 77.353a4.672 4.672 0 0 1-.747.149c-.302.039-.848.075-1.638.108-1.47.06-2.533.295-3.187.705-.627.393-1.349 1.223-2.165 2.49-.79 1.24-1.452 2.01-1.987 2.31-.38.21-.987.35-1.825.423l1.37.797.009.008c.783-.077 1.36-.218 1.727-.424.535-.293 1.198-1.06 1.987-2.3.816-1.267 1.538-2.1 2.165-2.498.654-.404 1.717-.637 3.187-.698.79-.033 1.336-.069 1.638-.107.287-.04.55-.095.787-.166l-1.321-.797z" fill="#F9E2D6"/>
      <path d="M145.722 77.503c.271-.034.52-.083.747-.15l-2.23-1.336a4.835 4.835 0 0 1-.828.174c-.308.039-.857.075-1.646.108-1.47.06-2.53.295-3.179.705-.632.393-1.354 1.223-2.165 2.49-.795 1.24-1.46 2.01-1.995 2.309-.368.205-.952.343-1.752.415l2.238 1.32h.008c.838-.071 1.447-.213 1.825-.423.535-.3 1.198-1.069 1.987-2.308.817-1.268 1.539-2.098 2.166-2.491.654-.41 1.717-.645 3.187-.706.788-.033 1.335-.07 1.637-.107z" fill="#BF9073"/>
      <path fill="#AF8266" d="M132.674 82.218v.764l2.238 1.287v-.73z"/>
      <path fill="#D2B6A5" d="M131.117 82.093l1.557.888v-.764l-1.557-.905z"/>
      <path fill="#B17F5F" d="M131.117 81.313h-.008l-2.514-1.348v.817l2.522 1.311z"/>
      <path d="M133.087 80.864c-.4.222-1.057.371-1.97.448l1.557.905c.8-.071 1.384-.21 1.752-.415.535-.299 1.2-1.068 1.995-2.308.81-1.267 1.533-2.097 2.165-2.49.649-.41 1.708-.645 3.179-.706.79-.034 1.338-.07 1.646-.108.303-.039.579-.097.827-.174l-1.492-.897c-.211.056-.438.1-.681.133-.303.045-.85.08-1.639.108-1.475.066-2.538.301-3.187.705-.627.394-1.349 1.226-2.165 2.5-.79 1.234-1.452 2.001-1.987 2.3z" fill="#EECCB6"/>
      <path d="M131.117 81.313c.914-.077 1.57-.227 1.97-.448.535-.299 1.198-1.065 1.987-2.3.817-1.272 1.539-2.106 2.166-2.498.649-.405 1.711-.64 3.187-.706.79-.028 1.335-.064 1.638-.108a5.81 5.81 0 0 0 .682-.132l-2.514-1.511a4.464 4.464 0 0 1-.73.149c-.303.039-.85.075-1.639.108-1.47.06-2.533.293-3.187.697-.627.399-1.349 1.232-2.165 2.499-.79 1.24-1.452 2.006-1.987 2.3-.4.227-1.017.53-1.93.602l2.514 1.349h.008v-.001z" fill="#C48863"/>
    </g>
    <g>
      <path fill="#CAA28A" d="M71.92 62.538h-.008v.73l1.379.789v-.722z"/>
      <path d="M81.068 59.217c-.628.394-1.35 1.226-2.166 2.499-.79 1.234-1.451 2-1.986 2.3-.373.21-.957.35-1.752.423l-1.865-1.095h-.009v.714l1.874 1.07c1.049-.06 1.795-.213 2.238-.456.535-.299 1.2-1.065 1.995-2.3.81-1.273 1.533-2.106 2.165-2.499.65-.404 1.709-.639 3.18-.705.788-.027 1.337-.063 1.646-.108.075-.01.148-.022.218-.033v-.764c-.216.06-.454.108-.713.141-.303.045-.85.08-1.638.108-1.47.066-2.533.301-3.187.705z" fill="#B66F46"/>
      <path d="M78.903 61.716c.816-1.273 1.538-2.106 2.165-2.499.654-.404 1.717-.639 3.187-.705.79-.028 1.336-.064 1.638-.108a5.012 5.012 0 0 0 .747-.15l-1.85-1.104c-.237.072-.5.127-.786.166-.303.04-.85.075-1.638.108-1.47.061-2.533.293-3.187.698-.628.398-1.35 1.231-2.166 2.498-.789 1.24-1.451 2.007-1.986 2.3-.368.205-.944.346-1.728.424l1.866 1.095c.795-.072 1.378-.213 1.751-.423.535-.3 1.197-1.066 1.987-2.3z" fill="#C68660"/>
      <path d="M83.469 56.353a4.672 4.672 0 0 1-.747.149c-.302.039-.848.075-1.638.108-1.47.06-2.533.295-3.187.705-.627.393-1.349 1.223-2.165 2.49-.79 1.24-1.452 2.01-1.987 2.31-.38.21-.987.35-1.825.423l1.37.797.009.008c.783-.077 1.36-.218 1.727-.424.535-.293 1.198-1.06 1.987-2.3.816-1.267 1.538-2.1 2.165-2.498.654-.404 1.717-.637 3.187-.698.79-.033 1.336-.069 1.638-.107.287-.04.55-.095.787-.166l-1.321-.797z" fill="#F9E2D6"/>
      <path d="M82.722 56.503c.271-.034.52-.083.747-.15l-2.23-1.336a4.835 4.835 0 0 1-.828.174c-.308.039-.857.075-1.646.108-1.47.06-2.53.295-3.179.705-.632.393-1.354 1.223-2.165 2.49-.795 1.24-1.46 2.01-1.995 2.309-.368.205-.952.343-1.752.415l2.238 1.32h.008c.838-.071 1.447-.213 1.825-.423.535-.3 1.198-1.069 1.987-2.308.817-1.268 1.539-2.098 2.166-2.491.654-.41 1.717-.645 3.187-.706.788-.033 1.335-.07 1.637-.107z" fill="#BF9073"/>
      <path fill="#AF8266" d="M69.674 61.218v.764l2.238 1.287v-.73z"/>
      <path fill="#D2B6A5" d="M68.117 61.093l1.557.888v-.764l-1.557-.905z"/>
      <path fill="#B17F5F" d="M68.117 60.313h-.008l-2.514-1.348v.817l2.522 1.311z"/>
      <path d="M70.087 59.864c-.4.222-1.057.371-1.97.448l1.557.905c.8-.071 1.384-.21 1.752-.415.535-.299 1.2-1.068 1.995-2.308.81-1.267 1.533-2.097 2.165-2.49.649-.41 1.708-.645 3.179-.706.79-.034 1.338-.07 1.646-.108.303-.039.579-.097.827-.174l-1.492-.897c-.211.056-.438.1-.681.133-.303.045-.85.08-1.639.108-1.475.066-2.538.301-3.187.705-.627.394-1.349 1.226-2.165 2.5-.79 1.234-1.452 2.001-1.987 2.3z" fill="#EECCB6"/>
      <path d="M68.117 60.313c.914-.077 1.57-.227 1.97-.448.535-.299 1.198-1.065 1.987-2.3.817-1.272 1.539-2.106 2.166-2.498.649-.405 1.711-.64 3.187-.706.79-.028 1.335-.064 1.638-.108a5.81 5.81 0 0 0 .682-.132l-2.514-1.511a4.464 4.464 0 0 1-.73.149c-.303.039-.85.075-1.639.108-1.47.06-2.533.293-3.187.697-.627.399-1.349 1.232-2.165 2.499-.79 1.24-1.452 2.006-1.987 2.3-.4.227-1.017.53-1.93.602l2.514 1.349h.008v-.001z" fill="#C48863"/>
    </g>
    <g>
      <path fill="#CAA28A" d="M112.92 66.538h-.008v.73l1.379.789v-.722z"/>
      <path d="M122.068 63.217c-.628.394-1.35 1.226-2.166 2.499-.79 1.234-1.451 2-1.986 2.3-.373.21-.957.35-1.752.423l-1.865-1.095h-.009v.714l1.874 1.07c1.049-.06 1.795-.213 2.238-.456.535-.299 1.2-1.065 1.995-2.3.81-1.273 1.533-2.106 2.165-2.499.65-.404 1.709-.639 3.18-.705.788-.027 1.337-.063 1.646-.108.075-.01.148-.022.218-.033v-.764c-.216.06-.454.108-.713.141-.303.045-.85.08-1.638.108-1.47.066-2.533.301-3.187.705z" fill="#B66F46"/>
      <path d="M119.903 65.716c.816-1.273 1.538-2.106 2.165-2.499.654-.404 1.717-.639 3.187-.705.79-.028 1.336-.064 1.638-.108a5.012 5.012 0 0 0 .747-.15l-1.85-1.104c-.237.072-.5.127-.786.166-.303.04-.85.075-1.638.108-1.47.061-2.533.293-3.187.698-.628.398-1.35 1.231-2.166 2.498-.789 1.24-1.451 2.007-1.986 2.3-.368.205-.944.346-1.728.424l1.866 1.095c.795-.072 1.378-.213 1.751-.423.535-.3 1.197-1.066 1.987-2.3z" fill="#C68660"/>
      <path d="M124.469 60.353a4.672 4.672 0 0 1-.747.149c-.302.039-.848.075-1.638.108-1.47.06-2.533.295-3.187.705-.627.393-1.349 1.223-2.165 2.49-.79 1.24-1.452 2.01-1.987 2.31-.38.21-.987.35-1.825.423l1.37.797.009.008c.783-.077 1.36-.218 1.727-.424.535-.293 1.198-1.06 1.987-2.3.816-1.267 1.538-2.1 2.165-2.498.654-.404 1.717-.637 3.187-.698.79-.033 1.336-.069 1.638-.107.287-.04.55-.095.787-.166l-1.321-.797z" fill="#F9E2D6"/>
      <path d="M123.722 60.503c.271-.034.52-.083.747-.15l-2.23-1.336a4.835 4.835 0 0 1-.828.174c-.308.039-.857.075-1.646.108-1.47.06-2.53.295-3.179.705-.632.393-1.354 1.223-2.165 2.49-.795 1.24-1.46 2.01-1.995 2.309-.368.205-.952.343-1.752.415l2.238 1.32h.008c.838-.071 1.447-.213 1.825-.423.535-.3 1.198-1.069 1.987-2.308.817-1.268 1.539-2.098 2.166-2.491.654-.41 1.717-.645 3.187-.706.788-.033 1.335-.07 1.637-.107z" fill="#BF9073"/>
      <path fill="#AF8266" d="M110.674 65.218v.764l2.238 1.287v-.73z"/>
      <path fill="#D2B6A5" d="M109.117 65.093l1.557.888v-.764l-1.557-.905z"/>
      <path fill="#B17F5F" d="M109.117 64.313h-.008l-2.514-1.348v.817l2.522 1.311z"/>
      <path d="M111.087 63.864c-.4.222-1.057.371-1.97.448l1.557.905c.8-.071 1.384-.21 1.752-.415.535-.299 1.2-1.068 1.995-2.308.81-1.267 1.533-2.097 2.165-2.49.649-.41 1.708-.645 3.179-.706.79-.034 1.338-.07 1.646-.108.303-.039.579-.097.827-.174l-1.492-.897c-.211.056-.438.1-.681.133-.303.045-.85.08-1.639.108-1.475.066-2.538.301-3.187.705-.627.394-1.349 1.226-2.165 2.5-.79 1.234-1.452 2.001-1.987 2.3z" fill="#EECCB6"/>
      <path d="M109.117 64.313c.914-.077 1.57-.227 1.97-.448.535-.299 1.198-1.065 1.987-2.3.817-1.272 1.539-2.106 2.166-2.498.649-.405 1.711-.64 3.187-.706.79-.028 1.335-.064 1.638-.108a5.81 5.81 0 0 0 .682-.132l-2.514-1.511a4.464 4.464 0 0 1-.73.149c-.303.039-.85.075-1.639.108-1.47.06-2.533.293-3.187.697-.627.399-1.349 1.232-2.165 2.499-.79 1.24-1.452 2.006-1.987 2.3-.4.227-1.017.53-1.93.602l2.514 1.349h.008v-.001z" fill="#C48863"/>
    </g>
  </g>
</svg>
