<svg width="225" height="159" viewBox="0 0 225 159" xmlns="http://www.w3.org/2000/svg">
  <g fill-rule="nonzero" fill="none">
    <path d="M75.903 68.93h.009v.57h-.01a.305.305 0 0 1-.134.027.36.36 0 0 1-.116-.036.119.119 0 0 1-.027-.071v-.044l.01-.49c0 .012.005.024.017.036.036.018.075.03.116.036.055 0 .1-.01.135-.027z" fill="#74B568"/>
    <path d="M73.665 67.357l-.009-.383c.006.071.015.143.027.214.125.747.785 1.29 1.978 1.627a.06.06 0 0 0-.027.027v.045l-.009.489c-1.366-.398-2.02-1.07-1.96-2.02zm13.408 1.468c-1.927 1.073-4.048 1.716-6.363 1.93-2.274.207-3.873-.21-4.798-1.254v-.57c.924 1.044 2.524 1.462 4.798 1.255 2.315-.214 4.436-.857 6.363-1.93 1.928-1.074 3.41-2.269 4.449-3.585.984-1.246 1.611-3.39 1.88-6.431.023-.196.041-.392.053-.587v1.414c-.286 2.847-.93 4.905-1.933 6.174-1.039 1.315-2.521 2.51-4.449 3.584z" fill="#4D7637"/>
    <path d="M85.668 60.685c.012-.017.015-.032.01-.044-.006-.018-.024-.03-.054-.036-.012-.006-.03-.003-.054.01a.354.354 0 0 0-.072.026c-.812.89-.447 1.69 1.092 2.401a52.95 52.95 0 0 1-4.86 2.891c-.65-.521-.916-1.36-.797-2.517 0-.018-.009-.033-.027-.044a.112.112 0 0 0-.062 0 .075.075 0 0 0-.063.009c-.018.006-.03.02-.036.044-.12 1.186.164 2.049.85 2.589a62.673 62.673 0 0 1-3.84 1.877c-.894-.64-1.127-1.741-.697-3.3.011-.018.009-.03-.01-.036a.148.148 0 0 0-.08-.018.058.058 0 0 0-.054.01.096.096 0 0 0-.036.035c-.447 1.595-.206 2.72.726 3.371-.615.279-1.245.555-1.89.827a.196.196 0 0 0-.053.036c-1.194-.338-1.853-.88-1.978-1.628a2.63 2.63 0 0 1-.027-.213.039.039 0 0 0 0-.036v-.036c.006-.207.045-.43.116-.667.406-1.304 1.575-2.5 3.509-3.584 1.933-1.091 4.173-1.942 6.722-2.553a367.886 367.886 0 0 0 9.452-2.446c-.012.195-.03.391-.054.587-.269 3.042-.895 5.186-1.88 6.43-1.038 1.317-2.521 2.512-4.448 3.585-1.928 1.074-4.049 1.717-6.364 1.93-2.273.208-3.873-.21-4.798-1.253h.018a65.129 65.129 0 0 0 1.906-.827c1.212.676 3.616.684 7.214.026.03-.006.048-.015.054-.026a.06.06 0 0 0 .018-.045c0-.012-.015-.02-.045-.027-.012-.005-.033-.005-.063 0-3.496.635-5.838.635-7.026 0a57.19 57.19 0 0 0 3.83-1.876c.913.533 2.751.604 5.514.213.03-.006.05-.018.063-.036.011-.006.017-.018.017-.036 0-.012-.009-.02-.027-.027a.124.124 0 0 0-.08-.009c-2.68.391-4.46.335-5.344-.169a66.04 66.04 0 0 0 3.312-1.903c.877.628 2.482.643 4.815.044a.115.115 0 0 0 .054-.027c.012-.017.012-.03 0-.035 0-.018-.015-.027-.044-.027a.102.102 0 0 0-.072-.009c-2.238.575-3.777.564-4.619-.035a56.93 56.93 0 0 0 1.522-.978 59.809 59.809 0 0 0 1.754-1.255c.938.315 1.919.2 2.945-.346.018-.012.027-.024.027-.036.006-.018 0-.033-.018-.045a.145.145 0 0 0-.071 0 .114.114 0 0 0-.063.018c-.943.504-1.841.614-2.694.33a44.867 44.867 0 0 0 2.184-1.77c.042-.018.054-.045.035-.081-.012-.023-.039-.042-.08-.053a.203.203 0 0 0-.135-.01.227.227 0 0 0-.116.045 42.903 42.903 0 0 1-3.983 3.033c-1.46-.676-1.809-1.431-1.045-2.268z" fill="#86B65A"/>
    <path d="M85.677 60.641c.006.012.003.027-.01.044-.763.837-.414 1.592 1.048 2.269a42.816 42.816 0 0 0 3.983-3.034.232.232 0 0 1 .116-.044.2.2 0 0 1 .134.01c.042.011.07.029.081.053.018.036.006.062-.035.08a44.867 44.867 0 0 1-2.184 1.77c.853.284 1.751.175 2.694-.33a.111.111 0 0 1 .063-.017.145.145 0 0 1 .071 0c.018.012.024.027.018.044 0 .012-.01.024-.027.036-1.026.546-2.008.661-2.945.347-.567.421-1.151.839-1.754 1.254-.49.326-.997.652-1.522.979.842.598 2.381.61 4.62.035a.102.102 0 0 1 .07.009c.03 0 .045.009.045.027.012.005.012.017 0 .035a.115.115 0 0 1-.054.027c-2.333.598-3.938.584-4.815-.045a65.747 65.747 0 0 1-3.312 1.904c.883.504 2.664.56 5.344.169a.12.12 0 0 1 .08.009c.018.006.027.015.027.027 0 .017-.006.03-.017.036-.012.017-.033.029-.063.035-2.763.392-4.6.32-5.514-.213a57.824 57.824 0 0 1-3.83 1.877c1.187.635 3.53.635 7.026 0 .03-.006.05-.006.063 0 .03.006.045.015.045.027a.06.06 0 0 1-.018.044c-.006.012-.023.021-.054.027-3.598.658-6.002.65-7.214-.027-.615.279-1.25.555-1.906.827H75.903a.305.305 0 0 1-.134.027.36.36 0 0 1-.116-.036c-.012-.012-.018-.023-.018-.036v-.044a.06.06 0 0 1 .027-.027.217.217 0 0 1 .054-.036 82.279 82.279 0 0 0 1.889-.827c-.93-.652-1.173-1.776-.725-3.37a.106.106 0 0 1 .035-.037.06.06 0 0 1 .054-.009c.035 0 .062.006.08.018.018.006.022.017.01.036-.43 1.559-.197 2.66.698 3.3a62.298 62.298 0 0 0 3.84-1.877c-.687-.54-.97-1.403-.85-2.589.005-.023.017-.038.035-.044a.077.077 0 0 1 .063-.01.112.112 0 0 1 .063 0c.018.012.027.027.027.045-.12 1.156.146 1.996.796 2.517a52.803 52.803 0 0 0 4.86-2.89c-1.539-.712-1.903-1.513-1.091-2.402a.354.354 0 0 1 .071-.027c.024-.011.042-.015.054-.009.028.006.046.018.052.036z" fill="#B5DA99"/>
    <path d="M128.903 30.93h.009v.57h-.01a.305.305 0 0 1-.134.027.36.36 0 0 1-.116-.036.119.119 0 0 1-.027-.071v-.044l.01-.49c0 .012.005.024.017.036.036.018.075.03.116.036.055 0 .1-.01.135-.027z" fill="#74B568"/>
    <path d="M126.665 29.357l-.009-.383c.006.071.015.143.027.214.125.747.785 1.29 1.978 1.627a.06.06 0 0 0-.027.027v.045l-.009.489c-1.366-.398-2.02-1.07-1.96-2.02zm13.408 1.468c-1.927 1.073-4.048 1.716-6.363 1.93-2.274.207-3.873-.21-4.798-1.254v-.57c.924 1.044 2.524 1.462 4.798 1.255 2.315-.214 4.436-.857 6.363-1.93 1.928-1.074 3.41-2.269 4.449-3.585.984-1.246 1.611-3.39 1.88-6.431.023-.196.042-.392.053-.587v1.414c-.286 2.847-.93 4.905-1.933 6.174-1.039 1.315-2.521 2.51-4.449 3.584z" fill="#4D7637"/>
    <path d="M138.668 22.685c.012-.017.015-.032.01-.044-.006-.018-.024-.03-.054-.036-.012-.006-.03-.003-.054.01a.354.354 0 0 0-.072.026c-.811.89-.447 1.69 1.092 2.401a52.95 52.95 0 0 1-4.86 2.891c-.65-.521-.916-1.36-.797-2.517 0-.018-.009-.033-.026-.044a.112.112 0 0 0-.063 0 .075.075 0 0 0-.063.009c-.018.006-.03.02-.036.044-.12 1.186.164 2.049.85 2.589a62.673 62.673 0 0 1-3.84 1.877c-.894-.64-1.127-1.741-.697-3.3.011-.018.009-.03-.01-.036a.148.148 0 0 0-.08-.018.058.058 0 0 0-.054.01.096.096 0 0 0-.036.035c-.447 1.595-.206 2.72.726 3.371-.615.279-1.245.555-1.89.827a.196.196 0 0 0-.053.036c-1.194-.338-1.852-.88-1.978-1.628a2.63 2.63 0 0 1-.027-.213.039.039 0 0 0 0-.036v-.036c.006-.207.045-.43.116-.667.406-1.304 1.575-2.5 3.509-3.584 1.933-1.091 4.173-1.942 6.722-2.553a367.886 367.886 0 0 0 9.452-2.446c-.012.195-.03.391-.054.587-.269 3.042-.895 5.186-1.88 6.43-1.038 1.317-2.521 2.512-4.448 3.585-1.928 1.074-4.049 1.717-6.364 1.93-2.273.208-3.873-.21-4.798-1.253h.018a65.129 65.129 0 0 0 1.906-.827c1.212.676 3.616.684 7.214.026.03-.006.048-.015.054-.026a.06.06 0 0 0 .018-.045c0-.012-.015-.02-.045-.027-.011-.005-.032-.005-.063 0-3.496.635-5.838.635-7.026 0a57.19 57.19 0 0 0 3.83-1.876c.913.533 2.751.604 5.514.213.03-.006.05-.018.063-.036.011-.006.017-.018.017-.036 0-.012-.009-.02-.027-.027a.124.124 0 0 0-.08-.009c-2.68.391-4.46.335-5.344-.169a66.04 66.04 0 0 0 3.312-1.903c.877.628 2.482.643 4.815.044a.115.115 0 0 0 .054-.027c.012-.017.012-.03 0-.035 0-.018-.015-.027-.044-.027a.102.102 0 0 0-.072-.009c-2.238.575-3.777.564-4.619-.035a56.93 56.93 0 0 0 1.522-.978 59.809 59.809 0 0 0 1.754-1.255c.938.315 1.919.2 2.945-.346.018-.012.027-.024.027-.036.006-.018 0-.033-.018-.045a.145.145 0 0 0-.071 0 .114.114 0 0 0-.063.018c-.943.504-1.841.614-2.694.33a44.867 44.867 0 0 0 2.184-1.77c.042-.018.054-.045.035-.081-.012-.023-.039-.042-.08-.053a.203.203 0 0 0-.135-.01.227.227 0 0 0-.116.045 42.903 42.903 0 0 1-3.983 3.033c-1.46-.676-1.809-1.431-1.045-2.268z" fill="#86B65A"/>
    <path d="M138.677 22.641c.006.012.003.027-.01.044-.763.837-.414 1.592 1.048 2.269a42.816 42.816 0 0 0 3.983-3.034.232.232 0 0 1 .116-.044.2.2 0 0 1 .134.01c.042.011.07.029.081.053.018.036.006.062-.035.08a44.867 44.867 0 0 1-2.184 1.77c.853.284 1.751.175 2.694-.33a.111.111 0 0 1 .063-.017.145.145 0 0 1 .071 0c.018.012.024.027.018.044 0 .012-.01.024-.027.036-1.026.546-2.008.661-2.945.347-.567.421-1.151.839-1.754 1.254-.49.326-.997.652-1.522.979.842.598 2.381.61 4.62.035a.102.102 0 0 1 .07.009c.03 0 .045.009.045.027.012.005.012.017 0 .035a.115.115 0 0 1-.054.027c-2.333.598-3.938.584-4.815-.045a65.747 65.747 0 0 1-3.312 1.904c.883.504 2.664.56 5.344.169a.12.12 0 0 1 .08.009c.018.006.027.015.027.027 0 .017-.006.03-.018.036-.011.017-.032.029-.062.035-2.763.392-4.6.32-5.514-.213a57.824 57.824 0 0 1-3.83 1.877c1.187.635 3.53.635 7.026 0 .03-.006.05-.006.063 0 .03.006.045.015.045.027a.06.06 0 0 1-.018.044c-.006.012-.023.021-.054.027-3.598.658-6.002.65-7.214-.027-.615.279-1.25.555-1.906.827H128.903a.305.305 0 0 1-.134.027.36.36 0 0 1-.116-.036c-.012-.012-.018-.023-.018-.036v-.044a.06.06 0 0 1 .027-.027.217.217 0 0 1 .054-.036 82.279 82.279 0 0 0 1.889-.827c-.93-.652-1.173-1.776-.725-3.37a.106.106 0 0 1 .035-.037.06.06 0 0 1 .054-.009c.035 0 .062.006.08.018.018.006.022.017.01.036-.43 1.559-.197 2.66.698 3.3a62.298 62.298 0 0 0 3.84-1.877c-.687-.54-.97-1.403-.85-2.589.005-.023.017-.038.035-.044a.077.077 0 0 1 .063-.01.112.112 0 0 1 .063 0c.018.012.027.027.027.045-.12 1.156.146 1.996.796 2.517a52.803 52.803 0 0 0 4.86-2.89c-1.539-.712-1.903-1.513-1.091-2.402a.354.354 0 0 1 .071-.027c.024-.011.042-.015.054-.009.028.006.046.018.052.036z" fill="#B5DA99"/>
    <g>
      <path d="M115.903 56.93h.009v.57h-.01a.305.305 0 0 1-.134.027.36.36 0 0 1-.116-.036.119.119 0 0 1-.027-.071v-.044l.01-.49c0 .012.005.024.017.036.036.018.075.03.116.036.055 0 .1-.01.135-.027z" fill="#74B568"/>
      <path d="M113.665 55.357l-.009-.383c.006.071.015.143.027.214.126.747.785 1.29 1.978 1.627a.06.06 0 0 0-.027.027v.045l-.009.489c-1.366-.398-2.02-1.07-1.96-2.02zm13.408 1.468c-1.927 1.073-4.048 1.716-6.363 1.93-2.274.207-3.873-.21-4.798-1.254v-.57c.924 1.044 2.524 1.462 4.798 1.255 2.315-.214 4.436-.857 6.363-1.93 1.928-1.074 3.41-2.269 4.449-3.585.984-1.246 1.611-3.39 1.88-6.431.023-.196.042-.392.053-.587v1.414c-.286 2.847-.93 4.905-1.933 6.174-1.039 1.315-2.521 2.51-4.449 3.584z" fill="#4D7637"/>
      <path d="M125.668 48.685c.012-.017.015-.032.01-.044-.006-.018-.024-.03-.054-.036-.012-.006-.03-.003-.054.01a.354.354 0 0 0-.072.026c-.812.89-.447 1.69 1.092 2.401a52.95 52.95 0 0 1-4.86 2.891c-.65-.521-.916-1.36-.797-2.517 0-.018-.009-.033-.027-.044a.112.112 0 0 0-.062 0 .075.075 0 0 0-.063.009c-.018.006-.03.02-.036.044-.12 1.186.164 2.049.85 2.589a62.673 62.673 0 0 1-3.84 1.877c-.894-.64-1.127-1.741-.697-3.3.011-.018.009-.03-.01-.036a.148.148 0 0 0-.08-.018.058.058 0 0 0-.054.01.096.096 0 0 0-.036.035c-.447 1.595-.206 2.72.726 3.371-.615.279-1.245.555-1.89.827a.196.196 0 0 0-.053.036c-1.194-.338-1.853-.88-1.978-1.628a2.63 2.63 0 0 1-.027-.213.039.039 0 0 0 0-.036v-.036c.006-.207.045-.43.116-.667.406-1.304 1.575-2.5 3.509-3.584 1.933-1.091 4.173-1.942 6.722-2.553a367.886 367.886 0 0 0 9.452-2.446c-.012.195-.03.391-.054.587-.269 3.042-.895 5.186-1.88 6.43-1.038 1.317-2.521 2.512-4.448 3.585-1.928 1.074-4.049 1.717-6.364 1.93-2.273.208-3.873-.21-4.798-1.253h.018a65.129 65.129 0 0 0 1.906-.827c1.212.676 3.616.684 7.214.026.03-.006.048-.015.054-.026a.06.06 0 0 0 .018-.045c0-.012-.015-.02-.045-.027-.012-.005-.033-.005-.063 0-3.496.635-5.838.635-7.026 0a57.19 57.19 0 0 0 3.83-1.876c.913.533 2.751.604 5.514.213.03-.006.05-.018.063-.036.011-.006.017-.018.017-.036 0-.012-.009-.02-.027-.027a.124.124 0 0 0-.08-.009c-2.68.391-4.46.335-5.344-.169a66.04 66.04 0 0 0 3.312-1.903c.877.628 2.482.643 4.815.044a.115.115 0 0 0 .054-.027c.012-.017.012-.03 0-.035 0-.018-.015-.027-.044-.027a.102.102 0 0 0-.072-.009c-2.238.575-3.777.564-4.619-.035a56.93 56.93 0 0 0 1.522-.978 59.809 59.809 0 0 0 1.754-1.255c.938.315 1.919.2 2.945-.346.018-.012.027-.024.027-.036.006-.018 0-.033-.018-.045a.145.145 0 0 0-.071 0 .114.114 0 0 0-.063.018c-.943.504-1.841.614-2.694.33a44.867 44.867 0 0 0 2.184-1.77c.042-.018.054-.045.035-.081-.012-.023-.039-.042-.08-.053a.203.203 0 0 0-.135-.01.227.227 0 0 0-.116.045 42.903 42.903 0 0 1-3.983 3.033c-1.46-.676-1.809-1.431-1.045-2.268z" fill="#86B65A"/>
      <path d="M125.677 48.641c.006.012.003.027-.01.044-.763.837-.414 1.592 1.048 2.269a42.816 42.816 0 0 0 3.983-3.034.232.232 0 0 1 .116-.044.2.2 0 0 1 .134.01c.042.011.07.029.081.053.018.036.006.062-.035.08a44.867 44.867 0 0 1-2.184 1.77c.853.284 1.751.175 2.694-.33a.111.111 0 0 1 .063-.017.145.145 0 0 1 .071 0c.018.012.024.027.018.044 0 .012-.01.024-.027.036-1.026.546-2.008.661-2.945.347-.567.421-1.151.839-1.754 1.254-.49.326-.997.652-1.522.979.842.598 2.381.61 4.62.035a.102.102 0 0 1 .07.009c.03 0 .045.009.045.027.012.005.012.017 0 .035a.115.115 0 0 1-.054.027c-2.333.598-3.938.584-4.815-.045a65.747 65.747 0 0 1-3.312 1.904c.883.504 2.664.56 5.344.169a.12.12 0 0 1 .08.009c.018.006.027.015.027.027 0 .017-.006.03-.017.036-.012.017-.033.029-.063.035-2.763.392-4.6.32-5.514-.213a57.824 57.824 0 0 1-3.83 1.877c1.187.635 3.53.635 7.026 0 .03-.006.05-.006.063 0 .03.006.045.015.045.027a.06.06 0 0 1-.018.044c-.006.012-.023.021-.054.027-3.598.658-6.002.65-7.214-.027-.615.279-1.25.555-1.906.827H115.903a.305.305 0 0 1-.134.027.36.36 0 0 1-.116-.036c-.012-.012-.018-.023-.018-.036v-.044a.06.06 0 0 1 .027-.027.217.217 0 0 1 .054-.036 82.279 82.279 0 0 0 1.889-.827c-.93-.652-1.173-1.776-.725-3.37a.106.106 0 0 1 .035-.037.06.06 0 0 1 .054-.009c.035 0 .062.006.08.018.018.006.022.017.01.036-.43 1.559-.197 2.66.698 3.3a62.298 62.298 0 0 0 3.84-1.877c-.687-.54-.97-1.403-.85-2.589.005-.023.017-.038.035-.044a.077.077 0 0 1 .063-.01.112.112 0 0 1 .063 0c.018.012.027.027.027.045-.12 1.156.146 1.996.796 2.517a52.803 52.803 0 0 0 4.86-2.89c-1.539-.712-1.903-1.513-1.091-2.402a.354.354 0 0 1 .071-.027c.024-.011.042-.015.054-.009.028.006.046.018.052.036z" fill="#B5DA99"/>
    </g>
    <g>
      <path d="M127.903 83.93h.009v.57h-.01a.305.305 0 0 1-.134.027.36.36 0 0 1-.116-.036.119.119 0 0 1-.027-.071v-.044l.01-.49c0 .012.005.024.017.036.036.018.075.03.116.036.055 0 .1-.01.135-.027z" fill="#74B568"/>
      <path d="M125.665 82.357l-.009-.383c.006.071.015.143.027.214.125.747.785 1.29 1.978 1.627a.06.06 0 0 0-.027.027v.045l-.009.489c-1.366-.398-2.02-1.07-1.96-2.02zm13.408 1.468c-1.927 1.073-4.048 1.716-6.363 1.93-2.274.207-3.873-.21-4.798-1.254v-.57c.924 1.044 2.524 1.462 4.798 1.255 2.315-.214 4.436-.857 6.363-1.93 1.928-1.074 3.41-2.269 4.449-3.585.984-1.246 1.611-3.39 1.88-6.431.023-.196.042-.392.053-.587v1.414c-.286 2.847-.93 4.905-1.933 6.174-1.039 1.315-2.521 2.51-4.449 3.584z" fill="#4D7637"/>
      <path d="M137.668 75.685c.012-.017.015-.032.01-.044-.006-.018-.024-.03-.054-.036-.012-.006-.03-.003-.054.01a.354.354 0 0 0-.072.026c-.811.89-.447 1.69 1.092 2.401a52.95 52.95 0 0 1-4.86 2.891c-.65-.521-.916-1.36-.797-2.517 0-.018-.009-.033-.026-.044a.112.112 0 0 0-.063 0 .075.075 0 0 0-.063.009c-.018.006-.03.02-.036.044-.12 1.186.164 2.049.85 2.589a62.673 62.673 0 0 1-3.84 1.877c-.894-.64-1.127-1.741-.697-3.3.011-.018.009-.03-.01-.036a.148.148 0 0 0-.08-.018.058.058 0 0 0-.054.01.096.096 0 0 0-.036.035c-.447 1.595-.206 2.72.726 3.371-.615.279-1.245.555-1.89.827a.196.196 0 0 0-.053.036c-1.194-.338-1.852-.88-1.978-1.628a2.63 2.63 0 0 1-.027-.213.039.039 0 0 0 0-.036v-.036c.006-.207.045-.43.116-.667.406-1.304 1.575-2.5 3.509-3.584 1.933-1.091 4.173-1.942 6.722-2.553a367.886 367.886 0 0 0 9.452-2.446c-.012.195-.03.391-.054.587-.269 3.042-.895 5.186-1.88 6.43-1.038 1.317-2.521 2.512-4.448 3.585-1.928 1.074-4.049 1.717-6.364 1.93-2.273.208-3.873-.21-4.798-1.253h.018a65.129 65.129 0 0 0 1.906-.827c1.212.676 3.616.684 7.214.026.03-.006.048-.015.054-.026a.06.06 0 0 0 .018-.045c0-.012-.015-.02-.045-.027-.011-.005-.032-.005-.063 0-3.496.635-5.838.635-7.026 0a57.19 57.19 0 0 0 3.83-1.876c.913.533 2.751.604 5.514.213.03-.006.05-.018.063-.036.011-.006.017-.018.017-.036 0-.012-.009-.02-.027-.027a.124.124 0 0 0-.08-.009c-2.68.391-4.46.335-5.344-.169a66.04 66.04 0 0 0 3.312-1.903c.877.628 2.482.643 4.815.044a.115.115 0 0 0 .054-.027c.012-.017.012-.03 0-.035 0-.018-.015-.027-.044-.027a.102.102 0 0 0-.072-.009c-2.238.575-3.777.564-4.619-.035a56.93 56.93 0 0 0 1.522-.978 59.809 59.809 0 0 0 1.754-1.255c.938.315 1.919.2 2.945-.346.018-.012.027-.024.027-.036.006-.018 0-.033-.018-.045a.145.145 0 0 0-.071 0 .114.114 0 0 0-.063.018c-.943.504-1.841.614-2.694.33a44.867 44.867 0 0 0 2.184-1.77c.042-.018.054-.045.035-.081-.012-.023-.039-.042-.08-.053a.203.203 0 0 0-.135-.01.227.227 0 0 0-.116.045 42.903 42.903 0 0 1-3.983 3.033c-1.46-.676-1.809-1.431-1.045-2.268z" fill="#86B65A"/>
      <path d="M137.677 75.641c.006.012.003.027-.01.044-.763.837-.414 1.592 1.048 2.269a42.816 42.816 0 0 0 3.983-3.034.232.232 0 0 1 .116-.044.2.2 0 0 1 .134.01c.042.011.07.029.081.053.018.036.006.062-.035.08a44.867 44.867 0 0 1-2.184 1.77c.853.284 1.751.175 2.694-.33a.111.111 0 0 1 .063-.017.145.145 0 0 1 .071 0c.018.012.024.027.018.044 0 .012-.01.024-.027.036-1.026.546-2.008.661-2.945.347-.567.421-1.151.839-1.754 1.254-.49.326-.997.652-1.522.979.842.598 2.381.61 4.62.035a.102.102 0 0 1 .07.009c.03 0 .045.009.045.027.012.005.012.017 0 .035a.115.115 0 0 1-.054.027c-2.333.598-3.938.584-4.815-.045a65.747 65.747 0 0 1-3.312 1.904c.883.504 2.664.56 5.344.169a.12.12 0 0 1 .08.009c.018.006.027.015.027.027 0 .017-.006.03-.018.036-.011.017-.032.029-.062.035-2.763.392-4.6.32-5.514-.213a57.824 57.824 0 0 1-3.83 1.877c1.187.635 3.53.635 7.026 0 .03-.006.05-.006.063 0 .03.006.045.015.045.027a.06.06 0 0 1-.018.044c-.006.012-.023.021-.054.027-3.598.658-6.002.65-7.214-.027-.615.279-1.25.555-1.906.827H127.903a.305.305 0 0 1-.134.027.36.36 0 0 1-.116-.036c-.012-.012-.018-.023-.018-.036v-.044a.06.06 0 0 1 .027-.027.217.217 0 0 1 .054-.036 82.279 82.279 0 0 0 1.889-.827c-.93-.652-1.173-1.776-.725-3.37a.106.106 0 0 1 .035-.037.06.06 0 0 1 .054-.009c.035 0 .062.006.08.018.018.006.022.017.01.036-.43 1.559-.197 2.66.698 3.3a62.298 62.298 0 0 0 3.84-1.877c-.687-.54-.97-1.403-.85-2.589.005-.023.017-.038.035-.044a.077.077 0 0 1 .063-.01.112.112 0 0 1 .063 0c.018.012.027.027.027.045-.12 1.156.146 1.996.796 2.517a52.803 52.803 0 0 0 4.86-2.89c-1.539-.712-1.903-1.513-1.091-2.402a.354.354 0 0 1 .071-.027c.024-.011.042-.015.054-.009.028.006.046.018.052.036z" fill="#B5DA99"/>
    </g>
    <g>
      <path d="M148.903 61.93h.009v.57h-.01a.305.305 0 0 1-.134.027.36.36 0 0 1-.116-.036.119.119 0 0 1-.027-.071v-.044l.01-.49c0 .012.005.024.017.036.036.018.075.03.116.036.055 0 .1-.01.135-.027z" fill="#74B568"/>
      <path d="M146.665 60.357l-.009-.383c.006.071.015.143.027.214.126.747.785 1.29 1.978 1.627a.06.06 0 0 0-.027.027v.045l-.009.489c-1.366-.398-2.02-1.07-1.96-2.02zm13.408 1.468c-1.927 1.073-4.048 1.716-6.363 1.93-2.274.207-3.873-.21-4.798-1.254v-.57c.924 1.044 2.524 1.462 4.798 1.255 2.315-.214 4.436-.857 6.363-1.93 1.928-1.074 3.41-2.269 4.449-3.585.984-1.246 1.611-3.39 1.88-6.431.023-.196.042-.392.053-.587v1.414c-.286 2.847-.93 4.905-1.933 6.174-1.039 1.315-2.521 2.51-4.449 3.584z" fill="#4D7637"/>
      <path d="M158.668 53.685c.012-.017.015-.032.01-.044-.006-.018-.024-.03-.054-.036-.012-.006-.03-.003-.054.01a.354.354 0 0 0-.072.026c-.811.89-.447 1.69 1.092 2.401a52.95 52.95 0 0 1-4.86 2.891c-.65-.521-.916-1.36-.797-2.517 0-.018-.009-.033-.026-.044a.112.112 0 0 0-.063 0 .075.075 0 0 0-.063.009c-.018.006-.03.02-.036.044-.12 1.186.164 2.049.85 2.589a62.673 62.673 0 0 1-3.84 1.877c-.894-.64-1.127-1.741-.697-3.3.011-.018.009-.03-.01-.036a.148.148 0 0 0-.08-.018.058.058 0 0 0-.054.01.096.096 0 0 0-.036.035c-.447 1.595-.206 2.72.726 3.371-.615.279-1.245.555-1.89.827a.196.196 0 0 0-.053.036c-1.194-.338-1.852-.88-1.978-1.628a2.63 2.63 0 0 1-.027-.213.039.039 0 0 0 0-.036v-.036c.006-.207.045-.43.116-.667.406-1.304 1.575-2.5 3.509-3.584 1.933-1.091 4.173-1.942 6.722-2.553a367.886 367.886 0 0 0 9.452-2.446c-.012.195-.03.391-.054.587-.269 3.042-.895 5.186-1.88 6.43-1.038 1.317-2.521 2.512-4.448 3.585-1.928 1.074-4.049 1.717-6.364 1.93-2.273.208-3.873-.21-4.798-1.253h.018a65.129 65.129 0 0 0 1.906-.827c1.212.676 3.616.684 7.214.026.03-.006.048-.015.054-.026a.06.06 0 0 0 .018-.045c0-.012-.015-.02-.045-.027-.011-.005-.032-.005-.063 0-3.496.635-5.838.635-7.026 0a57.19 57.19 0 0 0 3.83-1.876c.913.533 2.751.604 5.514.213.03-.006.05-.018.063-.036.011-.006.017-.018.017-.036 0-.012-.009-.02-.027-.027a.124.124 0 0 0-.08-.009c-2.68.391-4.46.335-5.344-.169a66.04 66.04 0 0 0 3.312-1.903c.877.628 2.482.643 4.815.044a.115.115 0 0 0 .054-.027c.012-.017.012-.03 0-.035 0-.018-.015-.027-.044-.027a.102.102 0 0 0-.072-.009c-2.238.575-3.777.564-4.619-.035a56.93 56.93 0 0 0 1.522-.978 59.809 59.809 0 0 0 1.754-1.255c.938.315 1.919.2 2.945-.346.018-.012.027-.024.027-.036.006-.018 0-.033-.018-.045a.145.145 0 0 0-.071 0 .114.114 0 0 0-.063.018c-.943.504-1.841.614-2.694.33a44.867 44.867 0 0 0 2.184-1.77c.042-.018.054-.045.035-.081-.012-.023-.039-.042-.08-.053a.203.203 0 0 0-.135-.01.227.227 0 0 0-.116.045 42.903 42.903 0 0 1-3.983 3.033c-1.46-.676-1.809-1.431-1.045-2.268z" fill="#86B65A"/>
      <path d="M158.677 53.641c.006.012.003.027-.01.044-.763.837-.414 1.592 1.048 2.269a42.816 42.816 0 0 0 3.983-3.034.232.232 0 0 1 .116-.044.2.2 0 0 1 .134.01c.042.011.07.029.081.053.018.036.006.062-.035.08a44.867 44.867 0 0 1-2.184 1.77c.853.284 1.751.175 2.694-.33a.111.111 0 0 1 .063-.017.145.145 0 0 1 .071 0c.018.012.024.027.018.044 0 .012-.01.024-.027.036-1.026.546-2.008.661-2.945.347-.567.421-1.151.839-1.754 1.254-.49.326-.997.652-1.522.979.842.598 2.381.61 4.62.035a.102.102 0 0 1 .07.009c.03 0 .045.009.045.027.012.005.012.017 0 .035a.115.115 0 0 1-.054.027c-2.333.598-3.938.584-4.815-.045a65.747 65.747 0 0 1-3.312 1.904c.883.504 2.664.56 5.344.169a.12.12 0 0 1 .08.009c.018.006.027.015.027.027 0 .017-.006.03-.018.036-.011.017-.032.029-.062.035-2.763.392-4.6.32-5.514-.213a57.824 57.824 0 0 1-3.83 1.877c1.187.635 3.53.635 7.026 0 .03-.006.05-.006.063 0 .03.006.045.015.045.027a.06.06 0 0 1-.018.044c-.006.012-.023.021-.054.027-3.598.658-6.002.65-7.214-.027-.615.279-1.25.555-1.906.827H148.903a.305.305 0 0 1-.134.027.36.36 0 0 1-.116-.036c-.012-.012-.018-.023-.018-.036v-.044a.06.06 0 0 1 .027-.027.217.217 0 0 1 .054-.036 82.279 82.279 0 0 0 1.889-.827c-.93-.652-1.173-1.776-.725-3.37a.106.106 0 0 1 .035-.037.06.06 0 0 1 .054-.009c.035 0 .062.006.08.018.018.006.022.017.01.036-.43 1.559-.197 2.66.698 3.3a62.298 62.298 0 0 0 3.84-1.877c-.687-.54-.97-1.403-.85-2.589.005-.023.017-.038.035-.044a.077.077 0 0 1 .063-.01.112.112 0 0 1 .063 0c.018.012.027.027.027.045-.12 1.156.146 1.996.796 2.517a52.803 52.803 0 0 0 4.86-2.89c-1.539-.712-1.903-1.513-1.091-2.402a.354.354 0 0 1 .071-.027c.024-.011.042-.015.054-.009.028.006.046.018.052.036z" fill="#B5DA99"/>
    </g>
  </g>
</svg>
