<svg width="225" height="159" viewBox="0 0 225 159" xmlns="http://www.w3.org/2000/svg">
  <g fill-rule="nonzero" fill="none">
    <path d="M68.73 44.77a4.617 4.617 0 0 1-.63-.188 3.725 3.725 0 0 0-.958-.041 5.294 5.294 0 0 0-.303.025 8.54 8.54 0 0 0-1.612.294c-.611.17-1.307.117-2.087-.155a1.498 1.498 0 0 1-.515-.311l-.009 2.013c.147.142.322.25.524.328.78.273 1.476.324 2.087.155a8.68 8.68 0 0 1 2.07-.328c.294-.01.562.006.802.05.202.076.412.139.63.188.202.05.404.085.605.106v-2.029a4.84 4.84 0 0 1-.604-.107z" fill="#546F32"/>
    <path d="M69.482 43.215a1.124 1.124 0 0 0-.196-.376c-.159-.219-.39-.388-.696-.508-.856-.344-1.396-.365-1.62-.065l-.066.114a1.472 1.472 0 0 0-.163.802c0 .044.005.085.016.123.005.044-.016.164-.066.36-.049.19-.308.415-.777.67-.47.246-.993.37-1.572.37-.578-.012-.938-.112-1.08-.304-.147-.196-.248-.278-.303-.245-.065.021-.15.068-.253.139l-.082.065-.025.009.025.024c.147.137.32.24.515.311.78.273 1.476.325 2.087.156a8.54 8.54 0 0 1 1.612-.295c.099-.01.2-.02.303-.025.055-.005.107-.008.156-.008.294-.01.562.005.802.05.202.075.412.138.63.188.202.049.404.084.605.106h.009a.32.32 0 0 1 .016-.041c.219-.66.26-1.2.123-1.62z" fill="#709342"/>
    <path d="M88.484 46.325c-.005.147-.02.297-.04.45-.017.13-.04.259-.066.384-.273 1.288-1.029 2.483-2.267 3.585-.224.19-.46.381-.712.573l-.009.008-.09.058a.596.596 0 0 1-.27.074.484.484 0 0 1-.278-.057c-.059-.033-.089-.074-.09-.123v2.004c-.005.06.025.11.09.147a.48.48 0 0 0 .278.058.596.596 0 0 0 .27-.074c.028-.016.058-.035.09-.057l.009-.008c1.806-1.359 2.82-2.873 3.044-4.542.033-.224.05-.445.05-.663 0-.071-.004-.14-.009-.205v-1.612zM85.98 49.36c.088-.295.134-.6.14-.917a3.85 3.85 0 0 0-.287-1.538c-.37-.873-1.088-1.613-2.152-2.218-1.642-.938-3.71-1.356-6.203-1.252-1.795.07-3.44.398-4.934.982-.11.038-.221.082-.336.13a6.324 6.324 0 0 1-1.963.36 7.815 7.815 0 0 1-.9-.032h-.009v2.029h.009c.278.028.578.038.9.033a6.324 6.324 0 0 0 1.963-.36c.115-.05.227-.093.336-.13 1.494-.585 3.14-.912 4.934-.983 2.493-.104 4.56.314 6.203 1.252 1.064.606 1.781 1.345 2.152 2.218.06.137.109.279.147.426z" fill="#9C3321"/>
    <path d="M86.119 48.445a3.411 3.411 0 0 1-.14.916c-.19.633-.583 1.209-1.178 1.727h-.008a1.339 1.339 0 0 0-.099.09.187.187 0 0 0-.033.066v.033c.002.05.032.09.09.123a.48.48 0 0 0 .279.057.596.596 0 0 0 .27-.074 1.54 1.54 0 0 0 .09-.058l.008-.008c.251-.191.489-.382.712-.573 1.239-1.102 1.994-2.297 2.267-3.585a4.18 4.18 0 0 0 .066-.384c.021-.153.035-.303.04-.45.006-.099.009-.194.009-.286-.033-1.801-1.13-3.317-3.29-4.55-2.45-1.397-5.551-2.019-9.305-1.866-2.291.093-4.419.46-6.383 1.104-.403.131-.802.276-1.194.434a5.33 5.33 0 0 0-.246.131c-.518.29-.886.614-1.104.974.224-.3.764-.279 1.62.065.306.12.538.29.696.508.087.109.153.234.196.376.136.42.095.96-.123 1.62a.32.32 0 0 0-.016.041c.278.027.578.039.9.033a6.324 6.324 0 0 0 1.964-.36c.114-.049.226-.093.335-.13 1.495-.584 3.14-.911 4.934-.983 2.493-.103 4.561.314 6.203 1.253 1.064.605 1.782 1.344 2.152 2.217.198.469.294.982.288 1.539z" fill="#DD4E34"/>
    <g>
      <path d="M105.73 29.77a4.617 4.617 0 0 1-.63-.188 3.725 3.725 0 0 0-.958-.041 5.294 5.294 0 0 0-.303.025 8.54 8.54 0 0 0-1.612.294c-.611.17-1.307.117-2.087-.155a1.498 1.498 0 0 1-.515-.311l-.009 2.013c.147.142.322.25.524.328.78.273 1.476.324 2.087.155a8.68 8.68 0 0 1 2.07-.328c.294-.01.562.006.802.05.202.076.412.139.63.188.202.05.404.085.605.106v-2.029a4.84 4.84 0 0 1-.604-.107z" fill="#546F32"/>
      <path d="M106.482 28.215a1.124 1.124 0 0 0-.196-.376c-.159-.219-.39-.388-.696-.508-.856-.344-1.396-.365-1.62-.065l-.066.114a1.472 1.472 0 0 0-.163.802c0 .044.005.085.016.123.005.044-.016.164-.066.36-.049.19-.308.415-.777.67-.47.246-.993.37-1.572.37-.578-.012-.938-.112-1.08-.304-.147-.196-.248-.278-.303-.245-.065.021-.15.068-.253.139l-.082.065-.025.009.025.024c.147.137.32.24.515.311.78.273 1.476.325 2.087.156a8.54 8.54 0 0 1 1.612-.295c.099-.01.2-.02.303-.025.055-.005.107-.008.156-.008.294-.01.562.005.802.05.202.075.412.138.63.188.202.049.404.084.605.106h.009a.32.32 0 0 1 .016-.041c.219-.66.26-1.2.123-1.62z" fill="#709342"/>
      <path d="M125.484 31.325c-.005.147-.02.297-.04.45-.017.13-.04.259-.066.384-.273 1.288-1.029 2.483-2.267 3.585-.224.19-.46.381-.712.573l-.009.008-.09.058a.596.596 0 0 1-.27.074.484.484 0 0 1-.278-.057c-.059-.033-.089-.074-.09-.123v2.004c-.005.06.025.11.09.147a.48.48 0 0 0 .278.058.596.596 0 0 0 .27-.074c.028-.016.058-.035.09-.057l.009-.008c1.806-1.359 2.82-2.873 3.044-4.542.033-.224.05-.445.05-.663 0-.071-.004-.14-.009-.205v-1.612zm-2.504 3.036c.088-.295.134-.6.14-.917a3.85 3.85 0 0 0-.287-1.538c-.37-.873-1.088-1.613-2.152-2.218-1.642-.938-3.71-1.356-6.203-1.252-1.795.07-3.44.398-4.934.982-.11.038-.221.082-.336.13a6.324 6.324 0 0 1-1.963.36 7.815 7.815 0 0 1-.9-.032h-.009v2.029h.009c.278.028.578.038.9.033a6.324 6.324 0 0 0 1.963-.36c.115-.05.227-.093.336-.13 1.494-.585 3.14-.912 4.934-.983 2.493-.104 4.56.314 6.203 1.252 1.064.606 1.781 1.345 2.152 2.218.06.137.109.279.147.426z" fill="#9C3321"/>
      <path d="M123.119 33.445a3.411 3.411 0 0 1-.14.916c-.19.633-.583 1.209-1.178 1.727h-.008a1.339 1.339 0 0 0-.099.09.187.187 0 0 0-.033.066v.033c.002.05.032.09.09.123a.48.48 0 0 0 .279.057.596.596 0 0 0 .27-.074 1.54 1.54 0 0 0 .09-.058l.008-.008c.251-.191.489-.382.712-.573 1.239-1.102 1.994-2.297 2.267-3.585a4.18 4.18 0 0 0 .066-.384c.021-.153.035-.303.04-.45.006-.099.009-.194.009-.286-.033-1.801-1.13-3.317-3.29-4.55-2.45-1.397-5.551-2.019-9.305-1.866-2.291.093-4.419.46-6.383 1.104-.403.131-.802.276-1.194.434a5.33 5.33 0 0 0-.246.131c-.518.29-.886.614-1.104.974.224-.3.764-.279 1.62.065.306.12.538.29.696.508.087.109.153.234.196.376.136.42.095.96-.123 1.62a.32.32 0 0 0-.016.041c.278.027.578.039.9.033a6.324 6.324 0 0 0 1.964-.36c.114-.049.226-.093.335-.13 1.495-.584 3.14-.911 4.934-.983 2.493-.103 4.561.314 6.203 1.253 1.064.605 1.782 1.344 2.152 2.217.198.469.294.982.288 1.539z" fill="#DD4E34"/>
    </g>
    <g>
      <path d="M119.73 84.77a4.617 4.617 0 0 1-.63-.188 3.725 3.725 0 0 0-.958-.041 5.294 5.294 0 0 0-.303.025 8.54 8.54 0 0 0-1.612.294c-.611.17-1.307.117-2.087-.155a1.498 1.498 0 0 1-.515-.311l-.009 2.013c.147.142.322.25.524.328.78.273 1.476.324 2.087.155a8.68 8.68 0 0 1 2.07-.328c.294-.01.562.006.802.05.202.076.412.139.63.188.202.05.404.085.605.106v-2.029a4.84 4.84 0 0 1-.604-.107z" fill="#546F32"/>
      <path d="M120.482 83.215a1.124 1.124 0 0 0-.196-.376c-.159-.219-.39-.388-.696-.508-.856-.344-1.396-.365-1.62-.065l-.066.114a1.472 1.472 0 0 0-.163.802c0 .044.005.085.016.123.005.044-.016.164-.066.36-.049.19-.308.415-.777.67-.47.246-.993.37-1.572.37-.578-.012-.938-.112-1.08-.304-.147-.196-.248-.278-.303-.245-.065.021-.15.068-.253.139l-.082.065-.025.009.025.024c.147.137.32.24.515.311.78.273 1.476.325 2.087.156a8.54 8.54 0 0 1 1.612-.295c.099-.01.2-.02.303-.025.055-.005.107-.008.156-.008.294-.01.562.005.802.05.202.075.412.138.63.188.202.049.404.084.605.106h.009a.32.32 0 0 1 .016-.041c.219-.66.26-1.2.123-1.62z" fill="#709342"/>
      <path d="M139.484 86.325c-.005.147-.02.297-.04.45-.017.13-.04.259-.066.384-.273 1.288-1.029 2.483-2.267 3.585-.224.19-.46.381-.712.573l-.009.008-.09.058a.596.596 0 0 1-.27.074.484.484 0 0 1-.278-.057c-.059-.033-.089-.074-.09-.123v2.004c-.005.06.025.11.09.147a.48.48 0 0 0 .278.058.596.596 0 0 0 .27-.074c.028-.016.058-.035.09-.057l.009-.008c1.806-1.359 2.82-2.873 3.044-4.542.033-.224.05-.445.05-.663 0-.071-.004-.14-.009-.205v-1.612zm-2.504 3.036c.088-.295.134-.6.14-.917a3.85 3.85 0 0 0-.287-1.538c-.37-.873-1.088-1.613-2.152-2.218-1.642-.938-3.71-1.356-6.203-1.252-1.795.07-3.44.398-4.934.982-.11.038-.221.082-.336.13a6.324 6.324 0 0 1-1.963.36 7.815 7.815 0 0 1-.9-.032h-.009v2.029h.009c.278.028.578.038.9.033a6.324 6.324 0 0 0 1.963-.36c.115-.05.227-.093.336-.13 1.494-.585 3.14-.912 4.934-.983 2.493-.104 4.56.314 6.203 1.252 1.064.606 1.781 1.345 2.152 2.218.06.137.109.279.147.426z" fill="#9C3321"/>
      <path d="M137.119 88.445a3.411 3.411 0 0 1-.14.916c-.19.633-.583 1.209-1.178 1.727h-.008a1.339 1.339 0 0 0-.099.09.187.187 0 0 0-.033.066v.033c.002.05.032.09.09.123a.48.48 0 0 0 .279.057.596.596 0 0 0 .27-.074 1.54 1.54 0 0 0 .09-.058l.008-.008c.251-.191.489-.382.712-.573 1.239-1.102 1.994-2.297 2.267-3.585a4.18 4.18 0 0 0 .066-.384c.021-.153.035-.303.04-.45.006-.099.009-.194.009-.286-.033-1.801-1.13-3.317-3.29-4.55-2.45-1.397-5.551-2.019-9.305-1.866-2.291.093-4.419.46-6.383 1.104-.403.131-.802.276-1.194.434a5.33 5.33 0 0 0-.246.131c-.518.29-.886.614-1.104.974.224-.3.764-.279 1.62.065.306.12.538.29.696.508.087.109.153.234.196.376.136.42.095.96-.123 1.62a.32.32 0 0 0-.016.041c.278.027.578.039.9.033a6.324 6.324 0 0 0 1.964-.36c.114-.049.226-.093.335-.13 1.495-.584 3.14-.911 4.934-.983 2.493-.103 4.561.314 6.203 1.253 1.064.605 1.782 1.344 2.152 2.217.198.469.294.982.288 1.539z" fill="#DD4E34"/>
    </g>
    <g>
      <path d="M181.73 52.77a4.617 4.617 0 0 1-.63-.188 3.725 3.725 0 0 0-.958-.041 5.294 5.294 0 0 0-.303.025 8.54 8.54 0 0 0-1.612.294c-.611.17-1.307.117-2.087-.155a1.498 1.498 0 0 1-.515-.311l-.009 2.013c.147.142.322.25.524.328.78.273 1.476.324 2.087.155a8.68 8.68 0 0 1 2.07-.328c.294-.01.562.006.802.05.202.076.412.139.63.188.202.05.404.085.605.106v-2.029a4.84 4.84 0 0 1-.604-.107z" fill="#546F32"/>
      <path d="M182.482 51.215a1.124 1.124 0 0 0-.196-.376c-.159-.219-.39-.388-.696-.508-.856-.344-1.396-.365-1.62-.065l-.066.114a1.472 1.472 0 0 0-.163.802c0 .044.005.085.016.123.005.044-.016.164-.066.36-.049.19-.308.415-.777.67-.47.246-.993.37-1.572.37-.578-.012-.938-.112-1.08-.304-.147-.196-.248-.278-.303-.245-.065.021-.15.068-.253.139l-.082.065-.025.009.025.024c.147.137.32.24.515.311.78.273 1.476.325 2.087.156a8.54 8.54 0 0 1 1.612-.295c.099-.01.2-.02.303-.025.055-.005.107-.008.156-.008.294-.01.562.005.802.05.202.075.412.138.63.188.202.049.404.084.605.106h.009a.32.32 0 0 1 .016-.041c.219-.66.26-1.2.123-1.62z" fill="#709342"/>
      <path d="M201.484 54.325c-.005.147-.02.297-.04.45-.017.13-.04.259-.066.384-.273 1.288-1.029 2.483-2.267 3.585-.224.19-.46.381-.712.573l-.009.008-.09.058a.596.596 0 0 1-.27.074.484.484 0 0 1-.278-.057c-.059-.033-.089-.074-.09-.123v2.004c-.005.06.025.11.09.147a.48.48 0 0 0 .278.058.596.596 0 0 0 .27-.074c.028-.016.058-.035.09-.057l.009-.008c1.806-1.359 2.82-2.873 3.044-4.542.033-.224.05-.445.05-.663 0-.071-.004-.14-.009-.205v-1.612zm-2.504 3.036c.088-.295.134-.6.14-.917a3.85 3.85 0 0 0-.287-1.538c-.37-.873-1.088-1.613-2.152-2.218-1.642-.938-3.71-1.356-6.203-1.252-1.795.07-3.44.398-4.934.982-.11.038-.221.082-.336.13a6.324 6.324 0 0 1-1.963.36 7.815 7.815 0 0 1-.9-.032h-.009v2.029h.009c.278.028.578.038.9.033a6.324 6.324 0 0 0 1.963-.36c.115-.05.227-.093.336-.13 1.494-.585 3.14-.912 4.934-.983 2.493-.104 4.56.314 6.203 1.252 1.064.606 1.781 1.345 2.152 2.218.06.137.109.279.147.426z" fill="#9C3321"/>
      <path d="M199.119 56.445a3.411 3.411 0 0 1-.14.916c-.19.633-.583 1.209-1.178 1.727h-.008a1.339 1.339 0 0 0-.099.09.187.187 0 0 0-.033.066v.033c.002.05.032.09.09.123a.48.48 0 0 0 .279.057.596.596 0 0 0 .27-.074 1.54 1.54 0 0 0 .09-.058l.008-.008c.251-.191.489-.382.712-.573 1.239-1.102 1.994-2.297 2.267-3.585a4.18 4.18 0 0 0 .066-.384c.021-.153.035-.303.04-.45.006-.099.009-.194.009-.286-.033-1.801-1.13-3.317-3.29-4.55-2.45-1.397-5.551-2.019-9.305-1.866-2.291.093-4.419.46-6.383 1.104-.403.131-.802.276-1.194.434a5.33 5.33 0 0 0-.246.131c-.518.29-.886.614-1.104.974.224-.3.764-.279 1.62.065.306.12.538.29.696.508.087.109.153.234.196.376.136.42.095.96-.123 1.62a.32.32 0 0 0-.016.041c.278.027.578.039.9.033a6.324 6.324 0 0 0 1.964-.36c.114-.049.226-.093.335-.13 1.495-.584 3.14-.911 4.934-.983 2.493-.103 4.561.314 6.203 1.253 1.064.605 1.782 1.344 2.152 2.217.198.469.294.982.288 1.539z" fill="#DD4E34"/>
    </g>
  </g>
</svg>
