<svg width="225" height="159" viewBox="0 0 225 159" xmlns="http://www.w3.org/2000/svg">
  <g fill-rule="nonzero" fill="none">
    <path d="M105.607 39.794v-1.597c-.035.259-.106.507-.213.744-.287.621-.83 1.169-1.629 1.643-1.383.82-2.746.848-4.087.085-1.237-.707-2.852-1.21-4.844-1.507l.25.028c-.21-.052-.36-.075-.447-.068a69.4 69.4 0 0 0-.601-.08c-1.707-.39-2.818-1.002-3.332-1.834a2.037 2.037 0 0 1-.26-.671 2.619 2.619 0 0 1-.054-.457l.006 2.206a2.489 2.489 0 0 0 .048.598c.227 1.17 1.451 1.914 3.672 2.23l.155.006c2.264.504 4.066 1.136 5.407 1.896 1.342.764 2.704.736 4.088-.085 1.285-.76 1.906-1.715 1.863-2.867-.004-.09-.01-.18-.022-.27zM93.334 37.26a.34.34 0 0 1-.022-.017c-.2-.035-.193-.03.022.017zm-1.576-.943l.48.536c.178.112.52.23 1.027.356-1.706-1.274-1.439-2.415.804-3.426-2.048.692-2.818 1.537-2.31 2.534z" fill="#E9E9E9"/>
    <path d="M105.629 37.988c.007-.177 0-.358-.022-.542-.149-1.275-1.023-2.403-2.624-3.38-1.6-.979-3.46-1.523-5.578-1.632-2.111-.113-3.858.24-5.242 1.061-1.192.707-1.783 1.558-1.773 2.551v.034c.004.147.022.3.053.457.046.237.133.461.261.672.514.831 1.625 1.443 3.332 1.834.031.003.232.03.601.08.088-.007.237.015.447.067l-.25-.028c1.992.298 3.607.8 4.844 1.507 1.34.764 2.704.736 4.087-.085.799-.474 1.342-1.022 1.63-1.642a2.702 2.702 0 0 0 .234-.954zm-13.392-1.135l-.479-.536c-.507-.997.263-1.842 2.31-2.534-2.242 1.01-2.51 2.152-.804 3.426-.506-.126-.848-.244-1.027-.356zm1.075.39a.256.256 0 0 0 .022.017c-.215-.047-.222-.052-.022-.017z" fill="#FFF"/>
    <path d="M77.607 58.794v-1.597c-.035.259-.106.507-.213.744-.287.621-.83 1.169-1.629 1.643-1.383.82-2.746.848-4.087.085-1.237-.707-2.852-1.21-4.844-1.507l.25.028c-.21-.052-.36-.075-.447-.068a69.4 69.4 0 0 0-.601-.08c-1.707-.39-2.818-1.002-3.332-1.834a2.037 2.037 0 0 1-.26-.671 2.619 2.619 0 0 1-.054-.457l.006 2.206a2.489 2.489 0 0 0 .048.598c.227 1.17 1.451 1.914 3.672 2.23l.155.006c2.264.504 4.066 1.136 5.407 1.896 1.342.764 2.704.736 4.088-.085 1.285-.76 1.906-1.715 1.863-2.867-.004-.09-.01-.18-.022-.27zM65.334 56.26a.34.34 0 0 1-.022-.017c-.2-.035-.193-.03.022.017zm-1.576-.943l.48.536c.178.112.52.23 1.027.356-1.706-1.274-1.439-2.415.804-3.426-2.048.692-2.818 1.537-2.31 2.534z" fill="#E9E9E9"/>
    <path d="M77.629 56.988c.007-.177 0-.358-.022-.542-.149-1.275-1.023-2.403-2.624-3.38-1.6-.979-3.46-1.523-5.578-1.632-2.111-.113-3.858.24-5.242 1.061-1.192.707-1.783 1.558-1.773 2.551v.034c.004.147.022.3.053.457.046.237.133.461.261.672.514.831 1.625 1.443 3.332 1.834.031.003.232.03.601.08.088-.007.237.015.447.067l-.25-.028c1.992.298 3.607.8 4.844 1.507 1.34.764 2.704.736 4.087-.085.799-.474 1.342-1.022 1.63-1.642a2.702 2.702 0 0 0 .234-.954zm-13.392-1.135l-.479-.536c-.507-.997.263-1.842 2.31-2.534-2.242 1.01-2.51 2.152-.804 3.426-.506-.126-.848-.244-1.027-.356zm1.075.39a.256.256 0 0 0 .022.017c-.215-.047-.222-.052-.022-.017z" fill="#FFF"/>
    <path d="M116.607 72.794v-1.597c-.035.259-.106.507-.213.744-.287.621-.83 1.169-1.629 1.643-1.383.82-2.746.848-4.087.085-1.237-.707-2.852-1.21-4.844-1.507l.25.028c-.21-.052-.36-.075-.447-.068a69.4 69.4 0 0 0-.601-.08c-1.707-.39-2.818-1.002-3.332-1.834a2.037 2.037 0 0 1-.26-.671 2.619 2.619 0 0 1-.054-.457l.006 2.206a2.489 2.489 0 0 0 .048.598c.227 1.17 1.451 1.914 3.672 2.23l.155.006c2.264.504 4.066 1.136 5.407 1.896 1.342.764 2.704.736 4.088-.085 1.285-.76 1.906-1.715 1.863-2.867-.004-.09-.01-.18-.022-.27zm-12.273-2.534a.34.34 0 0 1-.022-.017c-.2-.035-.193-.03.022.017zm-1.576-.943l.48.536c.178.112.52.23 1.027.356-1.706-1.274-1.439-2.415.804-3.426-2.048.692-2.818 1.537-2.31 2.534z" fill="#E9E9E9"/>
    <path d="M116.629 70.988c.007-.177 0-.358-.022-.542-.149-1.275-1.023-2.403-2.624-3.38-1.6-.979-3.46-1.523-5.578-1.632-2.111-.113-3.858.24-5.242 1.061-1.192.707-1.783 1.558-1.773 2.551v.034c.004.147.022.3.053.457.046.237.133.461.261.672.514.831 1.625 1.443 3.332 1.834.031.003.232.03.601.08.088-.007.237.015.447.067l-.25-.028c1.992.298 3.607.8 4.844 1.507 1.34.764 2.704.736 4.087-.085.799-.474 1.342-1.022 1.63-1.642a2.702 2.702 0 0 0 .234-.954zm-13.392-1.135l-.479-.536c-.507-.997.263-1.842 2.31-2.534-2.242 1.01-2.51 2.152-.804 3.426-.506-.126-.848-.244-1.027-.356zm1.075.39a.256.256 0 0 0 .022.017c-.215-.047-.222-.052-.022-.017z" fill="#FFF"/>
    <path d="M128.607 66.794v-1.597c-.035.259-.106.507-.213.744-.287.621-.83 1.169-1.629 1.643-1.383.82-2.746.848-4.087.085-1.237-.707-2.852-1.21-4.844-1.507l.25.028c-.21-.052-.36-.075-.447-.068a69.4 69.4 0 0 0-.601-.08c-1.707-.39-2.818-1.002-3.332-1.834a2.037 2.037 0 0 1-.26-.671 2.619 2.619 0 0 1-.054-.457l.006 2.206a2.489 2.489 0 0 0 .048.598c.227 1.17 1.451 1.914 3.672 2.23l.155.006c2.264.504 4.066 1.136 5.407 1.896 1.342.764 2.704.736 4.088-.085 1.285-.76 1.906-1.715 1.863-2.867-.004-.09-.01-.18-.022-.27zm-12.273-2.534a.34.34 0 0 1-.022-.017c-.2-.035-.193-.03.022.017zm-1.576-.943l.48.536c.178.112.52.23 1.027.356-1.706-1.274-1.439-2.415.804-3.426-2.048.692-2.818 1.537-2.31 2.534z" fill="#E9E9E9"/>
    <path d="M128.629 64.988c.007-.177 0-.358-.022-.542-.149-1.275-1.023-2.403-2.624-3.38-1.6-.979-3.46-1.523-5.578-1.632-2.111-.113-3.858.24-5.242 1.061-1.192.707-1.783 1.558-1.773 2.551v.034c.004.147.022.3.053.457.046.237.133.461.261.672.514.831 1.625 1.443 3.332 1.834.031.003.232.03.601.08.088-.007.237.015.447.067l-.25-.028c1.992.298 3.607.8 4.844 1.507 1.34.764 2.704.736 4.087-.085.799-.474 1.342-1.022 1.63-1.642a2.702 2.702 0 0 0 .234-.954zm-13.392-1.135l-.479-.536c-.507-.997.263-1.842 2.31-2.534-2.242 1.01-2.51 2.152-.804 3.426-.506-.126-.848-.244-1.027-.356zm1.075.39a.256.256 0 0 0 .022.017c-.215-.047-.222-.052-.022-.017z" fill="#FFF"/>
    <path d="M163.607 63.794v-1.597c-.035.259-.106.507-.213.744-.287.621-.83 1.169-1.629 1.643-1.383.82-2.746.848-4.087.085-1.237-.707-2.852-1.21-4.844-1.507l.25.028c-.21-.052-.36-.075-.447-.068a69.4 69.4 0 0 0-.601-.08c-1.707-.39-2.818-1.002-3.332-1.834a2.037 2.037 0 0 1-.26-.671 2.619 2.619 0 0 1-.054-.457l.006 2.206a2.489 2.489 0 0 0 .048.598c.227 1.17 1.451 1.914 3.672 2.23l.155.006c2.264.504 4.066 1.136 5.407 1.896 1.342.764 2.704.736 4.088-.085 1.285-.76 1.906-1.715 1.863-2.867-.004-.09-.01-.18-.022-.27zm-12.273-2.534a.34.34 0 0 1-.022-.017c-.2-.035-.193-.03.022.017zm-1.576-.943l.48.536c.178.112.52.23 1.027.356-1.706-1.274-1.439-2.415.804-3.426-2.048.692-2.818 1.537-2.31 2.534z" fill="#E9E9E9"/>
    <path d="M163.629 61.988c.007-.177 0-.358-.022-.542-.149-1.275-1.023-2.403-2.624-3.38-1.6-.979-3.46-1.523-5.578-1.632-2.111-.113-3.858.24-5.242 1.061-1.192.707-1.783 1.558-1.773 2.551v.034c.004.147.022.3.053.457.046.237.133.461.261.672.514.831 1.625 1.443 3.332 1.834.031.003.232.03.601.08.088-.007.237.015.447.067l-.25-.028c1.992.298 3.607.8 4.844 1.507 1.34.764 2.704.736 4.087-.085.799-.474 1.342-1.022 1.63-1.642a2.702 2.702 0 0 0 .234-.954zm-13.392-1.135l-.479-.536c-.507-.997.263-1.842 2.31-2.534-2.242 1.01-2.51 2.152-.804 3.426-.506-.126-.848-.244-1.027-.356zm1.075.39a.256.256 0 0 0 .022.017c-.215-.047-.222-.052-.022-.017z" fill="#FFF"/>
    <path d="M154.607 46.794v-1.597c-.035.259-.106.507-.213.744-.287.621-.83 1.169-1.629 1.643-1.383.82-2.746.848-4.087.085-1.237-.707-2.852-1.21-4.844-1.507l.25.028c-.21-.052-.36-.075-.447-.068a69.4 69.4 0 0 0-.601-.08c-1.707-.39-2.818-1.002-3.332-1.834a2.037 2.037 0 0 1-.26-.671 2.619 2.619 0 0 1-.054-.457l.006 2.206a2.489 2.489 0 0 0 .048.598c.227 1.17 1.451 1.914 3.672 2.23l.155.006c2.264.504 4.066 1.136 5.407 1.896 1.342.764 2.704.736 4.088-.085 1.285-.76 1.906-1.715 1.863-2.867-.004-.09-.01-.18-.022-.27zm-12.273-2.534a.34.34 0 0 1-.022-.017c-.2-.035-.193-.03.022.017zm-1.576-.943l.48.536c.178.112.52.23 1.027.356-1.706-1.274-1.439-2.415.804-3.426-2.048.692-2.818 1.537-2.31 2.534z" fill="#E9E9E9"/>
    <path d="M154.629 44.988c.007-.177 0-.358-.022-.542-.149-1.275-1.023-2.403-2.624-3.38-1.6-.979-3.46-1.523-5.578-1.632-2.111-.113-3.858.24-5.242 1.061-1.192.707-1.783 1.558-1.773 2.551v.034c.004.147.022.3.053.457.046.237.133.461.261.672.514.831 1.625 1.443 3.332 1.834.031.003.232.03.601.08.088-.007.237.015.447.067l-.25-.028c1.992.298 3.607.8 4.844 1.507 1.34.764 2.704.736 4.087-.085.799-.474 1.342-1.022 1.63-1.642a2.702 2.702 0 0 0 .234-.954zm-13.392-1.135l-.479-.536c-.507-.997.263-1.842 2.31-2.534-2.242 1.01-2.51 2.152-.804 3.426-.506-.126-.848-.244-1.027-.356zm1.075.39a.256.256 0 0 0 .022.017c-.215-.047-.222-.052-.022-.017z" fill="#FFF"/>
    <g>
      <path d="M182.607 52.794v-1.597c-.035.259-.106.507-.213.744-.287.621-.83 1.169-1.629 1.643-1.383.82-2.746.848-4.087.085-1.237-.707-2.852-1.21-4.844-1.507l.25.028c-.21-.052-.36-.075-.447-.068a69.4 69.4 0 0 0-.601-.08c-1.707-.39-2.818-1.002-3.332-1.834a2.037 2.037 0 0 1-.26-.671 2.619 2.619 0 0 1-.054-.457l.006 2.206a2.489 2.489 0 0 0 .048.598c.227 1.17 1.451 1.914 3.672 2.23l.155.006c2.264.504 4.066 1.136 5.407 1.896 1.342.764 2.704.736 4.088-.085 1.285-.76 1.906-1.715 1.863-2.867-.004-.09-.01-.18-.022-.27zm-12.273-2.534a.34.34 0 0 1-.022-.017c-.2-.035-.193-.03.022.017zm-1.576-.943l.48.536c.178.112.52.23 1.027.356-1.706-1.274-1.439-2.415.804-3.426-2.048.692-2.818 1.537-2.31 2.534z" fill="#E9E9E9"/>
      <path d="M182.629 50.988c.007-.177 0-.358-.022-.542-.149-1.275-1.023-2.403-2.624-3.38-1.6-.979-3.46-1.523-5.578-1.632-2.111-.113-3.858.24-5.242 1.061-1.192.707-1.783 1.558-1.773 2.551v.034c.004.147.022.3.053.457.046.237.133.461.261.672.514.831 1.625 1.443 3.332 1.834.031.003.232.03.601.08.088-.007.237.015.447.067l-.25-.028c1.992.298 3.607.8 4.844 1.507 1.34.764 2.704.736 4.087-.085.799-.474 1.342-1.022 1.63-1.642a2.702 2.702 0 0 0 .234-.954zm-13.392-1.135l-.479-.536c-.507-.997.263-1.842 2.31-2.534-2.242 1.01-2.51 2.152-.804 3.426-.506-.126-.848-.244-1.027-.356zm1.075.39a.256.256 0 0 0 .022.017c-.215-.047-.222-.052-.022-.017z" fill="#FFF"/>
    </g>
    <g>
      <path d="M132.607 39.794v-1.597c-.035.259-.106.507-.213.744-.287.621-.83 1.169-1.629 1.643-1.383.82-2.746.848-4.087.085-1.237-.707-2.852-1.21-4.844-1.507l.25.028c-.21-.052-.36-.075-.447-.068a69.4 69.4 0 0 0-.601-.08c-1.707-.39-2.818-1.002-3.332-1.834a2.037 2.037 0 0 1-.26-.671 2.619 2.619 0 0 1-.054-.457l.006 2.206a2.489 2.489 0 0 0 .048.598c.227 1.17 1.451 1.914 3.672 2.23l.155.006c2.264.504 4.066 1.136 5.407 1.896 1.342.764 2.704.736 4.088-.085 1.285-.76 1.906-1.715 1.863-2.867-.004-.09-.01-.18-.022-.27zm-12.273-2.534a.34.34 0 0 1-.022-.017c-.2-.035-.193-.03.022.017zm-1.576-.943l.48.536c.178.112.52.23 1.027.356-1.706-1.274-1.439-2.415.804-3.426-2.048.692-2.818 1.537-2.31 2.534z" fill="#E9E9E9"/>
      <path d="M132.629 37.988c.007-.177 0-.358-.022-.542-.149-1.275-1.023-2.403-2.624-3.38-1.6-.979-3.46-1.523-5.578-1.632-2.111-.113-3.858.24-5.242 1.061-1.192.707-1.783 1.558-1.773 2.551v.034c.004.147.022.3.053.457.046.237.133.461.261.672.514.831 1.625 1.443 3.332 1.834.031.003.232.03.601.08.088-.007.237.015.447.067l-.25-.028c1.992.298 3.607.8 4.844 1.507 1.34.764 2.704.736 4.087-.085.799-.474 1.342-1.022 1.63-1.642a2.702 2.702 0 0 0 .234-.954zm-13.392-1.135l-.479-.536c-.507-.997.263-1.842 2.31-2.534-2.242 1.01-2.51 2.152-.804 3.426-.506-.126-.848-.244-1.027-.356zm1.075.39a.256.256 0 0 0 .022.017c-.215-.047-.222-.052-.022-.017z" fill="#FFF"/>
    </g>
    <g>
      <path d="M159.607 34.794v-1.597c-.035.259-.106.507-.213.744-.287.621-.83 1.169-1.629 1.643-1.383.82-2.746.848-4.087.085-1.237-.707-2.852-1.21-4.844-1.507l.25.028c-.21-.052-.36-.075-.447-.068a69.4 69.4 0 0 0-.601-.08c-1.707-.39-2.818-1.002-3.332-1.834a2.037 2.037 0 0 1-.26-.671 2.619 2.619 0 0 1-.054-.457l.006 2.206a2.489 2.489 0 0 0 .048.598c.227 1.17 1.451 1.914 3.672 2.23l.155.006c2.264.504 4.066 1.136 5.407 1.896 1.342.764 2.704.736 4.088-.085 1.285-.76 1.906-1.715 1.863-2.867-.004-.09-.01-.18-.022-.27zm-12.273-2.534a.34.34 0 0 1-.022-.017c-.2-.035-.193-.03.022.017zm-1.576-.943l.48.536c.178.112.52.23 1.027.356-1.706-1.274-1.439-2.415.804-3.426-2.048.692-2.818 1.537-2.31 2.534z" fill="#E9E9E9"/>
      <path d="M159.629 32.988c.007-.177 0-.358-.022-.542-.149-1.275-1.023-2.403-2.624-3.38-1.6-.979-3.46-1.523-5.578-1.632-2.111-.113-3.858.24-5.242 1.061-1.192.707-1.783 1.558-1.773 2.551v.034c.004.147.022.3.053.457.046.237.133.461.261.672.514.831 1.625 1.443 3.332 1.834.031.003.232.03.601.08.088-.007.237.015.447.067l-.25-.028c1.992.298 3.607.8 4.844 1.507 1.34.764 2.704.736 4.087-.085.799-.474 1.342-1.022 1.63-1.642a2.702 2.702 0 0 0 .234-.954zm-13.392-1.135l-.479-.536c-.507-.997.263-1.842 2.31-2.534-2.242 1.01-2.51 2.152-.804 3.426-.506-.126-.848-.244-1.027-.356zm1.075.39a.256.256 0 0 0 .022.017c-.215-.047-.222-.052-.022-.017z" fill="#FFF"/>
    </g>
    <g>
      <path d="M89.607 75.794v-1.597c-.035.259-.106.507-.213.744-.287.621-.83 1.169-1.629 1.643-1.383.82-2.746.848-4.087.085-1.237-.707-2.852-1.21-4.844-1.507l.25.028c-.21-.052-.36-.075-.447-.068a69.4 69.4 0 0 0-.601-.08c-1.707-.39-2.818-1.002-3.332-1.834a2.037 2.037 0 0 1-.26-.671 2.619 2.619 0 0 1-.054-.457l.006 2.206a2.489 2.489 0 0 0 .048.598c.227 1.17 1.451 1.914 3.672 2.23l.155.006c2.264.504 4.066 1.136 5.407 1.896 1.342.764 2.704.736 4.088-.085 1.285-.76 1.906-1.715 1.863-2.867-.004-.09-.01-.18-.022-.27zM77.334 73.26a.34.34 0 0 1-.022-.017c-.2-.035-.193-.03.022.017zm-1.576-.943l.48.536c.178.112.52.23 1.027.356-1.706-1.274-1.439-2.415.804-3.426-2.048.692-2.818 1.537-2.31 2.534z" fill="#E9E9E9"/>
      <path d="M89.629 73.988c.007-.177 0-.358-.022-.542-.149-1.275-1.023-2.403-2.624-3.38-1.6-.979-3.46-1.523-5.578-1.632-2.111-.113-3.858.24-5.242 1.061-1.192.707-1.783 1.558-1.773 2.551v.034c.004.147.022.3.053.457.046.237.133.461.261.672.514.831 1.625 1.443 3.332 1.834.031.003.232.03.601.08.088-.007.237.015.447.067l-.25-.028c1.992.298 3.607.8 4.844 1.507 1.34.764 2.704.736 4.087-.085.799-.474 1.342-1.022 1.63-1.642a2.702 2.702 0 0 0 .234-.954zm-13.392-1.135l-.479-.536c-.507-.997.263-1.842 2.31-2.534-2.242 1.01-2.51 2.152-.804 3.426-.506-.126-.848-.244-1.027-.356zm1.075.39a.256.256 0 0 0 .022.017c-.215-.047-.222-.052-.022-.017z" fill="#FFF"/>
    </g>
    <g>
      <path d="M128.607 89.794v-1.597c-.035.259-.106.507-.213.744-.287.621-.83 1.169-1.629 1.643-1.383.82-2.746.848-4.087.085-1.237-.707-2.852-1.21-4.844-1.507l.25.028c-.21-.052-.36-.075-.447-.068a69.4 69.4 0 0 0-.601-.08c-1.707-.39-2.818-1.002-3.332-1.834a2.037 2.037 0 0 1-.26-.671 2.619 2.619 0 0 1-.054-.457l.006 2.206a2.489 2.489 0 0 0 .048.598c.227 1.17 1.451 1.914 3.672 2.23l.155.006c2.264.504 4.066 1.136 5.407 1.896 1.342.764 2.704.736 4.088-.085 1.285-.76 1.906-1.715 1.863-2.867-.004-.09-.01-.18-.022-.27zm-12.273-2.534a.34.34 0 0 1-.022-.017c-.2-.035-.193-.03.022.017zm-1.576-.943l.48.536c.178.112.52.23 1.027.356-1.706-1.274-1.439-2.415.804-3.426-2.048.692-2.818 1.537-2.31 2.534z" fill="#E9E9E9"/>
      <path d="M128.629 87.988c.007-.177 0-.358-.022-.542-.149-1.275-1.023-2.403-2.624-3.38-1.6-.979-3.46-1.523-5.578-1.632-2.111-.113-3.858.24-5.242 1.061-1.192.707-1.783 1.558-1.773 2.551v.034c.004.147.022.3.053.457.046.237.133.461.261.672.514.831 1.625 1.443 3.332 1.834.031.003.232.03.601.08.088-.007.237.015.447.067l-.25-.028c1.992.298 3.607.8 4.844 1.507 1.34.764 2.704.736 4.087-.085.799-.474 1.342-1.022 1.63-1.642a2.702 2.702 0 0 0 .234-.954zm-13.392-1.135l-.479-.536c-.507-.997.263-1.842 2.31-2.534-2.242 1.01-2.51 2.152-.804 3.426-.506-.126-.848-.244-1.027-.356zm1.075.39a.256.256 0 0 0 .022.017c-.215-.047-.222-.052-.022-.017z" fill="#FFF"/>
    </g>
  </g>
</svg>
