<svg width="225" height="159" viewBox="0 0 225 159" xmlns="http://www.w3.org/2000/svg">
  <g fill-rule="nonzero" fill="none">
    <path d="M176.285 35.27a.76.76 0 0 1 .136.118.285.285 0 0 1 .064.15v.047c.527-.042.975-.168 1.343-.379.037-.02.072-.042.104-.063.49-.316.674-.721.551-1.216a1.613 1.613 0 0 0-.303-.592l-.408.237c.059.1.102.202.128.308a.803.803 0 0 1-.152.75c-.01.016-.024.034-.04.056a1.814 1.814 0 0 1-.36.268c-.17.095-.36.172-.567.23-.155.035-.32.064-.496.085zm-1.67-3.412l.399-.23a7.24 7.24 0 0 0-.896-.118c-.938-.063-1.692.068-2.262.395-.32.179-.533.39-.64.632h.024c.181.005.346.042.496.11.09-.2.26-.37.512-.513.48-.274 1.116-.382 1.91-.324.15.011.301.027.456.048z" fill="#918778"/>
    <path d="M171.632 33.398c-.091.015-.19.023-.296.023a1.259 1.259 0 0 1-.576-.142.76.76 0 0 1-.144-.102l-.008-.016a3.232 3.232 0 0 1-.695-1.31v-.009a2.342 2.342 0 0 1-.065-.457l-.008.924v.079c.005.168.03.344.072.529.102.405.293.795.576 1.168.426-.2.848-.405 1.263-.616.107-.058.214-.113.32-.165v-.245c-.01.095-.074.176-.191.245-.043.02-.085.042-.128.063l-.12.03z" fill="#C6C1B7"/>
    <path d="M174.918 35.498v-.032c0-.1.067-.19.2-.269a.993.993 0 0 1 .536-.118c.218.006.408.055.567.15h.016a.32.32 0 0 1 .048.04c.176-.021.341-.05.496-.087.298-.169.608-.334.927-.497.016-.021.03-.04.04-.056a.801.801 0 0 0 .152-.75 1.192 1.192 0 0 0-.128-.308c-2.41 1.242-4.272 2.545-5.589 3.908l-.016-.008v1.074l.016.008c.741-.763 1.653-1.508 2.734-2.235v.253c.016.126.104.237.264.331a.206.206 0 0 1 .048.024c.054.021.104.04.152.056a12.413 12.413 0 0 0 2.726.465c1.87.132 3.374-.126 4.509-.774.805-.458 1.229-.992 1.271-1.603a1.134 1.134 0 0 0 0-.19l.009-.947c-.01.163-.043.324-.096.482-.171.437-.566.832-1.184 1.184-1.136.648-2.639.906-4.51.774a13.773 13.773 0 0 1-1.262-.134 13.601 13.601 0 0 1-1.463-.331 2.8 2.8 0 0 1-.152-.055.206.206 0 0 0-.048-.024c-.16-.094-.247-.205-.263-.331z" fill="#B4ADA3"/>
    <path d="M174.614 31.858a7.165 7.165 0 0 0-.455-.047c-.795-.058-1.431.05-1.911.323-.25.143-.421.313-.512.514a.49.49 0 0 1 .056.024l.016.015c.165.09.253.192.264.308v.309l.176-.095a40.82 40.82 0 0 0 2.367-1.35z" fill="#706B60"/>
    <path fill="#C8C4BB" d="M167.586 35.332l.008 1.082 4.573 2.132v-1.074z"/>
    <path d="M175.566 28.66c-1.754-.216-3.199 0-4.334.647-.884.506-1.346 1.132-1.382 1.88a.868.868 0 0 0 0 .165v.032c.005.148.027.3.063.458v.008a3.24 3.24 0 0 0 .696 1.31l.008.016a.72.72 0 0 0 .144.102c.165.09.357.137.576.143.106 0 .205-.008.296-.024.043-.01.082-.02.12-.032.043-.02.086-.042.128-.063.117-.068.18-.15.191-.245v-.064c-.01-.115-.098-.218-.263-.308l-.016-.015a.416.416 0 0 0-.056-.024 1.266 1.266 0 0 0-.496-.11h-.024c.106-.243.32-.453.64-.632.57-.327 1.323-.458 2.262-.395.304.02.603.06.896.119l-.4.229a39.889 39.889 0 0 1-2.367 1.35l-.176.095a9.354 9.354 0 0 0-.32.166c-.416.21-.837.415-1.263.616-.933.437-1.901.852-2.903 1.247l4.581 2.14.016.008c1.317-1.363 3.18-2.666 5.59-3.908l.407-.237c.149.19.25.387.303.592.123.495-.061.9-.551 1.216-.033.02-.067.042-.104.063-.368.21-.816.337-1.343.38v-.048a.285.285 0 0 0-.064-.15.76.76 0 0 0-.136-.119.32.32 0 0 0-.048-.04h-.016a1.147 1.147 0 0 0-.567-.15 1 1 0 0 0-.536.119c-.133.079-.2.168-.2.269v.031c.016.127.104.237.264.332a.206.206 0 0 1 .048.024 2.8 2.8 0 0 0 .207.07 13.601 13.601 0 0 0 1.407.316c.41.063.832.108 1.263.134 1.871.132 3.375-.126 4.51-.774.618-.352 1.013-.747 1.183-1.184.053-.158.085-.319.096-.482v-.032a2.029 2.029 0 0 0-.152-.703c-.384-.958-1.321-1.853-2.814-2.684a.583.583 0 0 0-.056-.032 1.27 1.27 0 0 1-.072-.04l-.064-.039-.712-.387a13.17 13.17 0 0 0-4.46-1.356z" fill="#F7F1E6"/>
    <g>
      <path d="M149.285 28.27a.76.76 0 0 1 .136.118.285.285 0 0 1 .064.15v.047c.527-.042.975-.168 1.343-.379.037-.02.072-.042.104-.063.49-.316.674-.721.551-1.216a1.613 1.613 0 0 0-.303-.592l-.408.237c.059.1.102.202.128.308a.803.803 0 0 1-.152.75c-.01.016-.024.034-.04.056a1.814 1.814 0 0 1-.36.268c-.17.095-.36.172-.567.23-.155.035-.32.064-.496.085zm-1.67-3.412l.399-.23a7.24 7.24 0 0 0-.896-.118c-.938-.063-1.692.068-2.262.395-.32.179-.533.39-.64.632h.024c.181.005.346.042.496.11.09-.2.26-.37.512-.513.48-.274 1.116-.382 1.91-.324.15.011.301.027.456.048z" fill="#918778"/>
      <path d="M144.632 26.398c-.091.015-.19.023-.296.023a1.259 1.259 0 0 1-.576-.142.76.76 0 0 1-.144-.102l-.008-.016a3.232 3.232 0 0 1-.695-1.31v-.009a2.342 2.342 0 0 1-.065-.457l-.008.924v.079c.005.168.03.344.072.529.102.405.293.795.576 1.168.426-.2.848-.405 1.263-.616.107-.058.214-.113.32-.165v-.245c-.01.095-.074.176-.191.245-.043.02-.085.042-.128.063l-.12.03z" fill="#C6C1B7"/>
      <path d="M147.918 28.498v-.032c0-.1.067-.19.2-.269a.993.993 0 0 1 .536-.118c.218.006.408.055.567.15h.016a.32.32 0 0 1 .048.04c.176-.021.341-.05.496-.087.298-.169.608-.334.927-.497.016-.021.03-.04.04-.056a.801.801 0 0 0 .152-.75 1.192 1.192 0 0 0-.128-.308c-2.41 1.242-4.272 2.545-5.589 3.908l-.016-.008v1.074l.016.008c.741-.763 1.653-1.508 2.734-2.235v.253c.016.126.104.237.264.331a.206.206 0 0 1 .048.024c.054.021.104.04.152.056a12.413 12.413 0 0 0 2.726.465c1.87.132 3.374-.126 4.509-.774.805-.458 1.229-.992 1.271-1.603a1.134 1.134 0 0 0 0-.19l.009-.947c-.01.163-.043.324-.096.482-.171.437-.566.832-1.184 1.184-1.136.648-2.639.906-4.51.774a13.773 13.773 0 0 1-1.262-.134 13.601 13.601 0 0 1-1.463-.331 2.8 2.8 0 0 1-.152-.055.206.206 0 0 0-.048-.024c-.16-.094-.247-.205-.263-.331z" fill="#B4ADA3"/>
      <path d="M147.614 24.858a7.165 7.165 0 0 0-.455-.047c-.795-.058-1.431.05-1.911.323-.25.143-.421.313-.512.514a.49.49 0 0 1 .056.024l.016.015c.165.09.253.192.264.308v.309l.176-.095a40.82 40.82 0 0 0 2.367-1.35z" fill="#706B60"/>
      <path fill="#C8C4BB" d="M140.586 28.332l.008 1.082 4.573 2.132v-1.074z"/>
      <path d="M148.566 21.66c-1.754-.216-3.199 0-4.334.647-.884.506-1.346 1.132-1.382 1.88a.868.868 0 0 0 0 .165v.032c.005.148.027.3.063.458v.008a3.24 3.24 0 0 0 .696 1.31l.008.016a.72.72 0 0 0 .144.102c.165.09.357.137.576.143.106 0 .205-.008.296-.024.043-.01.082-.02.12-.032.043-.02.086-.042.128-.063.117-.068.18-.15.191-.245v-.064c-.01-.115-.098-.218-.263-.308l-.016-.015a.416.416 0 0 0-.056-.024 1.266 1.266 0 0 0-.496-.11h-.024c.106-.243.32-.453.64-.632.57-.327 1.323-.458 2.262-.395.304.02.603.06.896.119l-.4.229a39.889 39.889 0 0 1-2.367 1.35l-.176.095a9.354 9.354 0 0 0-.32.166c-.416.21-.837.415-1.263.616-.933.437-1.901.852-2.903 1.247l4.581 2.14.016.008c1.317-1.363 3.18-2.666 5.59-3.908l.407-.237c.149.19.25.387.303.592.123.495-.061.9-.551 1.216-.033.02-.067.042-.104.063-.368.21-.816.337-1.343.38v-.048a.285.285 0 0 0-.064-.15.76.76 0 0 0-.136-.119.32.32 0 0 0-.048-.04h-.016a1.147 1.147 0 0 0-.567-.15 1 1 0 0 0-.536.119c-.133.079-.2.168-.2.269v.031c.016.127.104.237.264.332a.206.206 0 0 1 .048.024 2.8 2.8 0 0 0 .207.07 13.601 13.601 0 0 0 1.407.316c.41.063.832.108 1.263.134 1.871.132 3.375-.126 4.51-.774.618-.352 1.013-.747 1.183-1.184.053-.158.085-.319.096-.482v-.032a2.029 2.029 0 0 0-.152-.703c-.384-.958-1.321-1.853-2.814-2.684a.583.583 0 0 0-.056-.032 1.27 1.27 0 0 1-.072-.04l-.064-.039-.712-.387a13.17 13.17 0 0 0-4.46-1.356z" fill="#F7F1E6"/>
    </g>
    <g>
      <path d="M149.285 88.27a.76.76 0 0 1 .136.118.285.285 0 0 1 .064.15v.047c.527-.042.975-.168 1.343-.379.037-.02.072-.042.104-.063.49-.316.674-.721.551-1.216a1.613 1.613 0 0 0-.303-.592l-.408.237c.059.1.102.202.128.308a.803.803 0 0 1-.152.75c-.01.016-.024.034-.04.056a1.814 1.814 0 0 1-.36.268c-.17.095-.36.172-.567.23-.155.035-.32.064-.496.085zm-1.67-3.412l.399-.23a7.24 7.24 0 0 0-.896-.118c-.938-.063-1.692.068-2.262.395-.32.179-.533.39-.64.632h.024c.181.005.346.042.496.11.09-.2.26-.37.512-.513.48-.274 1.116-.382 1.91-.324.15.011.301.027.456.048z" fill="#918778"/>
      <path d="M144.632 86.398c-.091.015-.19.023-.296.023a1.259 1.259 0 0 1-.576-.142.76.76 0 0 1-.144-.102l-.008-.016a3.232 3.232 0 0 1-.695-1.31v-.009a2.342 2.342 0 0 1-.065-.457l-.008.924v.079c.005.168.03.344.072.529.102.405.293.795.576 1.168.426-.2.848-.405 1.263-.616.107-.058.214-.113.32-.165v-.245c-.01.095-.074.176-.191.245-.043.02-.085.042-.128.063l-.12.03z" fill="#C6C1B7"/>
      <path d="M147.918 88.498v-.032c0-.1.067-.19.2-.269a.993.993 0 0 1 .536-.118c.218.006.408.055.567.15h.016a.32.32 0 0 1 .048.04c.176-.021.341-.05.496-.087.298-.169.608-.334.927-.497.016-.021.03-.04.04-.056a.801.801 0 0 0 .152-.75 1.192 1.192 0 0 0-.128-.308c-2.41 1.242-4.272 2.545-5.589 3.908l-.016-.008v1.074l.016.008c.741-.763 1.653-1.508 2.734-2.235v.253c.016.126.104.237.264.331a.206.206 0 0 1 .048.024c.054.021.104.04.152.056a12.413 12.413 0 0 0 2.726.465c1.87.132 3.374-.126 4.509-.774.805-.458 1.229-.992 1.271-1.603a1.134 1.134 0 0 0 0-.19l.009-.947c-.01.163-.043.324-.096.482-.171.437-.566.832-1.184 1.184-1.136.648-2.639.906-4.51.774a13.773 13.773 0 0 1-1.262-.134 13.601 13.601 0 0 1-1.463-.331 2.8 2.8 0 0 1-.152-.055.206.206 0 0 0-.048-.024c-.16-.094-.247-.205-.263-.331z" fill="#B4ADA3"/>
      <path d="M147.614 84.858a7.165 7.165 0 0 0-.455-.047c-.795-.058-1.431.05-1.911.323-.25.143-.421.313-.512.514a.49.49 0 0 1 .056.024l.016.015c.165.09.253.192.264.308v.309l.176-.095a40.82 40.82 0 0 0 2.367-1.35z" fill="#706B60"/>
      <path fill="#C8C4BB" d="M140.586 88.332l.008 1.082 4.573 2.132v-1.074z"/>
      <path d="M148.566 81.66c-1.754-.216-3.199 0-4.334.647-.884.506-1.346 1.132-1.382 1.88a.868.868 0 0 0 0 .165v.032c.005.148.027.3.063.458v.008a3.24 3.24 0 0 0 .696 1.31l.008.016a.72.72 0 0 0 .144.102c.165.09.357.137.576.143.106 0 .205-.008.296-.024.043-.01.082-.02.12-.032.043-.02.086-.042.128-.063.117-.068.18-.15.191-.245v-.064c-.01-.115-.098-.218-.263-.308l-.016-.015a.416.416 0 0 0-.056-.024 1.266 1.266 0 0 0-.496-.11h-.024c.106-.243.32-.453.64-.632.57-.327 1.323-.458 2.262-.395.304.02.603.06.896.119l-.4.229a39.889 39.889 0 0 1-2.367 1.35l-.176.095a9.354 9.354 0 0 0-.32.166c-.416.21-.837.415-1.263.616-.933.437-1.901.852-2.903 1.247l4.581 2.14.016.008c1.317-1.363 3.18-2.666 5.59-3.908l.407-.237c.149.19.25.387.303.592.123.495-.061.9-.551 1.216-.033.02-.067.042-.104.063-.368.21-.816.337-1.343.38v-.048a.285.285 0 0 0-.064-.15.76.76 0 0 0-.136-.119.32.32 0 0 0-.048-.04h-.016a1.147 1.147 0 0 0-.567-.15 1 1 0 0 0-.536.119c-.133.079-.2.168-.2.269v.031c.016.127.104.237.264.332a.206.206 0 0 1 .048.024 2.8 2.8 0 0 0 .207.07 13.601 13.601 0 0 0 1.407.316c.41.063.832.108 1.263.134 1.871.132 3.375-.126 4.51-.774.618-.352 1.013-.747 1.183-1.184.053-.158.085-.319.096-.482v-.032a2.029 2.029 0 0 0-.152-.703c-.384-.958-1.321-1.853-2.814-2.684a.583.583 0 0 0-.056-.032 1.27 1.27 0 0 1-.072-.04l-.064-.039-.712-.387a13.17 13.17 0 0 0-4.46-1.356z" fill="#F7F1E6"/>
    </g>
    <g>
      <path d="M68.285 69.27a.76.76 0 0 1 .136.118.285.285 0 0 1 .064.15v.047c.527-.042.975-.168 1.343-.379.037-.02.072-.042.104-.063.49-.316.674-.721.551-1.216a1.613 1.613 0 0 0-.303-.592l-.408.237c.059.1.102.202.128.308a.803.803 0 0 1-.152.75c-.01.016-.024.034-.04.056a1.814 1.814 0 0 1-.36.268c-.17.095-.36.172-.567.23-.155.035-.32.064-.496.085zm-1.67-3.412l.399-.23a7.24 7.24 0 0 0-.896-.118c-.938-.063-1.692.068-2.262.395-.32.179-.533.39-.64.632h.024c.181.005.346.042.496.11.09-.2.26-.37.512-.513.48-.274 1.116-.382 1.91-.324.15.011.301.027.456.048z" fill="#918778"/>
      <path d="M63.632 67.398c-.091.015-.19.023-.296.023a1.259 1.259 0 0 1-.576-.142.76.76 0 0 1-.144-.102l-.008-.016a3.232 3.232 0 0 1-.695-1.31v-.009a2.342 2.342 0 0 1-.065-.457l-.008.924v.079c.005.168.03.344.072.529.102.405.293.795.576 1.168.426-.2.848-.405 1.263-.616.107-.058.214-.113.32-.165v-.245c-.01.095-.074.176-.191.245-.043.02-.085.042-.128.063l-.12.03z" fill="#C6C1B7"/>
      <path d="M66.918 69.498v-.032c0-.1.067-.19.2-.269a.993.993 0 0 1 .536-.118c.218.006.408.055.567.15h.016a.32.32 0 0 1 .048.04c.176-.021.341-.05.496-.087.298-.169.608-.334.927-.497.016-.021.03-.04.04-.056a.801.801 0 0 0 .152-.75 1.192 1.192 0 0 0-.128-.308c-2.41 1.242-4.272 2.545-5.589 3.908l-.016-.008v1.074l.016.008c.741-.763 1.653-1.508 2.734-2.235v.253c.016.126.104.237.264.331a.206.206 0 0 1 .048.024c.054.021.104.04.152.056a12.413 12.413 0 0 0 2.726.465c1.87.132 3.374-.126 4.509-.774.805-.458 1.229-.992 1.271-1.603a1.134 1.134 0 0 0 0-.19l.009-.947c-.01.163-.043.324-.096.482-.171.437-.566.832-1.184 1.184-1.136.648-2.639.906-4.51.774a13.773 13.773 0 0 1-1.262-.134 13.601 13.601 0 0 1-1.463-.331 2.8 2.8 0 0 1-.152-.055.206.206 0 0 0-.048-.024c-.16-.094-.247-.205-.263-.331z" fill="#B4ADA3"/>
      <path d="M66.614 65.858a7.165 7.165 0 0 0-.455-.047c-.795-.058-1.431.05-1.911.323-.25.143-.421.313-.512.514a.49.49 0 0 1 .056.024l.016.015c.165.09.253.192.264.308v.309l.176-.095a40.82 40.82 0 0 0 2.367-1.35z" fill="#706B60"/>
      <path fill="#C8C4BB" d="M59.586 69.332l.008 1.082 4.573 2.132v-1.074z"/>
      <path d="M67.566 62.66c-1.754-.216-3.199 0-4.334.647-.884.506-1.346 1.132-1.382 1.88a.868.868 0 0 0 0 .165v.032c.005.148.027.3.063.458v.008a3.24 3.24 0 0 0 .696 1.31l.008.016a.72.72 0 0 0 .144.102c.165.09.357.137.576.143.106 0 .205-.008.296-.024.043-.01.082-.02.12-.032.043-.02.086-.042.128-.063.117-.068.18-.15.191-.245v-.064c-.01-.115-.098-.218-.263-.308l-.016-.015a.416.416 0 0 0-.056-.024 1.266 1.266 0 0 0-.496-.11h-.024c.106-.243.32-.453.64-.632.57-.327 1.323-.458 2.262-.395.304.02.603.06.896.119l-.4.229a39.889 39.889 0 0 1-2.367 1.35l-.176.095a9.354 9.354 0 0 0-.32.166c-.416.21-.837.415-1.263.616-.933.437-1.901.852-2.903 1.247l4.581 2.14.016.008c1.317-1.363 3.18-2.666 5.59-3.908l.407-.237c.149.19.25.387.303.592.123.495-.061.9-.551 1.216-.033.02-.067.042-.104.063-.368.21-.816.337-1.343.38v-.048a.285.285 0 0 0-.064-.15.76.76 0 0 0-.136-.119.32.32 0 0 0-.048-.04h-.016a1.147 1.147 0 0 0-.567-.15 1 1 0 0 0-.536.119c-.133.079-.2.168-.2.269v.031c.016.127.104.237.264.332a.206.206 0 0 1 .048.024 2.8 2.8 0 0 0 .207.07 13.601 13.601 0 0 0 1.407.316c.41.063.832.108 1.263.134 1.871.132 3.375-.126 4.51-.774.618-.352 1.013-.747 1.183-1.184.053-.158.085-.319.096-.482v-.032a2.029 2.029 0 0 0-.152-.703c-.384-.958-1.321-1.853-2.814-2.684a.583.583 0 0 0-.056-.032 1.27 1.27 0 0 1-.072-.04l-.064-.039-.712-.387a13.17 13.17 0 0 0-4.46-1.356z" fill="#F7F1E6"/>
    </g>
    <g>
      <path d="M127.285 66.27a.76.76 0 0 1 .136.118.285.285 0 0 1 .064.15v.047c.527-.042.975-.168 1.343-.379.037-.02.072-.042.104-.063.49-.316.674-.721.551-1.216a1.613 1.613 0 0 0-.303-.592l-.408.237c.059.1.102.202.128.308a.803.803 0 0 1-.152.75c-.01.016-.024.034-.04.056a1.814 1.814 0 0 1-.36.268c-.17.095-.36.172-.567.23-.155.035-.32.064-.496.085zm-1.67-3.412l.399-.23a7.24 7.24 0 0 0-.896-.118c-.938-.063-1.692.068-2.262.395-.32.179-.533.39-.64.632h.024c.181.005.346.042.496.11.09-.2.26-.37.512-.513.48-.274 1.116-.382 1.91-.324.15.011.301.027.456.048z" fill="#918778"/>
      <path d="M122.632 64.398c-.091.015-.19.023-.296.023a1.259 1.259 0 0 1-.576-.142.76.76 0 0 1-.144-.102l-.008-.016a3.232 3.232 0 0 1-.695-1.31v-.009a2.342 2.342 0 0 1-.065-.457l-.008.924v.079c.005.168.03.344.072.529.102.405.293.795.576 1.168.426-.2.848-.405 1.263-.616.107-.058.214-.113.32-.165v-.245c-.01.095-.074.176-.191.245-.043.02-.085.042-.128.063l-.12.03z" fill="#C6C1B7"/>
      <path d="M125.918 66.498v-.032c0-.1.067-.19.2-.269a.993.993 0 0 1 .536-.118c.218.006.408.055.567.15h.016a.32.32 0 0 1 .048.04c.176-.021.341-.05.496-.087.298-.169.608-.334.927-.497.016-.021.03-.04.04-.056a.801.801 0 0 0 .152-.75 1.192 1.192 0 0 0-.128-.308c-2.41 1.242-4.272 2.545-5.589 3.908l-.016-.008v1.074l.016.008c.741-.763 1.653-1.508 2.734-2.235v.253c.016.126.104.237.264.331a.206.206 0 0 1 .048.024c.054.021.104.04.152.056a12.413 12.413 0 0 0 2.726.465c1.87.132 3.374-.126 4.509-.774.805-.458 1.229-.992 1.271-1.603a1.134 1.134 0 0 0 0-.19l.009-.947c-.01.163-.043.324-.096.482-.171.437-.566.832-1.184 1.184-1.136.648-2.639.906-4.51.774a13.773 13.773 0 0 1-1.262-.134 13.601 13.601 0 0 1-1.463-.331 2.8 2.8 0 0 1-.152-.055.206.206 0 0 0-.048-.024c-.16-.094-.247-.205-.263-.331z" fill="#B4ADA3"/>
      <path d="M125.614 62.858a7.165 7.165 0 0 0-.455-.047c-.795-.058-1.431.05-1.911.323-.25.143-.421.313-.512.514a.49.49 0 0 1 .056.024l.016.015c.165.09.253.192.264.308v.309l.176-.095a40.82 40.82 0 0 0 2.367-1.35z" fill="#706B60"/>
      <path fill="#C8C4BB" d="M118.586 66.332l.008 1.082 4.573 2.132v-1.074z"/>
      <path d="M126.566 59.66c-1.754-.216-3.199 0-4.334.647-.884.506-1.346 1.132-1.382 1.88a.868.868 0 0 0 0 .165v.032c.005.148.027.3.063.458v.008a3.24 3.24 0 0 0 .696 1.31l.008.016a.72.72 0 0 0 .144.102c.165.09.357.137.576.143.106 0 .205-.008.296-.024.043-.01.082-.02.12-.032.043-.02.086-.042.128-.063.117-.068.18-.15.191-.245v-.064c-.01-.115-.098-.218-.263-.308l-.016-.015a.416.416 0 0 0-.056-.024 1.266 1.266 0 0 0-.496-.11h-.024c.106-.243.32-.453.64-.632.57-.327 1.323-.458 2.262-.395.304.02.603.06.896.119l-.4.229a39.889 39.889 0 0 1-2.367 1.35l-.176.095a9.354 9.354 0 0 0-.32.166c-.416.21-.837.415-1.263.616-.933.437-1.901.852-2.903 1.247l4.581 2.14.016.008c1.317-1.363 3.18-2.666 5.59-3.908l.407-.237c.149.19.25.387.303.592.123.495-.061.9-.551 1.216-.033.02-.067.042-.104.063-.368.21-.816.337-1.343.38v-.048a.285.285 0 0 0-.064-.15.76.76 0 0 0-.136-.119.32.32 0 0 0-.048-.04h-.016a1.147 1.147 0 0 0-.567-.15 1 1 0 0 0-.536.119c-.133.079-.2.168-.2.269v.031c.016.127.104.237.264.332a.206.206 0 0 1 .048.024 2.8 2.8 0 0 0 .207.07 13.601 13.601 0 0 0 1.407.316c.41.063.832.108 1.263.134 1.871.132 3.375-.126 4.51-.774.618-.352 1.013-.747 1.183-1.184.053-.158.085-.319.096-.482v-.032a2.029 2.029 0 0 0-.152-.703c-.384-.958-1.321-1.853-2.814-2.684a.583.583 0 0 0-.056-.032 1.27 1.27 0 0 1-.072-.04l-.064-.039-.712-.387a13.17 13.17 0 0 0-4.46-1.356z" fill="#F7F1E6"/>
    </g>
  </g>
</svg>
