<svg width="225" height="159" viewBox="0 0 225 159" xmlns="http://www.w3.org/2000/svg">
  <g fill-rule="nonzero" fill="none">
    <path d="M99.959 88.046c.088-.192.14-.386.154-.583l.01-.236c-.013-.791-.515-1.466-1.503-2.026-1.003-.572-2.22-.859-3.652-.859s-2.657.29-3.672.87c-1.023.579-1.538 1.274-1.544 2.086V87.379c.006.246.061.481.163.706.218.491.661.924 1.33 1.3 1.01.579 2.23.865 3.662.859 1.432 0 2.66-.29 3.683-.87.687-.394 1.144-.837 1.369-1.328zm-2.905-1.965a.39.39 0 0 0 .092.051c.518.32.774.706.767 1.156 0 .205-.058.402-.174.593a2.198 2.198 0 0 0-.102.133c-.15.178-.351.338-.604.48-.586.328-1.292.492-2.117.492-.818 0-1.517-.163-2.097-.491a2.743 2.743 0 0 1-.573-.44.89.89 0 0 1-.102-.144 1.036 1.036 0 0 1-.205-.613c.014-.443.287-.825.819-1.146a.541.541 0 0 0 .081-.051c.594-.335 1.296-.501 2.108-.501.825-.006 1.527.154 2.107.481z" fill="#C5CA8A"/>
    <path d="M97.146 86.133a.422.422 0 0 1-.093-.051c-.58-.327-1.281-.488-2.107-.48-.812 0-1.514.166-2.108.5a.541.541 0 0 1-.081.051c-.532.32-.805.703-.819 1.146 0 .218.069.423.205.614a.938.938 0 0 0 .102.143c.13-.157.3-.296.512-.42a.541.541 0 0 1 .081-.05c.594-.342 1.296-.512 2.108-.512.825-.007 1.528.157 2.107.491l.093.051c.198.123.361.256.491.4.034-.049.068-.093.102-.133.116-.192.174-.389.174-.594.007-.45-.249-.836-.767-1.156zm2.966 1.33a1.625 1.625 0 0 1-.154.583c-.225.49-.682.934-1.37 1.33-1.024.579-2.251.869-3.683.869-1.432.006-2.653-.28-3.663-.86-.668-.375-1.111-.808-1.33-1.299a1.815 1.815 0 0 1-.163-.706V88.833c-.007.825.491 1.521 1.493 2.087 1.01.572 2.23.855 3.663.848 1.431 0 2.66-.29 3.682-.869.982-.56 1.493-1.228 1.535-2.005l-.01-1.431z" fill="#9BA166"/>
    <path d="M100.736 82.328c1.01.572 2.23.855 3.662.848 1.432 0 2.66-.289 3.683-.869.981-.56 1.493-1.227 1.534-2.004l-.01-1.432a1.625 1.625 0 0 1-.154.583c-.225.49-.682.934-1.371 1.33-1.023.579-2.25.869-3.683.869-1.431.006-2.652-.28-3.662-.86-.668-.375-1.111-.808-1.33-1.299a1.815 1.815 0 0 1-.163-.706V80.241c-.006.825.492 1.52 1.494 2.087zm5.902-4.788a.422.422 0 0 1-.092-.05c-.58-.328-1.282-.488-2.107-.481-.812 0-1.515.167-2.108.5a.541.541 0 0 1-.082.052c-.531.32-.804.701-.818 1.145 0 .219.068.424.205.614a.938.938 0 0 0 .102.143c.13-.156.3-.297.511-.419a.541.541 0 0 1 .082-.051c.593-.341 1.296-.511 2.108-.511.825-.007 1.527.156 2.107.49a2.279 2.279 0 0 1 .584.45c.033-.047.068-.092.102-.132.115-.191.174-.389.174-.593.006-.451-.25-.837-.768-1.157z" fill="#3E4055"/>
    <path d="M104.46 75.75c-1.432 0-2.657.29-3.672.87-1.023.579-1.538 1.274-1.545 2.086V78.787c.007.246.061.481.163.706.218.491.662.924 1.33 1.3 1.01.579 2.23.865 3.662.859 1.432 0 2.66-.29 3.683-.87.688-.395 1.146-.838 1.37-1.33.09-.19.14-.385.155-.582l.01-.236c-.013-.79-.515-1.466-1.504-2.025-1.002-.573-2.22-.859-3.652-.859zm2.086 1.74a.39.39 0 0 0 .092.05c.519.32.774.706.768 1.156 0 .205-.058.402-.174.593a2.555 2.555 0 0 0-.102.133c-.15.177-.351.338-.604.48-.587.328-1.292.492-2.117.492-.819 0-1.518-.164-2.097-.491a2.742 2.742 0 0 1-.573-.44.89.89 0 0 1-.102-.143 1.036 1.036 0 0 1-.205-.613c.014-.444.287-.825.818-1.146a.541.541 0 0 0 .082-.052c.593-.333 1.296-.5 2.108-.5.825-.008 1.527.152 2.106.48z" fill="#66687D"/>
    <g>
      <path d="M113.81 91.227c.981-.56 1.492-1.228 1.534-2.005l-.01-1.431a1.625 1.625 0 0 1-.155.582c-.225.492-.681.935-1.37 1.33-1.024.58-2.251.87-3.683.87-1.432.006-2.653-.28-3.662-.86-.669-.375-1.112-.808-1.33-1.3a1.815 1.815 0 0 1-.164-.705v1.453c-.006.825.492 1.52 1.494 2.086 1.01.573 2.23.856 3.662.85 1.432 0 2.66-.29 3.683-.87zm-1.443-4.767a.405.405 0 0 1-.092-.051c-.58-.327-1.282-.488-2.108-.48-.811 0-1.514.167-2.107.5a.541.541 0 0 1-.082.051c-.532.32-.805.702-.818 1.146 0 .219.068.423.204.614a.938.938 0 0 0 .102.143c.13-.157.3-.297.512-.42a.541.541 0 0 1 .082-.05c.593-.341 1.296-.512 2.107-.512.825-.006 1.528.157 2.108.492a2.279 2.279 0 0 1 .584.45 2.35 2.35 0 0 1 .101-.133c.116-.191.174-.389.174-.593.007-.451-.249-.837-.767-1.157z" fill="#3E4055"/>
      <path d="M115.344 87.554c-.014-.791-.515-1.466-1.504-2.025-1.003-.573-2.22-.86-3.652-.86-1.431 0-2.655.29-3.672.87-1.023.58-1.537 1.275-1.544 2.086V87.707c.007.245.062.481.164.706.218.491.661.924 1.33 1.299 1.009.58 2.23.866 3.662.86 1.432 0 2.659-.29 3.682-.87.689-.395 1.145-.838 1.371-1.33.089-.19.14-.385.154-.582l.009-.236zm-3.07-1.145a.39.39 0 0 0 .093.051c.518.32.774.706.767 1.156 0 .204-.058.402-.174.593a2.198 2.198 0 0 0-.102.133c-.15.177-.35.337-.604.48-.586.327-1.292.492-2.117.492-.818 0-1.517-.164-2.097-.492a2.742 2.742 0 0 1-.573-.439.89.89 0 0 1-.102-.143 1.036 1.036 0 0 1-.205-.614c.014-.443.287-.825.819-1.146a.541.541 0 0 0 .081-.05c.594-.335 1.296-.502 2.108-.502.825-.007 1.527.153 2.107.481z" fill="#66687D"/>
    </g>
    <g>
      <path d="M152.959 36.046c.088-.192.14-.386.154-.583l.01-.236c-.013-.791-.515-1.466-1.503-2.025-1.003-.573-2.22-.86-3.652-.86s-2.657.29-3.672.87c-1.023.579-1.538 1.274-1.544 2.086V35.38c.006.245.061.48.163.705.218.492.662.924 1.33 1.3 1.01.579 2.23.866 3.662.859 1.432 0 2.66-.29 3.682-.87.688-.394 1.145-.837 1.37-1.328zm-2.905-1.965a.39.39 0 0 0 .092.051c.518.32.774.706.767 1.156 0 .205-.058.402-.174.593a2.198 2.198 0 0 0-.102.133c-.15.178-.351.337-.604.48-.586.328-1.292.492-2.117.492-.818 0-1.517-.163-2.097-.491a2.743 2.743 0 0 1-.573-.44.89.89 0 0 1-.102-.144 1.036 1.036 0 0 1-.205-.613c.014-.444.287-.825.818-1.146a.541.541 0 0 0 .082-.051c.593-.335 1.296-.501 2.108-.501.825-.006 1.527.154 2.106.481z" fill="#C5CA8A"/>
      <path d="M150.146 34.133a.422.422 0 0 1-.092-.051c-.58-.327-1.282-.488-2.108-.48-.811 0-1.514.167-2.107.5a.541.541 0 0 1-.082.051c-.532.32-.805.703-.818 1.146 0 .219.068.423.204.614a.938.938 0 0 0 .102.143c.13-.157.3-.296.512-.42a.541.541 0 0 1 .082-.05c.593-.341 1.296-.512 2.107-.512.825-.006 1.528.157 2.107.492.027.013.058.03.093.05.198.124.361.256.491.4.034-.048.068-.093.102-.133.116-.191.174-.389.174-.593.007-.451-.249-.837-.767-1.157zm2.966 1.33a1.625 1.625 0 0 1-.154.582c-.225.492-.682.935-1.37 1.33-1.024.58-2.252.87-3.683.87-1.432.006-2.653-.28-3.663-.86-.668-.375-1.111-.808-1.33-1.299a1.815 1.815 0 0 1-.163-.706v1.453c-.007.825.491 1.521 1.493 2.087 1.01.572 2.23.855 3.663.848 1.431 0 2.66-.29 3.682-.869.982-.56 1.493-1.227 1.535-2.004l-.01-1.432z" fill="#9BA166"/>
      <path d="M153.736 30.328c1.01.573 2.23.855 3.662.849 1.432 0 2.66-.29 3.683-.87.982-.56 1.493-1.227 1.534-2.004l-.01-1.432a1.625 1.625 0 0 1-.154.583c-.225.49-.682.934-1.371 1.33-1.023.579-2.25.869-3.683.869-1.431.006-2.652-.28-3.662-.86-.668-.375-1.111-.808-1.33-1.299a1.815 1.815 0 0 1-.163-.706V28.241c-.006.825.492 1.52 1.494 2.087zm5.902-4.788a.422.422 0 0 1-.092-.05c-.58-.328-1.282-.488-2.107-.481-.812 0-1.514.167-2.108.5a.541.541 0 0 1-.081.052c-.532.32-.805.702-.819 1.146 0 .218.068.423.205.613a.938.938 0 0 0 .102.143c.13-.156.3-.297.512-.419a.541.541 0 0 1 .081-.051c.594-.341 1.296-.511 2.108-.511.825-.007 1.528.156 2.107.49a2.279 2.279 0 0 1 .584.45c.034-.047.068-.091.102-.132.115-.191.174-.388.174-.593.007-.451-.25-.836-.767-1.157z" fill="#3E4055"/>
      <path d="M157.46 23.75c-1.432 0-2.657.29-3.672.87-1.023.579-1.538 1.274-1.545 2.086V26.788c.007.245.061.48.163.705.218.492.662.924 1.33 1.3 1.01.579 2.23.866 3.662.859 1.432 0 2.66-.29 3.683-.87.688-.395 1.146-.838 1.37-1.33.09-.19.14-.385.155-.582l.01-.236c-.014-.79-.515-1.466-1.504-2.025-1.002-.572-2.22-.859-3.652-.859zm2.086 1.74a.39.39 0 0 0 .092.05c.519.32.774.706.768 1.156 0 .205-.058.402-.174.593a2.555 2.555 0 0 0-.102.133c-.15.177-.351.338-.604.48-.587.329-1.292.492-2.117.492-.819 0-1.518-.163-2.097-.491a2.742 2.742 0 0 1-.573-.44.89.89 0 0 1-.102-.143 1.036 1.036 0 0 1-.205-.613c.013-.444.286-.825.818-1.146a.541.541 0 0 0 .082-.051c.593-.334 1.296-.501 2.107-.501.825-.008 1.528.153 2.107.48z" fill="#66687D"/>
      <g>
        <path d="M166.81 39.227c.981-.56 1.493-1.228 1.534-2.005l-.01-1.432a1.625 1.625 0 0 1-.154.583c-.225.491-.682.935-1.371 1.33-1.023.58-2.251.87-3.683.87-1.432.006-2.653-.28-3.662-.86-.668-.375-1.112-.808-1.33-1.3a1.815 1.815 0 0 1-.163-.705v1.453c-.007.825.49 1.52 1.493 2.086 1.01.573 2.23.856 3.662.85 1.433 0 2.66-.29 3.683-.87zm-1.443-4.767a.405.405 0 0 1-.092-.051c-.58-.327-1.282-.488-2.108-.48-.811 0-1.514.166-2.107.5a.541.541 0 0 1-.082.051c-.532.32-.805.702-.818 1.146 0 .218.068.423.205.614a.938.938 0 0 0 .102.143c.13-.157.3-.297.511-.42a.541.541 0 0 1 .082-.05c.593-.342 1.296-.512 2.107-.512.825-.007 1.528.157 2.108.491a2.279 2.279 0 0 1 .584.45 2.35 2.35 0 0 1 .101-.132c.117-.192.174-.389.174-.594.007-.45-.249-.836-.767-1.156z" fill="#3E4055"/>
        <path d="M168.344 35.554c-.014-.791-.515-1.466-1.504-2.025-1.003-.573-2.22-.86-3.652-.86-1.431 0-2.655.29-3.672.87-1.023.58-1.537 1.275-1.544 2.087V35.707c.007.246.062.481.164.706.218.491.661.924 1.33 1.299 1.009.58 2.23.866 3.661.86 1.433 0 2.66-.29 3.683-.87.688-.395 1.145-.838 1.371-1.33.088-.19.14-.385.154-.582l.009-.236zm-3.07-1.145a.39.39 0 0 0 .093.051c.518.32.774.706.767 1.156 0 .204-.057.402-.174.593a2.198 2.198 0 0 0-.102.133c-.15.177-.35.337-.604.48-.586.327-1.292.492-2.117.492-.818 0-1.517-.164-2.097-.492a2.742 2.742 0 0 1-.573-.439.89.89 0 0 1-.102-.143 1.036 1.036 0 0 1-.205-.614c.014-.443.287-.825.819-1.146a.541.541 0 0 0 .081-.05c.594-.335 1.296-.502 2.108-.502.825-.007 1.527.153 2.107.481z" fill="#66687D"/>
      </g>
    </g>
    <g>
      <path d="M179.959 66.046c.088-.192.14-.386.154-.583l.01-.236c-.013-.791-.515-1.466-1.503-2.026-1.003-.573-2.22-.859-3.652-.859s-2.657.29-3.672.87c-1.023.579-1.538 1.274-1.544 2.086V65.379c.006.246.061.481.163.706.218.491.662.924 1.33 1.3 1.01.579 2.23.865 3.662.859 1.432 0 2.66-.29 3.682-.87.688-.394 1.145-.837 1.37-1.328zm-2.905-1.965a.39.39 0 0 0 .092.051c.518.32.774.706.767 1.156 0 .205-.058.402-.174.593a2.198 2.198 0 0 0-.102.133c-.15.178-.351.338-.604.48-.586.328-1.292.492-2.117.492-.818 0-1.517-.163-2.097-.491a2.743 2.743 0 0 1-.573-.44.89.89 0 0 1-.102-.144 1.036 1.036 0 0 1-.205-.613c.014-.443.287-.825.818-1.146a.541.541 0 0 0 .082-.051c.593-.335 1.296-.501 2.108-.501.825-.006 1.527.154 2.106.481z" fill="#C5CA8A"/>
      <path d="M177.146 64.133a.422.422 0 0 1-.092-.051c-.58-.327-1.282-.488-2.108-.48-.811 0-1.514.166-2.107.5a.541.541 0 0 1-.082.051c-.532.32-.805.703-.818 1.146 0 .218.068.423.204.614a.938.938 0 0 0 .102.143c.13-.157.3-.296.512-.42a.541.541 0 0 1 .082-.05c.593-.342 1.296-.512 2.107-.512.825-.007 1.528.157 2.107.491l.093.051c.198.123.361.256.491.4.034-.049.068-.093.102-.133.116-.192.174-.389.174-.594.007-.45-.249-.836-.767-1.156zm2.966 1.33a1.625 1.625 0 0 1-.154.583c-.225.49-.682.934-1.37 1.33-1.024.579-2.252.869-3.683.869-1.432.006-2.653-.28-3.663-.86-.668-.375-1.111-.808-1.33-1.299a1.815 1.815 0 0 1-.163-.706V66.833c-.007.825.491 1.521 1.493 2.087 1.01.572 2.23.855 3.663.848 1.431 0 2.66-.29 3.682-.869.982-.56 1.493-1.228 1.535-2.005l-.01-1.431z" fill="#9BA166"/>
      <path d="M180.736 60.328c1.01.572 2.23.855 3.662.848 1.432 0 2.66-.289 3.683-.869.982-.56 1.493-1.227 1.534-2.004l-.01-1.432a1.625 1.625 0 0 1-.154.582c-.225.492-.682.935-1.371 1.33-1.023.58-2.25.87-3.683.87-1.431.006-2.652-.28-3.662-.86-.668-.375-1.111-.808-1.33-1.299a1.815 1.815 0 0 1-.163-.706V58.241c-.006.825.492 1.52 1.494 2.087zm5.902-4.788a.422.422 0 0 1-.092-.05c-.58-.328-1.282-.488-2.107-.482-.812 0-1.514.168-2.108.501a.541.541 0 0 1-.081.051c-.532.32-.805.702-.819 1.146 0 .219.068.423.205.614a.938.938 0 0 0 .102.143c.13-.156.3-.297.512-.419a.541.541 0 0 1 .081-.051c.594-.341 1.296-.511 2.108-.511.825-.007 1.528.156 2.107.49a2.279 2.279 0 0 1 .584.45c.034-.047.068-.091.102-.132.115-.191.174-.388.174-.593.007-.451-.25-.836-.767-1.157z" fill="#3E4055"/>
      <path d="M184.46 53.75c-1.432 0-2.657.29-3.672.87-1.023.579-1.538 1.274-1.545 2.086V56.788c.007.245.061.48.163.705.218.492.662.924 1.33 1.3 1.01.579 2.23.866 3.662.859 1.432 0 2.66-.29 3.683-.87.688-.395 1.146-.838 1.37-1.33.09-.19.14-.385.155-.582l.01-.235c-.014-.792-.515-1.467-1.504-2.026-1.002-.573-2.22-.859-3.652-.859zm2.086 1.74a.39.39 0 0 0 .092.05c.519.32.774.706.768 1.156 0 .205-.058.402-.174.593a2.555 2.555 0 0 0-.102.133c-.15.177-.351.338-.604.48-.587.328-1.292.492-2.117.492-.819 0-1.518-.163-2.097-.491a2.742 2.742 0 0 1-.573-.44.89.89 0 0 1-.102-.143 1.036 1.036 0 0 1-.205-.614c.013-.443.286-.825.818-1.146a.541.541 0 0 0 .082-.05c.593-.334 1.296-.502 2.107-.502.825-.007 1.528.153 2.107.481z" fill="#66687D"/>
      <g>
        <path d="M193.81 69.227c.981-.56 1.493-1.228 1.534-2.005l-.01-1.431a1.625 1.625 0 0 1-.154.582c-.225.492-.682.935-1.371 1.33-1.023.58-2.251.87-3.683.87-1.432.006-2.653-.28-3.662-.86-.668-.375-1.112-.808-1.33-1.3a1.815 1.815 0 0 1-.163-.705v1.453c-.007.825.49 1.52 1.493 2.086 1.01.573 2.23.856 3.662.85 1.433 0 2.66-.29 3.683-.87zm-1.443-4.767a.405.405 0 0 1-.092-.051c-.58-.327-1.282-.488-2.108-.48-.811 0-1.514.167-2.107.5a.541.541 0 0 1-.082.051c-.532.32-.805.702-.818 1.146 0 .219.068.423.205.614a.938.938 0 0 0 .102.143c.13-.157.3-.297.511-.42a.541.541 0 0 1 .082-.05c.593-.341 1.296-.512 2.107-.512.825-.006 1.528.157 2.108.492a2.279 2.279 0 0 1 .584.45 2.35 2.35 0 0 1 .101-.133c.117-.191.174-.389.174-.593.007-.451-.249-.837-.767-1.157z" fill="#3E4055"/>
        <path d="M195.344 65.554c-.014-.791-.515-1.466-1.504-2.025-1.003-.573-2.22-.86-3.652-.86-1.431 0-2.655.29-3.672.87-1.023.58-1.537 1.275-1.544 2.087V65.707c.007.246.062.481.164.706.218.491.661.924 1.33 1.299 1.009.58 2.23.866 3.661.86 1.433 0 2.66-.29 3.683-.87.688-.395 1.145-.838 1.371-1.33.088-.19.14-.385.154-.582l.009-.236zm-3.07-1.145a.39.39 0 0 0 .093.051c.518.32.774.706.767 1.156 0 .204-.057.402-.174.593a2.198 2.198 0 0 0-.102.133c-.15.177-.35.337-.604.48-.586.327-1.292.492-2.117.492-.818 0-1.517-.164-2.097-.492a2.742 2.742 0 0 1-.573-.439.89.89 0 0 1-.102-.143 1.036 1.036 0 0 1-.205-.614c.014-.443.287-.825.819-1.146a.541.541 0 0 0 .081-.05c.594-.335 1.296-.502 2.108-.502.825-.006 1.527.153 2.107.481z" fill="#66687D"/>
      </g>
    </g>
    <g>
      <path d="M91.959 62.045c.088-.19.14-.385.154-.582l.01-.236c-.013-.791-.515-1.466-1.503-2.025-1.003-.574-2.22-.86-3.652-.86s-2.657.29-3.672.87c-1.023.579-1.538 1.274-1.544 2.086V61.379c.006.246.061.481.163.706.218.492.661.924 1.33 1.3 1.01.579 2.23.866 3.662.859 1.432 0 2.66-.29 3.683-.87.687-.394 1.144-.837 1.369-1.328zm-2.905-1.964a.39.39 0 0 0 .092.051c.518.32.774.706.767 1.156 0 .205-.058.402-.174.593a2.198 2.198 0 0 0-.102.133c-.15.178-.351.337-.604.48-.586.328-1.292.492-2.117.492-.818 0-1.517-.163-2.097-.491a2.743 2.743 0 0 1-.573-.44.89.89 0 0 1-.102-.144 1.036 1.036 0 0 1-.205-.613c.014-.444.287-.825.819-1.146a.541.541 0 0 0 .081-.051c.594-.335 1.296-.501 2.108-.501.825-.006 1.527.154 2.107.481z" fill="#C5CA8A"/>
      <path d="M89.146 60.133a.422.422 0 0 1-.093-.051c-.58-.327-1.281-.488-2.107-.48-.812 0-1.514.166-2.108.5a.541.541 0 0 1-.081.051c-.532.32-.805.703-.819 1.146 0 .218.069.423.205.614a.938.938 0 0 0 .102.143c.13-.157.3-.296.512-.42a.541.541 0 0 1 .081-.05c.594-.342 1.296-.512 2.108-.512.825-.006 1.528.157 2.107.492.027.013.058.03.093.05.198.124.361.256.491.4.034-.048.068-.093.102-.133.116-.192.174-.389.174-.594.007-.45-.249-.836-.767-1.156zm2.966 1.33a1.625 1.625 0 0 1-.154.582c-.225.492-.682.935-1.37 1.33-1.024.58-2.251.87-3.683.87-1.432.006-2.653-.28-3.663-.86-.668-.375-1.111-.808-1.33-1.299a1.815 1.815 0 0 1-.163-.706v1.453c-.007.825.491 1.521 1.493 2.086 1.01.573 2.23.856 3.663.85 1.431 0 2.66-.29 3.682-.87.982-.56 1.493-1.228 1.535-2.005l-.01-1.431z" fill="#9BA166"/>
      <path d="M92.736 56.328c1.01.572 2.23.855 3.662.848 1.432 0 2.66-.289 3.683-.869.981-.56 1.493-1.227 1.534-2.004l-.01-1.432a1.625 1.625 0 0 1-.154.582c-.225.492-.682.935-1.371 1.33-1.023.58-2.25.87-3.683.87-1.431.006-2.652-.28-3.662-.86-.668-.375-1.111-.808-1.33-1.299a1.815 1.815 0 0 1-.163-.706V54.241c-.006.825.492 1.52 1.494 2.087zm5.902-4.788a.422.422 0 0 1-.092-.05c-.58-.328-1.282-.488-2.107-.482-.812 0-1.515.168-2.108.501a.541.541 0 0 1-.082.051c-.531.32-.804.702-.818 1.146 0 .219.068.423.205.614a.938.938 0 0 0 .102.143c.13-.156.3-.297.511-.419a.541.541 0 0 1 .082-.051c.593-.341 1.296-.511 2.108-.511.825-.007 1.527.156 2.107.49a2.279 2.279 0 0 1 .584.45c.033-.047.068-.091.102-.132.115-.191.174-.388.174-.593.006-.451-.25-.836-.768-1.157z" fill="#3E4055"/>
      <path d="M96.46 49.75c-1.432 0-2.657.29-3.672.87-1.023.579-1.538 1.274-1.545 2.086V52.788c.007.245.061.48.163.705.218.492.662.924 1.33 1.3 1.01.579 2.23.866 3.662.859 1.432 0 2.66-.29 3.683-.87.688-.395 1.146-.838 1.37-1.33.09-.19.14-.385.155-.582l.01-.235c-.013-.792-.515-1.467-1.504-2.026-1.002-.573-2.22-.859-3.652-.859zm2.086 1.74a.39.39 0 0 0 .092.05c.519.32.774.706.768 1.156 0 .205-.058.402-.174.593a2.555 2.555 0 0 0-.102.133c-.15.177-.351.338-.604.48-.587.328-1.292.492-2.117.492-.819 0-1.518-.163-2.097-.491a2.742 2.742 0 0 1-.573-.44.89.89 0 0 1-.102-.143 1.036 1.036 0 0 1-.205-.614c.014-.443.287-.825.818-1.146a.541.541 0 0 0 .082-.05c.593-.334 1.296-.502 2.108-.502.825-.007 1.527.153 2.106.481z" fill="#66687D"/>
      <g>
        <path d="M105.81 65.227c.981-.56 1.492-1.228 1.534-2.005l-.01-1.431a1.625 1.625 0 0 1-.155.582c-.225.492-.681.935-1.37 1.33-1.024.58-2.251.87-3.683.87-1.432.006-2.653-.28-3.662-.86-.669-.375-1.112-.808-1.33-1.3a1.815 1.815 0 0 1-.164-.705v1.453c-.006.825.492 1.52 1.494 2.086 1.01.573 2.23.856 3.662.85 1.432 0 2.66-.29 3.683-.87zm-1.443-4.767a.405.405 0 0 1-.092-.051c-.58-.327-1.282-.487-2.108-.48-.811 0-1.514.167-2.107.5a.541.541 0 0 1-.082.051c-.532.32-.805.702-.818 1.146 0 .219.068.423.204.614a.938.938 0 0 0 .102.143c.13-.157.3-.297.512-.42a.541.541 0 0 1 .082-.05c.593-.341 1.296-.512 2.107-.512.825-.006 1.528.157 2.108.492a2.279 2.279 0 0 1 .584.45 2.35 2.35 0 0 1 .101-.133c.116-.191.174-.389.174-.593.007-.451-.249-.837-.767-1.157z" fill="#3E4055"/>
        <path d="M107.344 61.554c-.014-.791-.515-1.466-1.504-2.025-1.003-.573-2.22-.86-3.652-.86-1.431 0-2.655.29-3.672.87-1.023.58-1.537 1.275-1.544 2.087V61.707c.007.246.062.481.164.706.218.491.661.924 1.33 1.299 1.009.58 2.23.866 3.662.86 1.432 0 2.659-.29 3.682-.87.689-.395 1.145-.838 1.371-1.33.089-.19.14-.385.154-.582l.009-.236zm-3.07-1.145a.39.39 0 0 0 .093.051c.518.32.774.706.767 1.156 0 .204-.058.402-.174.593a2.198 2.198 0 0 0-.102.133c-.15.177-.35.337-.604.48-.586.327-1.292.492-2.117.492-.818 0-1.517-.164-2.097-.492a2.742 2.742 0 0 1-.573-.439.89.89 0 0 1-.102-.143 1.036 1.036 0 0 1-.205-.614c.014-.443.287-.825.819-1.146a.541.541 0 0 0 .081-.05c.594-.335 1.296-.502 2.108-.502.825-.007 1.527.153 2.107.481z" fill="#66687D"/>
      </g>
    </g>
  </g>
</svg>
