<svg width="225" height="159" viewBox="0 0 225 159" xmlns="http://www.w3.org/2000/svg">
  <g fill-rule="nonzero" fill="none">
    <path d="M89.286 75.714v1.116c.14.224.3.44.484.646V76.36a5.618 5.618 0 0 1-.484-.646zm2.793 2.459a15.64 15.64 0 0 1-.733-.453v1.116a15.989 15.989 0 0 0 .733.453v-1.116zm.583.31l-.1-.05v1.117l.1.05v-1.116zm-1.767-1.082a7.06 7.06 0 0 1-.708-.605v1.117c.211.206.447.408.708.604V77.4zm-2.284-3.87V74.48c-.005.582.1 1.142.317 1.679l.016-1.083a4.33 4.33 0 0 1-.3-1.1 6.7 6.7 0 0 1-.033-.444z" fill="#815F83"/>
    <path d="M88.928 76.159c.1.224.22.447.358.671v-1.116a5.106 5.106 0 0 1-.341-.638l-.017 1.083zm3.634 2.274c-.161-.083-.322-.17-.483-.26v1.116c.16.09.322.176.483.26v-1.116zm-2.375-.52v-1.117c-.15-.14-.29-.285-.417-.436v1.116c.128.151.267.297.417.437zm.708-.512v1.116c.145.106.294.213.45.319v-1.117a14.8 14.8 0 0 1-.45-.318z" fill="#937596"/>
    <path d="M94.204 78.735l-.075.042h.008l.167-.092-.1.05zm14.02-9.392h.008v-.008l.75-.429-.15-.083c-2.256-1.26-4.987-1.889-8.193-1.889-3.211-.005-5.957.619-8.235 1.872-2.034 1.114-3.17 2.434-3.409 3.962-.039.196-.058.392-.058.588-.022 1.785 1.098 3.307 3.36 4.566.238.134.482.26.732.378l.009.008v-.016l.792-.403.017-.009c-.006-.006-.012-.009-.017-.009a.213.213 0 0 0-.05-.025c-.317-.14-.622-.288-.917-.445a8.59 8.59 0 0 1-.85-.503c-1.528-1.013-2.284-2.193-2.267-3.542.016-1.567 1.086-2.907 3.209-4.02.456-.241.93-.451 1.425-.63 1.811-.688 3.895-1.033 6.251-1.033 2.234 0 4.22.317 5.96.949.571.2 1.116.441 1.633.721z" fill="#EFEEEE"/>
    <path d="M93.037 78.29v1.125l.792-.462v-1.066l-.792.403zm1.167-.604v1.049l.1-.05.892-.529v-.973l-.992.503z" fill="#CFD0D0"/>
    <path d="M93.029 78.298l-.367.185V79.6l.034.017.341-.201v-1.108l-.008-.009z" fill="#736077"/>
    <path fill="#957C99" d="M94.195 77.694l-.35.185-.016.008v1.066l.3-.176.075-.042v-1.032z"/>
    <path d="M108.115 70.543h.009l.2-.117-.092.05-.117.067zm-1.067-.537l.884-.495c-2.023-1.019-4.456-1.528-7.302-1.528-2.917 0-5.41.523-7.476 1.57-2.067 1.052-3.112 2.32-3.134 3.802-.01.935.378 1.782 1.167 2.543.478.46 1.1.887 1.867 1.285.244.128.497.249.758.36.123.05.25.101.383.151l.009.009v-.017l.992-.503a13.88 13.88 0 0 1-1.276-.487 4.959 4.959 0 0 1-.233-.109c-1.506-.71-2.4-1.545-2.684-2.5a4.197 4.197 0 0 0-.05-.185 3.37 3.37 0 0 1-.042-.53c.017-1.258.973-2.33 2.868-3.214 1.889-.878 4.17-1.317 6.843-1.317 2.484-.002 4.626.387 6.426 1.165z" fill="#F1F0F0"/>
    <path d="M108.115 70.543l-.183.101-.884.512v-1.15c-1.8-.778-3.942-1.167-6.426-1.167-2.673 0-4.954.44-6.843 1.318-1.895.884-2.851 1.956-2.868 3.215 0 .179.014.355.042.528.428-1.035 1.37-1.894 2.826-2.576 1.889-.878 4.17-1.318 6.843-1.318 2.472 0 4.612.386 6.418 1.158l.008.009h.009l1.067-.63h-.009z" fill="#DFDFDE"/>
    <path d="M108.99 70.031l.31-.176V68.73l-.31.176v1.125zm-.758-.688h-.009l-.291.168v1.133l.183-.1.117-.068v-1.133z" fill="#977A9B"/>
    <path d="M108.832 68.823l.15.083c.006 0 .008.004.01.01v-.01l.308-.176a45.29 45.29 0 0 0-.234-.134c-2.323-1.32-5.131-1.98-8.426-1.98-3.306-.006-6.132.649-8.477 1.963-2.345 1.315-3.529 2.91-3.55 4.784V73.53c.005.146.016.294.033.445.05.375.15.742.3 1.1a5.143 5.143 0 0 0 .825 1.284c.128.15.266.296.417.436.211.207.447.409.708.604.145.107.295.213.45.32a15.989 15.989 0 0 0 .734.452c.161.09.322.176.483.26l.1.05.367-.184c-.25-.117-.494-.243-.733-.378-2.262-1.259-3.382-2.78-3.359-4.566 0-.195.02-.392.058-.587.24-1.528 1.375-2.848 3.409-3.962 2.278-1.254 5.023-1.878 8.235-1.872 3.205.002 5.936.632 8.192 1.89z" fill="#C19BC7"/>
    <path d="M107.932 69.51l.291-.167c-.516-.28-1.061-.52-1.633-.722-1.74-.632-3.726-.948-5.96-.948-2.355 0-4.44.344-6.25 1.032-.495.18-.97.39-1.426.63-2.122 1.113-3.192 2.453-3.209 4.02-.016 1.348.74 2.53 2.268 3.542.255.174.539.342.85.504.294.157.6.305.916.445a.213.213 0 0 1 .05.025c.006 0 .011.002.017.008l.35-.184c-.133-.05-.26-.101-.383-.151-.261-.112-.514-.232-.759-.36-.766-.398-1.389-.826-1.866-1.285-.79-.761-1.179-1.609-1.167-2.543.022-1.483 1.067-2.75 3.134-3.802 2.067-1.046 4.56-1.57 7.476-1.57 2.844 0 5.278.509 7.301 1.527z" fill="#B394B7"/>
    <path d="M107.932 69.51l-.884.496v1.15l.884-.512v-1.133zm.3-.175v1.141l.092-.05.666-.395v-1.116c0-.005-.003-.009-.008-.009l-.75.429z" fill="#C6C5C5"/>
    <path d="M102.92 81.57c.129.18.27.292.481.362.374.125.535-.469.163-.593a.182.182 0 0 1-.116-.08c-.228-.319-.759-.012-.528.31z" fill="#56AB46"/>
    <g>
      <path d="M131.286 77.714v1.116c.14.224.3.44.484.646V78.36a5.618 5.618 0 0 1-.484-.646zm2.793 2.459a15.64 15.64 0 0 1-.733-.453v1.116a15.989 15.989 0 0 0 .733.453v-1.116zm.583.31l-.1-.05v1.117l.1.05v-1.116zm-1.767-1.082a7.06 7.06 0 0 1-.708-.605v1.117c.211.206.447.408.708.604V79.4zm-2.284-3.87V76.48c-.005.582.1 1.142.317 1.679l.016-1.083a4.33 4.33 0 0 1-.3-1.1 6.7 6.7 0 0 1-.033-.444z" fill="#815F83"/>
      <path d="M130.928 78.159c.1.224.22.447.358.671v-1.116a5.106 5.106 0 0 1-.341-.638l-.017 1.083zm3.634 2.274c-.161-.083-.322-.17-.483-.26v1.116c.16.09.322.176.483.26v-1.116zm-2.375-.52v-1.117c-.15-.14-.29-.285-.417-.436v1.116c.127.151.267.297.417.437zm.708-.512v1.116c.145.106.294.213.45.319v-1.117a14.8 14.8 0 0 1-.45-.318z" fill="#937596"/>
      <path d="M136.204 80.735l-.075.042h.008l.167-.092-.1.05zm14.02-9.392h.008v-.008l.75-.429-.15-.083c-2.256-1.26-4.987-1.889-8.193-1.889-3.211-.005-5.957.619-8.235 1.872-2.034 1.114-3.17 2.434-3.409 3.962-.039.196-.058.392-.058.588-.022 1.785 1.098 3.307 3.36 4.566.238.134.482.26.732.378l.009.008v-.016l.792-.403.016-.009c-.005-.006-.01-.009-.016-.009a.213.213 0 0 0-.05-.025c-.317-.14-.622-.288-.917-.445a8.59 8.59 0 0 1-.85-.503c-1.528-1.013-2.284-2.193-2.267-3.542.016-1.567 1.086-2.907 3.209-4.02.456-.241.93-.451 1.425-.63 1.811-.688 3.895-1.033 6.251-1.033 2.234 0 4.22.317 5.96.949.571.2 1.115.441 1.632.721z" fill="#EFEEEE"/>
      <path d="M135.037 80.29v1.125l.792-.462v-1.066l-.792.403zm1.167-.604v1.049l.1-.05.892-.529v-.973l-.992.503z" fill="#CFD0D0"/>
      <path d="M135.029 80.298l-.367.185V81.6l.034.017.341-.201v-1.108l-.008-.009z" fill="#736077"/>
      <path fill="#957C99" d="M136.195 79.694l-.35.185-.016.008v1.066l.3-.176.075-.042v-1.032z"/>
      <path d="M150.115 72.543h.009l.2-.117-.092.05-.117.067zm-1.067-.537l.884-.495c-2.023-1.019-4.456-1.528-7.302-1.528-2.917 0-5.41.523-7.476 1.57-2.067 1.052-3.112 2.32-3.134 3.802-.01.935.378 1.782 1.167 2.543.478.46 1.1.887 1.867 1.285.244.128.497.249.758.36.122.05.25.101.383.151l.009.009v-.017l.992-.503a13.88 13.88 0 0 1-1.276-.487 4.959 4.959 0 0 1-.233-.109c-1.506-.71-2.4-1.545-2.684-2.5a4.197 4.197 0 0 0-.05-.185 3.37 3.37 0 0 1-.042-.53c.017-1.258.973-2.33 2.868-3.214 1.889-.878 4.17-1.317 6.843-1.317 2.484-.002 4.626.387 6.426 1.165z" fill="#F1F0F0"/>
      <path d="M150.115 72.543l-.183.101-.884.512v-1.15c-1.8-.778-3.942-1.167-6.426-1.167-2.673 0-4.954.44-6.843 1.318-1.895.884-2.851 1.956-2.868 3.215 0 .179.014.355.042.528.428-1.035 1.37-1.894 2.826-2.576 1.889-.878 4.17-1.318 6.843-1.318 2.472 0 4.612.386 6.418 1.158l.008.009h.009l1.067-.63h-.009z" fill="#DFDFDE"/>
      <path d="M150.99 72.031l.31-.176V70.73l-.31.176v1.125zm-.758-.688h-.009l-.291.168v1.133l.183-.1.117-.068v-1.133z" fill="#977A9B"/>
      <path d="M150.832 70.823l.15.083c.006 0 .008.004.01.01v-.01l.308-.176a45.29 45.29 0 0 0-.234-.134c-2.323-1.32-5.131-1.98-8.426-1.98-3.306-.006-6.132.649-8.477 1.963-2.345 1.315-3.529 2.91-3.55 4.784V75.53c.005.146.016.294.033.445.05.375.15.742.3 1.1a5.143 5.143 0 0 0 .825 1.284c.128.15.266.296.417.436.211.207.447.409.708.604.145.107.295.213.45.32a15.989 15.989 0 0 0 .734.452c.161.09.322.176.483.26l.1.05.367-.184c-.25-.117-.494-.243-.733-.378-2.262-1.259-3.382-2.78-3.359-4.566 0-.195.02-.392.058-.587.24-1.528 1.375-2.848 3.409-3.962 2.278-1.254 5.023-1.878 8.235-1.872 3.205.002 5.936.632 8.192 1.89z" fill="#C19BC7"/>
      <path d="M149.932 71.51l.292-.167c-.517-.28-1.062-.52-1.634-.722-1.74-.632-3.726-.948-5.96-.948-2.355 0-4.44.344-6.25 1.032-.495.18-.97.39-1.426.63-2.122 1.113-3.192 2.453-3.209 4.02-.016 1.348.74 2.53 2.268 3.542.255.174.539.342.85.504.294.157.6.305.916.445a.213.213 0 0 1 .05.025c.006 0 .011.002.017.008l.35-.184c-.133-.05-.26-.101-.383-.151-.261-.112-.514-.232-.758-.36-.767-.398-1.39-.826-1.867-1.285-.79-.761-1.179-1.609-1.167-2.543.022-1.483 1.067-2.75 3.134-3.802 2.067-1.046 4.56-1.57 7.476-1.57 2.844 0 5.278.509 7.301 1.527z" fill="#B394B7"/>
      <path d="M149.932 71.51l-.884.496v1.15l.884-.512v-1.133zm.3-.175v1.141l.092-.05.666-.395v-1.116c0-.005-.003-.009-.008-.009l-.75.429z" fill="#C6C5C5"/>
      <path d="M144.92 83.57c.129.18.27.292.481.362.374.125.535-.469.163-.593a.182.182 0 0 1-.116-.08c-.228-.319-.759-.012-.528.31z" fill="#56AB46"/>
    </g>
    <g>
      <path d="M150.286 64.714v1.116c.14.224.3.44.484.646V65.36a5.618 5.618 0 0 1-.484-.646zm2.793 2.459a15.64 15.64 0 0 1-.733-.453v1.116a15.989 15.989 0 0 0 .733.453v-1.116zm.583.31l-.1-.05v1.117l.1.05v-1.116zm-1.767-1.082a7.06 7.06 0 0 1-.708-.605v1.117c.211.206.447.408.708.604V66.4zm-2.284-3.87V63.48c-.005.582.1 1.142.317 1.679l.016-1.083a4.33 4.33 0 0 1-.3-1.1 6.7 6.7 0 0 1-.033-.444z" fill="#815F83"/>
      <path d="M149.928 65.159c.1.224.22.447.358.671v-1.116a5.106 5.106 0 0 1-.341-.638l-.017 1.083zm3.634 2.274c-.161-.083-.322-.17-.483-.26v1.116c.16.09.322.176.483.26v-1.116zm-2.375-.52v-1.117c-.15-.14-.29-.285-.417-.436v1.116c.127.151.267.297.417.437zm.708-.512v1.116c.145.106.294.213.45.319v-1.117a14.8 14.8 0 0 1-.45-.318z" fill="#937596"/>
      <path d="M155.204 67.735l-.075.042h.008l.167-.092-.1.05zm14.02-9.392h.008v-.008l.75-.429-.15-.083c-2.256-1.26-4.987-1.889-8.193-1.889-3.211-.005-5.957.619-8.235 1.872-2.034 1.114-3.17 2.434-3.409 3.962-.039.196-.058.392-.058.588-.022 1.785 1.098 3.307 3.36 4.566.238.134.482.26.732.378l.009.008v-.016l.792-.403.016-.009c-.005-.006-.01-.009-.016-.009a.213.213 0 0 0-.05-.025c-.317-.14-.622-.288-.917-.445a8.59 8.59 0 0 1-.85-.503c-1.528-1.013-2.284-2.193-2.267-3.542.016-1.567 1.086-2.907 3.209-4.02.456-.241.93-.451 1.425-.63 1.811-.688 3.895-1.033 6.251-1.033 2.234 0 4.22.317 5.96.949.571.2 1.115.441 1.632.721z" fill="#EFEEEE"/>
      <path d="M154.037 67.29v1.125l.792-.462v-1.066l-.792.403zm1.167-.604v1.049l.1-.05.892-.529v-.973l-.992.503z" fill="#CFD0D0"/>
      <path d="M154.029 67.298l-.367.185V68.6l.034.017.341-.201v-1.108l-.008-.009z" fill="#736077"/>
      <path fill="#957C99" d="M155.195 66.694l-.35.185-.016.008v1.066l.3-.176.075-.042v-1.032z"/>
      <path d="M169.115 59.543h.009l.2-.117-.092.05-.117.067zm-1.067-.537l.884-.495c-2.023-1.019-4.456-1.528-7.302-1.528-2.917 0-5.41.523-7.476 1.57-2.067 1.052-3.112 2.32-3.134 3.802-.01.935.378 1.782 1.167 2.543.478.46 1.1.887 1.867 1.285.244.128.497.249.758.36.122.05.25.101.383.151l.009.009v-.017l.992-.503a13.88 13.88 0 0 1-1.276-.487 4.959 4.959 0 0 1-.233-.109c-1.506-.71-2.4-1.545-2.684-2.5a4.197 4.197 0 0 0-.05-.185 3.37 3.37 0 0 1-.042-.53c.017-1.258.973-2.33 2.868-3.214 1.889-.878 4.17-1.317 6.843-1.317 2.484-.002 4.626.387 6.426 1.165z" fill="#F1F0F0"/>
      <path d="M169.115 59.543l-.183.101-.884.512v-1.15c-1.8-.778-3.942-1.167-6.426-1.167-2.673 0-4.954.44-6.843 1.318-1.895.884-2.851 1.956-2.868 3.215 0 .179.014.355.042.528.428-1.035 1.37-1.894 2.826-2.576 1.889-.878 4.17-1.318 6.843-1.318 2.472 0 4.612.386 6.418 1.158l.008.009h.009l1.067-.63h-.009z" fill="#DFDFDE"/>
      <path d="M169.99 59.031l.31-.176V57.73l-.31.176v1.125zm-.758-.688h-.009l-.291.168v1.133l.183-.1.117-.068v-1.133z" fill="#977A9B"/>
      <path d="M169.832 57.823l.15.083c.006 0 .008.004.01.01v-.01l.308-.176a45.29 45.29 0 0 0-.234-.134c-2.323-1.32-5.131-1.98-8.426-1.98-3.306-.006-6.132.649-8.477 1.963-2.345 1.315-3.529 2.91-3.55 4.784V62.53c.005.146.016.294.033.445.05.375.15.742.3 1.1a5.143 5.143 0 0 0 .825 1.284c.128.15.266.296.417.436.211.207.447.409.708.604.145.107.295.213.45.32a15.989 15.989 0 0 0 .734.452c.161.09.322.176.483.26l.1.05.367-.184c-.25-.117-.494-.243-.733-.378-2.262-1.259-3.382-2.78-3.359-4.566 0-.195.02-.392.058-.587.24-1.528 1.375-2.848 3.409-3.962 2.278-1.254 5.023-1.878 8.235-1.872 3.205.002 5.936.632 8.192 1.89z" fill="#C19BC7"/>
      <path d="M168.932 58.51l.292-.167c-.517-.28-1.062-.52-1.634-.722-1.74-.632-3.726-.948-5.96-.948-2.355 0-4.44.344-6.25 1.032-.495.18-.97.39-1.426.63-2.122 1.113-3.192 2.453-3.209 4.02-.016 1.348.74 2.53 2.268 3.542.255.174.539.342.85.504.294.157.6.305.916.445a.213.213 0 0 1 .05.025c.006 0 .011.002.017.008l.35-.184c-.133-.05-.26-.101-.383-.151-.261-.112-.514-.232-.758-.36-.767-.398-1.39-.826-1.867-1.285-.79-.761-1.179-1.609-1.167-2.543.022-1.483 1.067-2.75 3.134-3.802 2.067-1.046 4.56-1.57 7.476-1.57 2.844 0 5.278.509 7.301 1.527z" fill="#B394B7"/>
      <path d="M168.932 58.51l-.884.496v1.15l.884-.512v-1.133zm.3-.175v1.141l.092-.05.666-.395v-1.116c0-.005-.003-.009-.008-.009l-.75.429z" fill="#C6C5C5"/>
      <path d="M163.92 70.57c.129.18.27.292.481.362.374.125.535-.469.163-.593a.182.182 0 0 1-.116-.08c-.228-.319-.759-.012-.528.31z" fill="#56AB46"/>
    </g>
    <g>
      <path d="M114.286 55.714v1.116c.14.224.3.44.484.646V56.36a5.618 5.618 0 0 1-.484-.646zm2.793 2.459a15.64 15.64 0 0 1-.733-.453v1.116a15.989 15.989 0 0 0 .733.453v-1.116zm.583.31l-.1-.05v1.117l.1.05v-1.116zm-1.767-1.082a7.06 7.06 0 0 1-.708-.605v1.117c.211.206.447.408.708.604V57.4zm-2.284-3.87V54.48c-.005.582.1 1.142.317 1.679l.016-1.083a4.33 4.33 0 0 1-.3-1.1 6.7 6.7 0 0 1-.033-.444z" fill="#815F83"/>
      <path d="M113.928 56.159c.1.224.22.447.358.671v-1.116a5.106 5.106 0 0 1-.341-.638l-.017 1.083zm3.634 2.274c-.161-.083-.322-.17-.483-.26v1.116c.16.09.322.176.483.26v-1.116zm-2.375-.52v-1.117c-.15-.14-.29-.285-.417-.436v1.116c.128.151.267.297.417.437zm.708-.512v1.116c.145.106.294.213.45.319v-1.117a14.8 14.8 0 0 1-.45-.318z" fill="#937596"/>
      <path d="M119.204 58.735l-.075.042h.008l.167-.092-.1.05zm14.02-9.392h.008v-.008l.75-.429-.15-.083c-2.256-1.26-4.987-1.889-8.193-1.889-3.211-.005-5.957.619-8.235 1.872-2.034 1.114-3.17 2.434-3.409 3.962-.039.196-.058.392-.058.588-.022 1.785 1.098 3.307 3.36 4.566.238.134.482.26.732.378l.009.008v-.016l.792-.403.017-.009c-.006-.006-.012-.009-.017-.009a.213.213 0 0 0-.05-.025c-.317-.14-.622-.288-.917-.445a8.59 8.59 0 0 1-.85-.503c-1.528-1.013-2.284-2.193-2.267-3.542.016-1.567 1.086-2.907 3.209-4.02.456-.241.93-.451 1.425-.63 1.811-.688 3.895-1.033 6.251-1.033 2.234 0 4.22.317 5.96.949.571.2 1.115.441 1.632.721z" fill="#EFEEEE"/>
      <path d="M118.037 58.29v1.125l.792-.462v-1.066l-.792.403zm1.167-.604v1.049l.1-.05.892-.529v-.973l-.992.503z" fill="#CFD0D0"/>
      <path d="M118.029 58.298l-.367.185V59.6l.034.017.341-.201v-1.108l-.008-.009z" fill="#736077"/>
      <path fill="#957C99" d="M119.195 57.694l-.35.185-.016.008v1.066l.3-.176.075-.042v-1.032z"/>
      <path d="M133.115 50.543h.009l.2-.117-.092.05-.117.067zm-1.067-.537l.884-.495c-2.023-1.019-4.456-1.528-7.302-1.528-2.917 0-5.41.523-7.476 1.57-2.067 1.052-3.112 2.32-3.134 3.802-.01.935.378 1.782 1.167 2.543.478.46 1.1.887 1.867 1.285.244.128.497.249.758.36.123.05.25.101.383.151l.009.009v-.017l.992-.503a13.88 13.88 0 0 1-1.276-.487 4.959 4.959 0 0 1-.233-.109c-1.506-.71-2.4-1.545-2.684-2.5a4.197 4.197 0 0 0-.05-.185 3.37 3.37 0 0 1-.042-.53c.017-1.258.973-2.33 2.868-3.214 1.889-.878 4.17-1.317 6.843-1.317 2.484-.002 4.626.387 6.426 1.165z" fill="#F1F0F0"/>
      <path d="M133.115 50.543l-.183.101-.884.512v-1.15c-1.8-.778-3.942-1.167-6.426-1.167-2.673 0-4.954.44-6.843 1.318-1.895.884-2.851 1.956-2.868 3.215 0 .179.014.355.042.528.428-1.035 1.37-1.894 2.826-2.576 1.889-.878 4.17-1.318 6.843-1.318 2.472 0 4.612.386 6.418 1.158l.008.009h.009l1.067-.63h-.009z" fill="#DFDFDE"/>
      <path d="M133.99 50.031l.31-.176V48.73l-.31.176v1.125zm-.758-.688h-.009l-.291.168v1.133l.183-.1.117-.068v-1.133z" fill="#977A9B"/>
      <path d="M133.832 48.823l.15.083c.006 0 .008.004.01.01v-.01l.308-.176a45.29 45.29 0 0 0-.234-.134c-2.323-1.32-5.131-1.98-8.426-1.98-3.306-.006-6.132.649-8.477 1.963-2.345 1.315-3.529 2.91-3.55 4.784V53.53c.005.146.016.294.033.445.05.375.15.742.3 1.1a5.143 5.143 0 0 0 .825 1.284c.128.15.266.296.417.436.211.207.447.409.708.604.145.107.295.213.45.32a15.989 15.989 0 0 0 .734.452c.161.09.322.176.483.26l.1.05.367-.184c-.25-.117-.494-.243-.733-.378-2.262-1.259-3.382-2.78-3.359-4.566 0-.195.02-.392.058-.587.24-1.528 1.375-2.848 3.409-3.962 2.278-1.254 5.023-1.878 8.235-1.872 3.205.002 5.936.632 8.192 1.89z" fill="#C19BC7"/>
      <path d="M132.932 49.51l.292-.167c-.517-.28-1.062-.52-1.634-.722-1.74-.632-3.726-.948-5.96-.948-2.355 0-4.44.344-6.25 1.032-.495.18-.97.39-1.426.63-2.122 1.113-3.192 2.453-3.209 4.02-.016 1.348.74 2.53 2.268 3.542.255.174.539.342.85.504.294.157.6.305.916.445a.213.213 0 0 1 .05.025c.006 0 .011.002.017.008l.35-.184c-.133-.05-.26-.101-.383-.151-.261-.112-.514-.232-.759-.36-.766-.398-1.389-.826-1.866-1.285-.79-.761-1.179-1.609-1.167-2.543.022-1.483 1.067-2.75 3.134-3.802 2.067-1.046 4.56-1.57 7.476-1.57 2.844 0 5.278.509 7.301 1.527z" fill="#B394B7"/>
      <path d="M132.932 49.51l-.884.496v1.15l.884-.512v-1.133zm.3-.175v1.141l.092-.05.666-.395v-1.116c0-.005-.003-.009-.008-.009l-.75.429z" fill="#C6C5C5"/>
      <path d="M127.92 61.57c.129.18.27.292.481.362.374.125.535-.469.163-.593a.182.182 0 0 1-.116-.08c-.228-.319-.759-.012-.528.31z" fill="#56AB46"/>
    </g>
    <g>
      <path d="M103.286 45.714v1.116c.14.224.3.44.484.646V46.36a5.618 5.618 0 0 1-.484-.646zm2.793 2.459a15.64 15.64 0 0 1-.733-.453v1.116a15.989 15.989 0 0 0 .733.453v-1.116zm.583.31l-.1-.05v1.117l.1.05v-1.116zm-1.767-1.082a7.06 7.06 0 0 1-.708-.605v1.117c.211.206.447.408.708.604V47.4zm-2.284-3.87V44.48c-.005.582.1 1.142.317 1.679l.016-1.083a4.33 4.33 0 0 1-.3-1.1 6.7 6.7 0 0 1-.033-.444z" fill="#815F83"/>
      <path d="M102.928 46.159c.1.224.22.447.358.671v-1.116a5.106 5.106 0 0 1-.341-.638l-.017 1.083zm3.634 2.274c-.161-.083-.322-.17-.483-.26v1.116c.16.09.322.176.483.26v-1.116zm-2.375-.52v-1.117c-.15-.14-.29-.285-.417-.436v1.116c.128.151.267.297.417.437zm.708-.512v1.116c.145.106.294.213.45.319v-1.117a14.8 14.8 0 0 1-.45-.318z" fill="#937596"/>
      <path d="M108.204 48.735l-.075.042h.008l.167-.092-.1.05zm14.02-9.392h.008v-.008l.75-.429-.15-.083c-2.256-1.26-4.987-1.889-8.193-1.889-3.211-.005-5.957.619-8.235 1.872-2.034 1.114-3.17 2.434-3.409 3.962-.039.196-.058.392-.058.588-.022 1.785 1.098 3.307 3.36 4.566.238.134.482.26.732.378l.009.008v-.016l.792-.403.017-.009c-.006-.006-.012-.009-.017-.009a.213.213 0 0 0-.05-.025c-.317-.14-.622-.288-.917-.445a8.59 8.59 0 0 1-.85-.503c-1.528-1.013-2.284-2.193-2.267-3.542.016-1.567 1.086-2.907 3.209-4.02.456-.241.93-.451 1.425-.63 1.811-.688 3.895-1.033 6.251-1.033 2.234 0 4.22.317 5.96.949.571.2 1.116.441 1.633.721z" fill="#EFEEEE"/>
      <path d="M107.037 48.29v1.125l.792-.462v-1.066l-.792.403zm1.167-.604v1.049l.1-.05.892-.529v-.973l-.992.503z" fill="#CFD0D0"/>
      <path d="M107.029 48.298l-.367.185V49.6l.034.017.341-.201v-1.108l-.008-.009z" fill="#736077"/>
      <path fill="#957C99" d="M108.195 47.694l-.35.185-.016.008v1.066l.3-.176.075-.042v-1.032z"/>
      <path d="M122.115 40.543h.009l.2-.117-.092.05-.117.067zm-1.067-.537l.884-.495c-2.023-1.019-4.456-1.528-7.302-1.528-2.917 0-5.41.523-7.476 1.57-2.067 1.052-3.112 2.32-3.134 3.802-.01.935.378 1.782 1.167 2.543.478.46 1.1.887 1.867 1.285.244.128.497.249.758.36.123.05.25.101.383.151l.009.009v-.017l.992-.503a13.88 13.88 0 0 1-1.276-.487 4.959 4.959 0 0 1-.233-.109c-1.506-.71-2.4-1.545-2.684-2.5a4.197 4.197 0 0 0-.05-.185 3.37 3.37 0 0 1-.042-.53c.017-1.258.973-2.33 2.868-3.214 1.889-.878 4.17-1.317 6.843-1.317 2.484-.002 4.626.387 6.426 1.165z" fill="#F1F0F0"/>
      <path d="M122.115 40.543l-.183.101-.884.512v-1.15c-1.8-.778-3.942-1.167-6.426-1.167-2.673 0-4.954.44-6.843 1.318-1.895.884-2.851 1.956-2.868 3.215 0 .179.014.355.042.528.428-1.035 1.37-1.894 2.826-2.576 1.889-.878 4.17-1.318 6.843-1.318 2.472 0 4.612.386 6.418 1.158l.008.009h.009l1.067-.63h-.009z" fill="#DFDFDE"/>
      <path d="M122.99 40.031l.31-.176V38.73l-.31.176v1.125zm-.758-.688h-.009l-.291.168v1.133l.183-.1.117-.068v-1.133z" fill="#977A9B"/>
      <path d="M122.832 38.823l.15.083c.006 0 .008.004.01.01v-.01l.308-.176a45.29 45.29 0 0 0-.234-.134c-2.323-1.32-5.131-1.98-8.426-1.98-3.306-.006-6.132.649-8.477 1.963-2.345 1.315-3.529 2.91-3.55 4.784V43.53c.005.146.016.294.033.445.05.375.15.742.3 1.1a5.143 5.143 0 0 0 .825 1.284c.128.15.266.296.417.436.211.207.447.409.708.604.145.107.295.213.45.32a15.989 15.989 0 0 0 .734.452c.161.09.322.176.483.26l.1.05.367-.184c-.25-.117-.494-.243-.733-.378-2.262-1.259-3.382-2.78-3.359-4.566 0-.195.02-.392.058-.587.24-1.528 1.375-2.848 3.409-3.962 2.278-1.254 5.023-1.878 8.235-1.872 3.205.002 5.936.632 8.192 1.89z" fill="#C19BC7"/>
      <path d="M121.932 39.51l.291-.167c-.516-.28-1.061-.52-1.633-.722-1.74-.632-3.726-.948-5.96-.948-2.355 0-4.44.344-6.25 1.032-.495.18-.97.39-1.426.63-2.122 1.113-3.192 2.453-3.209 4.02-.016 1.348.74 2.53 2.268 3.542.255.174.539.342.85.504.294.157.6.305.916.445a.213.213 0 0 1 .05.025c.006 0 .011.002.017.008l.35-.184c-.133-.05-.26-.101-.383-.151-.261-.112-.514-.232-.759-.36-.766-.398-1.389-.826-1.866-1.285-.79-.761-1.179-1.609-1.167-2.543.022-1.483 1.067-2.75 3.134-3.802 2.067-1.046 4.56-1.57 7.476-1.57 2.844 0 5.278.509 7.301 1.527z" fill="#B394B7"/>
      <path d="M121.932 39.51l-.884.496v1.15l.884-.512v-1.133zm.3-.175v1.141l.092-.05.666-.395v-1.116c0-.005-.003-.009-.008-.009l-.75.429z" fill="#C6C5C5"/>
      <path d="M116.92 51.57c.129.18.27.292.481.362.374.125.535-.469.163-.593a.182.182 0 0 1-.116-.08c-.228-.319-.759-.012-.528.31z" fill="#56AB46"/>
    </g>
    <g>
      <path d="M147.286 39.714v1.116c.14.224.3.44.484.646V40.36a5.618 5.618 0 0 1-.484-.646zm2.793 2.459a15.64 15.64 0 0 1-.733-.453v1.116a15.989 15.989 0 0 0 .733.453v-1.116zm.583.31l-.1-.05v1.117l.1.05v-1.116zm-1.767-1.082a7.06 7.06 0 0 1-.708-.605v1.117c.211.206.447.408.708.604V41.4zm-2.284-3.87V38.48c-.005.582.1 1.142.317 1.679l.016-1.083a4.33 4.33 0 0 1-.3-1.1 6.7 6.7 0 0 1-.033-.444z" fill="#815F83"/>
      <path d="M146.928 40.159c.1.224.22.447.358.671v-1.116a5.106 5.106 0 0 1-.341-.638l-.017 1.083zm3.634 2.274c-.161-.083-.322-.17-.483-.26v1.116c.16.09.322.176.483.26v-1.116zm-2.375-.52v-1.117c-.15-.14-.29-.285-.417-.436v1.116c.127.151.267.297.417.437zm.708-.512v1.116c.145.106.294.213.45.319v-1.117a14.8 14.8 0 0 1-.45-.318z" fill="#937596"/>
      <path d="M152.204 42.735l-.075.042h.008l.167-.092-.1.05zm14.02-9.392h.008v-.008l.75-.429-.15-.083c-2.256-1.26-4.987-1.889-8.193-1.889-3.211-.005-5.957.619-8.235 1.872-2.034 1.114-3.17 2.434-3.409 3.962-.039.196-.058.392-.058.588-.022 1.785 1.098 3.307 3.36 4.566.238.134.482.26.732.378l.009.008v-.016l.792-.403.016-.009c-.005-.006-.01-.009-.016-.009a.213.213 0 0 0-.05-.025c-.317-.14-.622-.288-.917-.445a8.59 8.59 0 0 1-.85-.503c-1.528-1.013-2.284-2.193-2.267-3.542.016-1.567 1.086-2.907 3.209-4.02.456-.241.93-.451 1.425-.63 1.811-.688 3.895-1.033 6.251-1.033 2.234 0 4.22.317 5.96.949.571.2 1.115.441 1.632.721z" fill="#EFEEEE"/>
      <path d="M151.037 42.29v1.125l.792-.462v-1.066l-.792.403zm1.167-.604v1.049l.1-.05.892-.529v-.973l-.992.503z" fill="#CFD0D0"/>
      <path d="M151.029 42.298l-.367.185V43.6l.034.017.341-.201v-1.108l-.008-.009z" fill="#736077"/>
      <path fill="#957C99" d="M152.195 41.694l-.35.185-.016.008v1.066l.3-.176.075-.042v-1.032z"/>
      <path d="M166.115 34.543h.009l.2-.117-.092.05-.117.067zm-1.067-.537l.884-.495c-2.023-1.019-4.456-1.528-7.302-1.528-2.917 0-5.41.523-7.476 1.57-2.067 1.052-3.112 2.32-3.134 3.802-.01.935.378 1.782 1.167 2.543.478.46 1.1.887 1.867 1.285.244.128.497.249.758.36.122.05.25.101.383.151l.009.009v-.017l.992-.503a13.88 13.88 0 0 1-1.276-.487 4.959 4.959 0 0 1-.233-.109c-1.506-.71-2.4-1.545-2.684-2.5a4.197 4.197 0 0 0-.05-.185 3.37 3.37 0 0 1-.042-.53c.017-1.258.973-2.33 2.868-3.214 1.889-.878 4.17-1.317 6.843-1.317 2.484-.002 4.626.387 6.426 1.165z" fill="#F1F0F0"/>
      <path d="M166.115 34.543l-.183.101-.884.512v-1.15c-1.8-.778-3.942-1.167-6.426-1.167-2.673 0-4.954.44-6.843 1.318-1.895.884-2.851 1.956-2.868 3.215 0 .179.014.355.042.528.428-1.035 1.37-1.894 2.826-2.576 1.889-.878 4.17-1.318 6.843-1.318 2.472 0 4.612.386 6.418 1.158l.008.009h.009l1.067-.63h-.009z" fill="#DFDFDE"/>
      <path d="M166.99 34.031l.31-.176V32.73l-.31.176v1.125zm-.758-.688h-.009l-.291.168v1.133l.183-.1.117-.068v-1.133z" fill="#977A9B"/>
      <path d="M166.832 32.823l.15.083c.006 0 .008.004.01.01v-.01l.308-.176a45.29 45.29 0 0 0-.234-.134c-2.323-1.32-5.131-1.98-8.426-1.98-3.306-.006-6.132.649-8.477 1.963-2.345 1.315-3.529 2.91-3.55 4.784V37.53c.005.146.016.294.033.445.05.375.15.742.3 1.1a5.143 5.143 0 0 0 .825 1.284c.128.15.266.296.417.436.211.207.447.409.708.604.145.107.295.213.45.32a15.989 15.989 0 0 0 .734.452c.161.09.322.176.483.26l.1.05.367-.184c-.25-.117-.494-.243-.733-.378-2.262-1.259-3.382-2.78-3.359-4.566 0-.195.02-.392.058-.587.24-1.528 1.375-2.848 3.409-3.962 2.278-1.254 5.023-1.878 8.235-1.872 3.205.002 5.936.632 8.192 1.89z" fill="#C19BC7"/>
      <path d="M165.932 33.51l.292-.167c-.517-.28-1.062-.52-1.634-.722-1.74-.632-3.726-.948-5.96-.948-2.355 0-4.44.344-6.25 1.032-.495.18-.97.39-1.426.63-2.122 1.113-3.192 2.453-3.209 4.02-.016 1.348.74 2.53 2.268 3.542.255.174.539.342.85.504.294.157.6.305.916.445a.213.213 0 0 1 .05.025c.006 0 .011.002.017.008l.35-.184c-.133-.05-.26-.101-.383-.151-.261-.112-.514-.232-.758-.36-.767-.398-1.39-.826-1.867-1.285-.79-.761-1.179-1.609-1.167-2.543.022-1.483 1.067-2.75 3.134-3.802 2.067-1.046 4.56-1.57 7.476-1.57 2.844 0 5.278.509 7.301 1.527z" fill="#B394B7"/>
      <path d="M165.932 33.51l-.884.496v1.15l.884-.512v-1.133zm.3-.175v1.141l.092-.05.666-.395v-1.116c0-.005-.003-.009-.008-.009l-.75.429z" fill="#C6C5C5"/>
      <path d="M160.92 45.57c.129.18.27.292.481.362.374.125.535-.469.163-.593a.182.182 0 0 1-.116-.08c-.228-.319-.759-.012-.528.31z" fill="#56AB46"/>
    </g>
  </g>
</svg>
