<svg width="225" height="159" viewBox="0 0 225 159" xmlns="http://www.w3.org/2000/svg">
  <g fill-rule="nonzero" fill="none">
    <path d="M158.995 38.757a5.79 5.79 0 0 1-.066.614c-.34 1.792-1.789 3.427-4.349 4.904-2.103 1.217-4.105 1.793-6.008 1.726a8.24 8.24 0 0 1-1.978-.323.852.852 0 0 1-.108.074c-1.497 1.046-3.714 1.596-6.651 1.652-3.01.06-6.257-.82-9.74-2.64-2.943-1.532-4.61-3.125-5-4.779a3.35 3.35 0 0 1-.09-.705v1.535a.171.171 0 0 0 0 .075c.044 1.903 1.74 3.726 5.09 5.468 3.483 1.82 6.729 2.7 9.74 2.639 3.01-.055 5.263-.63 6.76-1.726 2.475.714 5.138.246 7.986-1.402 2.848-1.644 4.32-3.483 4.415-5.519.005-.11.005-.221 0-.332V38.757zm-25.437-7.02c-1.725 1.023-2.27 2.025-1.635 3.004.29-.465.834-.935 1.635-1.411 2.026-1.195 4.983-1.773 8.872-1.735 3.9.034 6.92.683 9.063 1.95.773.454 1.304.905 1.594 1.353.628-.974.097-1.956-1.594-2.946-2.142-1.267-5.163-1.917-9.063-1.95-3.89-.038-6.846.54-8.872 1.735z" fill="#D75D27"/>
    <path d="M129.268 34.92c.056.11.122.222.2.338l-.359.132c-2.659.969-4.027 2.404-4.105 4.304v.091a.207.207 0 0 0 0 .083v.04c.006.238.036.471.092.703.39 1.647 2.056 3.233 4.998 4.759 3.483 1.812 6.729 2.688 9.739 2.627 2.937-.055 5.154-.603 6.65-1.644a.682.682 0 0 0 .109-.075 8.306 8.306 0 0 0 1.977.323c1.903.066 3.905-.507 6.008-1.719 2.56-1.47 4.008-3.098 4.348-4.883a5.604 5.604 0 0 0 .075-.85c-.022-1.703-1.004-2.818-2.946-3.347a7.201 7.201 0 0 0-.676-.157c.2-.204.356-.407.467-.61.63-1.163-.161-2.391-2.37-3.686-2.597-1.526-6.26-2.308-10.99-2.347-4.723-.05-8.308.645-10.756 2.083-2.247 1.322-3.067 2.6-2.461 3.834zm2.654.47c-.634-.975-.09-1.972 1.635-2.991 2.026-1.19 4.982-1.765 8.87-1.727 3.9.033 6.92.68 9.063 1.941 1.691.987 2.223 1.964 1.594 2.934-.173.253-.426.51-.76.768h.009c.356.039.69.09 1.002.157 1.863.396 2.767 1.314 2.712 2.751a3.89 3.89 0 0 1-.1.71c-.351 1.405-1.528 2.686-3.53 3.842-2.353 1.345-4.553 1.598-6.601.76-1.23 1.158-3.087 1.76-5.574 1.81-2.487.044-5.163-.68-8.028-2.173-2.342-1.211-3.705-2.468-4.089-3.767a2.584 2.584 0 0 1-.117-.917c.061-1.498 1.283-2.636 3.663-3.413.206-.071.42-.137.643-.198.005-.005.01-.008.016-.008a2.405 2.405 0 0 1-.408-.48z" fill="#F58857"/>
    <path d="M153.29 36.657a9.21 9.21 0 0 0-1-.173v1.752c2.055.237 3.257.985 3.607 2.244.056-.261.09-.523.1-.785.056-1.588-.847-2.6-2.707-3.038zM132.302 36a9.05 9.05 0 0 0-.641.219c-2.378.857-3.596 2.114-3.657 3.768-.017.34.022.679.116 1.013.389-1.43 1.789-2.515 4.2-3.257-.006 0-.009-.004-.009-.01L132.302 36z" fill="#D95D2E"/>
    <g>
      <path d="M177.995 76.757a5.79 5.79 0 0 1-.066.614c-.34 1.792-1.789 3.427-4.349 4.904-2.103 1.217-4.105 1.793-6.008 1.726a8.24 8.24 0 0 1-1.978-.323.852.852 0 0 1-.108.074c-1.497 1.046-3.714 1.596-6.651 1.652-3.01.06-6.257-.82-9.74-2.64-2.943-1.532-4.61-3.125-5-4.779a3.35 3.35 0 0 1-.09-.705v1.535a.171.171 0 0 0 0 .075c.044 1.903 1.74 3.726 5.09 5.468 3.483 1.82 6.729 2.7 9.74 2.639 3.01-.055 5.263-.63 6.76-1.726 2.475.714 5.138.246 7.986-1.402 2.848-1.644 4.32-3.483 4.415-5.519.005-.11.005-.221 0-.332V76.757zm-25.437-7.02c-1.725 1.023-2.27 2.025-1.635 3.004.29-.465.834-.935 1.635-1.411 2.026-1.195 4.983-1.773 8.872-1.735 3.9.034 6.92.683 9.063 1.95.773.454 1.304.905 1.594 1.353.628-.974.097-1.956-1.594-2.946-2.142-1.267-5.163-1.917-9.063-1.95-3.89-.038-6.846.54-8.872 1.735z" fill="#D75D27"/>
      <path d="M148.268 72.92c.056.11.122.222.2.338l-.359.132c-2.659.969-4.027 2.404-4.105 4.304v.091a.207.207 0 0 0 0 .083v.04c.006.238.036.471.092.703.39 1.647 2.056 3.233 4.998 4.759 3.483 1.812 6.729 2.688 9.739 2.627 2.937-.055 5.154-.603 6.65-1.644a.682.682 0 0 0 .109-.075 8.306 8.306 0 0 0 1.977.323c1.903.066 3.905-.507 6.008-1.719 2.56-1.47 4.008-3.098 4.348-4.883a5.604 5.604 0 0 0 .075-.85c-.022-1.703-1.004-2.818-2.946-3.347a7.201 7.201 0 0 0-.676-.157c.2-.204.356-.407.467-.61.63-1.163-.161-2.391-2.37-3.686-2.597-1.526-6.26-2.308-10.99-2.347-4.723-.05-8.308.645-10.756 2.083-2.247 1.322-3.067 2.6-2.461 3.834zm2.654.47c-.634-.975-.09-1.972 1.635-2.991 2.026-1.19 4.982-1.765 8.87-1.727 3.9.033 6.92.68 9.063 1.941 1.691.987 2.223 1.964 1.594 2.934-.173.253-.426.51-.76.768h.009c.356.039.69.09 1.002.157 1.863.396 2.767 1.314 2.712 2.751a3.89 3.89 0 0 1-.1.71c-.351 1.405-1.528 2.686-3.53 3.842-2.353 1.345-4.553 1.598-6.601.76-1.23 1.158-3.087 1.76-5.574 1.81-2.487.044-5.163-.68-8.028-2.173-2.342-1.211-3.705-2.468-4.089-3.767a2.584 2.584 0 0 1-.117-.917c.061-1.498 1.283-2.636 3.663-3.413.206-.071.42-.137.643-.198.005-.005.01-.008.016-.008a2.405 2.405 0 0 1-.408-.48z" fill="#F58857"/>
      <path d="M172.29 74.657a9.21 9.21 0 0 0-1-.173v1.752c2.055.237 3.257.985 3.607 2.244.056-.261.09-.523.1-.785.056-1.588-.847-2.6-2.707-3.038zM151.302 74a9.05 9.05 0 0 0-.641.219c-2.378.857-3.596 2.114-3.657 3.768-.017.34.022.679.116 1.013.389-1.43 1.789-2.515 4.2-3.257-.006 0-.009-.004-.009-.01L151.302 74z" fill="#D95D2E"/>
    </g>
    <g>
      <path d="M104.995 75.757a5.79 5.79 0 0 1-.066.614c-.34 1.792-1.789 3.427-4.349 4.904-2.103 1.217-4.105 1.793-6.008 1.726a8.24 8.24 0 0 1-1.978-.323.852.852 0 0 1-.108.074c-1.497 1.046-3.714 1.596-6.651 1.652-3.01.06-6.257-.82-9.74-2.64-2.943-1.532-4.61-3.125-5-4.779a3.35 3.35 0 0 1-.09-.705v1.535a.171.171 0 0 0 0 .075c.044 1.903 1.74 3.726 5.09 5.468 3.483 1.82 6.729 2.7 9.74 2.639 3.01-.055 5.263-.63 6.76-1.726 2.475.714 5.138.246 7.986-1.402 2.848-1.644 4.32-3.483 4.415-5.519.005-.11.005-.221 0-.332V75.757zm-25.437-7.02c-1.725 1.023-2.27 2.025-1.635 3.004.29-.465.834-.935 1.635-1.411 2.026-1.195 4.983-1.773 8.872-1.735 3.9.034 6.92.683 9.063 1.95.773.454 1.304.905 1.594 1.353.628-.974.097-1.956-1.594-2.946-2.142-1.267-5.163-1.917-9.063-1.95-3.89-.038-6.846.54-8.872 1.735z" fill="#D75D27"/>
      <path d="M75.268 71.92c.056.11.122.222.2.338l-.359.132c-2.659.969-4.027 2.404-4.105 4.304v.091a.207.207 0 0 0 0 .083v.04c.006.238.036.471.092.703.39 1.647 2.056 3.233 4.998 4.759 3.483 1.812 6.729 2.688 9.739 2.627 2.937-.055 5.154-.603 6.65-1.644a.682.682 0 0 0 .109-.075 8.306 8.306 0 0 0 1.977.323c1.903.066 3.905-.507 6.008-1.719 2.56-1.47 4.008-3.098 4.348-4.883a5.604 5.604 0 0 0 .075-.85c-.022-1.703-1.004-2.818-2.946-3.347a7.201 7.201 0 0 0-.676-.157c.2-.204.356-.407.467-.61.63-1.163-.161-2.391-2.37-3.686-2.597-1.526-6.26-2.308-10.99-2.347-4.723-.05-8.308.645-10.756 2.083-2.247 1.322-3.067 2.6-2.461 3.834zm2.654.47c-.634-.975-.09-1.972 1.635-2.991 2.026-1.19 4.982-1.765 8.87-1.727 3.9.033 6.92.68 9.063 1.941 1.691.987 2.223 1.964 1.594 2.934-.173.253-.426.51-.76.768h.009c.356.039.69.09 1.002.157 1.863.396 2.767 1.314 2.712 2.751a3.89 3.89 0 0 1-.1.71c-.351 1.405-1.528 2.686-3.53 3.842-2.353 1.345-4.553 1.598-6.601.76-1.23 1.158-3.087 1.76-5.574 1.81-2.487.044-5.163-.68-8.028-2.173-2.342-1.211-3.705-2.468-4.089-3.767a2.584 2.584 0 0 1-.117-.917c.061-1.498 1.283-2.636 3.663-3.413.206-.071.42-.137.643-.198.005-.005.01-.008.016-.008a2.405 2.405 0 0 1-.408-.48z" fill="#F58857"/>
      <path d="M99.29 73.657a9.21 9.21 0 0 0-1-.173v1.752c2.055.237 3.257.985 3.607 2.244.056-.261.09-.523.1-.785.056-1.588-.847-2.6-2.707-3.038zM78.302 73a9.05 9.05 0 0 0-.641.219c-2.378.857-3.596 2.114-3.657 3.768-.017.34.022.679.116 1.013.389-1.43 1.789-2.515 4.2-3.257-.006 0-.009-.004-.009-.01L78.302 73z" fill="#D95D2E"/>
    </g>
  </g>
</svg>
