<svg width="225" height="159" viewBox="0 0 225 159" xmlns="http://www.w3.org/2000/svg">
  <g fill-rule="nonzero" fill="none">
    <path d="M148.725 59.468c.025.123.094.258.208.406.102.136.266.3.493.493.177.142.372.287.587.435.12.077.243.155.37.232 1.332.779 2.873 1.21 4.622 1.295a9.948 9.948 0 0 0 2.343-.153 1.46 1.46 0 0 0 .203-.056c.673-.238 1.227-.526 1.66-.864 0-.006.003-.012.01-.019.03-.025.065-.052.103-.077.323-.27.566-.573.73-.908.1-.206.177-.422.227-.648.006-.058.018-.119.038-.183.025-.16.04-.319.047-.473v3.149c0 .193-.016.383-.047.57a1.07 1.07 0 0 0-.038.184c-.133.605-.452 1.124-.957 1.555a.593.593 0 0 0-.095.077c-.012.007-.019.017-.019.03-.434.338-.99.624-1.666.857a1.453 1.453 0 0 1-.188.051c-.709.146-1.492.197-2.351.154-1.75-.084-3.29-.515-4.622-1.295a8.189 8.189 0 0 1-.957-.666 3.659 3.659 0 0 1-.493-.483 1.024 1.024 0 0 1-.208-.416v-3.247z" fill="#E8B282"/>
    <path d="M149.341 58.454l.151-.174.01-.01a.153.153 0 0 0 .038-.058c.277-.104.571-.19.88-.26.72-.162 1.531-.22 2.434-.175 1.597.07 3.01.454 4.234 1.15.031.019.066.038.104.058.556.328.998.679 1.326 1.053l.03.033c-.25-.13.767.41.671 1.165-.05.405-1.145.56-1.067.642-.189.085-.39.165-.602.24a1.46 1.46 0 0 1-.203.056 9.946 9.946 0 0 1-2.343.153c-1.75-.084-3.29-.515-4.622-1.295a19.09 19.09 0 0 1-.37-.232c-.214-.148-.41-.293-.587-.435a3.288 3.288 0 0 1-.492-.493 1.03 1.03 0 0 1-.209-.406.985.985 0 0 1-.01-.135v-.058c.02-.077.089-.193.209-.348.05-.058.161-.18.331-.367a.566.566 0 0 0 .087-.104zm.625-2.357c.164-.142.363-.28.597-.415.113-.071.233-.136.36-.194.814-.393 1.77-.602 2.87-.628.063-.006.122-.01.18-.01.226 0 .457.006.69.02a9.69 9.69 0 0 1 2.084.289 8.807 8.807 0 0 1 2.226.908l.019.01c.27.159.513.322.73.49l.356.495c.191.53.287 1.071.287 1.624v.26a4.184 4.184 0 0 1-.048.474 1.07 1.07 0 0 0-.038.183 2.416 2.416 0 0 0-.237-.521c-.202-.367-.508-.712-.918-1.034a6.175 6.175 0 0 0-.815-.55 6.755 6.755 0 0 0-.796-.416 5.85 5.85 0 0 0-.198-.087c-.89-.373-1.87-.602-2.937-.686a7.298 7.298 0 0 0-.397-.029c-.89-.045-1.696.017-2.416.184a6.36 6.36 0 0 0-1.165.367 18.7 18.7 0 0 1-.227.106v-.087a1.043 1.043 0 0 0-.029-.136 2.132 2.132 0 0 0-.142-.502.37.37 0 0 0-.036-.115zm-.833-2.744c.164-.136.35-.265.559-.387 1.073-.625 2.437-.898 4.091-.821.449.025.88.07 1.298.135a25.378 25.378 0 0 1 2.406 1.594c.316.252.606.5.871.744a7.072 7.072 0 0 0-.947-.434 10.143 10.143 0 0 0-1.932-.522 12.213 12.213 0 0 0-1.203-.116c-1.13-.058-2.13.055-3.002.338a5.355 5.355 0 0 0-1.09.483 3.489 3.489 0 0 0-.928.735 5.568 5.568 0 0 0-.89-.725c.132-.38.387-.721.767-1.024zm-1.213-3.44c.133.02.262.036.388.049.758.116 1.49.264 2.198.444.34.096.678.196 1.013.3-.29.032-.575.08-.853.145a5.718 5.718 0 0 0-1.695.647c-.777.45-1.241.995-1.393 1.633-.038.16-.053.331-.047.512 0 .077.007.155.019.232.006.006.01.016.01.029a15.816 15.816 0 0 0-.474-.223 8.29 8.29 0 0 0-1.392-.483.54.54 0 0 0-.029-.067l-.038-.154a1.743 1.743 0 0 1-.038-.261c-.139-.96.331-1.752 1.411-2.377a5.23 5.23 0 0 1 .92-.425zm-7.909 3.363a9.988 9.988 0 0 0-.398.145c-.253.07-.537.096-.852.077a2.993 2.993 0 0 1-1.402-.377c-.404-.238-.622-.515-.653-.83a.342.342 0 0 1-.01-.068v-.01a.444.444 0 0 1 .028-.203c.057-.174.184-.322.38-.444l.028-.019c.006-.006.016-.01.028-.01l.02-.019.009-.01a.367.367 0 0 1 .047-.019c.102-.058.199-.113.294-.164.138-.075.659-.263.801-.332.462-.226.66-.042 1 .35.275.315.647.611 1.116.89a6.7 6.7 0 0 0 1.459.637 6.97 6.97 0 0 0-1.128.184 7.14 7.14 0 0 0-.634.164.61.61 0 0 0-.133.057zm.976-2.667a1.614 1.614 0 0 1-.01-.521c.65-.142 1.33-.242 2.036-.3.449-.039.906-.06 1.374-.067.12 0 .24-.003.36-.01a4.356 4.356 0 0 0-.19.165c-.55.52-.776 1.133-.682 1.835.038.31.133.605.284.889.063.116.133.225.208.328a30.14 30.14 0 0 0-.786-.067 2.61 2.61 0 0 0-.218-.01c-.145-.006-.296-.01-.455-.01l-.151-.096a1.4 1.4 0 0 1-.104-.058c-1.022-.6-1.578-1.292-1.666-2.078z" fill="#FFE5CC"/>
    <path d="M150.174 56.937a18.7 18.7 0 0 0 .227-.106c.36-.155.748-.277 1.166-.367.72-.167 1.525-.23 2.415-.184.139.007.271.017.398.03 1.067.083 2.046.312 2.936.685.063.025.13.054.199.087.277.123.543.26.795.416.304.173.575.358.815.55.41.323.717.667.919 1.034.1.167.18.341.237.521-.051.225-.127.441-.228.647a2.788 2.788 0 0 1-.729.909 1.355 1.355 0 0 0-.104.077 3.074 3.074 0 0 0-.7-1.198c-.329-.373-.77-.725-1.326-1.053a1.4 1.4 0 0 1-.104-.058c-1.225-.696-2.637-1.08-4.234-1.15-.903-.045-1.715.013-2.434.174-.31.071-.603.158-.881.26.17-.192.306-.372.408-.54.156-.277.232-.522.225-.734zm.389-1.256a3.918 3.918 0 0 0-.597.415 1.985 1.985 0 0 0-.19-.338 2.127 2.127 0 0 0-.236-.338 2.602 2.602 0 0 0-.284-.318c.234-.271.543-.515.928-.735.341-.2.704-.36 1.089-.483.871-.283 1.872-.396 3.003-.338a12 12 0 0 1 1.202.116c.682.116 1.326.29 1.932.522.274.102.539.22.795.352.102.053.198.124.282.205a7.31 7.31 0 0 1 .978 1.143c.202.296.366.59.493.88a6.332 6.332 0 0 0-.966-.686l-.02-.01a8.807 8.807 0 0 0-2.225-.908 9.702 9.702 0 0 0-2.083-.29c-.233-.013-.464-.02-.692-.02-.057 0-.116.004-.18.01-1.098.026-2.055.236-2.87.629a3.072 3.072 0 0 0-.36.192zm-6.005-5.806c.063-.058.126-.113.19-.165.385-.006.776 0 1.174.02.681.039 1.347.1 1.998.183a5.27 5.27 0 0 0-.919.425c-1.08.625-1.55 1.417-1.41 2.377.006.09.018.177.037.26l.039.155a.54.54 0 0 1 .028.067.71.71 0 0 0-.151-.04 10.624 10.624 0 0 0-.938-.192 11.2 11.2 0 0 1-.237-.04 2.845 2.845 0 0 1-.208-.328 2.514 2.514 0 0 1-.284-.889c-.096-.7.131-1.311.68-1.833zm5.133 3.092a4.356 4.356 0 0 0-.56.386c-.378.303-.634.644-.766 1.025-.12-.078-.247-.155-.38-.232a9.28 9.28 0 0 0-.426-.242c0-.012-.003-.022-.01-.029a1.447 1.447 0 0 1-.018-.231 1.95 1.95 0 0 1 .047-.512c.151-.638.616-1.182 1.392-1.633a5.718 5.718 0 0 1 1.695-.647c.278-.065.562-.113.853-.146 1.263.406 2.45.931 3.561 1.575a13.5 13.5 0 0 0-1.298-.135c-1.653-.078-3.016.196-4.09.82zm-8.713-2.88c-.025.161-.022.335.01.522.088.785.643 1.478 1.667 2.076a1.4 1.4 0 0 0 .104.059l.151.096a2.87 2.87 0 0 0-.33 0c-.228 0-.452.01-.673.029a6.671 6.671 0 0 1-1.482-.652c-1.111-.486-2.739-1.245-1.967-1.236.066.002 2.452-.88 2.52-.894z" fill="#FDCA97"/>
    <path d="M141.906 52.87c.22-.02.445-.03.672-.03a2.87 2.87 0 0 1 .331 0 9.4 9.4 0 0 1 .455.01c.07 0 .142.004.218.01.265.02.527.042.786.068l.237.039c.322.051.635.116.937.193.051.006.101.02.152.039.486.123.95.283 1.392.483.158.07.316.145.474.223.145.077.287.157.426.241.133.077.26.154.38.232.347.231.643.473.89.724.107.104.202.21.284.319.088.103.167.216.236.338.076.109.14.222.19.338a.446.446 0 0 1 .038.116c.07.167.117.335.143.502.012.046.022.09.028.135v.088c.006.212-.07.457-.227.734a3.843 3.843 0 0 1-.408.541.158.158 0 0 1-.037.058l-.01.01-.151.175a.32.32 0 0 0-.086-.107 5.954 5.954 0 0 0-.89-.714 9.28 9.28 0 0 0-.806-.483 9.607 9.607 0 0 0-1.866-.706l-.15-.038a9.826 9.826 0 0 0-1.961-.29 29.234 29.234 0 0 1-.218-.02c-.146-.005-.297-.009-.455-.009a2.87 2.87 0 0 0-.332 0c-.227 0-.45.01-.672.029-.391.039-.767.1-1.127.184a7.14 7.14 0 0 0-.635.164l-.132.058a5.11 5.11 0 0 0-.398.154c-.253.071-.537.097-.852.078a3.067 3.067 0 0 1-1.402-.387c-.354-.206-.566-.444-.635-.715l-.028-.183v-3.248c0 .022.003.044.01.067.03.316.249.593.653.831.404.232.871.358 1.402.377.316.019.6-.006.852-.077.133-.052.265-.1.398-.145a.6.6 0 0 1 .132-.059 7.14 7.14 0 0 1 .635-.164c.36-.09.735-.15 1.127-.183z" fill="#E4B585"/>
    <g>
      <path d="M112.725 55.468c.025.123.094.258.208.406.102.136.266.3.493.493.177.142.372.287.587.435.12.077.243.155.37.232 1.332.779 2.873 1.21 4.622 1.295a9.948 9.948 0 0 0 2.343-.153 1.46 1.46 0 0 0 .203-.056c.673-.238 1.227-.526 1.66-.864 0-.006.003-.012.01-.019.03-.025.065-.052.103-.077.323-.27.566-.573.73-.908.1-.206.177-.422.227-.648.006-.058.018-.119.038-.183.025-.16.04-.319.047-.473v3.149c0 .193-.016.383-.047.57a1.07 1.07 0 0 0-.038.184c-.133.605-.452 1.124-.957 1.555a.593.593 0 0 0-.095.077c-.012.007-.019.017-.019.03-.434.338-.99.624-1.666.857a1.453 1.453 0 0 1-.188.051c-.709.146-1.492.197-2.351.154-1.75-.084-3.29-.515-4.622-1.295a8.189 8.189 0 0 1-.957-.666 3.659 3.659 0 0 1-.493-.483 1.024 1.024 0 0 1-.208-.416v-3.247z" fill="#E8B282"/>
      <path d="M113.341 54.454l.151-.174.01-.01a.153.153 0 0 0 .038-.058c.277-.104.571-.19.88-.26.72-.162 1.531-.22 2.434-.175 1.597.07 3.01.454 4.234 1.15.031.019.066.038.104.058.556.328.998.679 1.326 1.053l.03.033c-.25-.13.767.41.671 1.165-.05.405-1.145.56-1.067.642-.189.085-.39.165-.602.24a1.46 1.46 0 0 1-.203.056 9.946 9.946 0 0 1-2.343.153c-1.75-.084-3.29-.515-4.622-1.295a19.09 19.09 0 0 1-.37-.232c-.214-.148-.41-.293-.587-.435a3.288 3.288 0 0 1-.492-.493 1.03 1.03 0 0 1-.209-.406.985.985 0 0 1-.01-.135v-.058c.02-.077.089-.193.209-.348.05-.058.161-.18.331-.367a.566.566 0 0 0 .087-.104zm.625-2.357c.164-.142.363-.28.597-.415.113-.071.233-.136.36-.194.814-.393 1.77-.602 2.87-.628.063-.006.122-.01.18-.01.226 0 .457.006.69.02a9.69 9.69 0 0 1 2.084.289 8.807 8.807 0 0 1 2.226.908l.019.01c.27.159.513.322.73.49l.356.495c.191.53.287 1.071.287 1.624v.26a4.184 4.184 0 0 1-.048.474 1.07 1.07 0 0 0-.038.183 2.416 2.416 0 0 0-.237-.521c-.202-.367-.508-.712-.918-1.034a6.175 6.175 0 0 0-.815-.55 6.755 6.755 0 0 0-.796-.416 5.85 5.85 0 0 0-.198-.087c-.89-.373-1.87-.602-2.937-.686a7.298 7.298 0 0 0-.397-.029c-.89-.045-1.696.017-2.416.184a6.36 6.36 0 0 0-1.165.367 18.7 18.7 0 0 1-.227.106v-.087a1.043 1.043 0 0 0-.029-.136 2.132 2.132 0 0 0-.142-.502.37.37 0 0 0-.036-.115zm-.833-2.744c.164-.136.35-.265.559-.387 1.073-.625 2.437-.898 4.091-.821.449.025.88.07 1.298.135a25.378 25.378 0 0 1 2.406 1.594c.316.252.606.5.871.744a7.072 7.072 0 0 0-.947-.434 10.143 10.143 0 0 0-1.932-.522 12.213 12.213 0 0 0-1.203-.116c-1.13-.058-2.13.055-3.002.338a5.355 5.355 0 0 0-1.09.483 3.489 3.489 0 0 0-.928.735 5.568 5.568 0 0 0-.89-.725c.132-.38.387-.721.767-1.024zm-1.213-3.44c.133.02.262.036.388.049.758.116 1.49.264 2.198.444.34.096.678.196 1.013.3-.29.032-.575.08-.853.145a5.718 5.718 0 0 0-1.695.647c-.777.45-1.241.995-1.393 1.633-.038.16-.053.331-.047.512 0 .077.007.155.019.232.006.006.01.016.01.029a15.816 15.816 0 0 0-.474-.223 8.29 8.29 0 0 0-1.392-.483.54.54 0 0 0-.029-.067l-.038-.154a1.743 1.743 0 0 1-.038-.261c-.139-.96.331-1.752 1.411-2.377a5.23 5.23 0 0 1 .92-.425zm-7.909 3.363a9.988 9.988 0 0 0-.398.145c-.253.07-.537.096-.852.077a2.993 2.993 0 0 1-1.402-.377c-.404-.238-.622-.515-.653-.83a.342.342 0 0 1-.01-.068v-.01a.444.444 0 0 1 .028-.203c.057-.174.184-.322.38-.444l.028-.019c.006-.006.016-.01.028-.01l.02-.019.009-.01a.367.367 0 0 1 .047-.019c.102-.058.199-.113.294-.164.138-.075.659-.263.801-.332.462-.226.66-.042 1 .35.275.315.647.611 1.116.89a6.7 6.7 0 0 0 1.459.637 6.97 6.97 0 0 0-1.128.184 7.14 7.14 0 0 0-.634.164.61.61 0 0 0-.133.057zm.976-2.667a1.614 1.614 0 0 1-.01-.521c.65-.142 1.33-.242 2.036-.3.449-.039.906-.06 1.374-.067.12 0 .24-.003.36-.01a4.356 4.356 0 0 0-.19.165c-.55.52-.776 1.133-.682 1.835.038.31.133.605.284.889.063.116.133.225.208.328a30.14 30.14 0 0 0-.786-.067 2.61 2.61 0 0 0-.218-.01c-.145-.006-.296-.01-.455-.01l-.151-.096a1.4 1.4 0 0 1-.104-.058c-1.022-.6-1.578-1.292-1.666-2.078z" fill="#FFE5CC"/>
      <path d="M114.174 52.937a18.7 18.7 0 0 0 .227-.106c.36-.155.748-.277 1.166-.367.72-.167 1.525-.23 2.415-.184.139.007.271.017.398.03 1.067.083 2.046.312 2.936.685.063.025.13.054.199.087.277.123.543.26.795.416.304.173.575.358.815.55.41.323.717.667.919 1.034.1.167.18.341.237.521-.051.225-.127.441-.228.647a2.788 2.788 0 0 1-.729.909 1.355 1.355 0 0 0-.104.077 3.074 3.074 0 0 0-.7-1.198c-.329-.373-.77-.725-1.326-1.053a1.4 1.4 0 0 1-.104-.058c-1.225-.696-2.637-1.08-4.234-1.15-.903-.045-1.715.013-2.434.174-.31.071-.603.158-.881.26.17-.192.306-.372.408-.54.156-.277.232-.522.225-.734zm.389-1.256a3.918 3.918 0 0 0-.597.415 1.985 1.985 0 0 0-.19-.338 2.127 2.127 0 0 0-.236-.338 2.602 2.602 0 0 0-.284-.318c.234-.271.543-.515.928-.735.341-.2.704-.36 1.089-.483.871-.283 1.872-.396 3.003-.338a12 12 0 0 1 1.202.116c.682.116 1.326.29 1.932.522.274.102.539.22.795.352.102.053.198.124.282.205a7.31 7.31 0 0 1 .978 1.143c.202.296.366.59.493.88a6.332 6.332 0 0 0-.966-.686l-.02-.01a8.807 8.807 0 0 0-2.225-.908 9.702 9.702 0 0 0-2.083-.29c-.233-.013-.464-.02-.692-.02-.057 0-.116.004-.18.01-1.098.026-2.055.236-2.87.629a3.072 3.072 0 0 0-.36.192zm-6.005-5.806c.063-.058.126-.113.19-.165.385-.006.776 0 1.174.02.681.039 1.347.1 1.998.183a5.27 5.27 0 0 0-.919.425c-1.08.625-1.55 1.417-1.41 2.377.006.09.018.177.037.26l.039.155a.54.54 0 0 1 .028.067.71.71 0 0 0-.151-.04 10.624 10.624 0 0 0-.938-.192 11.2 11.2 0 0 1-.237-.04 2.845 2.845 0 0 1-.208-.328 2.514 2.514 0 0 1-.284-.889c-.096-.7.131-1.311.68-1.833zm5.133 3.092a4.356 4.356 0 0 0-.56.386c-.378.303-.634.644-.766 1.025-.12-.078-.247-.155-.38-.232a9.28 9.28 0 0 0-.426-.242c0-.012-.003-.022-.01-.029a1.447 1.447 0 0 1-.018-.231 1.95 1.95 0 0 1 .047-.512c.151-.638.616-1.182 1.392-1.633a5.718 5.718 0 0 1 1.695-.647c.278-.065.562-.113.853-.146 1.263.406 2.45.931 3.561 1.575a13.5 13.5 0 0 0-1.298-.135c-1.653-.078-3.016.196-4.09.82zm-8.713-2.88c-.025.161-.022.335.01.522.088.785.643 1.478 1.667 2.076a1.4 1.4 0 0 0 .104.059l.151.096a2.87 2.87 0 0 0-.33 0c-.228 0-.452.01-.673.029a6.671 6.671 0 0 1-1.482-.652c-1.111-.486-2.739-1.245-1.967-1.236.066.002 2.452-.88 2.52-.894z" fill="#FDCA97"/>
      <path d="M105.906 48.87c.22-.02.445-.03.672-.03a2.87 2.87 0 0 1 .331 0 9.4 9.4 0 0 1 .455.01c.07 0 .142.004.218.01.265.02.527.042.786.068l.237.039c.322.051.635.116.937.193.051.006.101.02.152.039.486.123.95.283 1.392.483.158.07.316.145.474.223.145.077.287.157.426.241.133.077.26.154.38.232.347.231.643.473.89.724.107.104.202.21.284.319.088.103.167.216.236.338.076.109.14.222.19.338a.446.446 0 0 1 .038.116c.07.167.117.335.143.502.012.046.022.09.028.135v.088c.006.212-.07.457-.227.734a3.843 3.843 0 0 1-.408.541.158.158 0 0 1-.037.058l-.01.01-.151.175a.32.32 0 0 0-.086-.107 5.954 5.954 0 0 0-.89-.714 9.28 9.28 0 0 0-.806-.483 9.607 9.607 0 0 0-1.866-.706l-.15-.038a9.826 9.826 0 0 0-1.961-.29 29.234 29.234 0 0 1-.218-.02c-.146-.005-.297-.009-.455-.009a2.87 2.87 0 0 0-.332 0c-.227 0-.45.01-.672.029-.391.039-.767.1-1.127.184a7.14 7.14 0 0 0-.635.164l-.132.058a5.11 5.11 0 0 0-.398.154c-.253.071-.537.097-.852.078a3.067 3.067 0 0 1-1.402-.387c-.354-.206-.566-.444-.635-.715l-.028-.183v-3.248c0 .022.003.044.01.067.03.316.249.593.653.831.404.232.871.358 1.402.377.316.019.6-.006.852-.077.133-.052.265-.1.398-.145a.6.6 0 0 1 .132-.059 7.14 7.14 0 0 1 .635-.164c.36-.09.735-.15 1.127-.183z" fill="#E4B585"/>
    </g>
    <g>
      <path d="M125.725 91.468c.025.123.094.258.208.406.102.136.266.3.493.493.177.142.372.287.587.435.12.077.243.155.37.232 1.332.779 2.873 1.21 4.622 1.295a9.948 9.948 0 0 0 2.343-.153 1.46 1.46 0 0 0 .203-.056c.673-.238 1.227-.526 1.66-.864 0-.006.003-.012.01-.019.03-.025.065-.052.103-.077.323-.27.566-.573.73-.908.1-.206.177-.422.227-.648.006-.058.018-.119.038-.183.025-.16.04-.319.047-.473v3.149c0 .193-.016.383-.047.57a1.07 1.07 0 0 0-.038.184c-.133.605-.452 1.124-.957 1.555a.593.593 0 0 0-.095.077c-.012.007-.019.017-.019.03-.434.338-.99.624-1.666.857a1.453 1.453 0 0 1-.188.051c-.709.146-1.492.197-2.351.154-1.75-.084-3.29-.515-4.622-1.295a8.189 8.189 0 0 1-.957-.666 3.659 3.659 0 0 1-.493-.483 1.024 1.024 0 0 1-.208-.416v-3.247z" fill="#E8B282"/>
      <path d="M126.341 90.454l.151-.174.01-.01a.153.153 0 0 0 .038-.058c.277-.104.571-.19.88-.26.72-.162 1.531-.22 2.434-.175 1.597.07 3.01.454 4.234 1.15.031.019.066.038.104.058.556.328.998.679 1.326 1.053l.03.033c-.25-.13.767.41.671 1.165-.05.405-1.145.56-1.067.641-.189.086-.39.166-.602.24a1.46 1.46 0 0 1-.203.057 9.946 9.946 0 0 1-2.343.153c-1.75-.084-3.29-.515-4.622-1.295a19.09 19.09 0 0 1-.37-.232c-.214-.148-.41-.293-.587-.435a3.288 3.288 0 0 1-.492-.493 1.03 1.03 0 0 1-.209-.406.985.985 0 0 1-.01-.135v-.058c.02-.077.089-.193.209-.348.05-.058.161-.18.331-.367a.566.566 0 0 0 .087-.104zm.625-2.357c.164-.142.363-.28.597-.415.113-.071.233-.136.36-.194.814-.393 1.77-.602 2.87-.628.063-.006.122-.01.18-.01.226 0 .457.006.69.02a9.69 9.69 0 0 1 2.084.289 8.807 8.807 0 0 1 2.226.908l.019.01c.27.159.513.322.73.49l.356.495c.191.53.287 1.071.287 1.624v.26a4.184 4.184 0 0 1-.048.474 1.07 1.07 0 0 0-.038.183 2.416 2.416 0 0 0-.237-.521c-.202-.367-.508-.712-.918-1.034a6.175 6.175 0 0 0-.815-.55 6.755 6.755 0 0 0-.796-.416 5.85 5.85 0 0 0-.198-.087c-.89-.373-1.87-.602-2.937-.686a7.298 7.298 0 0 0-.397-.029c-.89-.045-1.696.017-2.416.184a6.36 6.36 0 0 0-1.165.367 18.7 18.7 0 0 1-.227.106v-.087a1.043 1.043 0 0 0-.029-.136 2.132 2.132 0 0 0-.142-.502.37.37 0 0 0-.036-.115zm-.833-2.744c.164-.136.35-.265.559-.387 1.073-.625 2.437-.898 4.091-.821.449.025.88.07 1.298.135a25.378 25.378 0 0 1 2.406 1.594c.316.252.606.5.871.744a7.072 7.072 0 0 0-.947-.434 10.143 10.143 0 0 0-1.932-.522 12.213 12.213 0 0 0-1.203-.116c-1.13-.058-2.13.055-3.002.338a5.355 5.355 0 0 0-1.09.483 3.489 3.489 0 0 0-.928.735 5.568 5.568 0 0 0-.89-.725c.132-.38.387-.721.767-1.024zm-1.213-3.44c.133.02.262.036.388.049.758.116 1.49.264 2.198.444.34.096.678.196 1.013.3-.29.032-.575.08-.853.145a5.718 5.718 0 0 0-1.695.647c-.777.45-1.241.995-1.393 1.633-.038.16-.053.331-.047.512 0 .077.007.155.019.232.006.006.01.016.01.029a15.816 15.816 0 0 0-.474-.223 8.29 8.29 0 0 0-1.392-.483.54.54 0 0 0-.029-.067l-.038-.154a1.743 1.743 0 0 1-.038-.261c-.139-.96.331-1.752 1.411-2.377a5.23 5.23 0 0 1 .92-.425zm-7.909 3.362a9.988 9.988 0 0 0-.398.146c-.253.07-.537.096-.852.077a2.993 2.993 0 0 1-1.402-.377c-.404-.238-.622-.515-.653-.83a.342.342 0 0 1-.01-.068v-.01a.444.444 0 0 1 .028-.203c.057-.174.184-.322.38-.444l.028-.019c.006-.006.016-.01.028-.01l.02-.019.009-.01a.367.367 0 0 1 .047-.019c.102-.058.199-.113.294-.164.138-.075.659-.263.801-.332.462-.226.66-.042 1 .35.275.315.647.611 1.116.89a6.7 6.7 0 0 0 1.459.637 6.97 6.97 0 0 0-1.128.184 7.14 7.14 0 0 0-.634.164.61.61 0 0 0-.133.057zm.976-2.666a1.614 1.614 0 0 1-.01-.521c.65-.142 1.33-.242 2.036-.3.449-.039.906-.06 1.374-.067.12 0 .24-.003.36-.01a4.356 4.356 0 0 0-.19.164c-.55.522-.776 1.134-.682 1.836.038.31.133.605.284.889.063.116.133.225.208.328a30.14 30.14 0 0 0-.786-.067 2.61 2.61 0 0 0-.218-.01c-.145-.006-.296-.01-.455-.01l-.151-.096a1.4 1.4 0 0 1-.104-.058c-1.022-.6-1.578-1.292-1.666-2.078z" fill="#FFE5CC"/>
      <path d="M127.174 88.937a18.7 18.7 0 0 0 .227-.106c.36-.155.748-.277 1.166-.367.72-.167 1.525-.23 2.415-.184.139.007.271.017.398.03 1.067.083 2.046.312 2.936.685.063.025.13.054.199.087.277.123.543.26.795.416.304.173.575.358.815.55.41.323.717.667.919 1.034.1.167.18.341.237.521-.051.225-.127.441-.228.647a2.788 2.788 0 0 1-.729.909 1.355 1.355 0 0 0-.104.077 3.074 3.074 0 0 0-.7-1.198c-.329-.373-.77-.725-1.326-1.053a1.4 1.4 0 0 1-.104-.058c-1.225-.696-2.637-1.08-4.234-1.15-.903-.045-1.715.013-2.434.174-.31.071-.603.158-.881.26.17-.193.306-.372.408-.54.156-.277.232-.522.225-.734zm.389-1.256a3.918 3.918 0 0 0-.597.415 1.985 1.985 0 0 0-.19-.338 2.127 2.127 0 0 0-.236-.338 2.602 2.602 0 0 0-.284-.318c.234-.271.543-.515.928-.735.341-.2.704-.36 1.089-.483.871-.283 1.872-.396 3.003-.338a12 12 0 0 1 1.202.116c.682.116 1.326.29 1.932.522.274.102.539.22.795.352.102.053.198.124.282.205a7.31 7.31 0 0 1 .978 1.143c.202.296.366.59.493.88a6.332 6.332 0 0 0-.966-.686l-.02-.01a8.807 8.807 0 0 0-2.225-.908 9.702 9.702 0 0 0-2.083-.29c-.233-.013-.464-.02-.692-.02-.057 0-.116.004-.18.01-1.098.026-2.055.236-2.87.629a3.072 3.072 0 0 0-.36.192zm-6.005-5.806c.063-.058.126-.113.19-.165.385-.006.776 0 1.174.02.681.039 1.347.1 1.998.183a5.27 5.27 0 0 0-.919.425c-1.08.625-1.55 1.417-1.41 2.376.006.09.018.178.037.261l.039.155a.54.54 0 0 1 .028.067.71.71 0 0 0-.151-.04 10.624 10.624 0 0 0-.938-.192 11.2 11.2 0 0 1-.237-.04 2.845 2.845 0 0 1-.208-.328 2.514 2.514 0 0 1-.284-.889c-.096-.7.131-1.311.68-1.833zm5.133 3.092a4.356 4.356 0 0 0-.56.386c-.378.303-.634.644-.766 1.025-.12-.078-.247-.155-.38-.232a9.28 9.28 0 0 0-.426-.241c0-.013-.003-.023-.01-.03a1.447 1.447 0 0 1-.018-.231 1.95 1.95 0 0 1 .047-.512c.151-.638.616-1.182 1.392-1.633a5.718 5.718 0 0 1 1.695-.647c.278-.065.562-.113.853-.146 1.263.406 2.45.931 3.561 1.575a13.5 13.5 0 0 0-1.298-.135c-1.653-.078-3.016.196-4.09.82zm-8.713-2.88c-.025.161-.022.335.01.522.088.785.643 1.478 1.667 2.076a1.4 1.4 0 0 0 .104.059l.151.096a2.87 2.87 0 0 0-.33 0c-.228 0-.452.01-.673.029a6.671 6.671 0 0 1-1.482-.652c-1.111-.486-2.739-1.245-1.967-1.236.066.002 2.452-.88 2.52-.894z" fill="#FDCA97"/>
      <path d="M118.906 84.87c.22-.02.445-.03.672-.03a2.87 2.87 0 0 1 .331 0 9.4 9.4 0 0 1 .455.01c.07 0 .142.004.218.01.265.02.527.042.786.068l.237.039c.322.051.635.116.937.193.051.006.101.02.152.039.486.123.95.283 1.392.483.158.07.316.145.474.222.145.078.287.158.426.242.133.077.26.154.38.232.347.231.643.473.89.724.107.104.202.21.284.319.088.103.167.216.236.338.076.109.14.222.19.338a.446.446 0 0 1 .038.116c.07.167.117.335.143.502.012.045.022.09.028.135v.088c.006.212-.07.457-.227.734a3.843 3.843 0 0 1-.408.541.158.158 0 0 1-.037.058l-.01.01-.151.175a.32.32 0 0 0-.086-.107 5.954 5.954 0 0 0-.89-.714 9.28 9.28 0 0 0-.806-.483 9.607 9.607 0 0 0-1.866-.706l-.15-.038a9.826 9.826 0 0 0-1.961-.29 29.234 29.234 0 0 1-.218-.02c-.146-.005-.297-.009-.455-.009a2.87 2.87 0 0 0-.332 0c-.227 0-.45.01-.672.029-.391.039-.767.1-1.127.183a7.14 7.14 0 0 0-.635.165l-.132.058a5.11 5.11 0 0 0-.398.154c-.253.071-.537.097-.852.078a3.067 3.067 0 0 1-1.402-.387c-.354-.206-.566-.444-.635-.715l-.028-.183v-3.248c0 .022.003.044.01.067.03.316.249.593.653.831.404.232.871.358 1.402.377.316.019.6-.006.852-.077.133-.052.265-.1.398-.146a.6.6 0 0 1 .132-.058 7.14 7.14 0 0 1 .635-.164c.36-.09.735-.15 1.127-.183z" fill="#E4B585"/>
    </g>
  </g>
</svg>
