<svg width="225" height="159" viewBox="0 0 225 159" xmlns="http://www.w3.org/2000/svg">
  <g fill-rule="nonzero" fill="none">
    <path d="M134.258 29.418c.041.022.08.048.116.075.255.178 1.174-.046 2.756-.668 1.368-.546 2.086-.978 2.155-1.296a.291.291 0 0 0 0-.089v-1.323c-.005.164-.207.366-.607.607a9.158 9.158 0 0 1-1.105.532 14.51 14.51 0 0 1-.443.191c-1.582.619-2.501.84-2.755.662a2.647 2.647 0 0 0-.116-.068v1.377zm-1.036-1.814a.313.313 0 0 1-.184-.266l-.007 1.337v.02c.005.132.068.23.191.293v-1.384z" fill="#EFCE48"/>
    <path d="M133.542 27.713a2.542 2.542 0 0 0-.238-.075l-.082-.034v1.385h.007a.289.289 0 0 1 .075.027c.391.118.709.253.955.403V28.034a.148.148 0 0 1-.054-.027 3.985 3.985 0 0 0-.662-.294z" fill="#EBD784"/>
    <path d="M136.304 25.415c-.368 0-.684.073-.948.218-.259.15-.902.739-1.93 1.766a2.131 2.131 0 0 0-.204.205l.082.034c.086.022.166.047.238.075.26.091.48.188.662.293a.165.165 0 0 0 .054.028 42.172 42.172 0 0 0 1.616-.668 28.02 28.02 0 0 0 1.05-.492l.355-.184c.254-.136.382-.304.382-.504v-.02c0-.205-.132-.38-.396-.526-.267-.15-.588-.225-.96-.225z" fill="#FFF0B5"/>
    <path d="M135.356 25.633c.264-.145.58-.218.948-.218.373 0 .694.075.962.225.264.145.396.32.396.525v.02c0 .2-.128.368-.383.505l-.354.184c-.264.132-.614.296-1.05.491-.464.204-1.003.427-1.616.668v.007l.116.068c.254.178 1.173-.043 2.755-.661.154-.063.302-.127.443-.191a9.195 9.195 0 0 0 1.105-.532c.4-.241.602-.443.607-.607v-.014a.263.263 0 0 0-.014-.082c-.145-.332-.482-.643-1.009-.934a4.72 4.72 0 0 0-1.691-.552c-.6-.078-1.06-.028-1.377.15-.323.177-.832.677-1.528 1.5-.441.518-.65.903-.627 1.153.009.117.07.206.184.265a2.19 2.19 0 0 1 .204-.204c1.027-1.027 1.67-1.616 1.93-1.766z" fill="#FEE581"/>
    <path d="M136.189 31.225a.313.313 0 0 1-.184-.266l-.007 1.337v.02c.004.132.068.23.19.293v-1.384zm5.455-.88a9.158 9.158 0 0 1-1.105.533 14.51 14.51 0 0 1-.443.19c-1.582.619-2.5.84-2.755.662a2.647 2.647 0 0 0-.116-.068v1.378c.041.022.08.047.116.074.254.178 1.173-.045 2.755-.668 1.369-.546 2.087-.978 2.155-1.296a.291.291 0 0 0 0-.088v-1.323c-.005.163-.207.365-.607.606z" fill="#EFCE48"/>
    <path d="M136.27 31.259l-.082-.034v1.384h.008a.295.295 0 0 1 .075.028c.39.118.709.253.955.403V31.655a.148.148 0 0 1-.055-.027 3.957 3.957 0 0 0-.661-.293 2.504 2.504 0 0 0-.24-.076z" fill="#EBD784"/>
    <path d="M140.628 29.806v-.02c0-.205-.132-.38-.395-.525-.268-.15-.589-.225-.962-.225-.368 0-.684.073-.948.218-.259.15-.903.739-1.93 1.767a2.131 2.131 0 0 0-.204.204l.082.034c.086.023.166.048.238.075.259.091.48.189.661.293a.156.156 0 0 0 .055.028 42.172 42.172 0 0 0 1.616-.669 28.02 28.02 0 0 0 1.05-.49l.355-.185c.255-.136.382-.305.382-.505z" fill="#FFF0B5"/>
    <path d="M142.251 29.739v-.014a.26.26 0 0 0-.013-.082c-.146-.332-.482-.643-1.01-.934a4.72 4.72 0 0 0-1.691-.553c-.6-.077-1.06-.027-1.377.15-.323.177-.832.677-1.528 1.5-.441.519-.65.903-.627 1.153.009.118.07.207.184.266a2.19 2.19 0 0 1 .204-.204c1.027-1.028 1.671-1.617 1.93-1.767.264-.145.58-.218.948-.218.373 0 .694.075.962.225.263.145.395.32.395.525v.02c0 .2-.127.369-.382.505l-.354.184c-.264.132-.614.295-1.05.49-.464.205-1.003.428-1.617.669v.007l.116.068c.255.178 1.173-.043 2.755-.661.155-.064.303-.128.443-.191a9.12 9.12 0 0 0 1.106-.532c.4-.24.601-.443.606-.606z" fill="#FEE581"/>
    <g>
      <path d="M125.844 28.913a2.647 2.647 0 0 0-.116-.068v1.378c.04.022.079.048.116.075.254.178 1.173-.045 2.755-.668 1.368-.546 2.086-.978 2.155-1.296a.291.291 0 0 0 0-.088v-1.323c-.005.163-.207.366-.607.607a9.158 9.158 0 0 1-1.105.531 14.51 14.51 0 0 1-.443.191c-1.582.618-2.501.838-2.755.661zm-1.344.587c.004.132.068.23.191.293v-1.385a.314.314 0 0 1-.184-.266l-.007 1.337v.021z" fill="#EFCE48"/>
      <path d="M124.691 28.409l.082.034a3.999 3.999 0 0 1 .9.368.165.165 0 0 0 .054.027 42.65 42.65 0 0 0 1.617-.669 28.02 28.02 0 0 0 1.05-.49l.354-.184c.255-.137.382-.305.382-.505v-.02c0-.205-.132-.38-.395-.526-.268-.15-.589-.225-.962-.225-.368 0-.684.073-.948.219-.259.15-.902.738-1.93 1.766a2.182 2.182 0 0 0-.204.204z" fill="#FFF0B5"/>
      <path d="M124.691 28.409v1.384h.007a.289.289 0 0 1 .075.027c.391.118.709.253.955.403v-1.384a.148.148 0 0 1-.055-.028 3.957 3.957 0 0 0-.662-.293 2.402 2.402 0 0 0-.238-.075 2.83 2.83 0 0 0-.082-.034z" fill="#EBD784"/>
      <path d="M125.134 26.99c-.441.518-.65.902-.628 1.152.01.118.071.207.185.266a2.19 2.19 0 0 1 .204-.204c1.027-1.028 1.671-1.616 1.93-1.766.264-.146.58-.219.948-.219.373 0 .693.075.962.225.263.146.395.321.395.525v.021c0 .2-.127.368-.382.504-.096.05-.213.112-.355.184-.263.132-.614.296-1.05.491-.463.205-1.002.428-1.616.669v.007c.041.023.08.045.116.068.255.177 1.173-.043 2.755-.662.155-.063.303-.127.443-.19a9.195 9.195 0 0 0 1.106-.533c.4-.24.602-.443.607-.607v-.013a.26.26 0 0 0-.014-.082c-.146-.332-.482-.644-1.01-.935a4.721 4.721 0 0 0-1.69-.552c-.6-.078-1.06-.028-1.378.15-.323.178-.832.678-1.528 1.501z" fill="#FEE581"/>
    </g>
    <g>
      <path d="M113.258 43.418c.042.023.08.048.117.075.254.178 1.172-.045 2.754-.668 1.369-.546 2.087-.978 2.155-1.296a.291.291 0 0 0 0-.088v-1.323c-.004.163-.207.366-.607.607a9.158 9.158 0 0 1-1.105.532 14.51 14.51 0 0 1-.443.19c-1.582.619-2.5.84-2.755.662a2.647 2.647 0 0 0-.115-.068v1.377zm-1.036-1.814a.313.313 0 0 1-.184-.266l-.007 1.337v.02c.004.132.068.23.191.293v-1.384z" fill="#EFCE48"/>
      <path d="M112.543 41.713a2.542 2.542 0 0 0-.239-.075l-.082-.034v1.385h.007a.289.289 0 0 1 .075.027c.391.118.709.253.955.403V42.034a.148.148 0 0 1-.054-.027 3.985 3.985 0 0 0-.662-.294z" fill="#EBD784"/>
      <path d="M115.305 39.415c-.369 0-.685.073-.949.218-.258.15-.902.739-1.93 1.767a2.131 2.131 0 0 0-.204.204l.082.034c.087.023.166.048.239.075.258.091.479.189.661.294a.165.165 0 0 0 .055.027 42.172 42.172 0 0 0 1.616-.668 28.02 28.02 0 0 0 1.05-.491l.354-.184c.255-.137.382-.305.382-.505v-.02c0-.205-.132-.38-.395-.525-.268-.151-.588-.226-.961-.226z" fill="#FFF0B5"/>
      <path d="M114.356 39.633c.264-.145.58-.218.949-.218.372 0 .693.075.961.225.263.146.395.32.395.525v.02c0 .2-.127.369-.382.505-.095.05-.213.112-.354.184-.264.132-.614.296-1.05.491-.464.204-1.003.427-1.616.668v.008c.041.022.08.045.116.068.254.177 1.173-.044 2.755-.662.154-.063.302-.127.443-.191a9.195 9.195 0 0 0 1.105-.532c.4-.241.602-.443.607-.607v-.013a.263.263 0 0 0-.014-.082c-.145-.332-.482-.644-1.009-.935a4.72 4.72 0 0 0-1.691-.552c-.6-.078-1.06-.028-1.378.15-.323.177-.832.677-1.527 1.5-.441.518-.65.903-.628 1.153.01.118.071.207.184.266a2.19 2.19 0 0 1 .205-.205c1.027-1.027 1.67-1.616 1.93-1.766z" fill="#FEE581"/>
      <g>
        <path d="M115.189 45.225a.313.313 0 0 1-.184-.266l-.007 1.336v.021c.004.132.067.23.19.293v-1.384zm5.455-.88a9.158 9.158 0 0 1-1.105.533 14.51 14.51 0 0 1-.443.19c-1.582.619-2.5.84-2.755.662a2.647 2.647 0 0 0-.116-.068v1.378c.041.023.08.048.116.075.255.177 1.173-.046 2.755-.669 1.369-.545 2.087-.977 2.155-1.295a.291.291 0 0 0 0-.089v-1.323c-.005.163-.207.366-.607.607z" fill="#EFCE48"/>
        <path d="M115.27 45.259l-.081-.034v1.384h.007a.295.295 0 0 1 .075.028c.39.118.709.253.955.403V45.655a.148.148 0 0 1-.055-.027 3.957 3.957 0 0 0-.661-.293 2.504 2.504 0 0 0-.24-.076z" fill="#EBD784"/>
        <path d="M119.628 43.806v-.02c0-.205-.132-.38-.396-.525-.267-.15-.588-.225-.961-.225-.369 0-.684.073-.948.218-.259.15-.902.739-1.93 1.767a2.131 2.131 0 0 0-.204.204l.082.035c.086.022.165.047.238.075.259.09.48.188.661.293a.156.156 0 0 0 .055.027 42.172 42.172 0 0 0 1.616-.669 28.02 28.02 0 0 0 1.05-.49l.355-.185c.255-.136.382-.304.382-.504z" fill="#FFF0B5"/>
        <path d="M121.251 43.739v-.014a.26.26 0 0 0-.013-.082c-.146-.332-.482-.643-1.01-.934a4.72 4.72 0 0 0-1.691-.553c-.6-.078-1.06-.028-1.377.15-.323.177-.832.677-1.528 1.5-.441.519-.65.903-.627 1.153.009.118.07.207.184.266a2.19 2.19 0 0 1 .204-.204c1.027-1.028 1.671-1.617 1.93-1.767.264-.145.58-.218.948-.218.373 0 .693.074.961.224.264.146.396.321.396.526v.02c0 .2-.127.369-.382.505l-.354.183c-.264.132-.615.296-1.05.491-.464.205-1.003.428-1.617.669v.007c.042.022.08.045.117.068.254.177 1.172-.043 2.754-.662.155-.063.303-.127.443-.19a9.12 9.12 0 0 0 1.105-.533c.4-.24.602-.442.607-.606z" fill="#FEE581"/>
      </g>
      <g>
        <path d="M104.844 42.913a2.647 2.647 0 0 0-.116-.067v1.377c.04.022.079.048.116.075.254.178 1.173-.045 2.755-.668 1.368-.546 2.086-.978 2.154-1.296a.291.291 0 0 0 0-.088v-1.323c-.004.163-.206.366-.606.607a9.158 9.158 0 0 1-1.106.532 14.51 14.51 0 0 1-.442.19c-1.583.618-2.501.839-2.756.662zm-1.344.587c.004.132.068.23.191.293v-1.385a.314.314 0 0 1-.184-.266l-.007 1.337v.021z" fill="#EFCE48"/>
        <path d="M103.691 42.409l.082.034c.086.023.166.048.238.075.26.09.48.188.662.293a.165.165 0 0 0 .054.027 42.65 42.65 0 0 0 1.617-.668 28.02 28.02 0 0 0 1.05-.491l.354-.184c.255-.137.382-.305.382-.505v-.02c0-.205-.132-.38-.395-.525-.268-.15-.589-.225-.962-.225-.368 0-.684.073-.948.218-.259.15-.902.739-1.93 1.766a2.182 2.182 0 0 0-.204.205z" fill="#FFF0B5"/>
        <path d="M103.691 42.409v1.384h.007a.289.289 0 0 1 .075.028c.391.118.709.252.955.402v-1.384a.148.148 0 0 1-.055-.028 3.957 3.957 0 0 0-.662-.293 2.402 2.402 0 0 0-.238-.075 2.83 2.83 0 0 0-.082-.034z" fill="#EBD784"/>
        <path d="M104.134 40.99c-.441.518-.65.902-.628 1.152.01.118.071.207.185.266a2.19 2.19 0 0 1 .204-.204c1.027-1.028 1.671-1.616 1.93-1.766.264-.146.58-.219.948-.219.373 0 .693.075.962.225.263.146.395.321.395.525v.021c0 .2-.127.368-.382.504l-.355.184c-.263.132-.614.296-1.05.491-.463.205-1.002.428-1.616.669v.007c.041.023.08.045.116.068.255.177 1.173-.043 2.755-.662.155-.063.303-.127.443-.19a9.195 9.195 0 0 0 1.105-.533c.4-.24.603-.443.607-.607v-.013a.26.26 0 0 0-.013-.082c-.146-.332-.482-.644-1.01-.935a4.721 4.721 0 0 0-1.69-.552c-.6-.078-1.06-.028-1.378.15-.323.178-.832.678-1.528 1.501z" fill="#FEE581"/>
      </g>
    </g>
    <g>
      <path d="M140.258 54.418c.041.023.08.048.116.075.255.178 1.174-.045 2.756-.668 1.368-.546 2.086-.978 2.155-1.296a.291.291 0 0 0 0-.088v-1.323c-.005.163-.207.366-.607.607a9.158 9.158 0 0 1-1.105.532 14.51 14.51 0 0 1-.443.19c-1.582.619-2.501.84-2.755.662a2.647 2.647 0 0 0-.116-.068v1.377zm-1.036-1.814a.313.313 0 0 1-.184-.266l-.007 1.337v.02c.005.132.068.23.191.293v-1.384z" fill="#EFCE48"/>
      <path d="M139.542 52.713a2.542 2.542 0 0 0-.238-.075l-.082-.034v1.385h.007a.289.289 0 0 1 .075.027c.391.118.709.253.955.403V53.034a.148.148 0 0 1-.054-.027 3.985 3.985 0 0 0-.662-.294z" fill="#EBD784"/>
      <path d="M142.304 50.415c-.368 0-.684.073-.948.218-.259.15-.902.739-1.93 1.767a2.131 2.131 0 0 0-.204.204l.082.034c.086.023.166.048.238.075.26.091.48.189.662.294a.165.165 0 0 0 .054.027 42.172 42.172 0 0 0 1.616-.668 28.02 28.02 0 0 0 1.05-.491l.355-.184c.254-.137.382-.305.382-.505v-.02c0-.205-.132-.38-.396-.525-.267-.151-.588-.226-.96-.226z" fill="#FFF0B5"/>
      <path d="M141.356 50.633c.264-.145.58-.218.948-.218.373 0 .694.075.962.225.264.146.396.32.396.525v.02c0 .2-.128.369-.383.505-.095.05-.213.112-.354.184-.264.132-.614.296-1.05.491-.464.204-1.003.427-1.616.668v.008c.041.022.08.045.116.068.254.177 1.173-.044 2.755-.662.154-.063.302-.127.443-.191a9.195 9.195 0 0 0 1.105-.532c.4-.241.602-.443.607-.607v-.013a.263.263 0 0 0-.014-.082c-.145-.332-.482-.644-1.009-.935a4.72 4.72 0 0 0-1.691-.552c-.6-.078-1.06-.028-1.377.15-.323.177-.832.677-1.528 1.5-.441.518-.65.903-.627 1.153.009.118.07.207.184.266a2.19 2.19 0 0 1 .204-.205c1.027-1.027 1.67-1.616 1.93-1.766z" fill="#FEE581"/>
      <g>
        <path d="M142.189 56.225a.313.313 0 0 1-.184-.266l-.007 1.336v.021c.004.132.068.23.19.293v-1.384zm5.455-.88a9.158 9.158 0 0 1-1.105.533 14.51 14.51 0 0 1-.443.19c-1.582.619-2.5.84-2.755.662a2.647 2.647 0 0 0-.116-.068v1.378c.041.023.08.048.116.075.254.177 1.173-.046 2.755-.669 1.369-.545 2.087-.977 2.155-1.295a.291.291 0 0 0 0-.089v-1.323c-.005.163-.207.366-.607.607z" fill="#EFCE48"/>
        <path d="M142.27 56.259l-.082-.034v1.384h.008a.295.295 0 0 1 .075.028c.39.118.709.253.955.403V56.655a.148.148 0 0 1-.055-.027 3.957 3.957 0 0 0-.661-.293 2.504 2.504 0 0 0-.24-.076z" fill="#EBD784"/>
        <path d="M146.628 54.806v-.02c0-.205-.132-.38-.395-.525-.268-.15-.589-.225-.962-.225-.368 0-.684.073-.948.218-.259.15-.903.739-1.93 1.767a2.131 2.131 0 0 0-.204.204l.082.035c.086.022.166.047.238.075.259.09.48.188.661.293a.156.156 0 0 0 .055.027 42.172 42.172 0 0 0 1.616-.669 28.02 28.02 0 0 0 1.05-.49l.355-.185c.255-.136.382-.304.382-.504z" fill="#FFF0B5"/>
        <path d="M148.251 54.739v-.014a.26.26 0 0 0-.013-.082c-.146-.332-.482-.643-1.01-.934a4.72 4.72 0 0 0-1.691-.553c-.6-.078-1.06-.028-1.377.15-.323.177-.832.677-1.528 1.5-.441.519-.65.903-.627 1.153.009.118.07.207.184.266a2.19 2.19 0 0 1 .204-.204c1.027-1.028 1.671-1.617 1.93-1.767.264-.145.58-.218.948-.218.373 0 .694.074.962.224.263.146.395.321.395.526v.02c0 .2-.127.369-.382.505l-.354.183c-.264.132-.614.296-1.05.491-.464.205-1.003.428-1.617.669v.007c.041.022.08.045.116.068.255.177 1.173-.043 2.755-.662.155-.063.303-.127.443-.19a9.12 9.12 0 0 0 1.106-.533c.4-.24.601-.442.606-.606z" fill="#FEE581"/>
      </g>
      <g>
        <path d="M131.843 53.913a2.647 2.647 0 0 0-.116-.067v1.377c.041.022.08.048.116.075.255.178 1.173-.045 2.755-.668 1.369-.546 2.087-.978 2.155-1.296a.291.291 0 0 0 0-.088v-1.323c-.004.163-.207.366-.607.607a9.158 9.158 0 0 1-1.105.532 14.51 14.51 0 0 1-.443.19c-1.582.618-2.5.839-2.755.662zm-1.343.587c.004.132.068.23.191.293v-1.385a.314.314 0 0 1-.184-.266l-.007 1.337v.021z" fill="#EFCE48"/>
        <path d="M130.691 53.409l.082.034c.086.023.166.048.238.075.26.09.48.188.662.293a.165.165 0 0 0 .054.027 42.65 42.65 0 0 0 1.616-.668 28.02 28.02 0 0 0 1.05-.491l.355-.184c.255-.137.382-.305.382-.505v-.02c0-.205-.132-.38-.395-.525-.269-.15-.589-.225-.962-.225-.369 0-.684.073-.948.218-.259.15-.903.739-1.93 1.766a2.182 2.182 0 0 0-.204.205z" fill="#FFF0B5"/>
        <path d="M130.691 53.409v1.384h.007a.289.289 0 0 1 .075.028c.391.118.709.252.955.402v-1.384a.148.148 0 0 1-.055-.028 3.957 3.957 0 0 0-.662-.293 2.402 2.402 0 0 0-.238-.075 2.83 2.83 0 0 0-.082-.034z" fill="#EBD784"/>
        <path d="M131.134 51.99c-.441.518-.65.902-.628 1.152.01.118.071.207.184.266a2.19 2.19 0 0 1 .205-.204c1.027-1.028 1.671-1.616 1.93-1.766.264-.146.58-.219.948-.219.373 0 .693.075.962.225.263.146.395.321.395.525v.021c0 .2-.127.368-.382.504-.096.05-.213.112-.355.184-.263.132-.614.296-1.05.491-.463.205-1.002.428-1.616.669v.007c.041.023.08.045.116.068.255.177 1.173-.043 2.755-.662.155-.063.303-.127.443-.19a9.195 9.195 0 0 0 1.105-.533c.4-.24.603-.443.607-.607v-.013a.26.26 0 0 0-.013-.082c-.146-.332-.482-.644-1.01-.935a4.721 4.721 0 0 0-1.69-.552c-.6-.078-1.06-.028-1.378.15-.323.178-.832.678-1.528 1.501z" fill="#FEE581"/>
      </g>
    </g>
    <g>
      <path d="M113.258 69.418c.042.022.08.048.117.075.254.178 1.172-.045 2.754-.668 1.369-.546 2.087-.978 2.155-1.296a.291.291 0 0 0 0-.088v-1.323c-.004.163-.207.366-.607.607a9.158 9.158 0 0 1-1.105.532 14.51 14.51 0 0 1-.443.19c-1.582.619-2.5.84-2.755.662a2.647 2.647 0 0 0-.115-.068v1.377zm-1.036-1.814a.313.313 0 0 1-.184-.266l-.007 1.337v.02c.004.132.068.23.191.293v-1.384z" fill="#EFCE48"/>
      <path d="M112.543 67.713a2.542 2.542 0 0 0-.239-.075l-.082-.034v1.385h.007a.289.289 0 0 1 .075.027c.391.118.709.253.955.402v-1.384a.148.148 0 0 1-.054-.027 3.985 3.985 0 0 0-.662-.294z" fill="#EBD784"/>
      <path d="M115.305 65.415c-.369 0-.685.073-.949.218-.258.15-.902.739-1.93 1.767a2.131 2.131 0 0 0-.204.204l.082.034c.087.022.166.047.239.075.258.091.479.189.661.294a.165.165 0 0 0 .055.027 42.172 42.172 0 0 0 1.616-.668 28.02 28.02 0 0 0 1.05-.491l.354-.184c.255-.137.382-.305.382-.505v-.02c0-.205-.132-.38-.395-.525-.268-.151-.588-.226-.961-.226z" fill="#FFF0B5"/>
      <path d="M114.356 65.633c.264-.145.58-.218.949-.218.372 0 .693.075.961.225.263.145.395.32.395.525v.02c0 .2-.127.369-.382.505l-.354.184c-.264.132-.614.296-1.05.491-.464.204-1.003.427-1.616.668v.007l.116.068c.254.178 1.173-.043 2.755-.661.154-.064.302-.128.443-.191a9.195 9.195 0 0 0 1.105-.532c.4-.241.602-.443.607-.607v-.014a.263.263 0 0 0-.014-.081c-.145-.333-.482-.644-1.009-.935a4.72 4.72 0 0 0-1.691-.552c-.6-.078-1.06-.028-1.378.15-.323.177-.832.677-1.527 1.5-.441.519-.65.903-.628 1.153.01.118.071.207.184.266a2.19 2.19 0 0 1 .205-.205c1.027-1.027 1.67-1.616 1.93-1.766z" fill="#FEE581"/>
      <g>
        <path d="M115.189 71.225a.313.313 0 0 1-.184-.266l-.007 1.336v.021c.004.132.067.23.19.293v-1.384zm5.455-.88a9.158 9.158 0 0 1-1.105.532 14.51 14.51 0 0 1-.443.191c-1.582.619-2.5.84-2.755.662a2.647 2.647 0 0 0-.116-.068v1.377c.041.023.08.048.116.075.255.178 1.173-.045 2.755-.668 1.369-.545 2.087-.977 2.155-1.295a.291.291 0 0 0 0-.089v-1.323c-.005.163-.207.365-.607.607z" fill="#EFCE48"/>
        <path d="M115.27 71.259l-.081-.034v1.384h.007a.295.295 0 0 1 .075.028c.39.118.709.253.955.403V71.654a.148.148 0 0 1-.055-.027 3.957 3.957 0 0 0-.661-.294 2.504 2.504 0 0 0-.24-.075z" fill="#EBD784"/>
        <path d="M119.628 69.806v-.02c0-.205-.132-.38-.396-.525-.267-.15-.588-.225-.961-.225-.369 0-.684.073-.948.218-.259.15-.902.739-1.93 1.767a2.131 2.131 0 0 0-.204.204l.082.035a3.999 3.999 0 0 1 .9.368.156.156 0 0 0 .054.027 42.172 42.172 0 0 0 1.616-.668 28.02 28.02 0 0 0 1.05-.491l.355-.184c.255-.137.382-.305.382-.505z" fill="#FFF0B5"/>
        <path d="M121.251 69.739v-.014a.26.26 0 0 0-.013-.082c-.146-.332-.482-.643-1.01-.934a4.72 4.72 0 0 0-1.691-.553c-.6-.077-1.06-.027-1.377.15-.323.178-.832.678-1.528 1.5-.441.519-.65.903-.627 1.153.009.118.07.207.184.266a2.19 2.19 0 0 1 .204-.204c1.027-1.028 1.671-1.617 1.93-1.767.264-.145.58-.218.948-.218.373 0 .693.075.961.225.264.145.396.32.396.525v.02c0 .2-.127.369-.382.505l-.354.184c-.264.132-.615.295-1.05.49-.464.205-1.003.428-1.617.669v.007c.042.023.08.046.117.068.254.178 1.172-.043 2.754-.661.155-.064.303-.128.443-.191a9.12 9.12 0 0 0 1.105-.532c.4-.24.602-.443.607-.606z" fill="#FEE581"/>
      </g>
      <g>
        <path d="M104.844 68.913a2.647 2.647 0 0 0-.116-.067v1.377c.04.022.079.048.116.075.254.178 1.173-.045 2.755-.668 1.368-.546 2.086-.978 2.154-1.296a.291.291 0 0 0 0-.088v-1.323c-.004.163-.206.366-.606.607a9.158 9.158 0 0 1-1.106.532 14.51 14.51 0 0 1-.442.19c-1.583.618-2.501.839-2.756.662zm-1.344.587c.004.132.068.23.191.293v-1.385a.314.314 0 0 1-.184-.265l-.007 1.336v.021z" fill="#EFCE48"/>
        <path d="M103.691 68.409c.023.008.05.02.082.033.086.024.166.049.238.076.26.09.48.188.662.293a.165.165 0 0 0 .054.027 42.65 42.65 0 0 0 1.617-.668 28.02 28.02 0 0 0 1.05-.491l.354-.184c.255-.137.382-.305.382-.505v-.02c0-.205-.132-.38-.395-.525-.268-.15-.589-.225-.962-.225-.368 0-.684.073-.948.218-.259.15-.902.739-1.93 1.766a2.182 2.182 0 0 0-.204.205z" fill="#FFF0B5"/>
        <path d="M103.691 68.409v1.384h.007a.289.289 0 0 1 .075.027c.391.119.709.253.955.403v-1.384a.148.148 0 0 1-.055-.028 3.957 3.957 0 0 0-.662-.293 2.402 2.402 0 0 0-.238-.075 2.83 2.83 0 0 0-.082-.034z" fill="#EBD784"/>
        <path d="M104.134 66.99c-.441.519-.65.903-.628 1.153.01.118.071.207.185.266a2.19 2.19 0 0 1 .204-.205c1.027-1.027 1.671-1.616 1.93-1.766.264-.145.58-.218.948-.218.373 0 .693.075.962.225.263.145.395.32.395.525v.02c0 .2-.127.369-.382.505l-.355.184c-.263.132-.614.295-1.05.49-.463.205-1.002.428-1.616.669v.007l.116.068c.255.178 1.173-.043 2.755-.661.155-.064.303-.128.443-.191a9.195 9.195 0 0 0 1.105-.533c.4-.24.603-.443.607-.606v-.014a.26.26 0 0 0-.013-.082c-.146-.332-.482-.643-1.01-.934a4.721 4.721 0 0 0-1.69-.553c-.6-.077-1.06-.027-1.378.15-.323.179-.832.679-1.528 1.501z" fill="#FEE581"/>
      </g>
    </g>
    <g>
      <path d="M146.258 72.418c.041.022.08.048.116.075.255.178 1.174-.045 2.756-.668 1.368-.546 2.086-.978 2.155-1.296a.291.291 0 0 0 0-.088v-1.323c-.005.163-.207.366-.607.607a9.158 9.158 0 0 1-1.105.532 14.51 14.51 0 0 1-.443.19c-1.582.619-2.501.84-2.755.662a2.647 2.647 0 0 0-.116-.068v1.377zm-1.036-1.814a.313.313 0 0 1-.184-.266l-.007 1.337v.02c.005.132.068.23.191.293v-1.384z" fill="#EFCE48"/>
      <path d="M145.542 70.713a2.542 2.542 0 0 0-.238-.075l-.082-.034v1.385h.007a.289.289 0 0 1 .075.027c.391.118.709.253.955.402v-1.384a.148.148 0 0 1-.054-.027 3.985 3.985 0 0 0-.662-.294z" fill="#EBD784"/>
      <path d="M148.304 68.415c-.368 0-.684.073-.948.218-.259.15-.902.739-1.93 1.767a2.131 2.131 0 0 0-.204.204l.082.034c.086.022.166.047.238.075.26.091.48.189.662.294a.165.165 0 0 0 .054.027 42.172 42.172 0 0 0 1.616-.668 28.02 28.02 0 0 0 1.05-.491l.355-.184c.254-.137.382-.305.382-.505v-.02c0-.205-.132-.38-.396-.525-.267-.151-.588-.226-.96-.226z" fill="#FFF0B5"/>
      <path d="M147.356 68.633c.264-.145.58-.218.948-.218.373 0 .694.075.962.225.264.145.396.32.396.525v.02c0 .2-.128.369-.383.505l-.354.184c-.264.132-.614.296-1.05.491-.464.204-1.003.427-1.616.668v.007l.116.068c.254.178 1.173-.043 2.755-.661.154-.064.302-.128.443-.191a9.195 9.195 0 0 0 1.105-.532c.4-.241.602-.443.607-.607v-.014a.263.263 0 0 0-.014-.081c-.145-.333-.482-.644-1.009-.935a4.72 4.72 0 0 0-1.691-.552c-.6-.078-1.06-.028-1.377.15-.323.177-.832.677-1.528 1.5-.441.519-.65.903-.627 1.153.009.118.07.207.184.266a2.19 2.19 0 0 1 .204-.205c1.027-1.027 1.67-1.616 1.93-1.766z" fill="#FEE581"/>
      <g>
        <path d="M148.189 74.225a.313.313 0 0 1-.184-.266l-.007 1.336v.021c.004.132.068.23.19.293v-1.384zm5.455-.88a9.158 9.158 0 0 1-1.105.532 14.51 14.51 0 0 1-.443.191c-1.582.619-2.5.84-2.755.662a2.647 2.647 0 0 0-.116-.068v1.377c.041.023.08.048.116.075.254.178 1.173-.045 2.755-.668 1.369-.545 2.087-.977 2.155-1.295a.291.291 0 0 0 0-.089v-1.323c-.005.163-.207.365-.607.607z" fill="#EFCE48"/>
        <path d="M148.27 74.259l-.082-.034v1.384h.008a.295.295 0 0 1 .075.028c.39.118.709.253.955.403V74.654a.148.148 0 0 1-.055-.027 3.957 3.957 0 0 0-.661-.294 2.504 2.504 0 0 0-.24-.075z" fill="#EBD784"/>
        <path d="M152.628 72.806v-.02c0-.205-.132-.38-.395-.525-.268-.15-.589-.225-.962-.225-.368 0-.684.073-.948.218-.259.15-.903.739-1.93 1.767a2.131 2.131 0 0 0-.204.204l.082.035a3.999 3.999 0 0 1 .9.368.156.156 0 0 0 .054.027 42.172 42.172 0 0 0 1.616-.668 28.02 28.02 0 0 0 1.05-.491l.355-.184c.255-.137.382-.305.382-.505z" fill="#FFF0B5"/>
        <path d="M154.251 72.739v-.014a.26.26 0 0 0-.013-.082c-.146-.332-.482-.643-1.01-.934a4.72 4.72 0 0 0-1.691-.553c-.6-.077-1.06-.027-1.377.15-.323.178-.832.678-1.528 1.5-.441.519-.65.903-.627 1.153.009.118.07.207.184.266a2.19 2.19 0 0 1 .204-.204c1.027-1.028 1.671-1.617 1.93-1.767.264-.145.58-.218.948-.218.373 0 .694.075.962.225.263.145.395.32.395.525v.02c0 .2-.127.369-.382.505l-.354.184c-.264.132-.614.295-1.05.49-.464.205-1.003.428-1.617.669v.007l.116.068c.255.178 1.173-.043 2.755-.661.155-.064.303-.128.443-.191a9.12 9.12 0 0 0 1.106-.532c.4-.24.601-.443.606-.606z" fill="#FEE581"/>
      </g>
      <g>
        <path d="M137.843 71.913a2.647 2.647 0 0 0-.116-.067v1.377c.041.022.08.048.116.075.255.178 1.173-.045 2.755-.668 1.369-.546 2.087-.978 2.155-1.296a.291.291 0 0 0 0-.088v-1.323c-.004.163-.207.366-.607.607a9.158 9.158 0 0 1-1.105.532 14.51 14.51 0 0 1-.443.19c-1.582.618-2.5.839-2.755.662zm-1.343.587c.004.132.068.23.191.293v-1.385a.314.314 0 0 1-.184-.265l-.007 1.336v.021z" fill="#EFCE48"/>
        <path d="M136.691 71.409c.023.008.05.02.082.033.086.024.166.049.238.076.26.09.48.188.662.293a.165.165 0 0 0 .054.027 42.65 42.65 0 0 0 1.616-.668 28.02 28.02 0 0 0 1.05-.491l.355-.184c.255-.137.382-.305.382-.505v-.02c0-.205-.132-.38-.395-.525-.269-.15-.589-.225-.962-.225-.369 0-.684.073-.948.218-.259.15-.903.739-1.93 1.766a2.182 2.182 0 0 0-.204.205z" fill="#FFF0B5"/>
        <path d="M136.691 71.409v1.384h.007a.289.289 0 0 1 .075.027c.391.119.709.253.955.403v-1.384a.148.148 0 0 1-.055-.028 3.957 3.957 0 0 0-.662-.293 2.402 2.402 0 0 0-.238-.075 2.83 2.83 0 0 0-.082-.034z" fill="#EBD784"/>
        <path d="M137.134 69.99c-.441.519-.65.903-.628 1.153.01.118.071.207.184.266a2.19 2.19 0 0 1 .205-.205c1.027-1.027 1.671-1.616 1.93-1.766.264-.145.58-.218.948-.218.373 0 .693.075.962.225.263.145.395.32.395.525v.02c0 .2-.127.369-.382.505l-.355.184c-.263.132-.614.295-1.05.49-.463.205-1.002.428-1.616.669v.007l.116.068c.255.178 1.173-.043 2.755-.661.155-.064.303-.128.443-.191a9.195 9.195 0 0 0 1.105-.533c.4-.24.603-.443.607-.606v-.014a.26.26 0 0 0-.013-.082c-.146-.332-.482-.643-1.01-.934a4.721 4.721 0 0 0-1.69-.553c-.6-.077-1.06-.027-1.378.15-.323.179-.832.679-1.528 1.501z" fill="#FEE581"/>
      </g>
    </g>
    <g>
      <path d="M165.258 53.418c.041.023.08.048.116.075.255.178 1.174-.045 2.756-.668 1.368-.546 2.086-.978 2.155-1.296a.291.291 0 0 0 0-.088v-1.323c-.005.163-.207.366-.607.607a9.158 9.158 0 0 1-1.105.532 14.51 14.51 0 0 1-.443.19c-1.582.619-2.501.84-2.755.662a2.647 2.647 0 0 0-.116-.068v1.377zm-1.036-1.814a.313.313 0 0 1-.184-.266l-.007 1.337v.02c.005.132.068.23.191.293v-1.384z" fill="#EFCE48"/>
      <path d="M164.542 51.713a2.542 2.542 0 0 0-.238-.075l-.082-.034v1.385h.007a.289.289 0 0 1 .075.027c.391.118.709.253.955.403V52.034a.148.148 0 0 1-.054-.027 3.985 3.985 0 0 0-.662-.294z" fill="#EBD784"/>
      <path d="M167.304 49.415c-.368 0-.684.073-.948.218-.259.15-.902.739-1.93 1.767a2.131 2.131 0 0 0-.204.204l.082.034c.086.023.166.048.238.075.26.091.48.189.662.294a.165.165 0 0 0 .054.027 42.172 42.172 0 0 0 1.616-.668 28.02 28.02 0 0 0 1.05-.491l.355-.184c.254-.137.382-.305.382-.505v-.02c0-.205-.132-.38-.396-.525-.267-.151-.588-.226-.96-.226z" fill="#FFF0B5"/>
      <path d="M166.356 49.633c.264-.145.58-.218.948-.218.373 0 .694.075.962.225.264.146.396.32.396.525v.02c0 .2-.128.369-.383.505-.095.05-.213.112-.354.184-.264.132-.614.296-1.05.491-.464.204-1.003.427-1.616.668v.008c.041.022.08.045.116.068.254.177 1.173-.044 2.755-.662.154-.063.302-.127.443-.191a9.195 9.195 0 0 0 1.105-.532c.4-.241.602-.443.607-.607v-.013a.263.263 0 0 0-.014-.082c-.145-.332-.482-.644-1.009-.935a4.72 4.72 0 0 0-1.691-.552c-.6-.078-1.06-.028-1.377.15-.323.177-.832.677-1.528 1.5-.441.518-.65.903-.627 1.153.009.118.07.207.184.266a2.19 2.19 0 0 1 .204-.205c1.027-1.027 1.67-1.616 1.93-1.766z" fill="#FEE581"/>
      <g>
        <path d="M167.189 55.225a.313.313 0 0 1-.184-.266l-.007 1.336v.021c.004.132.068.23.19.293v-1.384zm5.455-.88a9.158 9.158 0 0 1-1.105.533 14.51 14.51 0 0 1-.443.19c-1.582.619-2.5.84-2.755.662a2.647 2.647 0 0 0-.116-.068v1.378c.041.023.08.048.116.075.254.177 1.173-.046 2.755-.669 1.369-.545 2.087-.977 2.155-1.295a.291.291 0 0 0 0-.089v-1.323c-.005.163-.207.366-.607.607z" fill="#EFCE48"/>
        <path d="M167.27 55.259l-.082-.034v1.384h.008a.295.295 0 0 1 .075.028c.39.118.709.253.955.403V55.655a.148.148 0 0 1-.055-.027 3.957 3.957 0 0 0-.661-.293 2.504 2.504 0 0 0-.24-.076z" fill="#EBD784"/>
        <path d="M171.628 53.806v-.02c0-.205-.132-.38-.395-.525-.268-.15-.589-.225-.962-.225-.368 0-.684.073-.948.218-.259.15-.903.739-1.93 1.767a2.131 2.131 0 0 0-.204.204l.082.035c.086.022.166.047.238.075.259.09.48.188.661.293a.156.156 0 0 0 .055.027 42.172 42.172 0 0 0 1.616-.669 28.02 28.02 0 0 0 1.05-.49l.355-.185c.255-.136.382-.304.382-.504z" fill="#FFF0B5"/>
        <path d="M173.251 53.739v-.014a.26.26 0 0 0-.013-.082c-.146-.332-.482-.643-1.01-.934a4.72 4.72 0 0 0-1.691-.553c-.6-.078-1.06-.028-1.377.15-.323.177-.832.677-1.528 1.5-.441.519-.65.903-.627 1.153.009.118.07.207.184.266a2.19 2.19 0 0 1 .204-.204c1.027-1.028 1.671-1.617 1.93-1.767.264-.145.58-.218.948-.218.373 0 .694.074.962.224.263.146.395.321.395.526v.02c0 .2-.127.369-.382.505l-.354.183c-.264.132-.614.296-1.05.491-.464.205-1.003.428-1.617.669v.007c.041.022.08.045.116.068.255.177 1.173-.043 2.755-.662.155-.063.303-.127.443-.19a9.12 9.12 0 0 0 1.106-.533c.4-.24.601-.442.606-.606z" fill="#FEE581"/>
      </g>
      <g>
        <path d="M156.843 52.913a2.647 2.647 0 0 0-.116-.067v1.377c.041.022.08.048.116.075.255.178 1.173-.045 2.755-.668 1.369-.546 2.087-.978 2.155-1.296a.291.291 0 0 0 0-.088v-1.323c-.004.163-.207.366-.607.607a9.158 9.158 0 0 1-1.105.532 14.51 14.51 0 0 1-.443.19c-1.582.618-2.5.839-2.755.662zm-1.343.587c.004.132.068.23.191.293v-1.385a.314.314 0 0 1-.184-.266l-.007 1.337v.021z" fill="#EFCE48"/>
        <path d="M155.691 52.409l.082.034c.086.023.166.048.238.075.26.09.48.188.662.293a.165.165 0 0 0 .054.027 42.65 42.65 0 0 0 1.616-.668 28.02 28.02 0 0 0 1.05-.491l.355-.184c.255-.137.382-.305.382-.505v-.02c0-.205-.132-.38-.395-.525-.269-.15-.589-.225-.962-.225-.369 0-.684.073-.948.218-.259.15-.903.739-1.93 1.766a2.182 2.182 0 0 0-.204.205z" fill="#FFF0B5"/>
        <path d="M155.691 52.409v1.384h.007a.289.289 0 0 1 .075.028c.391.118.709.252.955.402v-1.384a.148.148 0 0 1-.055-.028 3.957 3.957 0 0 0-.662-.293 2.402 2.402 0 0 0-.238-.075 2.83 2.83 0 0 0-.082-.034z" fill="#EBD784"/>
        <path d="M156.134 50.99c-.441.518-.65.902-.628 1.152.01.118.071.207.184.266a2.19 2.19 0 0 1 .205-.204c1.027-1.028 1.671-1.616 1.93-1.766.264-.146.58-.219.948-.219.373 0 .693.075.962.225.263.146.395.321.395.525v.021c0 .2-.127.368-.382.504-.096.05-.213.112-.355.184-.263.132-.614.296-1.05.491-.463.205-1.002.428-1.616.669v.007c.041.023.08.045.116.068.255.177 1.173-.043 2.755-.662.155-.063.303-.127.443-.19a9.195 9.195 0 0 0 1.105-.533c.4-.24.603-.443.607-.607v-.013a.26.26 0 0 0-.013-.082c-.146-.332-.482-.644-1.01-.935a4.721 4.721 0 0 0-1.69-.552c-.6-.078-1.06-.028-1.378.15-.323.178-.832.678-1.528 1.501z" fill="#FEE581"/>
      </g>
    </g>
    <g>
      <path d="M69.258 71.418c.042.022.08.048.117.075.254.178 1.172-.045 2.754-.668 1.369-.546 2.087-.978 2.155-1.296a.291.291 0 0 0 0-.088v-1.323c-.004.163-.207.366-.607.607a9.158 9.158 0 0 1-1.105.532 14.51 14.51 0 0 1-.443.19c-1.582.619-2.5.84-2.755.662a2.647 2.647 0 0 0-.115-.068v1.377zm-1.036-1.814a.313.313 0 0 1-.184-.266l-.007 1.337v.02c.004.132.068.23.191.293v-1.384z" fill="#EFCE48"/>
      <path d="M68.543 69.713a2.542 2.542 0 0 0-.239-.075l-.082-.034v1.385h.007a.289.289 0 0 1 .075.027c.391.118.709.253.955.402v-1.384a.148.148 0 0 1-.054-.027 3.985 3.985 0 0 0-.662-.294z" fill="#EBD784"/>
      <path d="M71.305 67.415c-.369 0-.685.073-.949.218-.258.15-.902.739-1.93 1.767a2.131 2.131 0 0 0-.204.204l.082.034c.087.022.166.047.239.075.258.091.479.189.661.294a.165.165 0 0 0 .055.027 42.172 42.172 0 0 0 1.616-.668 28.02 28.02 0 0 0 1.05-.491l.354-.184c.255-.137.382-.305.382-.505v-.02c0-.205-.132-.38-.395-.525-.268-.151-.588-.226-.961-.226z" fill="#FFF0B5"/>
      <path d="M70.356 67.633c.264-.145.58-.218.949-.218.372 0 .693.075.961.225.263.145.395.32.395.525v.02c0 .2-.127.369-.382.505l-.354.184c-.264.132-.614.296-1.05.491-.464.204-1.003.427-1.616.668v.007l.116.068c.254.178 1.173-.043 2.755-.661.154-.064.302-.128.443-.191a9.195 9.195 0 0 0 1.105-.532c.4-.241.602-.443.607-.607v-.014a.263.263 0 0 0-.014-.081c-.145-.333-.482-.644-1.009-.935a4.72 4.72 0 0 0-1.691-.552c-.6-.078-1.06-.028-1.378.15-.323.177-.832.677-1.527 1.5-.441.519-.65.903-.628 1.153.01.118.071.207.184.266a2.19 2.19 0 0 1 .205-.205c1.027-1.027 1.67-1.616 1.93-1.766z" fill="#FEE581"/>
      <g>
        <path d="M71.189 73.225a.313.313 0 0 1-.184-.266l-.007 1.336v.021c.004.132.067.23.19.293v-1.384zm5.455-.88a9.158 9.158 0 0 1-1.105.532 14.51 14.51 0 0 1-.443.191c-1.582.619-2.5.84-2.755.662a2.647 2.647 0 0 0-.116-.068v1.377c.041.023.08.048.116.075.255.178 1.173-.045 2.755-.668 1.369-.545 2.087-.977 2.155-1.295a.291.291 0 0 0 0-.089v-1.323c-.005.163-.207.365-.607.607z" fill="#EFCE48"/>
        <path d="M71.27 73.259l-.081-.034v1.384h.007a.295.295 0 0 1 .075.028c.39.118.709.253.955.403V73.654a.148.148 0 0 1-.055-.027 3.957 3.957 0 0 0-.661-.294 2.504 2.504 0 0 0-.24-.075z" fill="#EBD784"/>
        <path d="M75.628 71.806v-.02c0-.205-.132-.38-.396-.525-.267-.15-.588-.225-.961-.225-.369 0-.684.073-.948.218-.259.15-.902.739-1.93 1.767a2.131 2.131 0 0 0-.204.204l.082.035a3.999 3.999 0 0 1 .9.368.156.156 0 0 0 .054.027 42.172 42.172 0 0 0 1.616-.668 28.02 28.02 0 0 0 1.05-.491l.355-.184c.255-.137.382-.305.382-.505z" fill="#FFF0B5"/>
        <path d="M77.251 71.739v-.014a.26.26 0 0 0-.013-.082c-.146-.332-.482-.643-1.01-.934a4.72 4.72 0 0 0-1.691-.553c-.6-.077-1.06-.027-1.377.15-.323.178-.832.678-1.528 1.5-.441.519-.65.903-.627 1.153.009.118.07.207.184.266a2.19 2.19 0 0 1 .204-.204c1.027-1.028 1.671-1.617 1.93-1.767.264-.145.58-.218.948-.218.373 0 .693.075.961.225.264.145.396.32.396.525v.02c0 .2-.127.369-.382.505l-.354.184c-.264.132-.615.295-1.05.49-.464.205-1.003.428-1.617.669v.007c.042.023.08.046.117.068.254.178 1.172-.043 2.754-.661.155-.064.303-.128.443-.191a9.12 9.12 0 0 0 1.105-.532c.4-.24.602-.443.607-.606z" fill="#FEE581"/>
      </g>
      <g>
        <path d="M60.844 70.913a2.647 2.647 0 0 0-.116-.067v1.377c.04.022.079.048.116.075.254.178 1.173-.045 2.755-.668 1.368-.546 2.086-.978 2.155-1.296a.291.291 0 0 0 0-.088v-1.323c-.005.163-.208.366-.608.607a9.158 9.158 0 0 1-1.104.532 14.51 14.51 0 0 1-.444.19c-1.581.618-2.5.839-2.754.662zM59.5 71.5c.005.132.068.23.191.293v-1.385a.314.314 0 0 1-.184-.265l-.007 1.336v.021z" fill="#EFCE48"/>
        <path d="M59.691 70.409c.023.008.05.02.082.033.086.024.166.049.238.076.26.09.48.188.662.293a.165.165 0 0 0 .054.027 42.65 42.65 0 0 0 1.617-.668 28.02 28.02 0 0 0 1.05-.491l.354-.184c.255-.137.382-.305.382-.505v-.02c0-.205-.132-.38-.395-.525-.269-.15-.589-.225-.962-.225-.369 0-.684.073-.948.218-.259.15-.903.739-1.93 1.766a2.182 2.182 0 0 0-.204.205z" fill="#FFF0B5"/>
        <path d="M59.691 70.409v1.384h.007a.289.289 0 0 1 .075.027c.391.119.709.253.955.403v-1.384a.148.148 0 0 1-.055-.028 3.957 3.957 0 0 0-.661-.293 2.402 2.402 0 0 0-.239-.075 2.83 2.83 0 0 0-.082-.034z" fill="#EBD784"/>
        <path d="M60.134 68.99c-.441.519-.65.903-.628 1.153.01.118.071.207.185.266a2.19 2.19 0 0 1 .204-.205c1.027-1.027 1.671-1.616 1.93-1.766.264-.145.58-.218.948-.218.373 0 .693.075.962.225.263.145.395.32.395.525v.02c0 .2-.127.369-.382.505l-.354.184c-.264.132-.614.295-1.05.49-.464.205-1.003.428-1.616.669v.007l.116.068c.254.178 1.173-.043 2.755-.661.154-.064.302-.128.443-.191a9.195 9.195 0 0 0 1.105-.533c.4-.24.602-.443.607-.606v-.014a.26.26 0 0 0-.014-.082c-.145-.332-.482-.643-1.01-.934a4.721 4.721 0 0 0-1.69-.553c-.6-.077-1.06-.027-1.378.15-.323.179-.832.679-1.528 1.501z" fill="#FEE581"/>
      </g>
    </g>
    <g>
      <path d="M107.258 58.418c.042.023.08.048.117.075.254.178 1.172-.045 2.754-.668 1.369-.546 2.087-.978 2.155-1.296a.291.291 0 0 0 0-.088v-1.323c-.004.163-.207.366-.607.607a9.158 9.158 0 0 1-1.105.532 14.51 14.51 0 0 1-.443.19c-1.582.619-2.5.84-2.755.662a2.647 2.647 0 0 0-.115-.068v1.377zm-1.036-1.814a.313.313 0 0 1-.184-.266l-.007 1.337v.02c.004.132.068.23.191.293v-1.384z" fill="#EFCE48"/>
      <path d="M106.543 56.713a2.542 2.542 0 0 0-.239-.075l-.082-.034v1.385h.007a.289.289 0 0 1 .075.027c.391.118.709.253.955.403V57.034a.148.148 0 0 1-.054-.027 3.985 3.985 0 0 0-.662-.294z" fill="#EBD784"/>
      <path d="M109.305 54.415c-.369 0-.685.073-.949.218-.258.15-.902.739-1.93 1.767a2.131 2.131 0 0 0-.204.204l.082.034c.087.023.166.048.239.075.258.091.479.189.661.294a.165.165 0 0 0 .055.027 42.172 42.172 0 0 0 1.616-.668 28.02 28.02 0 0 0 1.05-.491l.354-.184c.255-.137.382-.305.382-.505v-.02c0-.205-.132-.38-.395-.525-.268-.151-.588-.226-.961-.226z" fill="#FFF0B5"/>
      <path d="M108.356 54.633c.264-.145.58-.218.949-.218.372 0 .693.075.961.225.263.146.395.32.395.525v.02c0 .2-.127.369-.382.505-.095.05-.213.112-.354.184-.264.132-.614.296-1.05.491-.464.204-1.003.427-1.616.668v.008c.041.022.08.045.116.068.254.177 1.173-.044 2.755-.662.154-.063.302-.127.443-.191a9.195 9.195 0 0 0 1.105-.532c.4-.241.602-.443.607-.607v-.013a.263.263 0 0 0-.014-.082c-.145-.332-.482-.644-1.009-.935a4.72 4.72 0 0 0-1.691-.552c-.6-.078-1.06-.028-1.378.15-.323.177-.832.677-1.527 1.5-.441.518-.65.903-.628 1.153.01.118.071.207.184.266a2.19 2.19 0 0 1 .205-.205c1.027-1.027 1.67-1.616 1.93-1.766z" fill="#FEE581"/>
      <g>
        <path d="M109.189 60.225a.313.313 0 0 1-.184-.266l-.007 1.336v.021c.004.132.067.23.19.293v-1.384zm5.455-.88a9.158 9.158 0 0 1-1.105.533 14.51 14.51 0 0 1-.443.19c-1.582.619-2.5.84-2.755.662a2.647 2.647 0 0 0-.116-.068v1.378c.041.023.08.048.116.075.255.177 1.173-.046 2.755-.669 1.369-.545 2.087-.977 2.155-1.295a.291.291 0 0 0 0-.089v-1.323c-.005.163-.207.366-.607.607z" fill="#EFCE48"/>
        <path d="M109.27 60.259l-.081-.034v1.384h.007a.295.295 0 0 1 .075.028c.39.118.709.253.955.403V60.655a.148.148 0 0 1-.055-.027 3.957 3.957 0 0 0-.661-.293 2.504 2.504 0 0 0-.24-.076z" fill="#EBD784"/>
        <path d="M113.628 58.806v-.02c0-.205-.132-.38-.396-.525-.267-.15-.588-.225-.961-.225-.369 0-.684.073-.948.218-.259.15-.902.739-1.93 1.767a2.131 2.131 0 0 0-.204.204l.082.035c.086.022.165.047.238.075.259.09.48.188.661.293a.156.156 0 0 0 .055.027 42.172 42.172 0 0 0 1.616-.669 28.02 28.02 0 0 0 1.05-.49l.355-.185c.255-.136.382-.304.382-.504z" fill="#FFF0B5"/>
        <path d="M115.251 58.739v-.014a.26.26 0 0 0-.013-.082c-.146-.332-.482-.643-1.01-.934a4.72 4.72 0 0 0-1.691-.553c-.6-.078-1.06-.028-1.377.15-.323.177-.832.677-1.528 1.5-.441.519-.65.903-.627 1.153.009.118.07.207.184.266a2.19 2.19 0 0 1 .204-.204c1.027-1.028 1.671-1.617 1.93-1.767.264-.145.58-.218.948-.218.373 0 .693.074.961.224.264.146.396.321.396.526v.02c0 .2-.127.369-.382.505l-.354.183c-.264.132-.615.296-1.05.491-.464.205-1.003.428-1.617.669v.007c.042.022.08.045.117.068.254.177 1.172-.043 2.754-.662.155-.063.303-.127.443-.19a9.12 9.12 0 0 0 1.105-.533c.4-.24.602-.442.607-.606z" fill="#FEE581"/>
      </g>
      <g>
        <path d="M98.844 57.913a2.647 2.647 0 0 0-.116-.067v1.377c.04.022.079.048.116.075.254.178 1.173-.045 2.755-.668 1.368-.546 2.086-.978 2.154-1.296a.291.291 0 0 0 0-.088v-1.323c-.004.163-.206.366-.606.607a9.158 9.158 0 0 1-1.106.532 14.51 14.51 0 0 1-.442.19c-1.583.618-2.501.839-2.756.662zM97.5 58.5c.004.132.068.23.191.293v-1.385a.314.314 0 0 1-.184-.266L97.5 58.48v.021z" fill="#EFCE48"/>
        <path d="M97.691 57.409l.082.034c.086.023.166.048.238.075.26.09.48.188.662.293a.165.165 0 0 0 .054.027 42.65 42.65 0 0 0 1.617-.668 28.02 28.02 0 0 0 1.05-.491l.354-.184c.255-.137.382-.305.382-.505v-.02c0-.205-.132-.38-.395-.525-.268-.15-.589-.225-.962-.225-.368 0-.684.073-.948.218-.259.15-.902.739-1.93 1.766a2.182 2.182 0 0 0-.204.205z" fill="#FFF0B5"/>
        <path d="M97.691 57.409v1.384h.007a.289.289 0 0 1 .075.028c.391.118.709.252.955.402v-1.384a.148.148 0 0 1-.055-.028 3.957 3.957 0 0 0-.662-.293 2.402 2.402 0 0 0-.238-.075 2.83 2.83 0 0 0-.082-.034z" fill="#EBD784"/>
        <path d="M98.134 55.99c-.441.518-.65.902-.628 1.152.01.118.071.207.185.266a2.19 2.19 0 0 1 .204-.204c1.027-1.028 1.671-1.616 1.93-1.766.264-.146.58-.219.948-.219.373 0 .693.075.962.225.263.146.395.321.395.525v.021c0 .2-.127.368-.382.504l-.355.184c-.263.132-.614.296-1.05.491-.463.205-1.002.428-1.616.669v.007c.041.023.08.045.116.068.255.177 1.173-.043 2.755-.662.155-.063.303-.127.443-.19a9.195 9.195 0 0 0 1.105-.533c.4-.24.603-.443.607-.607v-.013a.26.26 0 0 0-.013-.082c-.146-.332-.482-.644-1.01-.935a4.721 4.721 0 0 0-1.69-.552c-.6-.078-1.06-.028-1.378.15-.323.178-.832.678-1.528 1.501z" fill="#FEE581"/>
      </g>
    </g>
  </g>
</svg>
