<svg width="225" height="159" viewBox="0 0 225 159" xmlns="http://www.w3.org/2000/svg">
  <g fill-rule="nonzero" fill="none">
    <path d="M114.188 81.045c-.247.142-.503.279-.766.41-2.522 1.254-5.505 1.876-8.95 1.866-3.8-.006-7.056-.78-9.764-2.324-2.362-1.342-3.705-2.925-4.029-4.747a5.043 5.043 0 0 1-.074-.769v1.522c.022 2.172 1.39 4.03 4.103 5.573 2.709 1.544 5.963 2.318 9.765 2.324 3.444.01 6.427-.611 8.949-1.866.263-.131.519-.268.766-.41 2.675-1.527 4-3.376 3.972-5.548V75.686a5.363 5.363 0 0 1-.058.663c-.292 1.805-1.596 3.37-3.914 4.696z" fill="#C85629"/>
    <path d="M114.064 69.932c-2.714-1.544-5.972-2.321-9.773-2.332-3.807-.005-6.384.947-7.73 2.856-3.938 1.13-5.924 2.752-5.957 4.869v.155c.006.263.03.519.074.77.324 1.822 1.668 3.404 4.03 4.746 2.708 1.544 5.963 2.319 9.764 2.324 3.445.01 6.427-.61 8.95-1.866.263-.13.518-.268.765-.41 2.318-1.325 3.623-2.89 3.915-4.697.033-.218.052-.439.057-.663v-.098-.09c-.022-2.165-1.387-4.02-4.095-5.564zm-9.723-1.579c3.45.01 6.405.718 8.866 2.12 1.313.747 2.28 1.576 2.9 2.487.545.791.822 1.645.833 2.561.022 1.964-1.18 3.642-3.609 5.033-.225.13-.458.254-.7.368-2.291 1.14-4.999 1.708-8.125 1.703-3.45-.011-6.405-.718-8.867-2.12-2.461-1.402-3.705-3.085-3.732-5.05a2.95 2.95 0 0 1 .379-1.488c.703-1.255 2.384-2.259 5.043-3.012 1.219-1.751 3.556-2.618 7.011-2.602z" fill="#F26929"/>
    <path d="M113.207 70.472c-2.461-1.402-5.416-2.108-8.866-2.119-3.456-.016-5.793.85-7.013 2.602-2.659.753-4.34 1.757-5.043 3.012a2.95 2.95 0 0 0-.379 1.489c.028 1.964 1.272 3.647 3.733 5.049 2.46 1.402 5.416 2.108 8.866 2.12 3.126.005 5.834-.563 8.125-1.703.242-.114.475-.237.7-.368 2.429-1.391 3.632-3.069 3.61-5.033-.011-.917-.288-1.77-.833-2.561-.62-.911-1.587-1.74-2.9-2.488zm-8.735-1.219c2.88.032 5.384.655 7.515 1.866 2.127 1.21 3.2 2.668 3.222 4.37.022 1.434-.818 2.755-2.52 3.96-.204-.141-.407-.28-.61-.417-2.906-1.997-5.554-4.048-7.944-6.154-.346-.371-.736-.595-1.17-.671-.84-.099-1.497-.336-1.97-.712a1.8 1.8 0 0 1-.37-.36c-.32-1.282.964-1.909 3.847-1.882zm6.757 10.336c.247.12.492.243.734.368a17.126 17.126 0 0 1-7.507 1.678c-2.988-.006-5.546-.614-7.672-1.826-2.131-1.211-3.208-2.67-3.23-4.378-.016-1.494 1.009-2.209 3.074-2.144.543.028.975.123 1.293.287.407.207.648.523.725.949.143.333.602.589 1.377.769a73.19 73.19 0 0 1 11.206 4.297z" fill="#F6936F"/>
    <path d="M111.963 79.957a30.906 30.906 0 0 0-.734-.368 73.174 73.174 0 0 0-11.206-4.296c-.775-.18-1.234-.437-1.377-.77-.077-.425-.318-.742-.725-.949-.318-.164-.75-.259-1.293-.286-2.066-.065-3.09.65-3.074 2.144.022 1.707 1.1 3.167 3.23 4.378 2.126 1.21 4.684 1.82 7.672 1.825 2.626.01 5.128-.549 7.507-1.678zm-5.612-.41a.734.734 0 0 1 .462-.114.415.415 0 0 1 .33.205.449.449 0 0 1 .033.409.762.762 0 0 1-.297.376.685.685 0 0 1-.445.115.46.46 0 0 1-.355-.213.48.48 0 0 1-.016-.41.724.724 0 0 1 .288-.367zm-2.563.377a.801.801 0 0 1 .487-.082c.148.027.241.104.28.23.06.125.05.261-.033.409a.788.788 0 0 1-.38.335.665.665 0 0 1-.46.099.385.385 0 0 1-.306-.23.508.508 0 0 1 .058-.4.904.904 0 0 1 .354-.361zm-2.167-.253a.46.46 0 0 1 .025.409.715.715 0 0 1-.297.368.608.608 0 0 1-.444.123.438.438 0 0 1-.347-.213.462.462 0 0 1-.016-.4.717.717 0 0 1 .75-.491c.148.02.258.09.33.204zM96.9 76.16c-.055.12-.176.234-.363.343a1.89 1.89 0 0 1-.618.221c-.214.033-.376.016-.486-.049-.11-.06-.137-.153-.083-.278.06-.126.187-.243.38-.353.186-.109.387-.18.601-.213.22-.027.385-.01.494.05.11.066.135.159.075.279zm-.51 2.446c-.127-.054-.185-.141-.174-.261.028-.131.121-.26.28-.385.16-.125.341-.213.544-.262.21-.055.377-.055.503 0 .12.05.167.136.14.262-.016.136-.104.265-.264.385-.16.13-.346.218-.56.261-.193.05-.35.05-.47 0zm2.504.23c.028-.126.12-.251.28-.377.16-.125.341-.213.544-.261.21-.055.376-.055.503 0 .12.054.167.144.14.27-.016.13-.105.256-.264.376-.16.125-.346.213-.56.262-.192.049-.348.049-.47 0-.127-.054-.184-.144-.173-.27zm13.093-7.717c-2.131-1.211-4.636-1.833-7.515-1.866-2.884-.028-4.167.6-3.848 1.882.105.136.228.256.371.36.473.376 1.129.614 1.97.712.434.077.824.3 1.17.671 2.39 2.106 5.038 4.158 7.944 6.154.203.137.406.276.61.418 1.702-1.205 2.543-2.526 2.52-3.96-.021-1.703-1.096-3.16-3.222-4.371zm-6.287-.622c.11.065.135.158.075.278-.055.126-.176.243-.363.352-.192.11-.398.18-.618.213-.214.033-.376.017-.486-.049-.11-.06-.137-.153-.082-.278.055-.12.179-.235.37-.344.187-.11.391-.183.61-.22.22-.028.385-.012.494.048zm2.423.287c.203-.06.373-.071.51-.033.132.043.201.125.207.245.016.13-.041.265-.173.4-.12.137-.28.238-.478.304-.187.07-.349.084-.486.04-.137-.038-.212-.125-.223-.261 0-.12.055-.25.165-.393.132-.13.29-.232.478-.302zm4.738 2.831c.22.038.352.1.396.188.044.082-.014.17-.173.262-.148.093-.354.16-.618.205a2.638 2.638 0 0 1-.717.016c-.22-.039-.351-.099-.395-.18-.044-.087.014-.178.172-.27.155-.088.358-.153.61-.196.263-.039.505-.047.725-.025zm-1.286 1.588c.264-.039.506-.047.725-.025.22.038.352.1.396.188.044.077-.014.161-.173.254-.154.099-.36.166-.618.205a2.642 2.642 0 0 1-.717.016c-.22-.033-.352-.09-.396-.172-.05-.081.006-.174.165-.278.149-.082.355-.145.618-.188zm-.255-2.865c-.082.12-.228.23-.437.328a2.013 2.013 0 0 1-.65.164c-.226.016-.386-.009-.479-.074-.099-.071-.104-.166-.016-.286.082-.115.23-.221.445-.32a1.8 1.8 0 0 1 .634-.171c.22-.016.379.008.478.074.094.075.102.17.025.285zm1.97 4.075c.22.039.351.101.395.189.044.081-.01.166-.165.254-.154.098-.362.166-.626.204a2.584 2.584 0 0 1-.708.016c-.226-.027-.36-.084-.404-.171-.044-.082.01-.172.165-.27a1.91 1.91 0 0 1 .618-.196 3 3 0 0 1 .724-.026z" fill="#D75527"/>
    <path d="M99.174 78.46c-.16.125-.253.25-.28.376-.012.125.046.215.172.27.121.049.277.049.47 0 .214-.05.4-.137.56-.262.16-.12.247-.245.263-.376.027-.126-.02-.216-.14-.27-.126-.055-.294-.055-.503 0a1.398 1.398 0 0 0-.542.261zm-2.958-.115c-.011.12.046.207.172.261.121.05.278.05.47 0 .214-.043.401-.13.56-.261.16-.12.247-.249.264-.385.027-.125-.02-.213-.14-.262-.126-.055-.294-.055-.503 0-.203.05-.384.136-.544.262-.158.126-.252.254-.28.385zm.321-1.842c.187-.109.308-.223.363-.343.06-.12.035-.213-.075-.279-.11-.06-.275-.076-.494-.049a1.694 1.694 0 0 0-.602.213c-.192.11-.318.226-.379.352-.054.126-.027.219.083.279.11.065.272.081.486.049.22-.039.426-.112.618-.222zm5.109 3.577a.46.46 0 0 0-.025-.41.441.441 0 0 0-.33-.204.718.718 0 0 0-.75.49.462.462 0 0 0 .017.402.439.439 0 0 0 .346.213.608.608 0 0 0 .445-.123.707.707 0 0 0 .297-.368zm2.629-.238a.806.806 0 0 0-.487.082.897.897 0 0 0-.354.36.508.508 0 0 0-.057.4.386.386 0 0 0 .305.23.662.662 0 0 0 .462-.098.786.786 0 0 0 .378-.336c.083-.147.094-.284.034-.409-.04-.125-.133-.202-.281-.229zm2.538-.409a.723.723 0 0 0-.75.483.48.48 0 0 0 .016.41c.082.125.2.196.355.212a.686.686 0 0 0 .445-.114.767.767 0 0 0 .297-.376.445.445 0 0 0-.033-.41.414.414 0 0 0-.33-.205zm6.872-2.831c-.044-.088-.176-.15-.396-.189a3.003 3.003 0 0 0-.725.025c-.258.044-.464.11-.618.196-.154.099-.209.189-.165.27.045.088.18.145.404.172.214.027.45.021.709-.016.263-.039.472-.107.626-.205.154-.087.21-.172.165-.253zm-2.801-3.936c.209-.099.354-.207.436-.328.077-.114.07-.21-.024-.286-.1-.065-.258-.09-.478-.074a1.806 1.806 0 0 0-.635.172c-.214.098-.362.204-.444.319-.088.12-.082.215.016.286.094.066.253.09.478.074.22-.016.436-.07.65-.163zm1.416 2.512a3.003 3.003 0 0 0-.725.025 1.97 1.97 0 0 0-.618.188c-.16.104-.214.196-.165.278.045.082.176.14.396.172.22.027.459.022.717-.016a1.58 1.58 0 0 0 .618-.205c.16-.093.217-.177.173-.254-.044-.087-.176-.15-.396-.188zm.957-1.375c-.044-.088-.176-.15-.396-.189a3.003 3.003 0 0 0-.725.025c-.252.044-.456.11-.61.196-.159.093-.216.183-.172.27.044.082.175.142.395.18.22.027.459.022.717-.016.263-.044.47-.112.618-.205.159-.092.216-.179.173-.261zm-4.623-3.052c-.137-.039-.308-.028-.511.033-.187.07-.347.171-.478.303-.11.141-.165.273-.165.393.01.136.085.223.222.261.137.044.3.03.486-.04a1.07 1.07 0 0 0 .478-.304c.132-.136.19-.27.173-.4-.005-.121-.074-.203-.205-.246zm-2.86.024c.06-.12.036-.213-.074-.278-.11-.06-.275-.076-.494-.05-.22.039-.423.112-.61.221-.192.11-.316.224-.37.344-.056.126-.029.219.081.279.11.065.272.081.487.049a1.76 1.76 0 0 0 .618-.213c.186-.109.307-.226.362-.352z" fill="#ED9F7C"/>
    <path d="M162.188 80.045c-.247.142-.503.279-.766.41-2.522 1.254-5.505 1.876-8.95 1.866-3.8-.006-7.056-.78-9.764-2.324-2.362-1.342-3.705-2.925-4.029-4.747a5.043 5.043 0 0 1-.074-.769v1.522c.022 2.172 1.39 4.03 4.103 5.573 2.709 1.544 5.963 2.318 9.765 2.324 3.444.01 6.427-.611 8.949-1.866.263-.131.519-.268.766-.41 2.675-1.527 4-3.376 3.972-5.548V74.686a5.363 5.363 0 0 1-.058.663c-.292 1.805-1.596 3.37-3.914 4.696z" fill="#C85629"/>
    <path d="M162.064 68.932c-2.714-1.544-5.972-2.321-9.773-2.332-3.807-.005-6.384.947-7.73 2.856-3.938 1.13-5.924 2.752-5.957 4.869v.155c.006.263.03.519.074.77.324 1.822 1.668 3.404 4.03 4.746 2.708 1.544 5.963 2.319 9.764 2.324 3.445.01 6.427-.61 8.95-1.866.263-.13.518-.268.765-.41 2.318-1.325 3.623-2.89 3.915-4.697.033-.218.052-.439.057-.663v-.098-.09c-.022-2.165-1.387-4.02-4.095-5.564zm-9.723-1.579c3.45.01 6.405.718 8.866 2.12 1.313.747 2.28 1.576 2.9 2.487.545.791.822 1.645.833 2.561.022 1.964-1.18 3.642-3.609 5.033-.225.13-.458.254-.7.368-2.291 1.14-4.999 1.708-8.125 1.703-3.45-.011-6.405-.718-8.867-2.12-2.461-1.402-3.705-3.085-3.732-5.05a2.95 2.95 0 0 1 .379-1.488c.703-1.255 2.384-2.259 5.043-3.012 1.219-1.751 3.556-2.618 7.012-2.602z" fill="#F26929"/>
    <path d="M161.207 69.472c-2.461-1.402-5.416-2.108-8.867-2.119-3.455-.016-5.792.85-7.012 2.602-2.659.753-4.34 1.757-5.043 3.012a2.95 2.95 0 0 0-.379 1.489c.028 1.964 1.272 3.647 3.733 5.049 2.46 1.402 5.416 2.108 8.866 2.12 3.126.005 5.834-.563 8.125-1.703.242-.114.475-.237.7-.368 2.429-1.391 3.632-3.069 3.61-5.033-.011-.917-.288-1.77-.833-2.561-.62-.911-1.587-1.74-2.9-2.488zm-8.735-1.219c2.88.032 5.384.655 7.515 1.866 2.126 1.21 3.2 2.668 3.222 4.37.022 1.434-.818 2.755-2.52 3.96-.204-.141-.407-.28-.61-.417-2.906-1.997-5.554-4.048-7.944-6.154-.346-.371-.736-.595-1.17-.671-.84-.099-1.497-.336-1.97-.712a1.8 1.8 0 0 1-.37-.36c-.32-1.282.964-1.909 3.847-1.882zm6.757 10.336c.247.12.492.243.734.368a17.126 17.126 0 0 1-7.507 1.678c-2.988-.006-5.546-.614-7.672-1.826-2.131-1.211-3.208-2.67-3.23-4.378-.016-1.494 1.009-2.209 3.074-2.144.543.028.975.123 1.293.287.407.207.649.523.725.949.143.333.602.589 1.377.769a73.19 73.19 0 0 1 11.206 4.297z" fill="#F6936F"/>
    <path d="M159.963 78.957a30.906 30.906 0 0 0-.734-.368 73.174 73.174 0 0 0-11.206-4.296c-.775-.18-1.234-.437-1.377-.77-.076-.425-.318-.742-.725-.949-.318-.164-.75-.259-1.293-.286-2.066-.065-3.09.65-3.074 2.144.022 1.707 1.1 3.167 3.23 4.378 2.126 1.21 4.684 1.82 7.672 1.825 2.626.01 5.128-.549 7.507-1.678zm-5.612-.41a.734.734 0 0 1 .462-.114.415.415 0 0 1 .33.205.449.449 0 0 1 .033.409.762.762 0 0 1-.297.376.685.685 0 0 1-.445.115.46.46 0 0 1-.355-.213.48.48 0 0 1-.016-.41.724.724 0 0 1 .288-.367zm-2.563.377a.801.801 0 0 1 .487-.082c.148.027.241.104.28.23.06.125.05.261-.033.409a.788.788 0 0 1-.38.335.665.665 0 0 1-.46.099.385.385 0 0 1-.306-.23.508.508 0 0 1 .058-.4.904.904 0 0 1 .354-.361zm-2.167-.253a.46.46 0 0 1 .025.409.715.715 0 0 1-.297.368.608.608 0 0 1-.444.123.438.438 0 0 1-.347-.213.462.462 0 0 1-.016-.4.717.717 0 0 1 .75-.491c.148.02.258.09.33.204zM144.9 75.16c-.055.12-.176.234-.363.343a1.89 1.89 0 0 1-.618.221c-.214.033-.376.016-.486-.049-.11-.06-.137-.153-.083-.278.06-.126.187-.243.38-.353.186-.109.387-.18.601-.213.22-.027.385-.01.494.05.11.066.135.159.075.279zm-.51 2.446c-.127-.054-.185-.141-.174-.261.028-.131.121-.26.28-.385.16-.125.341-.213.544-.262.21-.055.377-.055.503 0 .12.05.167.136.14.262-.016.136-.104.265-.264.385-.16.13-.346.218-.56.261-.193.05-.35.05-.47 0zm2.504.23c.028-.126.12-.251.28-.377.16-.125.341-.213.544-.261.21-.055.376-.055.503 0 .12.054.167.144.14.27-.016.13-.105.256-.264.376-.16.125-.346.213-.56.262-.192.049-.348.049-.47 0-.127-.054-.184-.144-.173-.27zm13.093-7.717c-2.131-1.211-4.636-1.833-7.515-1.866-2.884-.028-4.167.6-3.848 1.882.105.136.228.256.371.36.473.376 1.129.614 1.97.712.434.077.824.3 1.17.671 2.39 2.106 5.038 4.158 7.944 6.154.203.137.406.276.61.418 1.702-1.205 2.543-2.526 2.52-3.96-.021-1.703-1.095-3.16-3.222-4.371zm-6.287-.622c.11.065.135.158.075.278-.055.126-.176.243-.363.352-.192.11-.398.18-.618.213-.214.033-.376.017-.486-.049-.11-.06-.137-.153-.082-.278.055-.12.179-.235.37-.344.187-.11.391-.183.61-.22.22-.028.385-.012.494.048zm2.423.287c.203-.06.373-.071.51-.033.132.043.201.125.207.245.016.13-.041.265-.173.4-.12.137-.28.238-.478.304-.187.07-.349.084-.486.04-.137-.038-.212-.125-.223-.261 0-.12.055-.25.165-.393.132-.13.29-.232.478-.302zm4.738 2.831c.22.038.352.1.396.188.044.082-.014.17-.173.262-.148.093-.354.16-.618.205a2.638 2.638 0 0 1-.717.016c-.22-.039-.351-.099-.395-.18-.044-.087.014-.178.172-.27.155-.088.358-.153.61-.196.263-.039.505-.047.725-.025zm-1.286 1.588c.264-.039.506-.047.725-.025.22.038.352.1.396.188.044.077-.014.161-.173.254-.154.099-.36.166-.618.205a2.642 2.642 0 0 1-.717.016c-.22-.033-.352-.09-.396-.172-.05-.081.006-.174.165-.278.149-.082.355-.145.618-.188zm-.255-2.865c-.082.12-.228.23-.437.328a2.013 2.013 0 0 1-.65.164c-.226.016-.386-.009-.479-.074-.099-.071-.104-.166-.016-.286.082-.115.23-.221.445-.32a1.8 1.8 0 0 1 .634-.171c.22-.016.379.008.478.074.094.075.102.17.025.285zm1.97 4.075c.22.039.351.101.395.189.044.081-.01.166-.165.254-.154.098-.362.166-.626.204a2.584 2.584 0 0 1-.708.016c-.226-.027-.36-.084-.404-.171-.044-.082.01-.172.165-.27a1.91 1.91 0 0 1 .618-.196 3 3 0 0 1 .724-.026z" fill="#D75527"/>
    <path d="M147.174 77.46c-.16.125-.253.25-.28.376-.012.125.046.215.172.27.121.049.277.049.47 0 .214-.05.4-.137.56-.262.16-.12.247-.245.263-.376.027-.126-.02-.216-.14-.27-.126-.055-.294-.055-.503 0a1.398 1.398 0 0 0-.542.261zm-2.958-.115c-.011.12.046.207.172.261.121.05.278.05.47 0 .214-.043.401-.13.56-.261.16-.12.247-.249.264-.385.027-.125-.02-.213-.14-.262-.126-.055-.294-.055-.503 0-.203.05-.384.136-.544.262-.159.126-.252.254-.28.385zm.321-1.842c.187-.109.308-.223.363-.343.06-.12.035-.213-.075-.279-.11-.06-.275-.076-.494-.049a1.694 1.694 0 0 0-.602.213c-.192.11-.318.226-.378.352-.055.126-.028.219.082.279.11.065.272.081.486.049.22-.039.426-.112.618-.222zm5.109 3.577a.46.46 0 0 0-.025-.41.441.441 0 0 0-.33-.204.718.718 0 0 0-.75.49.462.462 0 0 0 .017.402.439.439 0 0 0 .346.213.608.608 0 0 0 .445-.123.707.707 0 0 0 .297-.368zm2.629-.238a.806.806 0 0 0-.487.082.897.897 0 0 0-.354.36.508.508 0 0 0-.057.4.386.386 0 0 0 .305.23.662.662 0 0 0 .462-.098.786.786 0 0 0 .378-.336c.083-.147.094-.284.034-.409-.04-.125-.133-.202-.281-.229zm2.538-.409a.723.723 0 0 0-.75.483.48.48 0 0 0 .016.41c.082.125.2.196.355.212a.686.686 0 0 0 .445-.114.767.767 0 0 0 .297-.376.445.445 0 0 0-.033-.41.414.414 0 0 0-.33-.205zm6.872-2.831c-.044-.088-.176-.15-.396-.189a3.003 3.003 0 0 0-.725.025c-.258.044-.464.11-.618.196-.154.099-.209.189-.165.27.045.088.18.145.404.172.214.027.45.021.709-.016.263-.039.472-.107.626-.205.154-.087.21-.172.165-.253zm-2.801-3.936c.209-.099.354-.207.436-.328.077-.114.07-.21-.024-.286-.1-.065-.258-.09-.478-.074a1.806 1.806 0 0 0-.635.172c-.214.098-.362.204-.444.319-.088.12-.082.215.016.286.094.066.253.09.478.074.22-.016.436-.07.65-.163zm1.416 2.512a3.003 3.003 0 0 0-.725.025 1.97 1.97 0 0 0-.618.188c-.16.104-.214.196-.165.278.044.082.176.14.396.172.22.027.459.022.717-.016a1.58 1.58 0 0 0 .618-.205c.16-.093.217-.177.173-.254-.044-.087-.176-.15-.396-.188zm.957-1.375c-.044-.088-.176-.15-.396-.189a3.003 3.003 0 0 0-.725.025c-.252.044-.456.11-.61.196-.159.093-.216.183-.172.27.044.082.175.142.395.18.22.027.459.022.717-.016.263-.044.47-.112.618-.205.159-.092.216-.179.173-.261zm-4.623-3.052c-.137-.039-.308-.028-.511.033-.187.07-.347.171-.478.303-.11.141-.165.273-.165.393.01.136.085.223.222.261.137.044.3.03.486-.04a1.07 1.07 0 0 0 .478-.304c.132-.136.19-.27.173-.4-.005-.121-.074-.203-.205-.246zm-2.86.024c.06-.12.036-.213-.074-.278-.11-.06-.275-.076-.494-.05-.22.039-.423.112-.61.221-.192.11-.316.224-.37.344-.056.126-.029.219.081.279.11.065.272.081.487.049a1.76 1.76 0 0 0 .618-.213c.186-.109.307-.226.362-.352z" fill="#ED9F7C"/>
    <g>
      <path d="M137.188 68.045c-.247.142-.503.279-.766.41-2.522 1.254-5.505 1.876-8.95 1.866-3.8-.006-7.056-.78-9.764-2.324-2.362-1.342-3.705-2.925-4.029-4.747a5.043 5.043 0 0 1-.074-.769v1.522c.022 2.172 1.39 4.03 4.103 5.573 2.709 1.544 5.963 2.318 9.765 2.324 3.444.01 6.427-.611 8.949-1.866.263-.131.519-.268.766-.41 2.675-1.527 4-3.376 3.972-5.548V62.686a5.363 5.363 0 0 1-.058.663c-.292 1.805-1.596 3.37-3.914 4.696z" fill="#C85629"/>
      <path d="M137.064 56.932c-2.714-1.544-5.972-2.321-9.773-2.332-3.807-.005-6.384.947-7.73 2.856-3.938 1.13-5.924 2.752-5.957 4.869v.155c.006.263.03.519.074.77.324 1.822 1.668 3.404 4.03 4.746 2.708 1.544 5.963 2.319 9.764 2.324 3.445.01 6.427-.61 8.95-1.866.263-.13.518-.268.765-.41 2.318-1.325 3.623-2.89 3.915-4.697.033-.218.052-.439.057-.663v-.098-.09c-.022-2.165-1.387-4.02-4.095-5.564zm-9.723-1.579c3.45.01 6.405.718 8.866 2.12 1.313.747 2.28 1.576 2.9 2.487.545.791.822 1.645.833 2.561.022 1.964-1.18 3.642-3.609 5.033-.225.13-.458.254-.7.368-2.291 1.14-4.999 1.708-8.125 1.703-3.45-.011-6.405-.718-8.867-2.12-2.461-1.402-3.705-3.085-3.732-5.05a2.95 2.95 0 0 1 .379-1.488c.703-1.255 2.384-2.259 5.043-3.012 1.219-1.751 3.556-2.618 7.011-2.602z" fill="#F26929"/>
      <path d="M136.207 57.472c-2.461-1.402-5.416-2.108-8.867-2.119-3.455-.016-5.792.85-7.012 2.602-2.659.753-4.34 1.757-5.043 3.012a2.95 2.95 0 0 0-.379 1.489c.028 1.964 1.272 3.647 3.733 5.049 2.46 1.402 5.416 2.108 8.866 2.12 3.126.005 5.834-.563 8.125-1.703.242-.114.475-.237.7-.368 2.429-1.391 3.632-3.069 3.61-5.033-.011-.917-.288-1.77-.833-2.561-.62-.911-1.587-1.74-2.9-2.488zm-8.735-1.219c2.88.032 5.384.655 7.515 1.866 2.127 1.21 3.2 2.668 3.222 4.37.022 1.434-.818 2.755-2.52 3.96-.204-.141-.407-.28-.61-.417-2.906-1.997-5.554-4.048-7.944-6.154-.346-.371-.736-.595-1.17-.671-.84-.099-1.497-.336-1.97-.712a1.8 1.8 0 0 1-.37-.36c-.32-1.282.964-1.909 3.847-1.882zm6.757 10.336c.247.12.492.243.734.368a17.126 17.126 0 0 1-7.507 1.678c-2.988-.006-5.546-.614-7.672-1.826-2.131-1.211-3.208-2.67-3.23-4.378-.016-1.494 1.009-2.209 3.074-2.144.543.028.975.123 1.293.287.407.207.648.523.725.949.143.333.602.589 1.377.769a73.19 73.19 0 0 1 11.206 4.297z" fill="#F6936F"/>
      <path d="M134.963 66.957a30.906 30.906 0 0 0-.734-.368 73.174 73.174 0 0 0-11.206-4.296c-.775-.18-1.234-.437-1.377-.77-.076-.425-.318-.742-.725-.949-.318-.164-.75-.259-1.293-.286-2.066-.065-3.09.65-3.074 2.144.022 1.707 1.1 3.167 3.23 4.378 2.126 1.21 4.684 1.82 7.672 1.825 2.626.01 5.128-.549 7.507-1.678zm-5.612-.41a.734.734 0 0 1 .462-.114.415.415 0 0 1 .33.205.449.449 0 0 1 .033.409.762.762 0 0 1-.297.376.685.685 0 0 1-.445.115.46.46 0 0 1-.355-.213.48.48 0 0 1-.016-.41.724.724 0 0 1 .288-.367zm-2.563.377a.801.801 0 0 1 .487-.082c.148.027.241.104.28.23.06.125.05.261-.033.409a.788.788 0 0 1-.38.335.665.665 0 0 1-.46.099.385.385 0 0 1-.306-.23.508.508 0 0 1 .058-.4.904.904 0 0 1 .354-.361zm-2.167-.253a.46.46 0 0 1 .025.409.715.715 0 0 1-.297.368.608.608 0 0 1-.444.123.438.438 0 0 1-.347-.213.462.462 0 0 1-.016-.4.717.717 0 0 1 .75-.491c.148.02.258.09.33.204zM119.9 63.16c-.055.12-.176.234-.363.343a1.89 1.89 0 0 1-.618.221c-.214.033-.376.016-.486-.049-.11-.06-.137-.153-.083-.278.06-.126.187-.243.38-.353.186-.109.387-.18.601-.213.22-.027.385-.01.494.05.11.066.135.159.075.279zm-.51 2.446c-.127-.054-.185-.141-.174-.261.028-.131.121-.26.28-.385.16-.125.341-.213.544-.262.21-.055.377-.055.503 0 .12.05.167.136.14.262-.016.136-.104.265-.264.385-.16.13-.346.218-.56.261-.193.05-.35.05-.47 0zm2.504.23c.028-.126.12-.251.28-.377.16-.125.341-.213.544-.261.21-.055.376-.055.503 0 .12.054.167.144.14.27-.016.13-.105.256-.264.376-.16.125-.346.213-.56.262-.192.049-.348.049-.47 0-.127-.054-.184-.144-.173-.27zm13.093-7.717c-2.131-1.211-4.636-1.833-7.515-1.866-2.884-.028-4.167.6-3.848 1.882.105.136.228.256.371.36.473.376 1.129.614 1.97.712.434.077.824.3 1.17.671 2.39 2.106 5.038 4.158 7.944 6.154.203.137.406.276.61.418 1.702-1.205 2.543-2.526 2.52-3.96-.021-1.703-1.095-3.16-3.222-4.371zm-6.287-.622c.11.065.135.158.075.278-.055.126-.176.243-.363.352-.192.11-.398.18-.618.213-.214.033-.376.017-.486-.049-.11-.06-.137-.153-.082-.278.055-.12.179-.235.37-.344.187-.11.391-.183.61-.22.22-.028.385-.012.494.048zm2.423.287c.203-.06.373-.071.51-.033.132.043.201.125.207.245.016.13-.041.265-.173.4-.12.137-.28.238-.478.304-.187.07-.349.084-.486.04-.137-.038-.212-.125-.223-.261 0-.12.055-.25.165-.393.132-.13.29-.232.478-.302zm4.738 2.831c.22.038.352.1.396.188.044.082-.014.17-.173.262-.148.093-.354.16-.618.205a2.638 2.638 0 0 1-.717.016c-.22-.039-.351-.099-.395-.18-.044-.087.014-.178.172-.27.155-.088.358-.153.61-.196.263-.039.505-.047.725-.025zm-1.286 1.588c.264-.039.506-.047.725-.025.22.038.352.1.396.188.044.077-.014.161-.173.254-.154.099-.36.166-.618.205a2.642 2.642 0 0 1-.717.016c-.22-.033-.352-.09-.396-.172-.05-.081.006-.174.165-.278.149-.082.355-.145.618-.188zm-.255-2.865c-.082.12-.228.23-.437.328a2.013 2.013 0 0 1-.65.164c-.226.016-.386-.009-.479-.074-.099-.071-.104-.166-.016-.286.082-.115.23-.221.445-.32a1.8 1.8 0 0 1 .634-.171c.22-.016.379.008.478.074.094.075.102.17.025.285zm1.97 4.075c.22.039.351.101.395.189.044.081-.01.166-.165.254-.154.098-.362.166-.626.204a2.584 2.584 0 0 1-.708.016c-.226-.027-.36-.084-.404-.171-.044-.082.01-.172.165-.27a1.91 1.91 0 0 1 .618-.196 3 3 0 0 1 .724-.026z" fill="#D75527"/>
      <path d="M122.174 65.46c-.16.125-.253.25-.28.376-.012.125.046.215.172.27.121.049.277.049.47 0 .214-.05.4-.137.56-.262.16-.12.247-.245.263-.376.027-.126-.02-.216-.14-.27-.126-.055-.294-.055-.503 0a1.398 1.398 0 0 0-.542.261zm-2.958-.115c-.011.12.046.207.172.261.121.05.278.05.47 0 .214-.043.401-.13.56-.261.16-.12.247-.249.264-.385.027-.125-.02-.213-.14-.262-.126-.055-.294-.055-.503 0-.203.05-.384.136-.544.262-.158.126-.252.254-.28.385zm.321-1.842c.187-.109.308-.223.363-.343.06-.12.035-.213-.075-.279-.11-.06-.275-.076-.494-.049a1.694 1.694 0 0 0-.602.213c-.192.11-.318.226-.379.352-.054.126-.027.219.083.279.11.065.272.081.486.049.22-.039.426-.112.618-.222zm5.109 3.577a.46.46 0 0 0-.025-.41.441.441 0 0 0-.33-.204.718.718 0 0 0-.75.49.462.462 0 0 0 .017.402.439.439 0 0 0 .346.213.608.608 0 0 0 .445-.123.707.707 0 0 0 .297-.368zm2.629-.238a.806.806 0 0 0-.487.082.897.897 0 0 0-.354.36.508.508 0 0 0-.057.4.386.386 0 0 0 .305.23.662.662 0 0 0 .462-.098.786.786 0 0 0 .378-.336c.083-.147.094-.284.034-.409-.04-.125-.133-.202-.281-.229zm2.538-.409a.723.723 0 0 0-.75.483.48.48 0 0 0 .016.41c.082.125.2.196.355.212a.686.686 0 0 0 .445-.114.767.767 0 0 0 .297-.376.445.445 0 0 0-.033-.41.414.414 0 0 0-.33-.205zm6.872-2.831c-.044-.088-.176-.15-.396-.189a3.003 3.003 0 0 0-.725.025c-.258.044-.464.11-.618.196-.154.099-.209.189-.165.27.045.088.18.145.404.172.214.027.45.021.709-.016.263-.039.472-.107.626-.205.154-.087.21-.172.165-.253zm-2.801-3.936c.209-.099.354-.207.436-.328.077-.114.07-.21-.024-.286-.1-.065-.258-.09-.478-.074a1.806 1.806 0 0 0-.635.172c-.214.098-.362.204-.444.319-.088.12-.082.215.016.286.094.066.253.09.478.074.22-.016.436-.07.65-.163zm1.416 2.512a3.003 3.003 0 0 0-.725.025 1.97 1.97 0 0 0-.618.188c-.16.104-.214.196-.165.278.044.082.176.14.396.172.22.027.459.022.717-.016a1.58 1.58 0 0 0 .618-.205c.16-.093.217-.177.173-.254-.044-.087-.176-.15-.396-.188zm.957-1.375c-.044-.088-.176-.15-.396-.189a3.003 3.003 0 0 0-.725.025c-.252.044-.456.11-.61.196-.159.093-.216.183-.172.27.044.082.175.142.395.18.22.027.459.022.717-.016.263-.044.47-.112.618-.205.159-.092.216-.179.173-.261zm-4.623-3.052c-.137-.039-.308-.028-.511.033-.187.07-.347.171-.478.303-.11.141-.165.273-.165.393.01.136.085.223.222.261.137.044.3.03.486-.04a1.07 1.07 0 0 0 .478-.304c.132-.136.19-.27.173-.4-.005-.121-.074-.203-.205-.246zm-2.86.024c.06-.12.036-.213-.074-.278-.11-.06-.275-.076-.494-.05-.22.039-.423.112-.61.221-.192.11-.316.224-.37.344-.056.126-.029.219.081.279.11.065.272.081.487.049a1.76 1.76 0 0 0 .618-.213c.186-.109.307-.226.362-.352z" fill="#ED9F7C"/>
    </g>
    <g>
      <path d="M171.188 50.045c-.247.142-.503.279-.766.41-2.522 1.254-5.505 1.876-8.95 1.866-3.8-.006-7.056-.78-9.764-2.324-2.362-1.342-3.705-2.925-4.029-4.747a5.043 5.043 0 0 1-.074-.769v1.522c.022 2.172 1.39 4.03 4.103 5.573 2.709 1.544 5.963 2.318 9.765 2.324 3.444.01 6.427-.611 8.949-1.866.263-.131.519-.268.766-.41 2.675-1.527 4-3.376 3.972-5.548V44.686a5.363 5.363 0 0 1-.058.663c-.292 1.805-1.596 3.37-3.914 4.696z" fill="#C85629"/>
      <path d="M171.064 38.932c-2.714-1.544-5.972-2.321-9.773-2.332-3.807-.005-6.384.947-7.73 2.856-3.938 1.13-5.924 2.752-5.957 4.869v.155c.006.263.03.519.074.77.324 1.822 1.668 3.404 4.03 4.746 2.708 1.544 5.963 2.319 9.764 2.324 3.445.01 6.427-.61 8.95-1.866.263-.13.518-.268.765-.41 2.318-1.325 3.623-2.89 3.915-4.697.033-.218.052-.439.057-.663v-.098-.09c-.022-2.165-1.387-4.02-4.095-5.564zm-9.723-1.579c3.45.01 6.405.718 8.866 2.12 1.313.747 2.28 1.576 2.9 2.487.545.791.822 1.645.833 2.561.022 1.964-1.18 3.642-3.609 5.033-.225.13-.458.254-.7.368-2.291 1.14-4.999 1.708-8.125 1.703-3.45-.011-6.405-.718-8.867-2.12-2.461-1.402-3.705-3.085-3.732-5.05a2.95 2.95 0 0 1 .379-1.488c.703-1.255 2.384-2.259 5.043-3.012 1.219-1.751 3.556-2.618 7.012-2.602z" fill="#F26929"/>
      <path d="M170.207 39.472c-2.461-1.402-5.416-2.108-8.867-2.119-3.455-.016-5.792.85-7.012 2.602-2.659.753-4.34 1.757-5.043 3.012a2.95 2.95 0 0 0-.379 1.489c.028 1.964 1.272 3.647 3.733 5.049 2.46 1.402 5.416 2.108 8.866 2.12 3.126.005 5.834-.563 8.125-1.703.242-.114.475-.237.7-.368 2.429-1.391 3.632-3.069 3.61-5.033-.011-.917-.288-1.77-.833-2.561-.62-.911-1.587-1.74-2.9-2.488zm-8.735-1.219c2.88.032 5.384.655 7.515 1.866 2.126 1.21 3.2 2.668 3.222 4.37.022 1.434-.818 2.755-2.52 3.96-.204-.141-.407-.28-.61-.417-2.906-1.997-5.554-4.048-7.944-6.154-.346-.371-.736-.595-1.17-.671-.84-.099-1.497-.336-1.97-.712a1.8 1.8 0 0 1-.37-.36c-.32-1.282.964-1.909 3.847-1.882zm6.757 10.336c.247.12.492.243.734.368a17.126 17.126 0 0 1-7.507 1.678c-2.988-.006-5.546-.614-7.672-1.826-2.131-1.211-3.208-2.67-3.23-4.378-.016-1.494 1.009-2.209 3.074-2.144.543.028.975.123 1.293.287.407.207.649.523.725.949.143.333.602.589 1.377.769a73.19 73.19 0 0 1 11.206 4.297z" fill="#F6936F"/>
      <path d="M168.963 48.957a30.906 30.906 0 0 0-.734-.368 73.174 73.174 0 0 0-11.206-4.296c-.775-.18-1.234-.437-1.377-.77-.076-.425-.318-.742-.725-.949-.318-.164-.75-.259-1.293-.286-2.066-.065-3.09.65-3.074 2.144.022 1.707 1.1 3.167 3.23 4.378 2.126 1.21 4.684 1.82 7.672 1.825 2.626.01 5.128-.549 7.507-1.678zm-5.612-.41a.734.734 0 0 1 .462-.114.415.415 0 0 1 .33.205.449.449 0 0 1 .033.409.762.762 0 0 1-.297.376.685.685 0 0 1-.445.115.46.46 0 0 1-.355-.213.48.48 0 0 1-.016-.41.724.724 0 0 1 .288-.367zm-2.563.377a.801.801 0 0 1 .487-.082c.148.027.241.104.28.23.06.125.05.261-.033.409a.788.788 0 0 1-.38.335.665.665 0 0 1-.46.099.385.385 0 0 1-.306-.23.508.508 0 0 1 .058-.4.904.904 0 0 1 .354-.361zm-2.167-.253a.46.46 0 0 1 .025.409.715.715 0 0 1-.297.368.608.608 0 0 1-.444.123.438.438 0 0 1-.347-.213.462.462 0 0 1-.016-.4.717.717 0 0 1 .75-.491c.148.02.258.09.33.204zM153.9 45.16c-.055.12-.176.234-.363.343a1.89 1.89 0 0 1-.618.221c-.214.033-.376.016-.486-.049-.11-.06-.137-.153-.083-.278.06-.126.187-.243.38-.353.186-.109.387-.18.601-.213.22-.027.385-.01.494.05.11.066.135.159.075.279zm-.51 2.446c-.127-.054-.185-.141-.174-.261.028-.131.121-.26.28-.385.16-.125.341-.213.544-.262.21-.055.377-.055.503 0 .12.05.167.136.14.262-.016.136-.104.265-.264.385-.16.13-.346.218-.56.261-.193.05-.35.05-.47 0zm2.504.23c.028-.126.12-.251.28-.377.16-.125.341-.213.544-.261.21-.055.376-.055.503 0 .12.054.167.144.14.27-.016.13-.105.256-.264.376-.16.125-.346.213-.56.262-.192.049-.348.049-.47 0-.127-.054-.184-.144-.173-.27zm13.093-7.717c-2.131-1.211-4.636-1.833-7.515-1.866-2.884-.028-4.167.6-3.848 1.882.105.136.228.256.371.36.473.376 1.129.614 1.97.712.434.077.824.3 1.17.671 2.39 2.106 5.038 4.158 7.944 6.154.203.137.406.276.61.418 1.702-1.205 2.543-2.526 2.52-3.96-.021-1.703-1.095-3.16-3.222-4.371zm-6.287-.622c.11.065.135.158.075.278-.055.126-.176.243-.363.352-.192.11-.398.18-.618.213-.214.033-.376.017-.486-.049-.11-.06-.137-.153-.082-.278.055-.12.179-.235.37-.344.187-.11.391-.183.61-.22.22-.028.385-.012.494.048zm2.423.287c.203-.06.373-.071.51-.033.132.043.201.125.207.245.016.13-.041.265-.173.4-.12.137-.28.238-.478.304-.187.07-.349.084-.486.04-.137-.038-.212-.125-.223-.261 0-.12.055-.25.165-.393.132-.13.29-.232.478-.302zm4.738 2.831c.22.038.352.1.396.188.044.082-.014.17-.173.262-.148.093-.354.16-.618.205a2.638 2.638 0 0 1-.717.016c-.22-.039-.351-.099-.395-.18-.044-.087.014-.178.172-.27.155-.088.358-.153.61-.196.263-.039.505-.047.725-.025zm-1.286 1.588c.264-.039.506-.047.725-.025.22.038.352.1.396.188.044.077-.014.161-.173.254-.154.099-.36.166-.618.205a2.642 2.642 0 0 1-.717.016c-.22-.033-.352-.09-.396-.172-.05-.081.006-.174.165-.278.149-.082.355-.145.618-.188zm-.255-2.865c-.082.12-.228.23-.437.328a2.013 2.013 0 0 1-.65.164c-.226.016-.386-.009-.479-.074-.099-.071-.104-.166-.016-.286.082-.115.23-.221.445-.32a1.8 1.8 0 0 1 .634-.171c.22-.016.379.008.478.074.094.075.102.17.025.285zm1.97 4.075c.22.039.351.101.395.189.044.081-.01.166-.165.254-.154.098-.362.166-.626.204a2.584 2.584 0 0 1-.708.016c-.226-.027-.36-.084-.404-.171-.044-.082.01-.172.165-.27a1.91 1.91 0 0 1 .618-.196 3 3 0 0 1 .724-.026z" fill="#D75527"/>
      <path d="M156.174 47.46c-.16.125-.253.25-.28.376-.012.125.046.215.172.27.121.049.277.049.47 0 .214-.05.4-.137.56-.262.16-.12.247-.245.263-.376.027-.126-.02-.216-.14-.27-.126-.055-.294-.055-.503 0a1.398 1.398 0 0 0-.542.261zm-2.958-.115c-.011.12.046.207.172.261.121.05.278.05.47 0 .214-.043.401-.13.56-.261.16-.12.247-.249.264-.385.027-.125-.02-.213-.14-.262-.126-.055-.294-.055-.503 0-.203.05-.384.136-.544.262-.159.126-.252.254-.28.385zm.321-1.842c.187-.109.308-.223.363-.343.06-.12.035-.213-.075-.279-.11-.06-.275-.076-.494-.049a1.694 1.694 0 0 0-.602.213c-.192.11-.318.226-.378.352-.055.126-.028.219.082.279.11.065.272.081.486.049.22-.039.426-.112.618-.222zm5.109 3.577a.46.46 0 0 0-.025-.41.441.441 0 0 0-.33-.204.718.718 0 0 0-.75.49.462.462 0 0 0 .017.402.439.439 0 0 0 .346.213.608.608 0 0 0 .445-.123.707.707 0 0 0 .297-.368zm2.629-.238a.806.806 0 0 0-.487.082.897.897 0 0 0-.354.36.508.508 0 0 0-.057.4.386.386 0 0 0 .305.23.662.662 0 0 0 .462-.098.786.786 0 0 0 .378-.336c.083-.147.094-.284.034-.409-.04-.125-.133-.202-.281-.229zm2.538-.409a.723.723 0 0 0-.75.483.48.48 0 0 0 .016.41c.082.125.2.196.355.212a.686.686 0 0 0 .445-.114.767.767 0 0 0 .297-.376.445.445 0 0 0-.033-.41.414.414 0 0 0-.33-.205zm6.872-2.831c-.044-.088-.176-.15-.396-.189a3.003 3.003 0 0 0-.725.025c-.258.044-.464.11-.618.196-.154.099-.209.189-.165.27.045.088.18.145.404.172.214.027.45.021.709-.016.263-.039.472-.107.626-.205.154-.087.21-.172.165-.253zm-2.801-3.936c.209-.099.354-.207.436-.328.077-.114.07-.21-.024-.286-.1-.065-.258-.09-.478-.074a1.806 1.806 0 0 0-.635.172c-.214.098-.362.204-.444.319-.088.12-.082.215.016.286.094.066.253.09.478.074.22-.016.436-.07.65-.163zm1.416 2.512a3.003 3.003 0 0 0-.725.025 1.97 1.97 0 0 0-.618.188c-.16.104-.214.196-.165.278.044.082.176.14.396.172.22.027.459.022.717-.016a1.58 1.58 0 0 0 .618-.205c.16-.093.217-.177.173-.254-.044-.087-.176-.15-.396-.188zm.957-1.375c-.044-.088-.176-.15-.396-.189a3.003 3.003 0 0 0-.725.025c-.252.044-.456.11-.61.196-.159.093-.216.183-.172.27.044.082.175.142.395.18.22.027.459.022.717-.016.263-.044.47-.112.618-.205.159-.092.216-.179.173-.261zm-4.623-3.052c-.137-.039-.308-.028-.511.033-.187.07-.347.171-.478.303-.11.141-.165.273-.165.393.01.136.085.223.222.261.137.044.3.03.486-.04a1.07 1.07 0 0 0 .478-.304c.132-.136.19-.27.173-.4-.005-.121-.074-.203-.205-.246zm-2.86.024c.06-.12.036-.213-.074-.278-.11-.06-.275-.076-.494-.05-.22.039-.423.112-.61.221-.192.11-.316.224-.37.344-.056.126-.029.219.081.279.11.065.272.081.487.049a1.76 1.76 0 0 0 .618-.213c.186-.109.307-.226.362-.352z" fill="#ED9F7C"/>
    </g>
    <g>
      <path d="M97.188 50.045c-.247.142-.503.279-.766.41-2.522 1.254-5.505 1.876-8.95 1.866-3.8-.006-7.056-.78-9.764-2.324-2.362-1.342-3.705-2.925-4.029-4.747a5.043 5.043 0 0 1-.074-.769v1.522c.022 2.172 1.39 4.03 4.103 5.573 2.709 1.544 5.963 2.318 9.765 2.324 3.444.01 6.427-.611 8.949-1.866.263-.131.519-.268.766-.41 2.675-1.527 4-3.376 3.972-5.548V44.686a5.363 5.363 0 0 1-.058.663c-.292 1.805-1.596 3.37-3.914 4.696z" fill="#C85629"/>
      <path d="M97.064 38.932c-2.714-1.544-5.972-2.321-9.773-2.332-3.807-.005-6.384.947-7.73 2.856-3.938 1.13-5.924 2.752-5.957 4.869v.155c.006.263.03.519.074.77.324 1.822 1.668 3.404 4.03 4.746 2.708 1.544 5.963 2.319 9.764 2.324 3.445.01 6.427-.61 8.95-1.866.263-.13.518-.268.765-.41 2.318-1.325 3.623-2.89 3.915-4.697.033-.218.052-.439.057-.663v-.098-.09c-.022-2.165-1.387-4.02-4.095-5.564zm-9.723-1.579c3.45.01 6.405.718 8.866 2.12 1.313.747 2.28 1.576 2.9 2.487.545.791.822 1.645.833 2.561.022 1.964-1.18 3.642-3.609 5.033-.225.13-.458.254-.7.368-2.291 1.14-4.999 1.708-8.125 1.703-3.45-.011-6.405-.718-8.867-2.12-2.461-1.402-3.705-3.085-3.732-5.05a2.95 2.95 0 0 1 .379-1.488c.703-1.255 2.384-2.259 5.043-3.012 1.219-1.751 3.556-2.618 7.011-2.602z" fill="#F26929"/>
      <path d="M96.207 39.472c-2.461-1.402-5.416-2.108-8.866-2.119-3.456-.016-5.793.85-7.013 2.602-2.659.753-4.34 1.757-5.043 3.012a2.95 2.95 0 0 0-.379 1.489c.028 1.964 1.272 3.647 3.733 5.049 2.46 1.402 5.416 2.108 8.866 2.12 3.126.005 5.834-.563 8.125-1.703.242-.114.475-.237.7-.368 2.429-1.391 3.632-3.069 3.61-5.033-.011-.917-.288-1.77-.833-2.561-.62-.911-1.587-1.74-2.9-2.488zm-8.735-1.219c2.88.032 5.384.655 7.515 1.866 2.127 1.21 3.2 2.668 3.222 4.37.022 1.434-.818 2.755-2.52 3.96-.204-.141-.407-.28-.61-.417-2.906-1.997-5.554-4.048-7.944-6.154-.346-.371-.736-.595-1.17-.671-.84-.099-1.497-.336-1.97-.712a1.8 1.8 0 0 1-.37-.36c-.32-1.282.964-1.909 3.847-1.882zm6.757 10.336c.247.12.492.243.734.368a17.126 17.126 0 0 1-7.507 1.678c-2.988-.006-5.546-.614-7.672-1.826-2.131-1.211-3.208-2.67-3.23-4.378-.016-1.494 1.009-2.209 3.074-2.144.543.028.975.123 1.293.287.407.207.648.523.725.949.143.333.602.589 1.377.769a73.19 73.19 0 0 1 11.206 4.297z" fill="#F6936F"/>
      <path d="M94.963 48.957a30.906 30.906 0 0 0-.734-.368 73.174 73.174 0 0 0-11.206-4.296c-.775-.18-1.234-.437-1.377-.77-.077-.425-.318-.742-.725-.949-.318-.164-.75-.259-1.293-.286-2.066-.065-3.09.65-3.074 2.144.022 1.707 1.1 3.167 3.23 4.378 2.126 1.21 4.684 1.82 7.672 1.825 2.626.01 5.128-.549 7.507-1.678zm-5.612-.41a.734.734 0 0 1 .462-.114.415.415 0 0 1 .33.205.449.449 0 0 1 .033.409.762.762 0 0 1-.297.376.685.685 0 0 1-.445.115.46.46 0 0 1-.355-.213.48.48 0 0 1-.016-.41.724.724 0 0 1 .288-.367zm-2.563.377a.801.801 0 0 1 .487-.082c.148.027.241.104.28.23.06.125.05.261-.033.409a.788.788 0 0 1-.38.335.665.665 0 0 1-.46.099.385.385 0 0 1-.306-.23.508.508 0 0 1 .058-.4.904.904 0 0 1 .354-.361zm-2.167-.253a.46.46 0 0 1 .025.409.715.715 0 0 1-.297.368.608.608 0 0 1-.444.123.438.438 0 0 1-.347-.213.462.462 0 0 1-.016-.4.717.717 0 0 1 .75-.491c.148.02.258.09.33.204zM79.9 45.16c-.055.12-.176.234-.363.343a1.89 1.89 0 0 1-.618.221c-.214.033-.376.016-.486-.049-.11-.06-.137-.153-.083-.278.06-.126.187-.243.38-.353.186-.109.387-.18.601-.213.22-.027.385-.01.494.05.11.066.135.159.075.279zm-.51 2.446c-.127-.054-.185-.141-.174-.261.028-.131.121-.26.28-.385.16-.125.341-.213.544-.262.21-.055.377-.055.503 0 .12.05.167.136.14.262-.016.136-.104.265-.264.385-.16.13-.346.218-.56.261-.193.05-.35.05-.47 0zm2.504.23c.028-.126.12-.251.28-.377.16-.125.341-.213.544-.261.21-.055.376-.055.503 0 .12.054.167.144.14.27-.016.13-.105.256-.264.376-.16.125-.346.213-.56.262-.192.049-.348.049-.47 0-.127-.054-.184-.144-.173-.27zm13.093-7.717c-2.131-1.211-4.636-1.833-7.515-1.866-2.884-.028-4.167.6-3.848 1.882.105.136.228.256.371.36.473.376 1.129.614 1.97.712.434.077.824.3 1.17.671 2.39 2.106 5.038 4.158 7.944 6.154.203.137.406.276.61.418 1.702-1.205 2.543-2.526 2.52-3.96-.021-1.703-1.096-3.16-3.222-4.371zm-6.287-.622c.11.065.135.158.075.278-.055.126-.176.243-.363.352-.192.11-.398.18-.618.213-.214.033-.376.017-.486-.049-.11-.06-.137-.153-.082-.278.055-.12.179-.235.37-.344.187-.11.391-.183.61-.22.22-.028.385-.012.494.048zm2.423.287c.203-.06.373-.071.51-.033.132.043.201.125.207.245.016.13-.041.265-.173.4-.12.137-.28.238-.478.304-.187.07-.349.084-.486.04-.137-.038-.212-.125-.223-.261 0-.12.055-.25.165-.393.132-.13.29-.232.478-.302zm4.738 2.831c.22.038.352.1.396.188.044.082-.014.17-.173.262-.148.093-.354.16-.618.205a2.638 2.638 0 0 1-.717.016c-.22-.039-.351-.099-.395-.18-.044-.087.014-.178.172-.27.155-.088.358-.153.61-.196.263-.039.505-.047.725-.025zm-1.286 1.588c.264-.039.506-.047.725-.025.22.038.352.1.396.188.044.077-.014.161-.173.254-.154.099-.36.166-.618.205a2.642 2.642 0 0 1-.717.016c-.22-.033-.352-.09-.396-.172-.05-.081.006-.174.165-.278.149-.082.355-.145.618-.188zm-.255-2.865c-.082.12-.228.23-.437.328a2.013 2.013 0 0 1-.65.164c-.226.016-.386-.009-.479-.074-.099-.071-.104-.166-.016-.286.082-.115.23-.221.445-.32a1.8 1.8 0 0 1 .634-.171c.22-.016.379.008.478.074.094.075.102.17.025.285zm1.97 4.075c.22.039.351.101.395.189.044.081-.01.166-.165.254-.154.098-.362.166-.626.204a2.584 2.584 0 0 1-.708.016c-.226-.027-.36-.084-.404-.171-.044-.082.01-.172.165-.27a1.91 1.91 0 0 1 .618-.196 3 3 0 0 1 .724-.026z" fill="#D75527"/>
      <path d="M82.174 47.46c-.16.125-.253.25-.28.376-.012.125.046.215.172.27.121.049.277.049.47 0 .214-.05.4-.137.56-.262.16-.12.247-.245.263-.376.027-.126-.02-.216-.14-.27-.126-.055-.294-.055-.503 0a1.398 1.398 0 0 0-.542.261zm-2.958-.115c-.011.12.046.207.172.261.121.05.278.05.47 0 .214-.043.401-.13.56-.261.16-.12.247-.249.264-.385.027-.125-.02-.213-.14-.262-.126-.055-.294-.055-.503 0-.203.05-.384.136-.544.262-.158.126-.252.254-.28.385zm.321-1.842c.187-.109.308-.223.363-.343.06-.12.035-.213-.075-.279-.11-.06-.275-.076-.494-.049a1.694 1.694 0 0 0-.602.213c-.192.11-.318.226-.379.352-.054.126-.027.219.083.279.11.065.272.081.486.049.22-.039.426-.112.618-.222zm5.109 3.577a.46.46 0 0 0-.025-.41.441.441 0 0 0-.33-.204.718.718 0 0 0-.75.49.462.462 0 0 0 .017.402.439.439 0 0 0 .346.213.608.608 0 0 0 .445-.123.707.707 0 0 0 .297-.368zm2.629-.238a.806.806 0 0 0-.487.082.897.897 0 0 0-.354.36.508.508 0 0 0-.057.4.386.386 0 0 0 .305.23.662.662 0 0 0 .462-.098.786.786 0 0 0 .378-.336c.083-.147.094-.284.034-.409-.04-.125-.133-.202-.281-.229zm2.538-.409a.723.723 0 0 0-.75.483.48.48 0 0 0 .016.41c.082.125.2.196.355.212a.686.686 0 0 0 .445-.114.767.767 0 0 0 .297-.376.445.445 0 0 0-.033-.41.414.414 0 0 0-.33-.205zm6.872-2.831c-.044-.088-.176-.15-.396-.189a3.003 3.003 0 0 0-.725.025c-.258.044-.464.11-.618.196-.154.099-.209.189-.165.27.045.088.18.145.404.172.214.027.45.021.709-.016.263-.039.472-.107.626-.205.154-.087.21-.172.165-.253zm-2.801-3.936c.209-.099.354-.207.436-.328.077-.114.07-.21-.024-.286-.1-.065-.258-.09-.478-.074a1.806 1.806 0 0 0-.635.172c-.214.098-.362.204-.444.319-.088.12-.082.215.016.286.094.066.253.09.478.074.22-.016.436-.07.65-.163zm1.416 2.512a3.003 3.003 0 0 0-.725.025 1.97 1.97 0 0 0-.618.188c-.16.104-.214.196-.165.278.045.082.176.14.396.172.22.027.459.022.717-.016a1.58 1.58 0 0 0 .618-.205c.16-.093.217-.177.173-.254-.044-.087-.176-.15-.396-.188zm.957-1.375c-.044-.088-.176-.15-.396-.189a3.003 3.003 0 0 0-.725.025c-.252.044-.456.11-.61.196-.159.093-.216.183-.172.27.044.082.175.142.395.18.22.027.459.022.717-.016.263-.044.47-.112.618-.205.159-.092.216-.179.173-.261zm-4.623-3.052c-.137-.039-.308-.028-.511.033-.187.07-.347.171-.478.303-.11.141-.165.273-.165.393.01.136.085.223.222.261.137.044.3.03.486-.04a1.07 1.07 0 0 0 .478-.304c.132-.136.19-.27.173-.4-.005-.121-.074-.203-.205-.246zm-2.86.024c.06-.12.036-.213-.074-.278-.11-.06-.275-.076-.494-.05-.22.039-.423.112-.61.221-.192.11-.316.224-.37.344-.056.126-.029.219.081.279.11.065.272.081.487.049a1.76 1.76 0 0 0 .618-.213c.186-.109.307-.226.362-.352z" fill="#ED9F7C"/>
    </g>
    <g>
      <path d="M137.188 42.045c-.247.142-.503.279-.766.41-2.522 1.254-5.505 1.876-8.95 1.866-3.8-.006-7.056-.78-9.764-2.324-2.362-1.342-3.705-2.925-4.029-4.747a5.043 5.043 0 0 1-.074-.769v1.522c.022 2.172 1.39 4.03 4.103 5.573 2.709 1.544 5.963 2.318 9.765 2.324 3.444.01 6.427-.611 8.949-1.866.263-.131.519-.268.766-.41 2.675-1.527 4-3.376 3.972-5.548V36.686a5.363 5.363 0 0 1-.058.663c-.292 1.805-1.596 3.37-3.914 4.696z" fill="#C85629"/>
      <path d="M137.064 30.932c-2.714-1.544-5.972-2.321-9.773-2.332-3.807-.005-6.384.947-7.73 2.856-3.938 1.13-5.924 2.752-5.957 4.869v.155c.006.263.03.519.074.77.324 1.822 1.668 3.404 4.03 4.746 2.708 1.544 5.963 2.319 9.764 2.324 3.445.01 6.427-.61 8.95-1.866.263-.13.518-.268.765-.41 2.318-1.325 3.623-2.89 3.915-4.697.033-.218.052-.439.057-.663v-.098-.09c-.022-2.165-1.387-4.02-4.095-5.564zm-9.723-1.579c3.45.01 6.405.718 8.866 2.12 1.313.747 2.28 1.576 2.9 2.487.545.791.822 1.645.833 2.561.022 1.964-1.18 3.642-3.609 5.033-.225.13-.458.254-.7.368-2.291 1.14-4.999 1.708-8.125 1.703-3.45-.011-6.405-.718-8.867-2.12-2.461-1.402-3.705-3.085-3.732-5.05a2.95 2.95 0 0 1 .379-1.488c.703-1.255 2.384-2.259 5.043-3.012 1.219-1.751 3.556-2.618 7.011-2.602z" fill="#F26929"/>
      <path d="M136.207 31.472c-2.461-1.402-5.416-2.108-8.867-2.119-3.455-.016-5.792.85-7.012 2.602-2.659.753-4.34 1.757-5.043 3.012a2.95 2.95 0 0 0-.379 1.489c.028 1.964 1.272 3.647 3.733 5.049 2.46 1.402 5.416 2.108 8.866 2.12 3.126.005 5.834-.563 8.125-1.703.242-.114.475-.237.7-.368 2.429-1.391 3.632-3.069 3.61-5.033-.011-.917-.288-1.77-.833-2.561-.62-.911-1.587-1.74-2.9-2.488zm-8.735-1.219c2.88.032 5.384.655 7.515 1.866 2.127 1.21 3.2 2.668 3.222 4.37.022 1.434-.818 2.755-2.52 3.96-.204-.141-.407-.28-.61-.417-2.906-1.997-5.554-4.048-7.944-6.154-.346-.371-.736-.595-1.17-.671-.84-.099-1.497-.336-1.97-.712a1.8 1.8 0 0 1-.37-.36c-.32-1.282.964-1.909 3.847-1.882zm6.757 10.336c.247.12.492.243.734.368a17.126 17.126 0 0 1-7.507 1.678c-2.988-.006-5.546-.614-7.672-1.826-2.131-1.211-3.208-2.67-3.23-4.378-.016-1.494 1.009-2.209 3.074-2.144.543.028.975.123 1.293.287.407.207.648.523.725.949.143.333.602.589 1.377.769a73.19 73.19 0 0 1 11.206 4.297z" fill="#F6936F"/>
      <path d="M134.963 40.957a30.906 30.906 0 0 0-.734-.368 73.174 73.174 0 0 0-11.206-4.296c-.775-.18-1.234-.437-1.377-.77-.076-.425-.318-.742-.725-.949-.318-.164-.75-.259-1.293-.286-2.066-.065-3.09.65-3.074 2.144.022 1.707 1.1 3.167 3.23 4.378 2.126 1.21 4.684 1.82 7.672 1.825 2.626.01 5.128-.549 7.507-1.678zm-5.612-.41a.734.734 0 0 1 .462-.114.415.415 0 0 1 .33.205.449.449 0 0 1 .033.409.762.762 0 0 1-.297.376.685.685 0 0 1-.445.115.46.46 0 0 1-.355-.213.48.48 0 0 1-.016-.41.724.724 0 0 1 .288-.367zm-2.563.377a.801.801 0 0 1 .487-.082c.148.027.241.104.28.23.06.125.05.261-.033.409a.788.788 0 0 1-.38.335.665.665 0 0 1-.46.099.385.385 0 0 1-.306-.23.508.508 0 0 1 .058-.4.904.904 0 0 1 .354-.361zm-2.167-.253a.46.46 0 0 1 .025.409.715.715 0 0 1-.297.368.608.608 0 0 1-.444.123.438.438 0 0 1-.347-.213.462.462 0 0 1-.016-.4.717.717 0 0 1 .75-.491c.148.02.258.09.33.204zM119.9 37.16c-.055.12-.176.234-.363.343a1.89 1.89 0 0 1-.618.221c-.214.033-.376.016-.486-.049-.11-.06-.137-.153-.083-.278.06-.126.187-.243.38-.353.186-.109.387-.18.601-.213.22-.027.385-.01.494.05.11.066.135.159.075.279zm-.51 2.446c-.127-.054-.185-.141-.174-.261.028-.131.121-.26.28-.385.16-.125.341-.213.544-.262.21-.055.377-.055.503 0 .12.05.167.136.14.262-.016.136-.104.265-.264.385-.16.13-.346.218-.56.261-.193.05-.35.05-.47 0zm2.504.23c.028-.126.12-.251.28-.377.16-.125.341-.213.544-.261.21-.055.376-.055.503 0 .12.054.167.144.14.27-.016.13-.105.256-.264.376-.16.125-.346.213-.56.262-.192.049-.348.049-.47 0-.127-.054-.184-.144-.173-.27zm13.093-7.717c-2.131-1.211-4.636-1.833-7.515-1.866-2.884-.028-4.167.6-3.848 1.882.105.136.228.256.371.36.473.376 1.129.614 1.97.712.434.077.824.3 1.17.671 2.39 2.106 5.038 4.158 7.944 6.154.203.137.406.276.61.418 1.702-1.205 2.543-2.526 2.52-3.96-.021-1.703-1.095-3.16-3.222-4.371zm-6.287-.622c.11.065.135.158.075.278-.055.126-.176.243-.363.352-.192.11-.398.18-.618.213-.214.033-.376.017-.486-.049-.11-.06-.137-.153-.082-.278.055-.12.179-.235.37-.344.187-.11.391-.183.61-.22.22-.028.385-.012.494.048zm2.423.287c.203-.06.373-.071.51-.033.132.043.201.125.207.245.016.13-.041.265-.173.4-.12.137-.28.238-.478.304-.187.07-.349.084-.486.04-.137-.038-.212-.125-.223-.261 0-.12.055-.25.165-.393.132-.13.29-.232.478-.302zm4.738 2.831c.22.038.352.1.396.188.044.082-.014.17-.173.262-.148.093-.354.16-.618.205a2.638 2.638 0 0 1-.717.016c-.22-.039-.351-.099-.395-.18-.044-.087.014-.178.172-.27.155-.088.358-.153.61-.196.263-.039.505-.047.725-.025zm-1.286 1.588c.264-.039.506-.047.725-.025.22.038.352.1.396.188.044.077-.014.161-.173.254-.154.099-.36.166-.618.205a2.642 2.642 0 0 1-.717.016c-.22-.033-.352-.09-.396-.172-.05-.081.006-.174.165-.278.149-.082.355-.145.618-.188zm-.255-2.865c-.082.12-.228.23-.437.328a2.013 2.013 0 0 1-.65.164c-.226.016-.386-.009-.479-.074-.099-.071-.104-.166-.016-.286.082-.115.23-.221.445-.32a1.8 1.8 0 0 1 .634-.171c.22-.016.379.008.478.074.094.075.102.17.025.285zm1.97 4.075c.22.039.351.101.395.189.044.081-.01.166-.165.254-.154.098-.362.166-.626.204a2.584 2.584 0 0 1-.708.016c-.226-.027-.36-.084-.404-.171-.044-.082.01-.172.165-.27a1.91 1.91 0 0 1 .618-.196 3 3 0 0 1 .724-.026z" fill="#D75527"/>
      <path d="M122.174 39.46c-.16.125-.253.25-.28.376-.012.125.046.215.172.27.121.049.277.049.47 0 .214-.05.4-.137.56-.262.16-.12.247-.245.263-.376.027-.126-.02-.216-.14-.27-.126-.055-.294-.055-.503 0a1.398 1.398 0 0 0-.542.261zm-2.958-.115c-.011.12.046.207.172.261.121.05.278.05.47 0 .214-.043.401-.13.56-.261.16-.12.247-.249.264-.385.027-.125-.02-.213-.14-.262-.126-.055-.294-.055-.503 0-.203.05-.384.136-.544.262-.158.126-.252.254-.28.385zm.321-1.842c.187-.109.308-.223.363-.343.06-.12.035-.213-.075-.279-.11-.06-.275-.076-.494-.049a1.694 1.694 0 0 0-.602.213c-.192.11-.318.226-.379.352-.054.126-.027.219.083.279.11.065.272.081.486.049.22-.039.426-.112.618-.222zm5.109 3.577a.46.46 0 0 0-.025-.41.441.441 0 0 0-.33-.204.718.718 0 0 0-.75.49.462.462 0 0 0 .017.402.439.439 0 0 0 .346.213.608.608 0 0 0 .445-.123.707.707 0 0 0 .297-.368zm2.629-.238a.806.806 0 0 0-.487.082.897.897 0 0 0-.354.36.508.508 0 0 0-.057.4.386.386 0 0 0 .305.23.662.662 0 0 0 .462-.098.786.786 0 0 0 .378-.336c.083-.147.094-.284.034-.409-.04-.125-.133-.202-.281-.229zm2.538-.409a.723.723 0 0 0-.75.483.48.48 0 0 0 .016.41c.082.125.2.196.355.212a.686.686 0 0 0 .445-.114.767.767 0 0 0 .297-.376.445.445 0 0 0-.033-.41.414.414 0 0 0-.33-.205zm6.872-2.831c-.044-.088-.176-.15-.396-.189a3.003 3.003 0 0 0-.725.025c-.258.044-.464.11-.618.196-.154.099-.209.189-.165.27.045.088.18.145.404.172.214.027.45.021.709-.016.263-.039.472-.107.626-.205.154-.087.21-.172.165-.253zm-2.801-3.936c.209-.099.354-.207.436-.328.077-.114.07-.21-.024-.286-.1-.065-.258-.09-.478-.074a1.806 1.806 0 0 0-.635.172c-.214.098-.362.204-.444.319-.088.12-.082.215.016.286.094.066.253.09.478.074.22-.016.436-.07.65-.163zm1.416 2.512a3.003 3.003 0 0 0-.725.025 1.97 1.97 0 0 0-.618.188c-.16.104-.214.196-.165.278.044.082.176.14.396.172.22.027.459.022.717-.016a1.58 1.58 0 0 0 .618-.205c.16-.093.217-.177.173-.254-.044-.087-.176-.15-.396-.188zm.957-1.375c-.044-.088-.176-.15-.396-.189a3.003 3.003 0 0 0-.725.025c-.252.044-.456.11-.61.196-.159.093-.216.183-.172.27.044.082.175.142.395.18.22.027.459.022.717-.016.263-.044.47-.112.618-.205.159-.092.216-.179.173-.261zm-4.623-3.052c-.137-.039-.308-.028-.511.033-.187.07-.347.171-.478.303-.11.141-.165.273-.165.393.01.136.085.223.222.261.137.044.3.03.486-.04a1.07 1.07 0 0 0 .478-.304c.132-.136.19-.27.173-.4-.005-.121-.074-.203-.205-.246zm-2.86.024c.06-.12.036-.213-.074-.278-.11-.06-.275-.076-.494-.05-.22.039-.423.112-.61.221-.192.11-.316.224-.37.344-.056.126-.029.219.081.279.11.065.272.081.487.049a1.76 1.76 0 0 0 .618-.213c.186-.109.307-.226.362-.352z" fill="#ED9F7C"/>
    </g>
  </g>
</svg>
