<svg xmlns="http://www.w3.org/2000/svg" viewBox="0 0 35.393 20.568">
  <path d="M10.639 16.312h-.014v1.2l2.319 1.296v-1.187l-2.305-1.309z" fill="#caa28a"/>
  <path d="M26.023 10.857c-1.055.646-2.269 2.014-3.642 4.105-1.328 2.028-2.441 3.287-3.341 3.778-.627.345-1.609.577-2.946.696l-3.137-1.8h-.014v1.173l3.151 1.759c1.764-.1 3.019-.35 3.764-.75.9-.491 2.019-1.75 3.355-3.778 1.364-2.091 2.578-3.46 3.642-4.105 1.091-.664 2.873-1.05 5.346-1.159 1.327-.045 2.25-.104 2.769-.177.127-.018.25-.036.368-.055V9.289c-.364.1-.764.177-1.2.232-.509.073-1.428.132-2.755.177-2.472.109-4.259.495-5.36 1.159z" fill="#b66f46"/>
  <path d="M22.382 14.962c1.373-2.091 2.587-3.46 3.642-4.105 1.1-.664 2.887-1.05 5.36-1.159 1.327-.046 2.246-.105 2.755-.177a8.606 8.606 0 0 0 1.2-.232.128.128 0 0 0 .055-.014l-3.11-1.814c-.4.118-.841.209-1.323.273-.509.064-1.428.123-2.755.177-2.473.1-4.26.482-5.36 1.146-1.055.655-2.269 2.023-3.642 4.105-1.327 2.037-2.441 3.296-3.341 3.778-.618.336-1.587.568-2.905.696l3.137 1.8c1.337-.118 2.319-.35 2.946-.696.9-.491 2.013-1.75 3.341-3.778z" fill="#c68660"/>
  <path d="M30.061 6.151c-.382.109-.8.191-1.255.245-.509.064-1.427.123-2.755.177-2.473.1-4.26.486-5.36 1.159-1.055.646-2.269 2.009-3.642 4.092-1.327 2.037-2.441 3.301-3.342 3.792-.637.346-1.659.577-3.069.696l2.305 1.309.014.014c1.318-.127 2.287-.359 2.905-.696.9-.482 2.014-1.741 3.341-3.778 1.373-2.082 2.587-3.451 3.642-4.105 1.1-.664 2.887-1.046 5.36-1.146 1.328-.055 2.246-.114 2.755-.177a8.758 8.758 0 0 0 1.323-.273l-2.222-1.309z" fill="#f9e2d6"/>
  <path d="M28.806 6.397a8.138 8.138 0 0 0 1.255-.245L26.31 3.956a8.3 8.3 0 0 1-1.391.286c-.518.064-1.441.123-2.769.177-2.473.1-4.255.486-5.346 1.159-1.064.646-2.278 2.01-3.642 4.092-1.337 2.037-2.455 3.301-3.355 3.792-.618.337-1.6.564-2.946.682l3.764 2.169h.014c1.409-.118 2.432-.35 3.069-.696.9-.491 2.014-1.755 3.342-3.792 1.373-2.082 2.587-3.446 3.642-4.092 1.1-.673 2.887-1.059 5.36-1.159 1.326-.055 2.245-.114 2.754-.177z" fill="#bf9073"/>
  <path d="M6.861 14.144v1.255l3.764 2.114v-1.2l-3.764-2.169z" fill="#af8266"/>
  <path d="M4.242 13.939l2.619 1.459v-1.255l-2.619-1.487v1.283z" fill="#d2b6a5"/>
  <path d="M4.242 12.657h-.014L0 10.442v1.342l4.242 2.155v-1.282z" fill="#b17f5f"/>
  <path d="M7.556 11.92c-.673.364-1.778.609-3.314.736l2.619 1.487c1.346-.118 2.328-.346 2.946-.682.9-.491 2.019-1.755 3.355-3.792 1.364-2.082 2.578-3.446 3.642-4.092 1.091-.673 2.873-1.059 5.346-1.159 1.328-.055 2.25-.114 2.769-.177a8.4 8.4 0 0 0 1.391-.286L23.8 2.482a9.768 9.768 0 0 1-1.146.218c-.509.073-1.428.132-2.755.177-2.482.109-4.269.495-5.36 1.159-1.055.646-2.269 2.014-3.642 4.105C9.57 10.17 8.456 11.43 7.556 11.92z" fill="#eeccb6"/>
  <path d="M4.242 12.657c1.537-.127 2.641-.373 3.314-.736.9-.491 2.014-1.75 3.342-3.778 1.373-2.091 2.587-3.46 3.642-4.105 1.091-.664 2.878-1.05 5.36-1.159 1.328-.046 2.246-.105 2.755-.177a9.979 9.979 0 0 0 1.146-.218L19.573.002a7.664 7.664 0 0 1-1.228.245c-.509.064-1.428.123-2.755.177-2.473.1-4.26.482-5.36 1.146-1.055.655-2.269 2.023-3.642 4.105C5.26 7.712 4.147 8.971 3.246 9.453a7.63 7.63 0 0 1-3.246.99l4.228 2.215h.014z" fill="#c48863"/>
</svg>
