<svg xmlns="http://www.w3.org/2000/svg" viewBox="0 0 30.169 20.169">
  <path d="M3.423 17.294h.014v.873h-.014a.462.462 0 0 1-.205.041.546.546 0 0 1-.177-.055.183.183 0 0 1-.041-.109v-.068l.014-.75c0 .018.009.036.027.055a.619.619 0 0 0 .177.055.47.47 0 0 0 .205-.042z" fill="#74b568"/>
  <path d="M.014 14.88L0 14.294c.009.109.023.218.041.327.191 1.146 1.196 1.978 3.014 2.496a.09.09 0 0 0-.041.041v.068l-.014.75C.918 17.367-.077 16.335.014 14.88m20.431 2.251c-2.937 1.646-6.169 2.632-9.697 2.96-3.464.318-5.901-.323-7.311-1.923v-.873c1.409 1.6 3.846 2.241 7.311 1.923 3.528-.327 6.76-1.314 9.697-2.96 2.937-1.646 5.197-3.478 6.779-5.496 1.5-1.91 2.455-5.197 2.864-9.861.036-.3.064-.6.082-.9V2.17c-.436 4.365-1.418 7.52-2.946 9.466-1.583 2.017-3.842 3.849-6.779 5.495z" fill="#4d7637"/>
  <path d="M18.304 4.651c.018-.027.023-.05.014-.068-.009-.027-.036-.046-.082-.055-.018-.009-.046-.005-.082.014a.538.538 0 0 0-.109.041c-1.237 1.364-.682 2.591 1.664 3.682a80.58 80.58 0 0 1-7.406 4.433c-.991-.8-1.396-2.087-1.214-3.86 0-.027-.014-.05-.041-.068a.17.17 0 0 0-.095 0 .114.114 0 0 0-.096.014c-.027.009-.045.032-.055.068-.182 1.818.25 3.141 1.296 3.969a95.254 95.254 0 0 1-5.851 2.878c-1.364-.982-1.718-2.669-1.064-5.06.018-.027.014-.046-.014-.055a.224.224 0 0 0-.123-.027.089.089 0 0 0-.082.014.147.147 0 0 0-.054.055c-.682 2.446-.314 4.169 1.105 5.169-.937.427-1.896.85-2.878 1.268a.298.298 0 0 0-.082.055C1.236 16.6.232 15.768.041 14.622A4.056 4.056 0 0 1 0 14.295a.06.06 0 0 0 0-.055v-.055a3.97 3.97 0 0 1 .177-1.023c.618-2 2.4-3.833 5.346-5.496 2.946-1.673 6.36-2.978 10.243-3.914 3.892-.946 8.693-2.196 14.403-3.751-.018.3-.046.6-.082.9-.409 4.665-1.364 7.952-2.864 9.861-1.582 2.018-3.842 3.851-6.779 5.496-2.937 1.646-6.169 2.632-9.697 2.96-3.464.318-5.901-.323-7.311-1.923h.027c1-.418 1.969-.841 2.905-1.268 1.846 1.037 5.51 1.05 10.993.041.046-.009.073-.023.082-.041a.093.093 0 0 0 .027-.068c0-.018-.023-.032-.068-.041-.018-.009-.05-.009-.096 0-5.328.973-8.897.973-10.707 0a86.92 86.92 0 0 0 5.837-2.878c1.391.818 4.192.927 8.402.327.045-.009.077-.027.095-.055.018-.009.027-.027.027-.055 0-.018-.014-.032-.041-.041a.188.188 0 0 0-.123-.014c-4.083.6-6.797.514-8.143-.259a100.474 100.474 0 0 0 5.047-2.919c1.337.964 3.783.987 7.338.068a.175.175 0 0 0 .082-.041c.018-.027.018-.045 0-.054 0-.027-.023-.041-.068-.041a.155.155 0 0 0-.109-.014c-3.41.882-5.756.864-7.038-.054.8-.5 1.573-1 2.319-1.5a91.148 91.148 0 0 0 2.673-1.923c1.428.482 2.923.305 4.487-.532.027-.018.041-.036.041-.055.009-.027 0-.05-.027-.068a.22.22 0 0 0-.109 0 .174.174 0 0 0-.096.027c-1.437.773-2.805.941-4.105.505a68.452 68.452 0 0 0 3.328-2.714c.064-.027.082-.068.054-.123-.018-.036-.059-.064-.123-.082a.308.308 0 0 0-.205-.014.345.345 0 0 0-.177.068 65.42 65.42 0 0 1-6.069 4.651c-2.224-1.036-2.756-2.195-1.592-3.477z" fill="#86b65a"/>
  <path d="M18.317 4.583c.009.018.005.041-.014.068-1.164 1.282-.632 2.441 1.596 3.478a65.287 65.287 0 0 0 6.069-4.651.352.352 0 0 1 .177-.068.302.302 0 0 1 .205.014c.064.018.105.045.123.082.027.055.009.095-.054.123a68.452 68.452 0 0 1-3.328 2.714c1.3.436 2.669.268 4.105-.505a.169.169 0 0 1 .096-.027.22.22 0 0 1 .109 0c.027.018.036.041.027.068 0 .018-.014.036-.041.055-1.564.837-3.06 1.014-4.487.532a93.052 93.052 0 0 1-2.673 1.923c-.746.5-1.519 1-2.319 1.5 1.282.918 3.628.937 7.038.054a.155.155 0 0 1 .109.014c.045 0 .068.014.068.041.018.009.018.027 0 .054a.175.175 0 0 1-.082.041c-3.555.918-6.001.896-7.338-.068a100.03 100.03 0 0 1-5.047 2.919c1.346.773 4.06.859 8.143.259a.182.182 0 0 1 .123.014c.027.009.041.023.041.041 0 .027-.009.046-.027.055-.018.027-.05.045-.095.055-4.21.6-7.01.491-8.402-.327a87.884 87.884 0 0 1-5.837 2.878c1.809.973 5.378.973 10.707 0 .046-.009.077-.009.096 0 .045.009.068.023.068.041 0 .027-.009.05-.027.068-.009.018-.036.032-.082.041-5.483 1.009-9.147.996-10.993-.041-.937.427-1.905.85-2.905 1.268h-.041a.462.462 0 0 1-.205.041.546.546 0 0 1-.177-.055c-.018-.018-.027-.036-.027-.055v-.068a.09.09 0 0 1 .041-.041.33.33 0 0 1 .082-.055c.982-.418 1.941-.841 2.878-1.268-1.418-1-1.787-2.723-1.105-5.169a.163.163 0 0 1 .054-.055.092.092 0 0 1 .082-.014c.054 0 .095.009.123.027.027.009.032.027.014.055-.655 2.391-.3 4.078 1.064 5.06a94.683 94.683 0 0 0 5.851-2.878c-1.046-.828-1.478-2.151-1.296-3.969.009-.036.027-.059.055-.068a.116.116 0 0 1 .096-.014.17.17 0 0 1 .095 0c.027.018.041.041.041.068-.182 1.773.223 3.06 1.214 3.86a80.356 80.356 0 0 0 7.406-4.433c-2.346-1.091-2.901-2.319-1.664-3.682a.538.538 0 0 1 .109-.041c.036-.018.064-.023.082-.014.043.009.07.027.079.055z" fill="#b5da99"/>
</svg>
