<svg xmlns="http://www.w3.org/2000/svg" viewBox="0 0 43.154 23.144">
  <path d="M10.216 8.617a7.695 7.695 0 0 1-1.05-.314c-.4-.073-.846-.1-1.337-.082-.082 0-.168.005-.259.014a8.823 8.823 0 0 0-.505.041c-.937.082-1.832.246-2.687.491C3.36 9.049 2.2 8.962.9 8.508a2.497 2.497 0 0 1-.859-.518l-.014 3.355c.245.236.536.418.873.546 1.3.455 2.46.541 3.478.259a14.467 14.467 0 0 1 3.191-.532c.091-.009.177-.014.259-.014.491-.018.937.009 1.337.082.336.127.687.232 1.05.314.336.082.673.141 1.009.177V8.795a8.068 8.068 0 0 1-1.008-.178z" fill="#546f32"/>
  <path d="M11.47 6.025a1.874 1.874 0 0 0-.327-.627c-.264-.364-.65-.646-1.159-.846-1.427-.573-2.328-.609-2.701-.109l-.109.191a2.454 2.454 0 0 0-.259.818 3.383 3.383 0 0 0-.014.518c0 .073.009.141.027.205.009.073-.027.273-.109.6-.082.318-.514.691-1.296 1.118-.782.409-1.655.614-2.619.614-.964-.018-1.564-.186-1.8-.505-.245-.327-.414-.464-.505-.409-.109.036-.25.114-.423.232l-.136.109-.041.014.041.041c.245.227.532.4.859.518 1.3.455 2.46.541 3.478.259.855-.245 1.75-.409 2.687-.491.164-.018.332-.032.505-.041.091-.009.177-.014.259-.014.491-.018.937.009 1.337.082.336.127.687.232 1.05.314.336.082.673.141 1.009.177h.014a.534.534 0 0 1 .027-.068c.365-1.099.433-2 .205-2.7z" fill="#709342"/>
  <path d="M43.14 11.208a7.278 7.278 0 0 1-.068.75 7.322 7.322 0 0 1-.109.641c-.455 2.146-1.714 4.137-3.778 5.974-.373.318-.768.636-1.187.955l-.014.014a7.823 7.823 0 0 1-.15.096.994.994 0 0 1-.45.123.807.807 0 0 1-.464-.095c-.098-.054-.148-.122-.15-.205v3.341c-.009.1.041.182.15.245a.8.8 0 0 0 .464.096.994.994 0 0 0 .45-.123c.046-.027.096-.059.15-.095l.014-.014c3.01-2.264 4.701-4.787 5.074-7.57.055-.373.082-.741.082-1.105 0-.118-.005-.232-.014-.341v-2.687m-4.173 5.06c.146-.491.223-1 .232-1.528.009-.927-.15-1.782-.477-2.564-.618-1.455-1.814-2.687-3.587-3.696-2.737-1.564-6.183-2.26-10.338-2.087-2.992.118-5.733.664-8.224 1.637a8.889 8.889 0 0 0-.559.218 10.54 10.54 0 0 1-3.273.6 13.024 13.024 0 0 1-1.5-.055h-.014v3.382h.014c.464.046.964.064 1.5.055a10.54 10.54 0 0 0 3.273-.6c.191-.082.377-.155.559-.218 2.491-.973 5.233-1.518 8.224-1.637 4.155-.173 7.601.523 10.338 2.087 1.773 1.009 2.969 2.241 3.587 3.696.099.228.181.465.245.71z" fill="#9c3321"/>
  <path d="M39.198 14.741a5.685 5.685 0 0 1-.232 1.528c-.318 1.055-.973 2.014-1.964 2.878h-.014a2.232 2.232 0 0 0-.164.15.311.311 0 0 0-.055.109v.055c.002.083.052.151.15.205.118.073.273.104.464.095a.994.994 0 0 0 .45-.123c.046-.027.096-.059.15-.096l.014-.014c.418-.318.814-.636 1.187-.955 2.064-1.837 3.323-3.828 3.778-5.974.046-.209.082-.423.109-.641.036-.255.059-.505.068-.75.009-.164.014-.323.014-.477-.055-3.001-1.882-5.528-5.483-7.583C33.587.82 28.418-.216 22.162.038c-3.819.155-7.365.768-10.638 1.841-.673.218-1.337.459-1.991.723a8.884 8.884 0 0 0-.409.218c-.864.482-1.477 1.023-1.841 1.623.373-.5 1.273-.464 2.701.109.509.2.896.482 1.159.846.146.182.255.391.327.627.227.7.159 1.6-.205 2.701a.534.534 0 0 0-.027.068c.464.045.964.064 1.5.055a10.54 10.54 0 0 0 3.273-.6c.191-.082.377-.155.559-.218 2.491-.973 5.233-1.518 8.224-1.637 4.155-.173 7.601.523 10.338 2.087 1.773 1.009 2.969 2.241 3.587 3.696.329.781.489 1.636.479 2.564z" fill="#dd4e34"/>
</svg>
