<svg xmlns="http://www.w3.org/2000/svg" viewBox="0 0 39.056 26.958">
  <path d="M38.994 17.835v-3.86a6.248 6.248 0 0 1-.546 1.8c-.736 1.5-2.128 2.823-4.174 3.969-3.546 1.982-7.038 2.05-10.475.205-3.17-1.708-7.308-2.922-12.411-3.642l.641.068c-.54-.125-.922-.18-1.146-.164-.947-.119-1.461-.183-1.541-.191-4.374-.946-7.22-2.423-8.538-4.433a4.759 4.759 0 0 1-.668-1.623A5.984 5.984 0 0 1 0 8.859l.014 5.333a3.316 3.316 0 0 0 0 .423c.009.336.05.677.123 1.023.582 2.828 3.719 4.624 9.411 5.387l.396.014c5.801 1.218 10.42 2.746 13.857 4.583 3.437 1.846 6.929 1.778 10.475-.205 3.292-1.837 4.883-4.146 4.774-6.929a8.025 8.025 0 0 0-.056-.653M7.543 11.711a.867.867 0 0 1-.055-.041c-.514-.084-.496-.071.055.041M3.506 9.433l1.228 1.296c.457.27 1.334.556 2.632.859C2.994 8.51 3.68 5.751 9.426 3.309c-5.248 1.673-7.221 3.715-5.92 6.124z" fill="#e9e9e9"/>
  <path d="M39.049 13.47a7.94 7.94 0 0 0-.055-1.309c-.382-3.082-2.623-5.806-6.724-8.17S23.405.313 17.976.049c-5.41-.273-9.888.582-13.434 2.564C1.487 4.322-.027 6.377 0 8.778v.082c.009.355.055.723.136 1.105.118.573.341 1.114.668 1.623 1.318 2.009 4.164 3.487 8.538 4.433.08.008.594.072 1.541.191.224-.016.606.039 1.146.164l-.641-.068c5.104.72 9.241 1.934 12.411 3.642 3.437 1.846 6.929 1.778 10.475-.205 2.046-1.146 3.437-2.469 4.174-3.969a6.248 6.248 0 0 0 .546-1.8c.028-.165.046-.333.055-.506M4.733 10.729L3.505 9.433c-1.3-2.41.673-4.451 5.919-6.124-5.745 2.442-6.432 5.201-2.06 8.279-1.297-.303-2.174-.59-2.631-.859m2.755.941a.652.652 0 0 0 .055.041c-.551-.112-.569-.125-.055-.041z" fill="#fff"/>
</svg>
