<svg xmlns="http://www.w3.org/2000/svg" viewBox="0 0 27.823 17.23">
  <path d="M14.839 11.556a1.3 1.3 0 0 1 .232.205c.064.082.1.168.109.259v.082c.9-.073 1.664-.291 2.291-.655.064-.036.123-.073.177-.109.837-.546 1.15-1.246.941-2.1a2.8 2.8 0 0 0-.518-1.023l-.695.409c.1.173.173.35.218.532.127.491.041.923-.259 1.296a2.929 2.929 0 0 1-.068.096 3.098 3.098 0 0 1-.614.464 4.401 4.401 0 0 1-.968.396 8.238 8.238 0 0 1-.846.148m-2.85-5.892l.682-.396c-.5-.1-1.009-.168-1.528-.205-1.6-.109-2.887.118-3.86.682-.546.309-.909.673-1.091 1.091h.041c.309.009.591.073.846.191.155-.346.445-.641.873-.887.818-.473 1.905-.659 3.26-.559.254.019.513.046.777.083z" fill="#918778"/>
  <path d="M6.901 8.323a2.942 2.942 0 0 1-.505.041 2.126 2.126 0 0 1-.982-.245 1.295 1.295 0 0 1-.164-.109.546.546 0 0 0-.082-.068l-.014-.027a3.589 3.589 0 0 0-.109-.136c-.536-.682-.896-1.391-1.077-2.128v-.014a4.092 4.092 0 0 1-.109-.791l-.014 1.596v.137c.009.291.05.595.123.914.173.7.5 1.373.982 2.018.727-.345 1.446-.7 2.155-1.064.182-.1.364-.195.546-.286v-.423c-.018.164-.127.305-.327.423l-.218.109-.205.053z" fill="#c6c1b7"/>
  <path d="M12.507 11.951v-.055c0-.173.114-.327.341-.464.245-.145.55-.214.914-.204.373.009.696.095.968.259h.027a.546.546 0 0 1 .082.068c.3-.036.582-.086.846-.15a43.056 43.056 0 0 1 1.582-.859c.027-.036.05-.068.068-.096.3-.373.387-.805.259-1.296a2.074 2.074 0 0 0-.218-.532c-4.11 2.146-7.288 4.396-9.534 6.751l-.027-.014v1.855l.027.014c1.264-1.318 2.819-2.605 4.664-3.86v.436c.027.218.177.409.45.573a.35.35 0 0 1 .082.041c.091.036.177.068.259.096a20.937 20.937 0 0 0 4.65.804c3.191.227 5.756-.218 7.692-1.337 1.373-.791 2.096-1.714 2.169-2.769a1.984 1.984 0 0 0 0-.327l.014-1.637a3.281 3.281 0 0 1-.164.832c-.291.755-.964 1.437-2.019 2.046-1.937 1.118-4.501 1.564-7.692 1.337a23.215 23.215 0 0 1-2.155-.232 22.956 22.956 0 0 1-2.495-.572 4.738 4.738 0 0 1-.259-.095.35.35 0 0 0-.082-.041c-.272-.163-.422-.354-.449-.572z" fill="#b4ada3"/>
  <path d="M11.989 5.664a12.077 12.077 0 0 0-.777-.082c-1.355-.1-2.441.086-3.26.559-.427.246-.718.541-.873.887a.829.829 0 0 1 .096.041l.027.027c.282.155.432.332.45.532v.533l.3-.164a69.418 69.418 0 0 0 4.037-2.333z" fill="#706b60"/>
  <path d="M0 11.665l.014 1.868 7.801 3.683v-1.855L0 11.665z" fill="#c8c4bb"/>
  <path d="M13.612.14C10.62-.233 8.156.14 6.22 1.258c-1.509.873-2.296 1.955-2.359 3.246a1.517 1.517 0 0 0 0 .286v.055c.009.255.046.518.109.791v.014c.182.737.541 1.446 1.077 2.128.046.055.082.1.109.136l.014.027a.546.546 0 0 1 .082.068c.045.036.1.073.164.109.282.154.609.236.982.245.182 0 .35-.014.505-.041a4.55 4.55 0 0 0 .205-.055l.218-.109c.2-.118.309-.259.327-.423v-.11c-.018-.2-.168-.377-.45-.532l-.027-.027a.704.704 0 0 0-.096-.041 2.138 2.138 0 0 0-.846-.191h-.041c.182-.418.546-.782 1.091-1.091.973-.564 2.259-.791 3.86-.682.518.036 1.028.105 1.528.205l-.682.396a67.833 67.833 0 0 1-4.038 2.332l-.3.164c-.182.091-.364.186-.546.286-.709.364-1.428.718-2.155 1.064A85.243 85.243 0 0 1 0 11.663l7.815 3.696.027.014c2.246-2.355 5.424-4.605 9.534-6.751l.695-.409c.255.327.427.668.518 1.023.209.855-.105 1.555-.941 2.1a3.432 3.432 0 0 1-.177.109c-.627.364-1.391.582-2.291.655v-.082a.495.495 0 0 0-.109-.259 1.3 1.3 0 0 0-.232-.205.546.546 0 0 0-.082-.068h-.027a1.939 1.939 0 0 0-.968-.259c-.364-.009-.668.059-.914.204-.227.136-.341.291-.341.464v.055c.027.218.177.409.45.573a.35.35 0 0 1 .082.041c.091.036.177.068.259.095.036.009.068.018.095.027a22.956 22.956 0 0 0 2.4.545c.7.109 1.419.186 2.155.232 3.191.227 5.756-.218 7.692-1.337 1.055-.609 1.728-1.291 2.019-2.046.091-.273.145-.55.164-.832v-.055a3.542 3.542 0 0 0-.259-1.214c-.655-1.655-2.255-3.201-4.801-4.637a.991.991 0 0 0-.096-.055 2.157 2.157 0 0 1-.123-.068l-.109-.068c-.691-.382-1.096-.605-1.214-.668C18.867 1.258 16.33.476 13.612.14z" fill="#f7f1e6"/>
</svg>
