<svg id="Layer_1" xmlns="http://www.w3.org/2000/svg" viewBox="0 0 34.125 21.795">
  <style>
    .st2{fill:#3e4055}.st3{fill:#66687d}
  </style>
  <g transform="translate(1065.25 288.65)">
    <g id="people_0_Layer14_0_FILL">
      <path d="M-1051.638-272.256a2.22 2.22 0 0 0 .205-.777l.014-.314c-.018-1.055-.687-1.955-2.005-2.701-1.337-.764-2.96-1.146-4.869-1.146-1.909 0-3.542.387-4.896 1.159-1.364.773-2.05 1.7-2.059 2.782V-273.144c.009.327.082.641.218.941.291.655.882 1.232 1.773 1.732 1.346.773 2.973 1.155 4.883 1.146 1.909 0 3.546-.386 4.91-1.159.917-.526 1.526-1.117 1.826-1.772m-3.874-2.619a.52.52 0 0 0 .123.068c.691.427 1.032.941 1.023 1.541a1.5 1.5 0 0 1-.232.791 2.93 2.93 0 0 0-.136.177c-.2.237-.468.45-.805.641-.782.436-1.723.655-2.823.655-1.091 0-2.023-.218-2.796-.655a3.657 3.657 0 0 1-.764-.587 1.185 1.185 0 0 1-.136-.191 1.38 1.38 0 0 1-.273-.818c.018-.591.382-1.1 1.091-1.528a.721.721 0 0 0 .109-.068c.791-.446 1.728-.668 2.81-.668 1.1-.008 2.036.206 2.809.642z" fill="#c5ca8a"/>
      <path d="M-1055.389-274.806a.563.563 0 0 1-.123-.068c-.773-.436-1.709-.65-2.81-.641-1.082 0-2.019.223-2.81.668a.721.721 0 0 1-.109.068c-.709.427-1.073.937-1.091 1.528 0 .291.091.564.273.818.036.064.082.127.136.191.173-.209.4-.395.682-.559a.721.721 0 0 1 .109-.068c.791-.455 1.728-.682 2.81-.682 1.1-.009 2.037.209 2.81.655a3.038 3.038 0 0 1 .778.6c.045-.064.091-.123.136-.177a1.5 1.5 0 0 0 .232-.791c.009-.601-.332-1.115-1.023-1.542m3.955 1.773a2.166 2.166 0 0 1-.205.777c-.3.655-.909 1.246-1.828 1.773-1.364.773-3.001 1.159-4.91 1.159-1.909.009-3.537-.373-4.883-1.146-.891-.5-1.482-1.077-1.773-1.732a2.42 2.42 0 0 1-.218-.941v1.937c-.009 1.1.655 2.028 1.991 2.782 1.346.764 2.973 1.141 4.883 1.132 1.909 0 3.546-.387 4.91-1.159 1.309-.746 1.991-1.637 2.046-2.673l-.013-1.909z" fill="#9ba166"/>
    </g>
  </g>
  <g transform="translate(982.05 352.65)">
    <g id="people_0_Layer13_0_FILL">
      <path class="st2" d="M-967.402-343.88c1.346.764 2.973 1.141 4.883 1.132 1.909 0 3.546-.386 4.91-1.159 1.309-.746 1.991-1.637 2.046-2.673l-.014-1.909a2.166 2.166 0 0 1-.205.777c-.3.655-.909 1.246-1.828 1.773-1.364.773-3.001 1.159-4.91 1.159-1.909.009-3.537-.373-4.883-1.146-.891-.5-1.482-1.077-1.773-1.732a2.42 2.42 0 0 1-.218-.941v1.937c-.008 1.1.656 2.027 1.992 2.782m7.87-6.383a.563.563 0 0 1-.123-.068c-.773-.436-1.709-.65-2.81-.641-1.082 0-2.019.223-2.81.668a.721.721 0 0 1-.109.068c-.709.427-1.073.936-1.091 1.528 0 .291.091.564.273.818.036.064.082.127.136.191.173-.209.4-.396.682-.559a.721.721 0 0 1 .109-.068c.791-.455 1.728-.682 2.81-.682 1.1-.009 2.037.209 2.81.655a3.038 3.038 0 0 1 .778.6c.045-.064.091-.123.136-.177a1.51 1.51 0 0 0 .232-.791c.009-.601-.332-1.115-1.023-1.542z"/>
      <path class="st3" d="M-962.437-352.65c-1.909 0-3.542.386-4.896 1.159-1.364.773-2.05 1.7-2.06 2.782V-348.6c.009.327.082.641.218.941.291.655.882 1.232 1.773 1.732 1.346.773 2.973 1.155 4.883 1.146 1.909 0 3.546-.386 4.91-1.159.918-.527 1.528-1.118 1.828-1.773a2.22 2.22 0 0 0 .205-.777l.014-.314c-.018-1.055-.687-1.955-2.005-2.701-1.337-.763-2.96-1.145-4.87-1.145m2.782 2.319a.52.52 0 0 0 .123.068c.691.427 1.032.941 1.023 1.541a1.5 1.5 0 0 1-.232.791 3.407 3.407 0 0 0-.136.177c-.2.236-.468.45-.805.641-.782.437-1.723.655-2.823.655-1.091 0-2.023-.218-2.796-.655a3.656 3.656 0 0 1-.764-.586 1.185 1.185 0 0 1-.136-.191 1.38 1.38 0 0 1-.273-.818c.018-.591.382-1.1 1.091-1.528a.721.721 0 0 0 .109-.068c.791-.445 1.728-.668 2.81-.668 1.1-.01 2.037.204 2.809.641z"/>
    </g>
  </g>
  <g transform="translate(1075.65 346.65)">
    <g id="people_0_Layer13_19_FILL">
      <path class="st2" d="M-1043.571-326.014c1.309-.746 1.991-1.637 2.046-2.673l-.014-1.909a2.166 2.166 0 0 1-.205.777c-.3.655-.909 1.246-1.828 1.773-1.364.773-3.001 1.159-4.91 1.159-1.909.009-3.537-.373-4.883-1.146-.891-.5-1.482-1.077-1.773-1.732a2.42 2.42 0 0 1-.218-.941v1.937c-.009 1.1.655 2.028 1.991 2.782 1.346.764 2.974 1.141 4.883 1.132 1.91 0 3.547-.386 4.911-1.159m-1.923-6.356a.54.54 0 0 1-.123-.068c-.773-.436-1.709-.65-2.81-.641-1.082 0-2.019.223-2.81.668a.721.721 0 0 1-.109.068c-.709.427-1.073.936-1.091 1.528 0 .291.091.564.273.818.036.064.082.127.136.191.173-.209.4-.396.682-.559a.721.721 0 0 1 .109-.068c.791-.455 1.728-.682 2.81-.682 1.1-.009 2.037.209 2.81.655a3.038 3.038 0 0 1 .778.6c.046-.064.091-.123.136-.177a1.5 1.5 0 0 0 .232-.791c.009-.601-.332-1.115-1.023-1.542z"/>
      <path class="st3" d="M-1041.525-330.911c-.018-1.055-.687-1.955-2.005-2.7-1.337-.764-2.96-1.146-4.869-1.146-1.909 0-3.541.386-4.896 1.159-1.364.773-2.05 1.7-2.059 2.782V-330.707c.009.327.082.641.218.941.291.655.882 1.232 1.773 1.732 1.346.773 2.974 1.155 4.883 1.146 1.91 0 3.546-.386 4.91-1.159.918-.527 1.527-1.118 1.828-1.773a2.22 2.22 0 0 0 .205-.777l.012-.314m-4.092-1.527a.52.52 0 0 0 .123.068c.691.427 1.032.941 1.023 1.541a1.5 1.5 0 0 1-.232.791 2.93 2.93 0 0 0-.136.177c-.2.236-.468.45-.805.641-.782.436-1.723.655-2.823.655-1.091 0-2.023-.218-2.796-.655a3.656 3.656 0 0 1-.764-.586 1.185 1.185 0 0 1-.136-.191 1.38 1.38 0 0 1-.273-.818c.018-.591.382-1.1 1.091-1.528a.721.721 0 0 0 .109-.068c.791-.445 1.728-.668 2.81-.668 1.1-.009 2.036.204 2.809.641z"/>
    </g>
  </g>
</svg>
