<svg xmlns="http://www.w3.org/2000/svg" viewBox="0 0 33.852 24.918">
  <path d="M1.105 14.785v1.814c.227.364.491.714.791 1.05v-1.814a9.134 9.134 0 0 1-.791-1.05m4.569 3.996a.161.161 0 0 1-.041-.027 25.626 25.626 0 0 1-1.159-.709v1.814c.364.236.75.473 1.159.709a.161.161 0 0 0 .041.027v-1.814m.955.505l-.164-.082v1.814l.164.082v-1.814m-2.892-1.76a11.53 11.53 0 0 1-1.159-.982v1.814c.346.336.732.664 1.159.982v-1.814M0 11.239V12.78a7.011 7.011 0 0 0 .518 2.728l.027-1.759a6.997 6.997 0 0 1-.491-1.787A10.812 10.812 0 0 1 0 11.239z" fill="#815f83"/>
  <path d="M.519 15.508c.164.364.359.727.586 1.091v-1.814a8.278 8.278 0 0 1-.559-1.036l-.027 1.759m5.946 3.696a30.416 30.416 0 0 1-.791-.423v1.814c.264.146.527.286.791.423v-1.814m-3.887-.846v-1.814a8.402 8.402 0 0 1-.682-.709v1.814c.209.245.437.482.682.709m1.159-.832v1.814c.237.173.482.346.737.518v-1.814c-.255-.172-.5-.345-.737-.518z" fill="#937596"/>
  <path d="M9.152 19.695l-.123.068h.014l.273-.15-.164.082M32.093 4.433h.014v-.014l1.228-.696-.246-.136C29.397 1.541 24.928.518 19.682.518 14.427.509 9.935 1.523 6.207 3.56 2.879 5.37 1.02 7.515.629 9.998a4.833 4.833 0 0 0-.095.955c-.036 2.901 1.796 5.374 5.496 7.42.391.218.791.423 1.2.614l.014.014v-.027l1.296-.655.027-.014c-.009-.009-.018-.014-.027-.014a.35.35 0 0 0-.082-.041 22.629 22.629 0 0 1-1.5-.723 14.078 14.078 0 0 1-1.391-.818c-2.5-1.646-3.737-3.564-3.71-5.756.027-2.546 1.778-4.724 5.251-6.533A18.515 18.515 0 0 1 9.44 3.397c2.964-1.118 6.374-1.678 10.229-1.678 3.655 0 6.906.514 9.752 1.541.935.327 1.826.718 2.672 1.173z" fill="#efeeee"/>
  <path d="M7.243 18.972v1.827l1.296-.75v-1.732l-1.296.655m1.909-.982V19.695l.164-.082 1.459-.859v-1.582l-1.623.818z" fill="#cfd0d0"/>
  <path d="M7.229 18.985l-.6.3v1.814l.055.027.559-.327v-1.8l-.014-.014z" fill="#736077"/>
  <path d="M9.138 18.003l-.573.3-.027.014v1.732l.491-.286.123-.068v-1.678l-.014-.014z" fill="#957c99"/>
  <path d="M31.916 6.383h.014l.327-.191-.15.082-.191.109M30.17 5.51l1.446-.805c-3.31-1.655-7.292-2.482-11.948-2.482-4.774 0-8.852.85-12.234 2.551-3.382 1.709-5.092 3.769-5.128 6.178-.018 1.519.618 2.896 1.909 4.133.782.746 1.8 1.441 3.055 2.087.4.209.814.405 1.241.586.2.082.409.164.627.245l.014.014v-.027l1.623-.818a22.81 22.81 0 0 1-2.087-.791 8.14 8.14 0 0 1-.382-.177c-2.464-1.155-3.928-2.51-4.392-4.064a6.782 6.782 0 0 0-.082-.3 5.44 5.44 0 0 1-.068-.859c.027-2.046 1.591-3.787 4.692-5.224 3.091-1.427 6.824-2.141 11.198-2.141 4.065-.002 7.57.63 10.516 1.894z" fill="#f1f0f0"/>
  <path d="M31.916 6.383l-.3.164-1.446.832V5.51c-2.946-1.264-6.451-1.896-10.516-1.896-4.374 0-8.106.714-11.198 2.141-3.101 1.437-4.665 3.178-4.692 5.224 0 .291.023.577.068.859.7-1.682 2.241-3.078 4.624-4.187C11.547 6.224 15.28 5.51 19.654 5.51c4.046 0 7.547.627 10.502 1.882l.014.014h.014l1.746-1.023h-.014z" fill="#dfdfde"/>
  <path d="M33.348 5.551l.505-.286V3.437l-.505.286v1.828m-1.241-1.118h-.014l-.477.273v1.841l.3-.164.191-.109V4.433z" fill="#977a9b"/>
  <path d="M33.089 3.587l.246.136c.009 0 .013.005.014.014v-.014l.505-.286a74.244 74.244 0 0 0-.382-.218C29.671 1.073 25.075 0 19.683 0 14.273-.009 9.649 1.055 5.812 3.191S.038 7.919.002 10.965v.272c.009.236.027.477.055.723.082.609.246 1.205.491 1.787.155.345.341.691.559 1.036.227.355.491.705.791 1.05.209.245.436.482.682.709.346.336.732.664 1.159.982.237.173.482.345.737.518.364.236.75.473 1.159.709a.161.161 0 0 0 .041.027c.264.145.527.286.791.423l.164.082.6-.3a18.29 18.29 0 0 1-1.2-.614C2.33 16.323.498 13.85.535 10.949c0-.318.032-.637.095-.955.391-2.482 2.25-4.628 5.578-6.438C9.936 1.519 14.428.505 19.683.514c5.245.004 9.714 1.027 13.406 3.073z" fill="#c19bc7"/>
  <path d="M31.616 4.705l.477-.273a18.546 18.546 0 0 0-2.673-1.173c-2.846-1.027-6.097-1.541-9.752-1.541-3.855 0-7.265.559-10.229 1.678-.809.291-1.587.632-2.332 1.023-3.473 1.809-5.224 3.987-5.251 6.533-.027 2.191 1.209 4.11 3.71 5.756.418.282.882.555 1.391.818.482.255.982.496 1.5.723a.35.35 0 0 1 .082.041c.009 0 .018.004.027.014l.573-.3a26.87 26.87 0 0 1-.627-.245 17.473 17.473 0 0 1-1.241-.586c-1.255-.646-2.273-1.341-3.055-2.087-1.291-1.237-1.928-2.614-1.909-4.133.036-2.41 1.746-4.469 5.128-6.178 3.383-1.7 7.461-2.551 12.234-2.551 4.654-.001 8.637.827 11.947 2.481z" fill="#b394b7"/>
  <path d="M31.616 4.705l-1.446.805v1.869l1.446-.832V4.705m.491-.286v1.855l.15-.082 1.091-.641V3.737c0-.009-.005-.014-.014-.014l-1.227.696z" fill="#c6c5c5"/>
  <g>
    <path d="M23.414 24.301c.211.293.443.475.788.589.612.203.875-.762.266-.964a.297.297 0 0 1-.19-.13c-.373-.518-1.241-.019-.864.505z" fill="#56ab46"/>
  </g>
</svg>
