<svg xmlns="http://www.w3.org/2000/svg" viewBox="0 0 55.572 33.984">
  <path d="M55.558 17.148a9.57 9.57 0 0 1-.109 1.009c-.555 2.946-2.923 5.633-7.106 8.061-3.437 2-6.71 2.946-9.82 2.837a13.396 13.396 0 0 1-3.232-.532 1.393 1.393 0 0 1-.177.123c-2.446 1.719-6.069 2.623-10.87 2.714-4.919.1-10.225-1.346-15.917-4.337-4.81-2.519-7.533-5.137-8.17-7.856a5.535 5.535 0 0 1-.15-1.159v2.523a.283.283 0 0 0 0 .123c.073 3.128 2.846 6.124 8.32 8.988 5.692 2.991 10.997 4.437 15.917 4.337 4.919-.091 8.602-1.037 11.048-2.837 4.046 1.173 8.397.405 13.052-2.305 4.655-2.701 7.06-5.724 7.215-9.07a5.524 5.524 0 0 0 0-.546v-2.073M13.987 5.61c-2.819 1.682-3.71 3.328-2.673 4.937.473-.764 1.364-1.537 2.673-2.319 3.31-1.964 8.143-2.914 14.498-2.851 6.374.055 11.311 1.123 14.812 3.205 1.264.746 2.132 1.487 2.605 2.223 1.027-1.6.159-3.214-2.605-4.842-3.501-2.082-8.438-3.151-14.812-3.205-6.356-.062-11.188.888-14.498 2.852z" fill="#d75d27"/>
  <path d="M6.976 9.77c.091.182.2.368.327.559-.2.073-.396.146-.586.218-4.346 1.6-6.583 3.969-6.71 7.106v.15a.346.346 0 0 0 0 .136v.068c.009.391.059.777.15 1.159.637 2.719 3.36 5.337 8.17 7.856 5.692 2.991 10.997 4.437 15.917 4.337 4.801-.091 8.424-.996 10.87-2.714.064-.036.123-.077.177-.123 1.055.309 2.132.486 3.232.532 3.11.109 6.383-.836 9.82-2.837 4.183-2.428 6.551-5.115 7.106-8.061a9.34 9.34 0 0 0 .123-1.404c-.036-2.81-1.641-4.651-4.815-5.524-.345-.1-.714-.186-1.105-.259.327-.337.582-.673.764-1.009 1.028-1.919-.264-3.946-3.873-6.083C42.297 1.358 36.309.067 28.58.003 20.86-.079 15 1.067 10.999 3.44 7.326 5.623 5.985 7.733 6.976 9.77m4.338.777c-1.037-1.609-.146-3.255 2.673-4.937 3.31-1.964 8.143-2.914 14.498-2.851 6.374.055 11.311 1.123 14.812 3.205 2.764 1.628 3.633 3.242 2.605 4.842-.282.418-.696.841-1.241 1.268h.014c.582.064 1.128.15 1.637.259 3.046.655 4.524 2.169 4.433 4.542a6.481 6.481 0 0 1-.164 1.173c-.573 2.319-2.496 4.433-5.769 6.342-3.846 2.219-7.442 2.637-10.789 1.255-2.009 1.91-5.046 2.905-9.111 2.987-4.064.073-8.438-1.123-13.121-3.587-3.828-2-6.056-4.074-6.683-6.219a4.306 4.306 0 0 1-.191-1.514c.1-2.473 2.096-4.351 5.987-5.633.337-.118.687-.227 1.05-.327.009-.009.018-.014.027-.014a3.96 3.96 0 0 1-.667-.791z" fill="#f58857"/>
  <path d="M46.311 12.334a16.389 16.389 0 0 0-1.637-.259v2.619c3.364.355 5.333 1.473 5.906 3.355.091-.391.146-.782.164-1.173.091-2.374-1.387-3.888-4.433-4.542m-34.356-.982c-.364.1-.714.209-1.05.327-3.892 1.282-5.887 3.16-5.987 5.633a4.306 4.306 0 0 0 .191 1.514c.636-2.137 2.928-3.76 6.874-4.869-.009 0-.014-.005-.014-.014l-.014-2.591z" fill="#d95d2e"/>
</svg>
