<svg xmlns="http://www.w3.org/2000/svg" viewBox="0 0 39.526 24.471">
  <path d="M0 13.272v.137c.027 3.092 1.982 5.719 5.865 7.883 3.883 2.155 8.552 3.214 14.007 3.178 5.447-.036 10.088-1.164 13.926-3.382 3.792-2.182 5.701-4.796 5.728-7.842v-1.95a6.66 6.66 0 0 1-.082.873c-.391 2.619-2.273 4.901-5.646 6.847-3.837 2.21-8.479 3.332-13.926 3.369-5.456.046-10.125-1.014-14.007-3.178C2.392 17.279.459 14.979.068 12.306A6.778 6.778 0 0 1 0 11.57v1.702z" fill="#815443"/>
  <path d="M0 11.254v.314c.009.245.032.491.068.736.391 2.673 2.323 4.974 5.797 6.901 3.883 2.164 8.552 3.223 14.007 3.178 5.447-.036 10.088-1.159 13.926-3.369 3.373-1.946 5.255-4.228 5.646-6.847a6.66 6.66 0 0 0 .082-.873v-.123-.15c-.055-3.073-2.014-5.687-5.878-7.842C29.765 1.015 25.096-.044 19.641.001 14.185.037 9.539 1.165 5.702 3.383 1.9 5.575 0 8.199 0 11.254m1.337.068a6.42 6.42 0 0 1 .709-3.014C2.864 6.68 4.405 5.217 6.67 3.916 10.234 1.852 14.562.802 19.654.765c5.074-.036 9.42.95 13.039 2.96 2.337 1.3 3.928 2.778 4.774 4.433.464.918.7 1.891.709 2.919.018 2.873-1.759 5.342-5.333 7.406-3.582 2.064-7.911 3.114-12.984 3.151-5.074.027-9.42-.964-13.039-2.973-3.619-2.02-5.447-4.466-5.483-7.339z" fill="#96614f"/>
  <path d="M2.046 8.308a6.423 6.423 0 0 0-.709 3.014c.036 2.873 1.864 5.319 5.483 7.338 3.619 2.01 7.965 3.001 13.039 2.973 5.074-.036 9.402-1.087 12.984-3.151 3.574-2.064 5.351-4.533 5.333-7.406a6.52 6.52 0 0 0-.709-2.919c-.846-1.655-2.437-3.132-4.774-4.433-3.619-2.01-7.965-2.996-13.039-2.96C14.562.8 10.234 1.851 6.67 3.915 4.405 5.216 2.864 6.68 2.046 8.308m14.103-6.274c0 .091-.059.173-.177.246h-.014a.926.926 0 0 1-.423.109.803.803 0 0 1-.218-.027.59.59 0 0 1-.205-.082c-.118-.055-.182-.136-.191-.246 0-.1.059-.182.177-.245a.815.815 0 0 1 .436-.109.973.973 0 0 1 .437.109c.128.063.187.145.178.245m.968 1.036a2.168 2.168 0 0 1 1.077-.259c.436-.009.8.073 1.091.245.3.164.45.364.45.6.009.246-.136.455-.436.627-.3.173-.659.259-1.078.259-.427 0-.791-.082-1.091-.245-.291-.173-.441-.377-.45-.614 0-.235.146-.44.437-.613m-6.915-.232c.273-.155.609-.232 1.009-.232.427-.009.782.064 1.064.218a.388.388 0 0 1 .096.068c.218.136.323.314.314.532.009.227-.127.423-.409.587-.282.164-.627.245-1.036.245-.409 0-.755-.082-1.037-.245-.209-.109-.345-.241-.409-.396a1.042 1.042 0 0 1-.041-.177c.017-.236.167-.436.449-.6m2.155 3.096a.77.77 0 0 1-.396.095.69.69 0 0 1-.396-.082c-.109-.064-.164-.136-.164-.218 0-.091.055-.173.164-.245a.837.837 0 0 1 .382-.082c.155 0 .286.027.395.082.109.064.164.141.164.232.01.082-.04.155-.149.218m-1.241 2.401c.464 0 .864.091 1.2.273.336.191.505.418.505.682.009.264-.155.491-.491.682-.327.191-.727.286-1.2.286-.473.009-.877-.082-1.214-.273-.327-.182-.491-.405-.491-.668 0-.273.164-.505.491-.696.327-.182.727-.277 1.2-.286m.682 4.201c.3-.173.655-.259 1.064-.259.427 0 .791.082 1.091.245.3.173.45.377.45.614.009.236-.136.441-.436.614-.291.173-.65.259-1.078.259-.418 0-.777-.082-1.077-.245s-.455-.368-.464-.614c.009-.237.159-.442.45-.614m6.424-4.337c-.427-.236-.636-.523-.627-.859-.009-.327.191-.614.6-.859.418-.236.927-.359 1.527-.368.591 0 1.096.118 1.514.355.418.227.627.509.627.846 0 .346-.209.636-.627.873-.409.236-.905.355-1.487.355-.6-.002-1.109-.116-1.527-.343m-1.773 2.182c0-.082.055-.15.164-.205a.696.696 0 0 1 .382-.095.626.626 0 0 1 .382.082c.109.055.164.127.164.218s-.05.164-.15.218c-.109.055-.241.082-.395.082s-.282-.027-.382-.082c-.102-.055-.156-.127-.165-.218M5.715 6.63c.191-.118.432-.177.723-.177.291-.009.536.045.737.164.2.109.305.245.314.409 0 .164-.1.305-.3.423-.2.118-.441.177-.723.177-.309 0-.559-.054-.75-.164-.209-.118-.309-.255-.3-.409-.001-.164.099-.305.299-.423M2.632 9.14c-.109-.064-.164-.136-.164-.218 0-.091.055-.164.164-.218A.885.885 0 0 1 3 8.608c.155 0 .286.032.395.096.1.055.15.123.15.205 0 .091-.05.164-.15.218A.871.871 0 0 1 3 9.236a.9.9 0 0 1-.368-.096m1.064 3.887c-.282-.146-.423-.327-.423-.546s.136-.409.409-.573c.273-.164.605-.245.996-.245s.723.077.996.232c.282.155.418.341.409.559.009.218-.123.409-.396.573-.273.164-.605.245-.996.245-.381 0-.713-.082-.995-.245m2.346 2.141a.871.871 0 0 1 .395-.109.888.888 0 0 1 .396.109c.109.055.164.123.164.205 0 .091-.055.168-.164.232a.77.77 0 0 1-.396.095.87.87 0 0 1-.395-.082c-.109-.064-.164-.141-.164-.232 0-.091.055-.163.164-.218m11.061.505c-.009-.255.145-.468.464-.641.309-.182.682-.268 1.118-.259.455-.009.841.077 1.159.259.327.173.491.391.491.655.018.255-.127.468-.436.641-.318.182-.7.268-1.146.259-.436-.009-.814-.1-1.132-.273-.327-.182-.5-.396-.518-.641m-1.364 3.219c0-.182.114-.341.341-.477.227-.127.5-.191.818-.191.318-.009.591.05.818.177.236.127.355.282.355.464 0 .182-.114.336-.341.464-.227.136-.5.205-.818.205-.318 0-.591-.064-.818-.191-.227-.129-.346-.279-.355-.451M7.87 17.773c-.009-.337.196-.627.614-.873.409-.236.914-.355 1.514-.355.609 0 1.128.118 1.555.355.436.246.655.536.655.873.009.345-.191.636-.6.873s-.918.355-1.528.355c-.6 0-1.118-.118-1.555-.355-.428-.236-.646-.527-.655-.873M30.238 5.061c.427.236.641.527.641.873 0 .345-.214.641-.641.886-.427.246-.941.368-1.541.368-.609.009-1.132-.105-1.568-.341-.437-.246-.65-.541-.641-.887-.009-.346.2-.641.627-.887s.946-.368 1.555-.368c.608.002 1.131.12 1.568.356m4.501 4.079c-.091-.055-.136-.118-.136-.191 0-.082.045-.15.136-.205a.725.725 0 0 1 .355-.082c.136 0 .255.027.355.082.1.046.15.109.15.191s-.05.15-.15.205a.65.65 0 0 1-.341.082 1.183 1.183 0 0 1-.369-.082m-1.774 2.891c.327-.191.727-.286 1.2-.286s.873.091 1.2.273c.336.182.509.409.518.682 0 .264-.164.491-.491.682-.327.191-.727.286-1.2.286-.482.009-.886-.082-1.214-.273-.336-.182-.505-.409-.505-.682.001-.264.165-.491.492-.682m-7.856-9.015c.155 0 .286.027.396.082.109.064.168.145.177.245 0 .082-.055.15-.164.205a.695.695 0 0 1-.396.109.875.875 0 0 1-.396-.109c-.109-.055-.164-.123-.164-.205-.009-.082.041-.159.15-.232a.79.79 0 0 1 .397-.095m-4.46 10.024c-.318-.173-.482-.382-.491-.627.009-.245.168-.459.477-.641.309-.182.677-.273 1.105-.273.445 0 .827.086 1.146.259.3.182.45.391.45.627.009.246-.141.459-.45.641-.3.182-.677.273-1.132.273-.427.01-.795-.077-1.105-.259m6.888-3.109c0-.173.104-.323.314-.45.209-.118.468-.182.777-.191.309-.009.573.05.791.177.209.118.314.264.314.436 0 .182-.105.332-.314.45a1.446 1.446 0 0 1-.764.191c-.318 0-.582-.064-.791-.191-.218-.118-.327-.259-.327-.422m.191 2.332c0 .091-.05.164-.15.218a.837.837 0 0 1-.382.082.874.874 0 0 1-.396-.082c-.1-.055-.15-.123-.15-.205 0-.091.05-.164.15-.218a.74.74 0 0 1 .382-.096.628.628 0 0 1 .382.082c.11.055.164.128.164.219m-.614 1.923c.427-.009.791.073 1.091.245.3.164.45.368.45.614 0 .245-.145.45-.436.614-.291.173-.655.259-1.091.259-.409 0-.768-.082-1.077-.246-.3-.173-.45-.373-.45-.6 0-.245.15-.45.45-.614.29-.172.645-.263 1.063-.272m-1.405 4.883c-.264.145-.582.218-.955.218-.373.009-.696-.059-.968-.205-.264-.146-.391-.327-.382-.546-.009-.218.118-.4.382-.545.255-.155.573-.227.955-.218.373-.009.691.064.955.218.264.145.396.323.396.532s-.128.391-.383.546m-4.514 1.909a.845.845 0 0 1-.382.109.871.871 0 0 1-.395-.109c-.109-.064-.168-.136-.177-.218 0-.082.055-.155.164-.218a.871.871 0 0 1 .395-.109c.155 0 .286.032.395.095.109.064.168.141.177.232-.009.082-.068.155-.177.218m11.361-3.096c-.3.164-.659.245-1.077.245-.418 0-.777-.082-1.077-.245-.3-.164-.455-.364-.464-.6 0-.236.145-.441.436-.614a2.273 2.273 0 0 1 1.077-.273c.427 0 .791.082 1.091.245.3.164.45.368.45.614.01.246-.136.455-.436.628z" fill="#b1694f"/>
  <path d="M31.479 18.128c.418 0 .777-.082 1.077-.245.3-.173.446-.382.436-.627 0-.245-.15-.45-.45-.614-.3-.164-.664-.245-1.091-.245-.409.009-.768.1-1.077.273-.291.173-.436.377-.436.614.009.236.164.437.464.6.299.162.659.244 1.077.244m-3.274-3.696c-.3-.173-.664-.255-1.091-.245-.418.009-.773.1-1.064.273-.3.164-.45.368-.45.614 0 .227.15.427.45.6.309.164.668.246 1.077.246.436 0 .8-.086 1.091-.259.291-.164.436-.368.436-.614.002-.247-.149-.452-.449-.615m-8.047-2.019c.009.245.173.455.491.627.309.182.677.268 1.105.259.455 0 .832-.091 1.132-.273.309-.182.459-.396.45-.641 0-.236-.15-.445-.45-.627-.318-.173-.7-.259-1.146-.259-.427 0-.796.091-1.105.273-.308.182-.467.395-.477.641m14.008-.668c-.473 0-.873.096-1.2.286-.327.191-.491.418-.491.682 0 .273.168.5.505.682.327.191.732.282 1.214.273.473 0 .873-.095 1.2-.286.327-.191.491-.418.491-.682-.009-.273-.182-.5-.518-.682-.328-.182-.729-.273-1.201-.273m-3.287-5.811c0-.346-.214-.637-.641-.873-.436-.236-.959-.355-1.568-.355-.609 0-1.128.123-1.555.368-.427.245-.636.541-.627.887-.009.346.204.641.641.887.436.236.959.35 1.568.341.6 0 1.114-.123 1.541-.368.427-.246.641-.541.641-.887M8.483 16.9c-.418.246-.623.536-.614.873.009.345.227.636.655.873.436.237.955.355 1.555.355.609 0 1.118-.118 1.528-.355.409-.236.609-.527.6-.873 0-.337-.218-.627-.655-.873-.427-.236-.946-.355-1.555-.355-.6.001-1.104.119-1.514.355m9.084-1.868c-.318.173-.473.386-.464.641.018.246.191.459.518.641.318.173.696.264 1.132.273.446.009.827-.077 1.146-.259.309-.173.455-.386.436-.641 0-.264-.164-.482-.491-.655-.318-.182-.705-.268-1.159-.259-.436-.01-.809.077-1.118.259M3.273 12.481c0 .218.141.4.423.546.282.164.614.245.996.245.391 0 .723-.082.996-.245.273-.164.405-.355.396-.573.009-.218-.127-.405-.409-.559-.273-.154-.605-.232-.996-.232s-.723.082-.996.245c-.273.164-.41.355-.41.573m14.321-5.142c-.009.336.2.623.627.859.418.227.928.341 1.528.341.582 0 1.077-.118 1.487-.355.418-.236.627-.527.627-.873 0-.336-.209-.618-.627-.846-.418-.236-.923-.355-1.514-.355-.6.009-1.109.132-1.527.368-.41.248-.61.534-.601.861m-5.278 1.269c-.336-.182-.737-.273-1.2-.273-.473.009-.873.104-1.2.286-.327.191-.491.423-.491.696 0 .264.164.486.491.668.336.191.741.282 1.214.273.473 0 .873-.095 1.2-.286.336-.191.5-.418.491-.682 0-.264-.169-.491-.505-.682m-1.105-6.001c-.4 0-.737.077-1.009.232-.282.164-.432.364-.45.6a1 1 0 0 0 .041.177c.064.154.2.286.409.396.282.164.627.245 1.037.245.409 0 .755-.082 1.036-.245.282-.164.418-.359.409-.587.009-.218-.095-.396-.314-.532a.354.354 0 0 0-.096-.068c-.281-.155-.635-.228-1.063-.218m6.983.204c-.409 0-.768.086-1.077.259-.291.173-.436.377-.436.614.009.236.159.441.45.614.3.164.664.245 1.091.245.418 0 .778-.086 1.078-.259.3-.173.445-.382.436-.627 0-.236-.15-.436-.45-.6-.291-.173-.655-.255-1.092-.246z" fill="#f4b6a1"/>
  <path d="M20.813 21.087a.845.845 0 0 0 .382-.109c.109-.064.168-.136.177-.218-.009-.091-.068-.168-.177-.232a.768.768 0 0 0-.395-.095.867.867 0 0 0-.395.109c-.109.064-.164.136-.164.218.009.082.068.155.177.218.109.064.241.1.395.109m6.765-8.606c.1-.055.15-.127.15-.218s-.055-.164-.164-.218a.626.626 0 0 0-.382-.082.74.74 0 0 0-.382.096c-.1.055-.15.127-.15.218 0 .082.05.15.15.205a.871.871 0 0 0 .396.082.85.85 0 0 0 .382-.083m-2.073-9.383a.871.871 0 0 0-.396-.082.782.782 0 0 0-.396.095c-.109.073-.159.15-.15.232 0 .082.054.15.164.205.109.064.241.1.396.109a.697.697 0 0 0 .396-.109c.109-.055.164-.123.164-.205-.01-.1-.069-.182-.178-.245m9.097 5.851c0 .073.045.136.136.191.109.045.232.073.368.082a.65.65 0 0 0 .341-.082c.1-.055.15-.123.15-.205s-.05-.145-.15-.191a.725.725 0 0 0-.355-.082.727.727 0 0 0-.355.082c-.089.055-.135.123-.135.205m-28.164 6.11a.884.884 0 0 0-.395.109c-.109.055-.164.127-.164.218s.055.168.164.232a.883.883 0 0 0 .395.082.782.782 0 0 0 .396-.095c.109-.064.164-.141.164-.232 0-.082-.055-.15-.164-.205a.879.879 0 0 0-.396-.109M2.469 8.921c0 .082.055.155.164.218a.87.87 0 0 0 .368.095.867.867 0 0 0 .395-.109c.1-.055.15-.127.15-.218 0-.082-.05-.15-.15-.205a.768.768 0 0 0-.395-.096.866.866 0 0 0-.368.096c-.11.056-.164.128-.164.219m14.143 1.255c-.109.055-.164.123-.164.205.009.091.064.164.164.218.1.055.227.082.382.082s.286-.027.395-.082c.1-.054.15-.127.15-.218s-.055-.164-.164-.218a.626.626 0 0 0-.382-.082.706.706 0 0 0-.381.095M11.961 6.03a.782.782 0 0 0 .396-.095c.109-.064.159-.136.15-.218 0-.091-.055-.168-.164-.232a.87.87 0 0 0-.395-.082.837.837 0 0 0-.382.082c-.109.073-.164.155-.164.245 0 .082.055.155.164.218a.686.686 0 0 0 .395.082m4.01-3.751c.118-.073.177-.155.177-.246.009-.1-.05-.182-.177-.245a.957.957 0 0 0-.437-.109.813.813 0 0 0-.436.109c-.118.064-.177.145-.177.245.009.109.073.191.191.246a.61.61 0 0 0 .205.082.803.803 0 0 0 .218.027.938.938 0 0 0 .423-.109h.013z" fill="#884832"/>
  <path d="M24.755 19.287c.373 0 .691-.073.955-.218.255-.155.382-.337.382-.546s-.132-.386-.396-.532c-.264-.155-.582-.227-.955-.218-.382-.009-.7.064-.955.218-.264.145-.391.327-.382.545-.009.218.118.4.382.546.273.146.596.214.969.205m3.096-9.806c-.209.127-.314.277-.314.45 0 .164.109.305.327.423.209.127.473.191.791.191.3 0 .555-.064.764-.191.209-.118.314-.268.314-.45 0-.173-.105-.318-.314-.436-.218-.127-.482-.186-.791-.177-.309.008-.568.071-.777.19M16.08 18.414c-.227.136-.341.295-.341.477.009.173.127.323.355.45.227.127.5.191.818.191.318 0 .591-.068.818-.205.227-.127.341-.282.341-.464 0-.182-.118-.336-.355-.464-.227-.127-.5-.186-.818-.177-.318.001-.59.065-.818.192M6.438 6.453c-.291 0-.532.059-.723.177-.2.118-.3.259-.3.423-.009.155.091.291.3.409.191.109.441.164.75.164.282 0 .523-.059.723-.177.2-.118.3-.259.3-.423-.009-.164-.114-.3-.314-.409-.2-.119-.445-.173-.736-.164m6.424 5.824c-.409 0-.764.086-1.064.259-.291.173-.441.377-.45.614.009.245.164.45.464.614s.659.245 1.077.245c.427 0 .787-.086 1.078-.259.3-.173.445-.377.436-.614 0-.236-.15-.441-.45-.614-.3-.164-.664-.245-1.091-.245z" fill="#cd7b5e"/>
</svg>
