<svg xmlns="http://www.w3.org/2000/svg" viewBox="0 0 34.087 22.42">
  <path d="M17.324 13.779c.036.173.136.364.3.573.146.191.382.423.709.696.255.2.536.405.846.614.173.109.35.218.532.327 1.918 1.1 4.137 1.709 6.656 1.828 1.232.052 2.357-.02 3.374-.216.098-.019.197-.046.292-.079.97-.336 1.767-.742 2.39-1.219 0-.009.005-.018.014-.027.045-.036.095-.073.15-.109a3.95 3.95 0 0 0 1.05-1.282c.146-.291.255-.596.327-.914a1.4 1.4 0 0 1 .055-.259c.036-.227.059-.45.068-.668V17.49c0 .273-.023.541-.068.805a1.486 1.486 0 0 0-.055.259c-.191.855-.65 1.587-1.378 2.196a.85.85 0 0 0-.136.109c-.018.009-.027.023-.027.041-.626.478-1.426.881-2.4 1.21-.088.03-.18.055-.271.073-1.02.206-2.148.278-3.385.217-2.519-.118-4.737-.727-6.656-1.828-.509-.3-.969-.614-1.378-.941-.327-.273-.564-.5-.709-.682-.164-.209-.264-.405-.3-.586v-4.584z" fill="#e8b282"/>
  <path d="M18.211 12.347l.218-.246.014-.014a.215.215 0 0 0 .054-.082c.4-.146.823-.268 1.268-.368 1.037-.227 2.205-.309 3.505-.246 2.3.1 4.333.641 6.097 1.623.045.027.095.054.15.082.8.464 1.437.959 1.909 1.487l.044.047c-.361-.184 1.103.578.966 1.644-.073.572-1.649.79-1.537.906-.272.12-.561.233-.867.339-.095.033-.194.06-.292.079-1.017.196-2.141.268-3.374.216-2.519-.118-4.737-.727-6.656-1.828a27.58 27.58 0 0 1-.532-.327 14.893 14.893 0 0 1-.846-.614c-.327-.273-.564-.505-.709-.696-.164-.209-.264-.4-.3-.573a1.364 1.364 0 0 1-.014-.191v-.082c.027-.109.127-.273.3-.491.073-.082.232-.255.477-.518a.803.803 0 0 0 .125-.147m.9-3.328c.236-.2.523-.396.859-.586.164-.1.336-.191.518-.273 1.173-.555 2.551-.85 4.133-.887.091-.009.177-.014.259-.014.327 0 .659.009.996.027 1.064.036 2.064.173 3 .409 1.146.291 2.214.718 3.205 1.282l.027.014c.389.224.739.455 1.051.693l.514.698c.275.748.412 1.512.412 2.292v.368a5.795 5.795 0 0 1-.068.668 1.486 1.486 0 0 0-.055.259 3.378 3.378 0 0 0-.341-.736c-.291-.518-.732-1.005-1.323-1.459a8.904 8.904 0 0 0-1.173-.777 9.797 9.797 0 0 0-1.146-.587 8.511 8.511 0 0 0-.286-.123c-1.282-.527-2.691-.85-4.228-.968a10.716 10.716 0 0 0-.573-.041c-1.282-.064-2.441.023-3.478.259-.6.127-1.159.3-1.678.518a27.18 27.18 0 0 1-.327.15v-.123a1.447 1.447 0 0 0-.041-.191 2.964 2.964 0 0 0-.205-.709.515.515 0 0 0-.052-.163m-1.2-3.874c.236-.191.505-.373.805-.546 1.546-.882 3.51-1.268 5.892-1.159.646.036 1.268.1 1.869.191a.746.746 0 0 1 .095.055c.336.191.655.377.955.559.9.564 1.705 1.109 2.414 1.637.455.355.873.705 1.255 1.05a10.282 10.282 0 0 0-1.364-.614c-.873-.327-1.8-.573-2.782-.736a17.928 17.928 0 0 0-1.732-.164c-1.628-.082-3.069.077-4.324.477a7.79 7.79 0 0 0-1.568.682c-.555.309-1 .655-1.337 1.037a7.989 7.989 0 0 0-1.282-1.023c.19-.536.558-1.018 1.104-1.446M16.165.29c.191.027.377.05.559.068 1.091.164 2.146.373 3.164.627.491.136.977.277 1.459.423-.418.045-.828.114-1.228.205-.9.191-1.714.496-2.441.914-1.118.636-1.787 1.405-2.005 2.305a2.66 2.66 0 0 0-.068.723c0 .109.009.218.027.327.009.009.014.023.014.041a22.986 22.986 0 0 0-.682-.314 12.098 12.098 0 0 0-2.005-.682.755.755 0 0 0-.041-.095l-.055-.218a2.415 2.415 0 0 1-.055-.368c-.2-1.355.477-2.473 2.032-3.355A7.603 7.603 0 0 1 16.165.29M4.776 5.036a14.57 14.57 0 0 0-.573.205c-.364.1-.773.136-1.227.109-.764-.027-1.437-.205-2.019-.532-.582-.336-.896-.727-.941-1.173a.475.475 0 0 1-.014-.095v-.014a.616.616 0 0 1 .041-.286c.082-.246.264-.455.546-.627l.041-.027c.009-.009.023-.014.041-.014l.027-.027.014-.014a.534.534 0 0 1 .068-.027c.146-.082.286-.159.423-.232.199-.105.949-.371 1.154-.469.665-.319.95-.058 1.44.494.395.445.931.864 1.607 1.257a9.749 9.749 0 0 0 2.1.9 10.22 10.22 0 0 0-1.623.259c-.309.064-.614.141-.914.232a.889.889 0 0 0-.191.081m1.405-3.764a2.234 2.234 0 0 1-.014-.736c.937-.2 1.914-.341 2.932-.423a27.676 27.676 0 0 1 1.978-.095c.173 0 .345-.005.518-.014-.091.073-.182.15-.273.232-.791.736-1.118 1.6-.982 2.591.055.437.191.855.409 1.255.091.164.191.318.3.464a44.25 44.25 0 0 0-1.132-.095 3.833 3.833 0 0 0-.314-.014 15.209 15.209 0 0 0-.655-.014l-.218-.136a2.029 2.029 0 0 1-.15-.082c-1.471-.846-2.272-1.824-2.399-2.933z" fill="#ffe5cc"/>
  <path d="M19.411 10.205l.327-.15a9.242 9.242 0 0 1 1.678-.518c1.036-.236 2.196-.323 3.478-.259.2.009.391.023.573.041 1.537.118 2.946.441 4.228.968.091.036.186.077.286.123.4.173.782.368 1.146.587.437.245.828.505 1.173.777.591.455 1.032.941 1.323 1.459a3.4 3.4 0 0 1 .341.736 4.1 4.1 0 0 1-.327.914 3.95 3.95 0 0 1-1.05 1.282 1.949 1.949 0 0 0-.15.109c-.182-.6-.518-1.164-1.009-1.691-.473-.527-1.109-1.023-1.909-1.487a2.029 2.029 0 0 1-.15-.082c-1.764-.982-3.796-1.523-6.097-1.623-1.3-.064-2.469.018-3.505.246-.446.1-.868.223-1.268.368.245-.273.441-.527.587-.764.225-.39.334-.736.325-1.036m.559-1.773a5.645 5.645 0 0 0-.859.586 2.787 2.787 0 0 0-.273-.477 3.003 3.003 0 0 0-.341-.477 3.699 3.699 0 0 0-.409-.45c.337-.382.782-.727 1.337-1.037a7.815 7.815 0 0 1 1.568-.682c1.255-.4 2.696-.559 4.324-.477.591.027 1.168.082 1.732.164.982.164 1.909.409 2.782.736.394.144.775.31 1.144.498.147.075.286.175.406.289.438.414.812.825 1.123 1.232a7.56 7.56 0 0 1 .995 1.623 9.119 9.119 0 0 0-1.391-.968l-.027-.014a12.827 12.827 0 0 0-3.205-1.282 14.233 14.233 0 0 0-3-.409 18.618 18.618 0 0 0-.996-.027 2.36 2.36 0 0 0-.259.014c-1.582.036-2.96.332-4.133.887-.181.08-.354.171-.518.271M11.323.235c.091-.082.182-.159.273-.232.555-.009 1.118 0 1.691.027.982.055 1.941.141 2.878.259a7.661 7.661 0 0 0-1.323.6c-1.555.882-2.232 2-2.032 3.355.009.127.027.25.055.368l.055.218a.755.755 0 0 1 .041.095 1.04 1.04 0 0 0-.218-.055c-.436-.109-.887-.2-1.35-.273a16.426 16.426 0 0 1-.341-.055 4.006 4.006 0 0 1-.3-.464 3.5 3.5 0 0 1-.409-1.255c-.138-.987.189-1.851.98-2.588M18.715 4.6c-.3.173-.568.355-.805.546-.546.427-.914.909-1.105 1.446a14.596 14.596 0 0 0-.546-.327c-.2-.118-.405-.232-.614-.341 0-.018-.005-.032-.014-.041a2.004 2.004 0 0 1-.027-.327 2.701 2.701 0 0 1 .068-.723c.218-.9.887-1.669 2.005-2.305a8.334 8.334 0 0 1 2.441-.914c.4-.091.809-.159 1.228-.205a26.408 26.408 0 0 1 5.128 2.223c-.6-.091-1.223-.155-1.869-.191-2.38-.11-4.344.277-5.89 1.159M6.168.535c-.036.227-.032.473.014.736.127 1.109.927 2.087 2.401 2.932.045.027.095.055.15.082l.218.136a4.216 4.216 0 0 0-.477 0c-.327 0-.65.014-.968.041a9.706 9.706 0 0 1-2.1-.9l-.034-.02c-1.6-.687-3.944-1.758-2.833-1.745.096.002 3.532-1.242 3.629-1.262z" fill="#fdca97"/>
  <path d="M7.504 4.463c.318-.027.641-.041.968-.041.164-.009.323-.009.477 0 .227 0 .445.004.655.014.1 0 .205.005.314.014.382.027.759.059 1.132.095l.341.055c.464.073.914.164 1.35.273a.918.918 0 0 1 .218.055c.7.173 1.368.4 2.005.682.227.1.455.205.682.314.209.109.414.223.614.341.191.109.373.218.546.327.5.327.927.668 1.282 1.023.155.146.291.296.409.45.127.146.241.305.341.477.109.154.2.314.273.477a.621.621 0 0 1 .055.164c.1.236.168.473.205.709.018.064.032.127.041.191v.123c.009.3-.1.646-.327 1.037a5.436 5.436 0 0 1-.587.764.223.223 0 0 1-.054.082l-.014.014a48.12 48.12 0 0 0-.218.246.453.453 0 0 0-.123-.15 8.546 8.546 0 0 0-1.282-1.009 13.438 13.438 0 0 0-1.16-.682 14.022 14.022 0 0 0-2.687-.996l-.218-.054a14.403 14.403 0 0 0-2.823-.409 42.92 42.92 0 0 1-.314-.027 15.209 15.209 0 0 0-.655-.014 4.216 4.216 0 0 0-.477 0c-.327 0-.65.014-.968.041-.564.055-1.105.141-1.623.259-.309.064-.614.141-.914.232l-.191.082a7.45 7.45 0 0 0-.573.218c-.364.1-.773.136-1.227.109-.764-.036-1.437-.218-2.019-.546-.509-.291-.814-.627-.914-1.009l-.041-.259V3.55a.404.404 0 0 0 .014.095c.045.446.359.837.941 1.173.582.327 1.255.505 2.019.532.455.027.864-.009 1.227-.109.191-.073.382-.141.573-.205a.873.873 0 0 1 .191-.082c.3-.091.605-.168.914-.232a10.304 10.304 0 0 1 1.622-.259z" fill="#e4b585"/>
</svg>
