<svg id="Layer_1" xmlns="http://www.w3.org/2000/svg" viewBox="0 0 35.509 17.346">
  <style>
    .st0{fill:#efce48}.st1{fill:#ebd784}.st2{fill:#fff0b5}.st3{fill:#fee581}
  </style>
  <g transform="translate(1594.9 539.65)">
    <g id="people_0_Layer4_0_FILL">
      <path class="st0" d="M-1575.383-529.814c.082.045.159.095.232.15.509.355 2.346-.091 5.51-1.337 2.737-1.091 4.173-1.955 4.31-2.591a.583.583 0 0 0 0-.177v-2.646c-.009.327-.414.732-1.214 1.214-.555.327-1.291.682-2.21 1.064a29.02 29.02 0 0 1-.886.382c-3.164 1.237-5.001 1.678-5.51 1.323a5.295 5.295 0 0 0-.232-.136v2.754m-2.073-3.628c-.227-.118-.35-.295-.368-.532l-.014 2.673v.041c.009.264.136.459.382.586v-2.768z"/>
      <path class="st1" d="M-1576.815-533.224a5.084 5.084 0 0 0-.477-.15l-.164-.068v2.769h.014a.577.577 0 0 1 .15.055c.782.236 1.418.505 1.91.805V-532.582a.295.295 0 0 1-.109-.055 7.97 7.97 0 0 0-1.324-.587z"/>
      <path class="st2" d="M-1571.291-537.82c-.737 0-1.369.145-1.896.436-.518.3-1.805 1.478-3.86 3.533a4.263 4.263 0 0 0-.409.409l.164.068c.173.045.332.095.477.15.518.182.959.377 1.323.587a.33.33 0 0 0 .109.055 84.344 84.344 0 0 0 3.232-1.337 56.039 56.039 0 0 0 2.1-.982l.709-.368c.509-.273.764-.609.764-1.009v-.041c0-.409-.264-.759-.791-1.05-.535-.301-1.176-.451-1.922-.451z"/>
      <path class="st3" d="M-1573.187-537.384c.527-.291 1.159-.436 1.896-.436.746 0 1.387.15 1.923.45.527.291.791.641.791 1.05v.041c0 .4-.255.736-.764 1.009-.191.1-.427.223-.709.368-.527.264-1.228.591-2.1.982-.927.409-2.005.855-3.232 1.337v.014c.082.045.159.091.232.136.509.355 2.346-.086 5.51-1.323.309-.127.605-.255.886-.382.918-.382 1.655-.737 2.21-1.064.8-.482 1.205-.886 1.214-1.214v-.027a.526.526 0 0 0-.027-.164c-.291-.664-.964-1.287-2.018-1.869-1.055-.582-2.182-.95-3.383-1.105s-2.119-.055-2.755.3c-.646.355-1.664 1.355-3.055 3.001-.882 1.037-1.3 1.805-1.255 2.305.018.236.141.414.368.532.118-.136.255-.273.409-.409 2.054-2.054 3.341-3.232 3.859-3.532z"/>
    </g>
  </g>
  <g transform="translate(1602.3 613.25)">
    <g id="people_0_Layer4_1_FILL">
      <path class="st0" d="M-1578.923-599.8c-.227-.118-.35-.295-.368-.532l-.014 2.673v.041c.009.264.136.459.382.586v-2.768m10.911-1.759c-.555.327-1.291.682-2.21 1.064a29.02 29.02 0 0 1-.886.382c-3.164 1.237-5.001 1.678-5.51 1.323a5.295 5.295 0 0 0-.232-.136v2.755c.082.046.159.096.232.15.509.355 2.346-.091 5.51-1.337 2.737-1.091 4.173-1.955 4.31-2.591a.583.583 0 0 0 0-.177v-2.646c-.009.326-.413.731-1.214 1.213z"/>
      <path class="st1" d="M-1578.759-599.732l-.164-.068v2.769h.014a.59.59 0 0 1 .15.055c.782.236 1.418.505 1.91.805V-598.94a.295.295 0 0 1-.109-.055 7.915 7.915 0 0 0-1.323-.586 5.008 5.008 0 0 0-.478-.151z"/>
      <path class="st2" d="M-1570.044-602.637v-.041c0-.409-.264-.759-.791-1.05-.536-.3-1.177-.45-1.923-.45-.737 0-1.369.146-1.896.437-.518.3-1.805 1.477-3.86 3.533a4.263 4.263 0 0 0-.409.409l.164.068c.173.045.332.095.477.15.518.182.959.377 1.323.586a.311.311 0 0 0 .109.055 84.344 84.344 0 0 0 3.232-1.337 56.039 56.039 0 0 0 2.1-.982l.709-.368c.511-.273.765-.61.765-1.01z"/>
      <path class="st3" d="M-1566.798-602.773v-.027a.522.522 0 0 0-.027-.164c-.291-.664-.964-1.287-2.018-1.869a9.441 9.441 0 0 0-3.383-1.105c-1.2-.155-2.119-.055-2.755.3-.646.355-1.664 1.355-3.055 3.001-.882 1.037-1.3 1.805-1.255 2.305.018.236.141.414.368.532.118-.136.255-.273.409-.409 2.055-2.055 3.342-3.233 3.86-3.533.527-.291 1.159-.437 1.896-.437.746 0 1.387.15 1.923.45.527.291.791.641.791 1.05v.041c0 .4-.255.737-.764 1.009-.191.1-.427.223-.709.368-.527.264-1.228.591-2.1.982-.927.409-2.005.855-3.232 1.337v.014c.082.045.159.091.232.136.509.355 2.346-.086 5.51-1.323.309-.127.605-.255.886-.382.918-.382 1.655-.736 2.21-1.064.8-.48 1.204-.885 1.213-1.212z"/>
    </g>
  </g>
  <g transform="translate(1594.9 539.65)">
    <g id="people_0_Layer4_2_FILL">
      <path class="st0" d="M-1592.213-530.823a5.295 5.295 0 0 0-.232-.136v2.755c.082.045.159.096.232.15.509.355 2.346-.091 5.51-1.337 2.737-1.091 4.173-1.955 4.31-2.591a.583.583 0 0 0 0-.177v-2.646c-.009.327-.414.732-1.214 1.214-.555.327-1.291.682-2.21 1.064a29.02 29.02 0 0 1-.886.382c-3.164 1.235-5.001 1.676-5.51 1.322m-2.687 1.173c.009.264.136.459.382.586v-2.769c-.227-.118-.35-.296-.368-.532l-.014 2.673v.042z"/>
      <path class="st2" d="M-1594.518-531.833l.164.068c.173.046.332.096.477.15.518.182.959.377 1.323.586a.33.33 0 0 0 .109.055 85.3 85.3 0 0 0 3.232-1.337 56.039 56.039 0 0 0 2.1-.982l.709-.368c.509-.273.764-.609.764-1.009v-.041c0-.409-.264-.759-.791-1.05-.536-.3-1.177-.45-1.923-.45-.737 0-1.368.146-1.896.437-.518.3-1.805 1.477-3.86 3.532-.154.136-.29.273-.408.409z"/>
      <path class="st1" d="M-1594.518-531.833v2.769h.014a.577.577 0 0 1 .15.055c.782.236 1.418.505 1.909.805V-530.973a.295.295 0 0 1-.109-.055 7.915 7.915 0 0 0-1.323-.586 4.805 4.805 0 0 0-.477-.15 5.66 5.66 0 0 0-.164-.069z"/>
      <path class="st3" d="M-1593.632-534.67c-.882 1.037-1.3 1.805-1.255 2.305.018.236.141.414.368.532.118-.136.255-.273.409-.409 2.055-2.055 3.342-3.232 3.86-3.532.527-.291 1.159-.437 1.896-.437.746 0 1.387.15 1.923.45.527.291.791.641.791 1.05v.041c0 .4-.255.737-.764 1.009-.191.1-.427.223-.709.368-.527.264-1.228.591-2.1.982-.927.409-2.005.855-3.232 1.337v.014c.082.046.159.091.232.136.509.355 2.346-.086 5.51-1.323.309-.127.605-.255.886-.382.918-.382 1.655-.737 2.21-1.064.8-.482 1.205-.887 1.214-1.214v-.027a.522.522 0 0 0-.027-.164c-.291-.664-.964-1.287-2.019-1.869a9.442 9.442 0 0 0-3.382-1.105c-1.2-.155-2.119-.055-2.755.3-.646.357-1.664 1.357-3.056 3.002z"/>
    </g>
  </g>
</svg>
