<svg xmlns="http://www.w3.org/2000/svg" viewBox="0 0 45.609 28.833">
  <path d="M39.035 22.409c-.409.236-.832.464-1.268.682-4.174 2.091-9.111 3.128-14.812 3.11-6.292-.009-11.68-1.3-16.162-3.873C2.883 20.091.66 17.454.124 14.417a8.462 8.462 0 0 1-.123-1.282v2.537c.036 3.619 2.3 6.715 6.792 9.288 4.483 2.573 9.87 3.864 16.162 3.873 5.701.018 10.638-1.018 14.812-3.11.436-.218.859-.446 1.268-.682 4.428-2.546 6.62-5.628 6.574-9.247v-2.318a8.999 8.999 0 0 1-.095 1.105c-.483 3.009-2.642 5.618-6.479 7.828z" fill="#c85629"/>
  <path d="M38.83 3.887C34.338 1.314 28.946.018 22.654 0 16.353-.009 12.088 1.578 9.861 4.76 3.341 6.642.055 9.347 0 12.875v.259c.009.437.05.864.123 1.282.536 3.037 2.76 5.674 6.669 7.911 4.483 2.573 9.87 3.864 16.162 3.873 5.701.018 10.638-1.018 14.812-3.11.436-.218.859-.446 1.268-.682 3.837-2.21 5.997-4.819 6.479-7.829.055-.364.086-.732.095-1.105v-.164-.15c-.036-3.608-2.295-6.7-6.778-9.273M22.736 1.255c5.71.018 10.602 1.196 14.676 3.532 2.173 1.246 3.773 2.628 4.801 4.146.9 1.319 1.359 2.742 1.378 4.269.036 3.273-1.955 6.069-5.974 8.388-.373.218-.759.423-1.159.614-3.792 1.9-8.274 2.846-13.448 2.837-5.71-.018-10.602-1.196-14.676-3.533-4.074-2.337-6.133-5.142-6.178-8.415-.009-.882.2-1.709.627-2.482C3.947 8.52 6.729 6.847 11.13 5.592c2.018-2.919 5.887-4.364 11.606-4.337z" fill="#f26929"/>
  <path d="M37.412 4.787c-4.074-2.337-8.965-3.514-14.676-3.532-5.719-.027-9.588 1.418-11.607 4.337-4.401 1.255-7.183 2.928-8.347 5.019a4.945 4.945 0 0 0-.627 2.482c.046 3.273 2.105 6.078 6.178 8.415 4.073 2.337 8.965 3.514 14.676 3.533 5.174.009 9.656-.937 13.448-2.837.4-.191.786-.395 1.159-.614 4.019-2.319 6.01-5.115 5.974-8.388-.018-1.528-.477-2.951-1.378-4.269-1.027-1.518-2.627-2.9-4.8-4.146M22.954 2.755c4.765.054 8.911 1.091 12.439 3.11 3.519 2.018 5.297 4.446 5.333 7.283.036 2.391-1.355 4.592-4.173 6.601a76.054 76.054 0 0 0-1.009-.696c-4.81-3.328-9.193-6.747-13.148-10.257-.573-.618-1.218-.991-1.937-1.118-1.391-.164-2.478-.559-3.26-1.187a2.988 2.988 0 0 1-.614-.6c-.527-2.136 1.596-3.181 6.369-3.136m11.184 17.226c.409.2.814.405 1.214.614a28.184 28.184 0 0 1-12.425 2.796c-4.946-.009-9.179-1.023-12.698-3.042-3.528-2.019-5.31-4.451-5.346-7.297-.027-2.491 1.669-3.682 5.087-3.573.9.046 1.614.205 2.141.477.673.345 1.073.873 1.2 1.582.236.555.996.982 2.278 1.282a120.632 120.632 0 0 1 18.549 7.161z" fill="#f6936f"/>
  <path d="M35.352 20.595c-.4-.209-.805-.414-1.214-.614a120.605 120.605 0 0 0-18.549-7.16c-1.282-.3-2.041-.728-2.278-1.282-.127-.709-.527-1.237-1.2-1.582-.527-.273-1.241-.432-2.141-.477-3.419-.109-5.115 1.082-5.087 3.573.036 2.846 1.819 5.278 5.346 7.297 3.519 2.018 7.752 3.032 12.698 3.042a28.199 28.199 0 0 0 12.425-2.797m-9.288-.682c.255-.154.509-.218.764-.191a.687.687 0 0 1 .546.341.752.752 0 0 1 .055.682 1.269 1.269 0 0 1-.491.627c-.246.155-.491.218-.737.191a.761.761 0 0 1-.587-.355c-.109-.2-.118-.427-.027-.682.082-.245.241-.449.477-.613m-4.242.627c.291-.136.559-.182.805-.136.245.045.4.173.464.382.1.209.082.436-.055.682a1.308 1.308 0 0 1-.627.559c-.264.155-.518.209-.764.164-.246-.045-.414-.173-.505-.382-.064-.209-.032-.432.095-.668.137-.255.333-.455.587-.601m-3.587-.422c.118.2.132.427.041.682a1.19 1.19 0 0 1-.491.614c-.245.173-.491.241-.736.205a.725.725 0 0 1-.573-.355c-.109-.2-.118-.423-.027-.668.082-.255.241-.464.477-.627.255-.155.509-.218.764-.191a.726.726 0 0 1 .545.34m-7.815-5.852c-.091.2-.291.391-.6.573a3.113 3.113 0 0 1-1.023.368c-.355.055-.623.027-.805-.082-.182-.1-.227-.255-.136-.464.1-.209.309-.405.627-.587.309-.182.641-.3.996-.355.364-.045.637-.018.818.082.182.111.223.265.123.465m-.845 4.078c-.209-.091-.305-.236-.286-.436.046-.218.2-.432.464-.641.264-.209.564-.355.9-.437.346-.091.623-.091.832 0 .2.082.277.227.232.437-.027.227-.173.441-.437.641a2.084 2.084 0 0 1-.927.436c-.319.082-.578.082-.778 0m4.146.382c.046-.209.2-.418.464-.627.264-.209.564-.355.9-.436.346-.091.623-.091.832 0 .2.091.277.241.232.45-.027.218-.173.427-.436.627a2.298 2.298 0 0 1-.927.436c-.318.082-.577.082-.777 0-.211-.09-.306-.24-.288-.45M35.393 5.865c-3.528-2.019-7.674-3.055-12.439-3.11-4.774-.046-6.897 1-6.369 3.137.173.227.377.427.614.6.782.627 1.868 1.023 3.26 1.187.718.127 1.364.5 1.937 1.118 3.955 3.51 8.338 6.929 13.148 10.257.336.227.673.459 1.009.696 2.819-2.009 4.21-4.21 4.173-6.601-.036-2.838-1.814-5.266-5.333-7.284M24.987 4.828c.182.109.223.264.123.464-.091.209-.291.405-.6.587a2.92 2.92 0 0 1-1.023.355c-.355.055-.623.027-.805-.082-.182-.1-.227-.255-.136-.464.091-.2.296-.391.614-.573a2.975 2.975 0 0 1 1.009-.368c.363-.046.636-.019.818.081m4.009.478c.336-.1.618-.118.846-.055.218.073.332.209.341.409.027.218-.068.441-.286.668-.2.227-.464.396-.791.505-.309.118-.577.141-.805.068-.227-.064-.35-.209-.368-.436 0-.2.091-.418.273-.655.218-.218.481-.386.79-.504m7.843 4.719c.364.064.582.168.655.314.073.136-.023.282-.286.436-.245.155-.586.268-1.023.341a4.336 4.336 0 0 1-1.186.027c-.364-.064-.582-.164-.655-.3-.073-.145.023-.296.286-.45.255-.146.591-.255 1.009-.327a4.887 4.887 0 0 1 1.2-.041m-2.128 2.646a4.939 4.939 0 0 1 1.2-.041c.364.064.582.168.655.314.073.127-.023.268-.286.423-.255.164-.595.277-1.023.341a4.342 4.342 0 0 1-1.187.027c-.364-.055-.582-.15-.655-.286-.082-.136.009-.291.273-.464.246-.137.587-.242 1.023-.314m-.423-4.774c-.136.2-.377.382-.723.546a3.313 3.313 0 0 1-1.077.273c-.373.027-.637-.014-.791-.123-.164-.118-.173-.277-.027-.477.136-.191.382-.368.736-.532a2.964 2.964 0 0 1 1.05-.286c.364-.027.627.014.791.123.155.126.169.285.041.476m3.26 6.792c.364.064.582.168.655.314.073.136-.018.277-.273.423-.255.164-.6.277-1.036.341a4.247 4.247 0 0 1-1.173.027c-.373-.046-.595-.141-.668-.286-.073-.136.018-.286.273-.45.255-.145.596-.255 1.023-.327a4.931 4.931 0 0 1 1.199-.042z" fill="#d75527"/>
  <path d="M14.184 18.099c-.264.209-.418.418-.464.627-.018.209.077.359.286.45.2.082.459.082.777 0 .355-.082.664-.227.927-.436.264-.2.409-.409.436-.627.045-.209-.032-.359-.232-.45-.209-.091-.486-.091-.832 0a2.307 2.307 0 0 0-.898.436m-4.896-.191c-.018.2.077.346.286.436.2.082.459.082.777 0 .355-.073.664-.218.927-.436.264-.2.409-.414.437-.641.045-.209-.032-.355-.232-.437-.209-.091-.486-.091-.832 0a2.303 2.303 0 0 0-.9.437c-.263.209-.417.423-.463.641m.532-3.069c.309-.182.509-.373.6-.573.1-.2.059-.355-.123-.464-.182-.1-.455-.127-.818-.082a2.791 2.791 0 0 0-.996.355c-.318.182-.527.377-.627.587-.091.209-.046.364.136.464.182.109.45.136.805.082a3.138 3.138 0 0 0 1.023-.369m8.456 5.961c.091-.255.077-.482-.041-.682a.73.73 0 0 0-.546-.341 1.202 1.202 0 0 0-.764.191 1.196 1.196 0 0 0-.477.627c-.091.245-.082.468.027.668a.726.726 0 0 0 .573.355c.245.036.491-.032.736-.205.247-.163.41-.368.492-.613m4.351-.396c-.246-.045-.514 0-.805.136a1.49 1.49 0 0 0-.586.6c-.127.236-.159.459-.095.668.091.209.259.336.505.382.245.046.5-.009.764-.164.282-.127.491-.314.627-.559.136-.246.155-.473.055-.682-.065-.208-.219-.336-.465-.381m4.201-.682a1.202 1.202 0 0 0-1.241.805c-.091.255-.082.482.027.682a.765.765 0 0 0 .587.355 1.13 1.13 0 0 0 .737-.191c.236-.164.4-.373.491-.627a.747.747 0 0 0-.055-.682.686.686 0 0 0-.546-.342m11.375-4.719c-.073-.146-.291-.25-.655-.314a4.937 4.937 0 0 0-1.2.041c-.427.073-.768.182-1.023.327-.255.164-.346.314-.273.45.073.146.296.241.668.286.355.045.746.036 1.173-.027.436-.064.782-.177 1.036-.341.256-.145.347-.286.274-.422m-4.637-6.56c.346-.164.586-.345.723-.546.127-.191.114-.35-.041-.477-.164-.109-.427-.15-.791-.123a2.974 2.974 0 0 0-1.05.286c-.355.164-.6.341-.736.532-.145.2-.136.359.027.477.155.109.418.15.791.123a3.31 3.31 0 0 0 1.077-.272m2.345 4.187a4.937 4.937 0 0 0-1.2.041c-.436.073-.777.177-1.023.314-.264.173-.355.327-.273.464.073.136.291.232.655.286.364.045.759.036 1.187-.027.427-.064.768-.177 1.023-.341.264-.155.359-.296.286-.423-.073-.146-.291-.251-.655-.314m1.583-2.292c-.073-.146-.291-.25-.655-.314a4.937 4.937 0 0 0-1.2.041c-.418.073-.755.182-1.009.327-.264.155-.359.305-.286.45.073.136.291.236.655.3.364.045.759.036 1.186-.027.436-.073.777-.186 1.023-.341.263-.154.358-.299.286-.436m-7.652-5.087c-.227-.064-.509-.046-.846.055a2.214 2.214 0 0 0-.791.505c-.182.236-.273.455-.273.655.018.227.141.373.368.436.227.073.496.05.805-.068a1.77 1.77 0 0 0 .791-.505c.218-.227.314-.45.286-.668-.008-.201-.122-.337-.34-.41m-4.733.041c.1-.2.059-.355-.123-.464-.182-.1-.455-.127-.818-.082-.364.064-.7.186-1.009.368-.318.182-.523.373-.614.573-.091.209-.046.364.136.464.182.109.45.136.805.082a2.9 2.9 0 0 0 1.023-.355c.309-.181.509-.377.6-.586z" fill="#ed9f7c"/>
</svg>
